<svg id="svg" version="1.1" width="400" height="397.5384615384615" viewBox="0 0 400 397.5384615384615" xmlns="http://www.w3.org/2000/svg" xmlns:xlink="http://www.w3.org/1999/xlink" ><g id="svgg"><path id="path0" d="" stroke="none" fill="#f3b12a" fill-rule="evenodd"></path><path id="path1" d="" stroke="none" fill="#f3b22b" fill-rule="evenodd"></path><path id="path2" d="M198.380 43.000 C 197.575 43.894,197.213 89.221,197.998 90.874 C 198.480 91.892,198.663 92.021,199.504 91.939 C 201.605 91.735,201.562 92.185,201.932 66.507 L 202.262 43.601 201.558 43.031 C 200.668 42.310,199.015 42.294,198.380 43.000 M164.791 45.407 C 164.104 46.094,164.065 45.874,167.541 60.923 C 168.147 63.546,168.987 67.285,169.407 69.231 C 169.828 71.177,170.989 76.369,171.987 80.769 C 172.986 85.169,173.955 89.531,174.140 90.462 C 174.684 93.183,175.643 94.615,176.920 94.615 C 178.928 94.615,178.877 93.010,176.563 83.235 C 175.723 79.684,174.691 75.184,174.271 73.235 C 173.851 71.287,173.244 68.654,172.921 67.385 C 172.599 66.115,171.359 60.715,170.166 55.385 C 168.628 48.516,167.845 45.580,167.478 45.308 C 166.760 44.775,165.371 44.826,164.791 45.407 M227.265 45.923 C 227.022 46.304,225.901 51.254,224.775 56.923 C 223.648 62.592,222.530 68.062,222.291 69.077 C 221.212 73.652,222.686 76.483,225.055 74.385 C 225.735 73.782,225.999 72.896,227.094 67.538 C 227.786 64.154,228.963 58.408,229.710 54.769 C 231.236 47.332,231.314 46.464,230.514 45.740 C 229.663 44.969,227.807 45.074,227.265 45.923 M256.080 52.692 C 255.913 52.904,255.194 54.600,254.482 56.462 C 253.770 58.323,252.444 61.715,251.535 64.000 C 247.506 74.132,240.483 92.023,239.818 93.846 C 238.365 97.836,239.307 100.283,241.601 98.478 C 242.526 97.751,243.289 96.082,246.329 88.137 C 249.636 79.492,251.262 75.292,254.302 67.538 C 258.338 57.247,259.385 54.427,259.385 53.852 C 259.385 52.615,256.844 51.723,256.080 52.692 M136.923 54.462 C 136.030 55.355,136.047 55.419,139.102 62.391 C 140.639 65.899,142.775 70.777,143.848 73.231 C 144.921 75.685,146.848 80.083,148.130 83.004 C 149.412 85.926,150.462 88.434,150.462 88.578 C 150.462 89.301,152.154 90.488,153.057 90.400 C 154.986 90.211,154.637 88.094,151.509 80.997 C 147.725 72.411,144.588 65.250,142.110 59.538 C 139.559 53.660,138.632 52.753,136.923 54.462 M281.664 66.846 C 281.221 67.565,280.543 68.638,280.157 69.231 C 276.216 75.284,275.620 77.538,277.961 77.538 C 279.203 77.538,280.076 76.781,281.509 74.462 C 282.085 73.531,283.226 71.723,284.047 70.444 C 285.649 67.946,285.807 67.289,285.059 66.222 C 284.197 64.991,282.629 65.279,281.664 66.846 M111.761 69.710 C 110.612 70.514,110.953 71.392,114.331 76.325 C 117.882 81.510,119.014 82.769,120.121 82.769 C 122.916 82.769,121.510 79.343,115.102 70.538 C 114.050 69.093,113.009 68.835,111.761 69.710 M221.177 77.858 C 220.255 78.396,217.964 88.873,218.238 91.300 C 218.557 94.129,220.465 94.386,221.811 91.781 C 222.279 90.876,224.308 81.354,224.308 80.063 C 224.308 78.295,222.550 77.057,221.177 77.858 M273.764 79.998 C 272.934 80.651,264.619 93.642,263.844 95.496 C 261.865 100.232,265.516 100.312,268.307 95.594 C 268.825 94.717,269.983 92.823,270.880 91.385 C 276.776 81.932,277.023 81.420,276.429 79.871 C 276.167 79.189,274.704 79.259,273.764 79.998 M122.051 84.513 C 121.120 85.445,121.895 87.309,125.255 92.222 C 126.619 94.215,129.725 98.765,132.158 102.333 C 136.923 109.322,138.584 111.176,139.944 111.018 C 141.956 110.786,141.147 108.067,137.536 102.923 C 136.467 101.400,135.019 99.323,134.319 98.308 C 133.618 97.292,131.745 94.592,130.156 92.308 C 128.566 90.023,126.871 87.570,126.388 86.857 C 124.952 84.737,122.924 83.640,122.051 84.513 M89.371 88.448 C 88.955 88.863,88.610 89.451,88.604 89.755 C 88.593 90.322,119.401 121.118,121.662 122.800 C 126.147 126.137,126.374 121.402,121.915 117.512 C 121.285 116.962,114.286 110.134,106.363 102.338 C 89.348 85.596,90.929 86.889,89.371 88.448 M301.987 93.470 C 298.764 96.638,291.752 103.526,286.405 108.776 C 278.200 116.831,276.623 118.520,276.299 119.599 C 275.774 121.352,276.028 121.847,277.452 121.845 C 279.325 121.842,280.397 120.952,290.061 111.375 C 295.104 106.377,299.958 101.691,300.846 100.962 C 301.735 100.232,302.462 99.440,302.462 99.202 C 302.462 98.964,302.623 98.769,302.820 98.769 C 303.017 98.769,304.955 97.011,307.127 94.861 C 311.396 90.638,311.966 89.516,310.514 88.202 C 309.006 86.837,308.271 87.291,301.987 93.470 M153.818 93.458 C 152.605 96.648,157.268 103.421,158.758 100.636 C 159.440 99.362,158.192 94.802,156.714 93.169 C 155.893 92.263,154.209 92.431,153.818 93.458 M260.512 100.962 C 258.812 101.951,257.118 105.931,257.725 107.513 C 258.085 108.451,260.136 108.139,261.097 107.000 C 263.972 103.595,263.546 99.199,260.512 100.962 M312.769 119.237 C 297.313 129.482,297.465 129.362,297.600 131.207 L 297.692 132.462 299.117 132.554 C 300.699 132.656,299.986 133.073,314.154 123.756 C 327.787 114.791,329.284 113.746,329.566 113.005 C 330.130 111.520,329.055 109.840,327.547 109.850 C 327.204 109.853,320.554 114.077,312.769 119.237 M67.436 113.722 C 65.602 115.006,66.418 116.066,71.846 119.449 C 74.554 121.136,77.808 123.180,79.077 123.991 C 80.346 124.802,82.977 126.467,84.923 127.692 C 86.869 128.916,89.763 130.764,91.354 131.799 C 94.888 134.098,97.596 134.530,97.792 132.826 C 97.926 131.656,97.260 130.736,95.486 129.636 C 94.669 129.130,92.477 127.773,90.615 126.622 C 88.754 125.471,85.985 123.739,84.462 122.772 C 82.938 121.806,80.377 120.188,78.769 119.178 C 77.162 118.167,74.381 116.416,72.591 115.286 C 69.151 113.114,68.560 112.935,67.436 113.722 M291.317 133.514 C 289.649 134.573,289.191 135.658,289.885 136.902 C 291.226 139.302,295.880 136.877,295.633 133.907 C 295.499 132.290,293.526 132.110,291.317 133.514 M341.231 135.588 C 340.638 135.842,337.592 137.091,334.462 138.364 C 331.331 139.638,326.831 141.484,324.462 142.467 C 322.092 143.450,316.554 145.735,312.154 147.544 C 301.282 152.016,299.571 153.126,300.600 155.049 C 301.409 156.560,302.960 156.118,316.769 150.452 C 319.308 149.410,323.600 147.661,326.308 146.564 C 343.055 139.781,343.966 139.384,344.478 138.652 C 346.033 136.433,343.918 134.438,341.231 135.588 M103.923 136.332 C 101.983 137.462,106.130 141.846,109.139 141.846 C 111.527 141.846,111.313 138.934,108.819 137.500 C 106.332 136.071,104.941 135.739,103.923 136.332 M54.022 139.868 C 52.536 141.354,53.395 142.621,56.769 143.922 C 58.123 144.444,67.689 148.195,78.027 152.258 C 99.934 160.868,100.923 161.151,100.923 158.804 C 100.923 156.978,100.056 156.494,89.846 152.626 C 85.221 150.873,69.069 144.595,61.395 141.566 C 55.567 139.267,54.800 139.090,54.022 139.868 M167.538 140.826 C 159.898 141.491,151.666 143.283,140.018 146.819 C 137.216 147.669,134.438 148.500,133.846 148.666 C 124.628 151.244,114.225 154.886,113.308 155.856 C 111.492 157.777,112.216 160.928,114.775 162.242 C 116.671 163.215,121.169 162.418,141.385 157.530 C 160.795 152.835,164.754 152.208,175.077 152.186 C 183.157 152.169,185.996 152.830,207.231 159.678 C 243.535 171.385,257.063 173.427,274.462 169.828 C 283.859 167.884,287.692 165.679,287.692 162.217 C 287.692 159.614,287.313 159.476,282.330 160.271 C 269.793 162.270,260.295 161.846,245.846 158.643 C 237.169 156.719,232.956 155.567,217.077 150.773 C 198.751 145.240,187.036 141.889,183.127 141.061 C 181.225 140.657,171.208 140.507,167.538 140.826 M346.615 164.046 C 342.366 164.949,331.523 167.226,318.308 169.990 C 308.962 171.944,308.615 172.082,308.615 173.851 C 308.615 175.962,310.138 176.101,317.207 174.633 C 320.012 174.050,323.069 173.433,324.000 173.261 C 324.931 173.089,327.700 172.520,330.154 171.997 C 332.608 171.474,338.700 170.215,343.692 169.201 C 353.587 167.190,353.846 167.085,353.846 165.065 C 353.846 162.824,352.951 162.698,346.615 164.046 M162.951 167.423 C 153.406 168.182,146.522 170.614,141.024 175.168 C 134.224 180.800,118.259 197.118,116.812 199.917 C 115.722 202.024,117.455 204.040,120.820 204.582 C 141.910 207.974,154.666 209.816,157.231 209.841 C 159.930 209.867,160.000 209.934,160.000 212.477 C 160.000 214.434,159.922 214.752,159.404 214.917 C 157.776 215.434,155.692 219.362,155.692 221.914 C 155.692 223.592,156.641 225.488,158.494 227.516 L 160.000 229.163 160.016 235.428 C 160.064 254.704,160.525 256.923,164.484 256.923 C 169.461 256.923,169.879 254.741,171.119 222.327 C 171.539 211.361,171.366 212.251,172.846 213.437 C 173.945 214.318,175.256 215.322,182.308 220.687 C 184.000 221.974,187.531 224.716,190.154 226.780 C 215.558 246.765,233.203 255.326,251.702 256.644 C 272.038 258.093,282.065 254.341,285.107 244.145 C 286.270 240.246,285.651 234.990,283.605 231.396 C 276.102 218.210,250.520 220.182,251.463 233.873 C 251.963 241.129,260.226 245.782,266.834 242.529 C 271.782 240.093,271.975 234.366,267.034 236.609 C 265.088 237.491,264.469 237.392,262.902 235.947 C 260.529 233.760,261.583 232.522,265.846 232.488 C 276.186 232.405,278.007 242.269,268.308 245.821 C 261.885 248.174,256.150 247.990,244.687 245.067 C 236.012 242.855,231.984 241.272,226.051 237.742 C 224.726 236.953,223.587 236.308,223.521 236.308 C 222.307 236.308,182.633 209.546,183.141 209.069 C 183.191 209.023,185.100 208.616,187.385 208.163 C 200.570 205.554,212.515 202.133,218.575 199.230 L 222.137 197.525 229.299 197.725 C 245.650 198.183,276.974 196.725,283.761 195.191 C 287.063 194.445,288.260 192.363,286.782 189.938 C 284.855 186.778,276.357 186.197,247.692 187.264 C 228.551 187.976,224.042 187.360,218.308 183.252 C 197.845 168.592,187.048 165.505,162.951 167.423 M45.866 168.288 C 45.226 168.928,45.034 170.290,45.484 170.999 C 45.620 171.213,48.437 171.872,51.864 172.491 C 55.239 173.101,62.362 174.425,67.692 175.434 C 79.188 177.610,81.187 177.840,82.295 177.113 C 84.267 175.822,82.721 174.335,78.580 173.540 C 75.063 172.866,58.407 169.824,52.308 168.743 C 50.023 168.338,47.782 167.927,47.328 167.829 C 46.737 167.703,46.321 167.833,45.866 168.288 M86.258 175.692 C 84.632 176.348,85.282 178.500,87.272 179.049 C 92.093 180.380,94.527 180.132,94.707 178.290 C 94.897 176.356,89.060 174.562,86.258 175.692 M189.834 179.553 C 194.895 181.152,198.634 183.220,206.395 188.712 C 212.035 192.704,211.822 192.354,209.138 193.215 C 207.920 193.606,206.577 194.067,206.154 194.241 C 205.731 194.414,205.246 194.588,205.077 194.626 C 204.908 194.665,202.762 195.268,200.308 195.968 C 196.604 197.023,190.177 198.553,185.266 199.548 L 184.225 199.759 185.020 198.718 C 188.999 193.501,189.768 185.727,186.941 179.308 C 186.628 178.597,186.876 178.619,189.834 179.553 M146.266 185.923 C 145.284 189.469,145.819 194.454,147.477 197.201 L 148.108 198.248 147.362 198.068 C 145.348 197.582,138.874 196.511,136.007 196.190 L 132.783 195.828 135.391 193.258 C 138.875 189.826,145.673 184.360,146.511 184.318 C 146.622 184.312,146.512 185.035,146.266 185.923 M312.000 196.847 C 311.130 197.281,310.923 197.561,310.923 198.304 C 310.923 200.353,312.251 200.474,337.884 200.769 L 356.537 200.985 357.038 200.270 C 357.653 199.392,357.689 197.733,357.106 197.149 C 356.753 196.797,354.143 196.679,343.029 196.512 C 319.285 196.157,313.250 196.222,312.000 196.847 M70.154 196.909 C 64.154 197.096,63.385 197.308,63.385 198.772 C 63.385 200.556,63.828 200.615,77.160 200.615 C 90.023 200.615,92.037 200.414,92.460 199.082 C 93.241 196.622,89.881 196.294,70.154 196.909 M43.145 197.402 C 42.465 197.878,42.246 199.081,42.648 200.129 C 43.002 201.050,59.090 200.839,60.183 199.899 C 61.289 198.948,61.046 197.749,59.648 197.262 C 58.007 196.689,43.993 196.809,43.145 197.402 M309.803 218.443 C 307.699 220.171,310.215 221.453,319.535 223.403 C 330.138 225.621,331.401 225.640,331.638 223.581 C 331.869 221.580,331.303 221.347,321.439 219.390 C 312.828 217.681,310.920 217.525,309.803 218.443 M89.846 220.910 C 89.254 221.034,85.377 221.924,81.231 222.889 C 65.251 226.608,59.017 228.048,53.077 229.395 C 46.619 230.859,46.154 231.078,46.154 232.652 C 46.154 234.884,46.863 234.855,58.000 232.168 C 60.366 231.597,69.554 229.517,81.846 226.769 C 93.678 224.125,94.462 223.821,94.462 221.881 C 94.462 220.868,92.267 220.406,89.846 220.910 M334.650 223.167 C 333.850 223.753,334.098 225.476,335.089 226.212 C 335.792 226.734,351.306 230.154,352.974 230.154 C 353.891 230.154,354.769 229.035,354.769 227.868 C 354.769 226.980,354.151 225.846,353.667 225.846 C 353.593 225.846,350.046 225.154,345.785 224.308 C 337.758 222.713,335.576 222.490,334.650 223.167 M304.077 239.109 C 302.474 240.769,304.413 242.173,313.538 245.961 C 317.008 247.401,323.723 250.194,328.462 252.168 C 345.269 259.168,344.708 258.984,345.846 257.846 C 346.462 257.230,346.674 255.576,346.226 254.879 C 346.039 254.588,340.524 252.234,330.462 248.149 C 329.531 247.771,326.000 246.322,322.615 244.929 C 308.611 239.166,308.193 239.010,306.308 238.859 C 305.032 238.757,304.343 238.834,304.077 239.109 M97.538 240.447 C 91.106 242.861,87.385 245.075,87.385 246.487 C 87.385 248.663,95.318 246.833,100.542 243.452 C 103.277 241.682,100.815 239.218,97.538 240.447 M80.777 247.876 C 80.105 248.122,77.751 249.142,75.546 250.143 C 71.350 252.048,62.992 255.725,58.359 257.704 C 55.469 258.938,54.884 259.585,55.270 261.123 C 55.766 263.100,55.681 263.125,69.846 256.913 C 74.162 255.021,79.146 252.851,80.923 252.092 C 84.739 250.460,85.231 250.080,85.231 248.754 C 85.231 247.288,83.381 246.923,80.777 247.876 M294.846 258.050 C 294.244 258.293,294.395 259.965,295.110 260.970 C 295.708 261.810,298.312 263.589,315.077 274.614 C 318.377 276.784,323.076 279.880,325.520 281.495 C 331.105 285.186,333.440 285.391,333.169 282.170 C 333.066 280.944,332.616 280.615,318.633 271.538 C 314.984 269.169,309.402 265.523,306.229 263.436 C 298.568 258.395,296.462 257.398,294.846 258.050 M106.762 259.799 C 106.165 260.013,103.673 261.578,101.223 263.278 C 98.774 264.977,95.109 267.521,93.079 268.930 C 89.114 271.682,87.645 272.695,82.154 276.466 C 69.499 285.157,69.647 285.019,70.928 286.974 C 71.731 288.199,72.586 287.838,78.462 283.783 C 81.423 281.740,89.382 276.275,96.149 271.639 C 104.281 266.067,108.688 262.859,109.149 262.175 C 110.690 259.888,109.586 258.789,106.762 259.799 M119.231 276.707 C 118.385 277.327,111.932 283.812,95.440 300.615 C 88.938 307.240,88.312 308.189,89.600 309.477 C 90.738 310.614,91.082 310.317,106.603 294.784 C 122.513 278.864,122.434 278.952,122.451 277.154 C 122.464 275.734,120.861 275.511,119.231 276.707 M279.590 277.436 C 278.330 278.696,279.717 280.989,285.051 286.462 C 287.608 289.085,293.777 295.426,298.759 300.553 L 307.819 309.875 309.032 309.784 C 310.530 309.671,311.584 308.497,311.219 307.349 C 311.014 306.701,303.014 298.345,288.255 283.361 C 282.886 277.909,280.647 276.379,279.590 277.436 M139.777 290.622 C 139.158 291.055,130.760 303.473,129.701 305.521 C 128.300 308.231,129.746 310.045,132.228 308.692 C 133.175 308.177,141.733 295.610,142.485 293.631 C 143.491 290.984,141.855 289.166,139.777 290.622 M262.884 291.891 C 262.210 294.579,267.762 302.982,270.037 302.715 C 272.108 302.472,271.642 299.647,268.839 295.455 C 266.039 291.268,263.432 289.707,262.884 291.891 M244.205 301.744 C 243.051 302.898,243.621 304.580,252.007 324.769 C 254.748 331.369,257.484 338.011,258.086 339.528 C 259.695 343.580,260.997 344.537,262.882 343.055 C 264.211 342.009,264.713 343.502,256.319 323.538 C 254.223 318.553,249.977 308.359,248.909 305.748 C 247.628 302.616,245.308 300.641,244.205 301.744 M157.398 302.686 C 156.369 303.715,156.101 304.227,154.360 308.478 C 153.601 310.331,151.741 314.823,150.225 318.462 C 139.448 344.336,139.762 343.454,140.923 344.615 C 142.873 346.566,143.871 345.598,146.482 339.224 C 149.294 332.358,152.224 325.235,155.213 318.000 C 159.407 307.844,160.308 305.352,160.308 303.905 C 160.308 301.717,158.940 301.144,157.398 302.686 M272.176 304.484 C 270.695 305.965,271.327 307.310,278.885 318.741 L 285.209 328.308 286.451 328.308 C 288.009 328.308,289.045 327.399,288.854 326.200 C 288.715 325.327,275.819 305.659,274.704 304.621 C 273.906 303.877,272.840 303.820,272.176 304.484 M177.087 309.615 C 176.609 310.680,175.822 314.272,174.778 320.154 C 173.907 325.062,172.725 331.569,172.151 334.615 C 168.765 352.600,168.781 352.308,171.200 352.308 C 172.668 352.308,172.809 352.011,173.701 347.059 C 174.530 342.463,177.380 327.147,179.243 317.286 C 179.829 314.186,180.307 311.348,180.306 310.979 C 180.297 307.650,178.341 306.821,177.087 309.615 M223.713 308.577 C 223.072 309.775,223.412 312.347,225.677 323.414 C 226.937 329.575,228.747 338.423,229.699 343.077 C 231.705 352.888,232.354 353.996,235.008 352.136 C 236.025 351.424,236.045 351.558,232.138 333.077 C 226.788 307.770,226.923 308.244,225.017 308.059 C 224.295 307.989,223.955 308.124,223.713 308.577 M198.854 310.831 C 197.543 312.449,197.646 332.245,198.972 333.570 C 199.846 334.444,201.022 334.170,201.516 332.978 C 202.095 331.580,201.843 312.760,201.228 311.538 C 200.721 310.527,199.415 310.138,198.854 310.831 M126.368 311.261 C 125.657 311.647,116.068 325.614,114.489 328.565 C 113.257 330.865,116.501 333.390,118.012 331.308 C 118.642 330.441,124.943 320.872,127.571 316.793 C 130.522 312.213,129.899 309.347,126.368 311.261 M198.730 337.124 C 197.933 338.083,197.956 353.648,198.755 354.447 C 199.406 355.099,200.757 355.270,201.505 354.796 C 202.145 354.391,202.013 338.753,201.359 337.489 C 200.835 336.476,199.431 336.280,198.730 337.124 " stroke="none" fill="#f8b119" fill-rule="evenodd"></path><path id="path3" d="M138.445 177.154 L 137.385 178.308 138.538 177.247 C 139.612 176.260,139.834 176.000,139.599 176.000 C 139.547 176.000,139.028 176.519,138.445 177.154 M133.994 181.308 L 130.923 184.462 134.077 181.390 C 135.812 179.701,137.231 178.282,137.231 178.237 C 137.231 178.014,136.847 178.378,133.994 181.308 M125.688 189.615 L 121.692 193.692 125.769 189.697 C 128.012 187.499,129.846 185.665,129.846 185.620 C 129.846 185.399,129.399 185.828,125.688 189.615 M137.681 191.154 L 136.154 192.769 137.769 191.242 C 138.658 190.403,139.385 189.676,139.385 189.627 C 139.385 189.397,139.100 189.653,137.681 191.154 M134.904 193.615 L 134.000 194.615 135.000 193.712 C 135.932 192.869,136.141 192.615,135.904 192.615 C 135.851 192.615,135.401 193.065,134.904 193.615 M120.599 195.000 L 119.538 196.154 120.692 195.093 C 121.766 194.107,121.988 193.846,121.753 193.846 C 121.701 193.846,121.182 194.365,120.599 195.000 M118.445 197.462 L 117.385 198.615 118.538 197.555 C 119.612 196.568,119.834 196.308,119.599 196.308 C 119.547 196.308,119.028 196.827,118.445 197.462 M254.288 226.231 L 253.385 227.231 254.385 226.327 C 254.935 225.830,255.385 225.380,255.385 225.327 C 255.385 225.089,255.131 225.299,254.288 226.231 M158.462 227.846 C 159.036 228.438,159.575 228.923,159.659 228.923 C 159.744 228.923,159.343 228.438,158.769 227.846 C 158.195 227.254,157.656 226.769,157.572 226.769 C 157.487 226.769,157.887 227.254,158.462 227.846 M281.077 228.000 C 281.738 228.677,282.348 229.231,282.433 229.231 C 282.517 229.231,282.046 228.677,281.385 228.000 C 280.724 227.323,280.114 226.769,280.029 226.769 C 279.944 226.769,280.416 227.323,281.077 228.000 M281.058 251.154 L 280.154 252.154 281.154 251.250 C 281.704 250.753,282.154 250.303,282.154 250.250 C 282.154 250.012,281.900 250.222,281.058 251.154 " stroke="none" fill="#ffad17" fill-rule="evenodd"></path><path id="path4" d="" stroke="none" fill="#f2b949" fill-rule="evenodd"></path></g></svg>