<svg id="svg" version="1.1" width="400" height="400" viewBox="0 0 400 400" xmlns="http://www.w3.org/2000/svg" xmlns:xlink="http://www.w3.org/1999/xlink" ><g id="svgg"><path id="path0" d="M92.180 105.166 C 91.971 105.368,91.350 105.613,90.800 105.712 C 89.930 105.868,89.963 105.898,91.051 105.946 C 91.739 105.975,92.526 105.730,92.800 105.400 C 93.335 104.756,92.811 104.558,92.180 105.166 M98.406 105.300 C 98.402 105.810,98.699 105.987,99.500 105.954 C 100.343 105.918,100.413 105.861,99.800 105.707 C 99.360 105.597,98.868 105.303,98.706 105.054 C 98.520 104.766,98.410 104.856,98.406 105.300 M212.590 105.584 C 212.732 105.813,213.317 106.000,213.890 106.000 C 215.144 106.000,214.999 105.808,213.466 105.440 C 212.723 105.262,212.421 105.311,212.590 105.584 M209.505 109.883 C 210.002 109.979,210.722 109.975,211.105 109.875 C 211.487 109.775,211.080 109.696,210.200 109.701 C 209.320 109.705,209.007 109.787,209.505 109.883 M123.600 114.878 C 123.600 115.005,123.869 115.624,124.198 116.254 C 124.526 116.884,124.790 117.130,124.785 116.800 C 124.779 116.470,124.510 115.851,124.187 115.424 C 123.864 114.996,123.600 114.751,123.600 114.878 M208.900 118.676 C 209.285 118.776,209.915 118.776,210.300 118.676 C 210.685 118.575,210.370 118.493,209.600 118.493 C 208.830 118.493,208.515 118.575,208.900 118.676 M231.293 123.200 C 231.293 123.970,231.375 124.285,231.476 123.900 C 231.576 123.515,231.576 122.885,231.476 122.500 C 231.375 122.115,231.293 122.430,231.293 123.200 M240.493 123.200 C 240.493 123.970,240.575 124.285,240.676 123.900 C 240.776 123.515,240.776 122.885,240.676 122.500 C 240.575 122.115,240.493 122.430,240.493 123.200 M125.924 123.800 C 126.014 124.570,126.158 125.200,126.244 125.200 C 126.330 125.200,126.400 124.570,126.400 123.800 C 126.400 123.030,126.256 122.400,126.080 122.400 C 125.904 122.400,125.834 123.030,125.924 123.800 M64.486 136.100 C 64.572 149.391,64.706 147.895,64.898 131.500 C 64.954 126.714,64.865 122.799,64.700 122.800 C 64.535 122.800,64.439 128.785,64.486 136.100 M117.309 124.400 C 117.309 125.390,117.387 125.795,117.482 125.300 C 117.578 124.805,117.578 123.995,117.482 123.500 C 117.387 123.005,117.309 123.410,117.309 124.400 M73.503 125.600 C 73.340 126.810,73.205 131.355,73.203 135.700 L 73.200 143.600 95.700 143.503 L 118.200 143.407 96.107 143.300 L 74.014 143.193 73.907 133.297 C 73.837 126.845,73.697 124.166,73.503 125.600 M221.300 132.676 C 221.685 132.776,222.315 132.776,222.700 132.676 C 223.085 132.575,222.770 132.493,222.000 132.493 C 221.230 132.493,220.915 132.575,221.300 132.676 M321.200 137.503 C 321.200 137.670,322.685 137.752,324.500 137.687 C 329.517 137.505,329.869 137.315,325.300 137.254 C 323.045 137.225,321.200 137.336,321.200 137.503 M314.800 137.920 C 314.800 138.096,315.475 138.172,316.300 138.091 C 318.622 137.861,318.791 137.666,316.700 137.632 C 315.655 137.614,314.800 137.744,314.800 137.920 M311.300 138.676 C 311.685 138.776,312.315 138.776,312.700 138.676 C 313.085 138.575,312.770 138.493,312.000 138.493 C 311.230 138.493,310.915 138.575,311.300 138.676 M335.309 141.600 C 335.309 142.590,335.387 142.995,335.482 142.500 C 335.578 142.005,335.578 141.195,335.482 140.700 C 335.387 140.205,335.309 140.610,335.309 141.600 M152.600 142.695 C 193.654 142.969,223.906 142.972,223.738 142.700 C 223.636 142.535,204.078 142.443,180.276 142.495 C 156.474 142.548,144.020 142.637,152.600 142.695 M315.905 146.683 C 316.402 146.779,317.122 146.775,317.505 146.675 C 317.887 146.575,317.480 146.496,316.600 146.501 C 315.720 146.505,315.407 146.587,315.905 146.683 M312.000 147.200 L 310.600 147.495 312.100 147.547 C 312.925 147.576,313.600 147.420,313.600 147.200 C 313.600 146.980,313.555 146.824,313.500 146.853 C 313.445 146.882,312.770 147.038,312.000 147.200 M158.669 151.500 C 170.367 151.559,189.627 151.559,201.469 151.500 C 213.311 151.441,203.740 151.393,180.200 151.393 C 156.660 151.393,146.971 151.441,158.669 151.500 M76.800 152.691 C 100.129 152.968,118.000 152.972,118.000 152.700 C 118.000 152.535,106.705 152.441,92.900 152.492 C 79.095 152.543,71.850 152.632,76.800 152.691 M189.568 167.100 C 189.759 168.481,189.787 168.509,189.919 167.451 C 189.998 166.819,189.905 166.145,189.712 165.952 C 189.510 165.750,189.449 166.240,189.568 167.100 M266.493 172.000 C 266.493 172.770,266.575 173.085,266.676 172.700 C 266.776 172.315,266.776 171.685,266.676 171.300 C 266.575 170.915,266.493 171.230,266.493 172.000 M275.018 173.418 C 274.865 174.439,274.822 175.355,274.922 175.455 C 275.022 175.555,275.229 174.802,275.382 173.782 C 275.535 172.761,275.578 171.845,275.478 171.745 C 275.378 171.645,275.171 172.398,275.018 173.418 M265.632 177.876 C 265.614 178.358,265.420 178.864,265.200 179.000 C 264.980 179.136,264.825 179.822,264.854 180.524 C 264.900 181.584,264.936 181.630,265.071 180.800 C 265.160 180.250,265.427 179.413,265.663 178.939 C 265.900 178.466,265.996 177.836,265.878 177.539 C 265.754 177.229,265.650 177.372,265.632 177.876 M273.440 180.040 C 273.293 180.957,273.252 181.785,273.347 181.880 C 273.442 181.976,273.646 181.310,273.800 180.400 C 273.954 179.490,273.996 178.662,273.893 178.560 C 273.790 178.457,273.587 179.123,273.440 180.040 M152.600 181.495 C 193.654 181.769,223.906 181.772,223.738 181.500 C 223.636 181.335,204.078 181.243,180.276 181.295 C 156.474 181.348,144.020 181.437,152.600 181.495 M254.558 187.366 C 254.438 187.678,254.405 188.443,254.484 189.066 C 254.602 189.991,254.664 189.887,254.825 188.500 C 255.027 186.751,254.938 186.375,254.558 187.366 M263.293 189.200 C 263.293 189.970,263.375 190.285,263.476 189.900 C 263.576 189.515,263.576 188.885,263.476 188.500 C 263.375 188.115,263.293 188.430,263.293 189.200 M158.669 190.300 C 170.367 190.359,189.627 190.359,201.469 190.300 C 213.311 190.241,203.740 190.193,180.200 190.193 C 156.660 190.193,146.971 190.241,158.669 190.300 M252.556 196.171 C 252.435 196.485,252.404 197.160,252.486 197.671 C 252.595 198.354,252.688 198.204,252.837 197.100 C 253.047 195.547,252.936 195.181,252.556 196.171 M137.697 200.231 C 138.045 200.578,154.800 200.646,154.800 200.300 C 154.800 200.135,150.900 200.000,146.133 200.000 C 141.367 200.000,137.570 200.104,137.697 200.231 M165.675 200.208 C 166.007 200.541,222.800 200.632,222.800 200.300 C 222.800 200.135,209.900 200.000,194.133 200.000 C 178.367 200.000,165.560 200.094,165.675 200.208 M302.181 202.100 L 300.600 203.800 302.300 202.219 C 303.881 200.748,304.184 200.400,303.881 200.400 C 303.816 200.400,303.051 201.165,302.181 202.100 M158.501 204.600 C 158.505 205.480,158.587 205.793,158.683 205.295 C 158.779 204.798,158.775 204.078,158.675 203.695 C 158.575 203.313,158.496 203.720,158.501 204.600 M141.700 209.099 C 144.285 209.168,148.515 209.168,151.100 209.099 C 153.685 209.029,151.570 208.972,146.400 208.972 C 141.230 208.972,139.115 209.029,141.700 209.099 M179.700 209.100 C 187.785 209.160,201.015 209.160,209.100 209.100 C 217.185 209.039,210.570 208.990,194.400 208.990 C 178.230 208.990,171.615 209.039,179.700 209.100 M258.100 213.876 C 258.485 213.976,259.115 213.976,259.500 213.876 C 259.885 213.775,259.570 213.693,258.800 213.693 C 258.030 213.693,257.715 213.775,258.100 213.876 M253.305 214.687 C 253.914 214.779,254.814 214.777,255.305 214.682 C 255.797 214.587,255.300 214.511,254.200 214.514 C 253.100 214.517,252.697 214.595,253.305 214.687 M281.400 216.000 C 279.836 217.036,280.392 217.037,282.090 216.001 C 282.811 215.562,283.220 215.204,283.000 215.204 C 282.780 215.205,282.060 215.563,281.400 216.000 M240.400 223.600 C 240.400 223.842,242.133 224.000,244.800 224.000 C 247.467 224.000,249.200 223.842,249.200 223.600 C 249.200 223.358,247.467 223.200,244.800 223.200 C 242.133 223.200,240.400 223.358,240.400 223.600 M253.500 223.482 C 253.995 223.578,254.805 223.578,255.300 223.482 C 255.795 223.387,255.390 223.309,254.400 223.309 C 253.410 223.309,253.005 223.387,253.500 223.482 M150.900 237.900 C 158.545 237.961,171.055 237.961,178.700 237.900 C 186.345 237.839,180.090 237.789,164.800 237.789 C 149.510 237.789,143.255 237.839,150.900 237.900 M195.200 242.000 C 195.200 242.440,195.380 242.800,195.600 242.800 C 195.820 242.800,196.000 242.440,196.000 242.000 C 196.000 241.560,195.820 241.200,195.600 241.200 C 195.380 241.200,195.200 241.560,195.200 242.000 M138.000 246.400 C 138.834 246.939,191.600 246.939,191.600 246.400 C 191.600 246.137,182.304 246.002,164.500 246.006 C 146.856 246.010,137.609 246.148,138.000 246.400 M206.400 252.400 C 206.400 252.658,210.933 252.800,219.200 252.800 C 227.467 252.800,232.000 252.658,232.000 252.400 C 232.000 252.142,227.467 252.000,219.200 252.000 C 210.933 252.000,206.400 252.142,206.400 252.400 M240.600 252.400 C 240.762 252.662,254.871 252.800,281.624 252.800 C 308.541 252.800,322.400 252.664,322.400 252.400 C 322.400 252.136,308.459 252.000,281.376 252.000 C 254.129 252.000,240.436 252.134,240.600 252.400 M202.520 260.400 C 202.520 261.610,202.595 262.105,202.687 261.500 C 202.778 260.895,202.778 259.905,202.687 259.300 C 202.595 258.695,202.520 259.190,202.520 260.400 M126.493 261.600 C 126.493 262.370,126.575 262.685,126.676 262.300 C 126.776 261.915,126.776 261.285,126.676 260.900 C 126.575 260.515,126.493 260.830,126.493 261.600 M117.701 262.200 C 117.705 263.080,117.787 263.393,117.883 262.895 C 117.979 262.398,117.975 261.678,117.875 261.295 C 117.775 260.913,117.696 261.320,117.701 262.200 M211.102 261.800 C 210.997 262.350,211.066 262.800,211.255 262.800 C 211.445 262.800,211.600 262.440,211.600 262.000 C 211.600 261.204,211.867 261.200,263.972 261.200 L 316.344 261.200 316.518 262.100 C 316.666 262.872,316.699 262.843,316.746 261.900 L 316.800 260.800 264.047 260.800 L 211.293 260.800 211.102 261.800 M325.660 261.467 C 325.627 261.944,325.484 262.664,325.341 263.067 C 325.142 263.631,325.195 263.696,325.572 263.349 C 325.842 263.101,325.985 262.381,325.891 261.749 C 325.770 260.939,325.702 260.856,325.660 261.467 M210.493 265.200 C 210.493 265.970,210.575 266.285,210.676 265.900 C 210.776 265.515,210.776 264.885,210.676 264.500 C 210.575 264.115,210.493 264.430,210.493 265.200 M324.893 265.200 C 324.893 265.970,324.975 266.285,325.076 265.900 C 325.176 265.515,325.176 264.885,325.076 264.500 C 324.975 264.115,324.893 264.430,324.893 265.200 M118.493 265.600 C 118.493 266.370,118.575 266.685,118.676 266.300 C 118.776 265.915,118.776 265.285,118.676 264.900 C 118.575 264.515,118.493 264.830,118.493 265.600 M158.300 294.682 C 158.795 294.778,159.605 294.778,160.100 294.682 C 160.595 294.587,160.190 294.509,159.200 294.509 C 158.210 294.509,157.805 294.587,158.300 294.682 M168.900 294.676 C 169.285 294.776,169.915 294.776,170.300 294.676 C 170.685 294.575,170.370 294.493,169.600 294.493 C 168.830 294.493,168.515 294.575,168.900 294.676 M283.500 294.682 C 283.995 294.778,284.805 294.778,285.300 294.682 C 285.795 294.587,285.390 294.509,284.400 294.509 C 283.410 294.509,283.005 294.587,283.500 294.682 M301.400 297.627 C 300.740 298.050,300.405 298.397,300.656 298.398 C 300.906 298.399,301.536 298.046,302.056 297.613 C 303.245 296.623,302.959 296.629,301.400 297.627 M288.200 302.400 C 286.537 302.823,288.174 302.842,290.200 302.423 C 291.545 302.145,291.609 302.092,290.600 302.093 C 289.940 302.094,288.860 302.232,288.200 302.400 M156.800 303.000 C 157.116 303.381,157.901 303.575,158.949 303.533 L 160.600 303.466 159.100 303.309 C 158.275 303.222,157.600 302.983,157.600 302.776 C 157.600 302.569,157.308 302.400,156.951 302.400 C 156.420 302.400,156.392 302.509,156.800 303.000 M286.180 302.773 C 285.971 302.979,285.080 303.218,284.200 303.306 L 282.600 303.466 284.457 303.533 C 285.785 303.581,286.380 303.429,286.545 303.000 C 286.810 302.307,286.715 302.248,286.180 302.773 " stroke="none" fill="#000000" fill-rule="evenodd"></path><path id="path1" d="" stroke="none" fill="#339900" fill-rule="evenodd"></path><path id="path2" d="" stroke="none" fill="#ff0000" fill-rule="evenodd"></path><path id="path3" d="M89.600 97.148 C 89.600 97.340,88.712 97.615,87.626 97.759 C 86.540 97.903,85.145 98.285,84.526 98.608 C 83.907 98.931,83.113 99.196,82.761 99.198 C 82.410 99.199,81.707 99.560,81.200 100.000 C 80.693 100.440,80.035 100.800,79.739 100.800 C 79.442 100.800,79.200 100.980,79.200 101.200 C 79.200 101.420,78.924 101.600,78.587 101.600 C 78.251 101.600,77.871 101.870,77.745 102.200 C 77.618 102.530,77.294 102.800,77.025 102.800 C 76.482 102.800,71.698 107.512,71.070 108.667 C 70.851 109.070,70.430 109.544,70.135 109.720 C 69.841 109.896,69.600 110.301,69.600 110.620 C 69.600 110.939,69.434 111.200,69.232 111.200 C 69.029 111.200,68.745 111.740,68.600 112.400 C 68.455 113.060,68.194 113.600,68.020 113.600 C 67.846 113.600,67.469 114.455,67.182 115.500 C 66.894 116.545,66.507 117.503,66.321 117.629 C 66.135 117.755,65.870 119.065,65.733 120.542 C 65.595 122.018,65.328 123.321,65.141 123.436 C 63.577 124.403,65.015 151.600,66.629 151.600 C 66.943 151.600,67.200 151.780,67.200 152.000 C 67.200 152.262,75.933 152.400,92.600 152.400 L 118.000 152.400 118.000 208.000 C 118.000 244.800,118.135 263.600,118.400 263.600 C 118.620 263.600,118.800 264.221,118.800 264.980 C 118.800 265.739,119.014 267.314,119.277 268.480 C 119.539 269.646,119.719 270.735,119.677 270.900 C 119.634 271.065,119.764 271.200,119.965 271.200 C 120.166 271.200,120.451 271.920,120.600 272.800 C 120.749 273.680,121.020 274.400,121.203 274.400 C 121.387 274.400,121.655 274.940,121.800 275.600 C 121.945 276.260,122.215 276.800,122.400 276.800 C 122.585 276.800,122.853 277.330,122.995 277.977 C 123.137 278.624,123.747 279.839,124.350 280.677 C 124.954 281.515,125.566 282.515,125.711 282.900 C 125.856 283.285,126.161 283.600,126.387 283.600 C 126.614 283.600,126.800 283.842,126.800 284.138 C 126.800 284.434,127.160 285.002,127.600 285.400 C 128.040 285.798,128.400 286.296,128.400 286.507 C 128.400 287.007,134.193 292.800,134.693 292.800 C 134.904 292.800,135.402 293.160,135.800 293.600 C 136.198 294.040,136.747 294.400,137.019 294.400 C 137.292 294.400,137.618 294.670,137.745 295.000 C 137.871 295.330,138.251 295.600,138.587 295.600 C 138.924 295.600,139.200 295.741,139.200 295.914 C 139.200 296.086,140.325 296.755,141.700 297.399 C 143.075 298.043,144.290 298.688,144.400 298.831 C 144.510 298.975,145.050 299.231,145.600 299.400 C 146.150 299.569,146.690 299.827,146.800 299.973 C 146.984 300.217,149.758 301.100,153.200 302.011 C 153.970 302.214,155.275 302.385,156.100 302.390 C 156.925 302.396,157.600 302.580,157.600 302.800 C 157.600 303.302,285.455 303.358,285.765 302.856 C 285.882 302.667,287.176 302.390,288.640 302.240 C 290.105 302.090,291.775 301.726,292.352 301.431 C 292.928 301.136,294.165 300.767,295.100 300.612 C 296.035 300.457,296.800 300.185,296.800 300.008 C 296.800 299.831,297.293 299.563,297.896 299.412 C 298.499 299.260,299.084 299.016,299.196 298.868 C 299.308 298.721,300.300 298.150,301.400 297.600 C 302.500 297.050,304.056 296.105,304.858 295.500 C 305.659 294.895,306.505 294.400,306.738 294.400 C 306.970 294.400,307.304 294.174,307.480 293.898 C 307.656 293.621,308.491 292.880,309.335 292.250 C 310.968 291.033,314.090 287.813,314.364 287.064 C 314.454 286.817,315.039 286.167,315.664 285.619 C 316.289 285.070,316.800 284.386,316.800 284.098 C 316.800 283.810,317.070 283.471,317.400 283.345 C 317.730 283.218,318.000 282.877,318.000 282.586 C 318.000 282.295,318.242 281.816,318.537 281.520 C 319.267 280.791,322.400 274.236,322.400 273.439 C 322.400 273.088,322.569 272.800,322.775 272.800 C 322.982 272.800,323.272 271.990,323.421 271.000 C 323.569 270.010,323.822 269.200,323.983 269.200 C 324.347 269.200,325.236 263.226,325.477 259.154 C 325.619 256.761,325.501 255.776,324.926 254.554 L 324.194 253.000 282.297 252.898 L 240.400 252.796 240.400 237.998 L 240.400 223.200 248.005 223.200 C 252.188 223.200,255.923 223.033,256.305 222.830 C 256.687 222.626,259.115 222.245,261.700 221.982 C 264.285 221.719,266.400 221.369,266.400 221.204 C 266.400 221.038,267.300 220.784,268.400 220.638 C 269.500 220.492,270.400 220.222,270.400 220.038 C 270.400 219.854,271.300 219.584,272.400 219.438 C 273.500 219.292,274.400 219.040,274.400 218.878 C 274.400 218.716,275.740 218.168,277.378 217.659 C 279.016 217.151,280.558 216.491,280.806 216.193 C 281.053 215.895,281.783 215.536,282.428 215.394 C 283.072 215.252,283.600 214.990,283.600 214.812 C 283.600 214.633,284.088 214.364,284.685 214.214 C 285.281 214.065,286.548 213.417,287.499 212.775 C 288.450 212.133,289.659 211.500,290.185 211.368 C 290.711 211.236,291.239 210.874,291.359 210.564 C 291.478 210.254,291.831 210.000,292.145 210.000 C 292.458 210.000,292.818 209.730,292.945 209.400 C 293.071 209.070,293.423 208.800,293.725 208.800 C 294.028 208.800,294.602 208.440,295.000 208.000 C 295.398 207.560,295.886 207.200,296.085 207.200 C 296.283 207.200,296.930 206.681,297.523 206.046 C 298.115 205.411,299.005 204.769,299.500 204.619 C 299.995 204.469,300.400 204.199,300.400 204.020 C 300.400 203.582,303.602 200.400,304.042 200.400 C 304.571 200.400,306.000 199.080,306.000 198.592 C 306.000 198.356,307.269 196.821,308.821 195.181 C 312.924 190.845,313.600 190.081,313.600 189.783 C 313.600 189.553,314.255 188.665,316.006 186.517 C 316.223 186.251,316.400 185.924,316.400 185.790 C 316.400 185.656,316.850 184.957,317.400 184.236 C 317.950 183.514,318.400 182.760,318.400 182.558 C 318.400 182.357,318.828 181.730,319.351 181.167 C 319.873 180.603,320.426 179.750,320.578 179.271 C 320.730 178.792,320.993 178.400,321.163 178.400 C 321.333 178.400,321.710 177.680,322.000 176.800 C 322.290 175.920,322.667 175.200,322.837 175.200 C 323.007 175.200,323.272 174.795,323.427 174.300 C 323.581 173.805,323.831 173.310,323.981 173.200 C 324.388 172.903,325.913 169.564,326.220 168.300 C 326.367 167.695,326.628 167.200,326.800 167.200 C 326.972 167.200,327.237 166.707,327.388 166.104 C 327.540 165.501,327.784 164.916,327.932 164.804 C 328.287 164.534,330.044 159.697,330.294 158.300 C 330.402 157.695,330.630 157.200,330.801 157.200 C 330.971 157.200,331.228 156.578,331.370 155.817 C 331.513 155.056,331.892 153.931,332.212 153.317 C 332.533 152.703,332.796 151.795,332.798 151.300 C 332.799 150.805,332.951 150.400,333.136 150.400 C 333.320 150.400,333.709 148.870,334.000 147.000 C 334.291 145.130,334.680 143.600,334.864 143.600 C 335.049 143.600,335.200 142.790,335.200 141.800 C 335.200 140.810,335.040 140.000,334.843 140.000 C 334.647 140.000,334.376 139.558,334.240 139.018 C 334.054 138.275,333.636 137.968,332.530 137.761 C 330.734 137.424,315.494 137.941,315.207 138.348 C 315.093 138.510,312.765 138.860,310.034 139.127 C 307.303 139.393,304.873 139.769,304.634 139.961 C 304.395 140.154,303.075 140.439,301.700 140.595 C 300.325 140.751,299.200 141.018,299.200 141.188 C 299.200 141.358,298.300 141.616,297.200 141.762 C 296.100 141.908,295.200 142.201,295.200 142.414 C 295.200 142.626,294.941 142.800,294.625 142.800 C 293.809 142.800,287.441 144.871,287.200 145.214 C 287.090 145.371,286.415 145.626,285.700 145.782 C 284.985 145.937,284.400 146.229,284.400 146.432 C 284.400 146.634,284.085 146.802,283.700 146.804 C 283.315 146.806,282.100 147.250,281.000 147.791 C 279.900 148.332,278.775 148.781,278.500 148.787 C 278.225 148.794,278.000 148.980,278.000 149.200 C 278.000 149.420,277.739 149.600,277.420 149.600 C 277.101 149.600,276.696 149.836,276.520 150.123 C 276.344 150.411,275.615 150.883,274.900 151.172 C 274.185 151.461,273.600 151.855,273.600 152.049 C 273.600 152.242,273.339 152.400,273.020 152.400 C 272.701 152.400,272.296 152.625,272.120 152.900 C 271.777 153.436,271.035 153.938,268.767 155.170 C 267.979 155.598,266.899 156.406,266.367 156.967 C 265.835 157.528,265.271 157.989,265.113 157.993 C 264.956 157.997,264.197 158.630,263.427 159.400 C 262.657 160.170,261.871 160.800,261.681 160.800 C 261.163 160.800,255.200 166.826,255.200 167.350 C 255.200 167.600,254.570 168.330,253.800 168.972 C 253.030 169.614,252.400 170.362,252.400 170.634 C 252.400 170.906,251.882 171.565,251.248 172.098 C 250.614 172.631,249.972 173.457,249.821 173.934 C 249.670 174.410,249.378 174.800,249.173 174.800 C 248.968 174.800,248.800 174.992,248.800 175.227 C 248.800 175.461,248.350 176.243,247.800 176.964 C 247.250 177.686,246.800 178.484,246.800 178.738 C 246.800 178.992,246.633 179.200,246.428 179.200 C 246.223 179.200,245.652 180.010,245.157 181.000 C 244.663 181.990,244.139 182.800,243.993 182.800 C 243.847 182.800,243.490 183.520,243.200 184.400 C 242.910 185.280,242.540 186.000,242.379 186.000 C 242.218 186.000,241.966 186.480,241.819 187.067 C 240.482 192.395,240.400 190.599,240.400 155.913 C 240.400 136.231,240.249 121.954,240.039 121.824 C 239.841 121.702,239.553 120.521,239.400 119.201 C 239.247 117.880,238.979 116.800,238.804 116.800 C 238.630 116.800,238.370 116.305,238.227 115.700 C 237.894 114.294,236.295 111.200,235.901 111.200 C 235.735 111.200,235.600 110.924,235.600 110.587 C 235.600 110.251,235.330 109.871,235.000 109.745 C 234.670 109.618,234.400 109.305,234.400 109.049 C 234.400 108.514,228.828 102.800,228.307 102.800 C 228.117 102.800,227.556 102.362,227.061 101.828 C 226.565 101.293,225.674 100.733,225.080 100.584 C 224.486 100.435,224.000 100.160,224.000 99.973 C 224.000 99.785,223.235 99.413,222.300 99.146 C 221.365 98.879,220.394 98.505,220.142 98.316 C 219.891 98.127,218.766 97.863,217.642 97.730 C 216.519 97.597,215.600 97.334,215.600 97.144 C 215.600 96.953,187.536 96.800,152.600 96.800 C 117.078 96.800,89.600 96.952,89.600 97.148 M101.400 105.751 C 104.207 106.550,106.468 107.594,106.920 108.300 C 107.096 108.575,107.438 108.800,107.681 108.800 C 108.293 108.800,113.990 114.484,113.995 115.100 C 113.998 115.375,114.136 115.600,114.302 115.600 C 114.469 115.600,114.847 116.185,115.143 116.900 C 115.439 117.615,115.932 118.767,116.240 119.460 C 116.548 120.154,116.800 121.084,116.800 121.527 C 116.800 121.971,117.025 122.408,117.300 122.500 C 117.678 122.626,117.834 125.216,117.939 133.133 L 118.079 143.600 95.439 143.600 L 72.800 143.600 72.800 135.328 C 72.800 130.779,72.966 126.504,73.169 125.828 C 73.372 125.153,73.748 123.431,74.005 122.001 C 74.262 120.572,74.622 119.310,74.804 119.197 C 74.987 119.084,75.260 118.499,75.412 117.896 C 75.563 117.293,75.803 116.800,75.946 116.800 C 76.088 116.800,76.437 116.276,76.720 115.635 C 77.468 113.945,82.463 108.900,83.693 108.591 C 84.270 108.446,84.839 108.074,84.959 107.764 C 85.078 107.454,85.451 107.200,85.787 107.200 C 86.124 107.200,86.400 107.020,86.400 106.800 C 86.400 106.580,86.805 106.392,87.300 106.382 C 87.795 106.373,89.100 106.031,90.200 105.622 C 92.693 104.697,97.904 104.757,101.400 105.751 M215.800 105.800 C 217.340 106.240,218.690 106.700,218.800 106.823 C 218.910 106.945,219.585 107.282,220.300 107.571 C 221.015 107.860,221.600 108.255,221.600 108.449 C 221.600 108.642,221.864 108.800,222.186 108.800 C 222.508 108.800,222.965 109.160,223.200 109.600 C 223.435 110.040,223.837 110.400,224.092 110.400 C 224.731 110.400,226.800 112.433,226.800 113.061 C 226.800 113.342,227.160 113.765,227.600 114.000 C 228.040 114.235,228.400 114.664,228.400 114.953 C 228.400 115.241,228.760 115.893,229.200 116.400 C 229.640 116.907,230.000 117.550,230.000 117.828 C 230.000 118.106,230.146 118.393,230.325 118.467 C 232.050 119.176,233.694 216.800,231.980 216.800 C 231.745 216.800,231.656 216.967,231.782 217.171 C 231.908 217.375,231.613 217.669,231.125 217.824 C 230.638 217.979,229.702 218.711,229.046 219.453 C 228.390 220.194,227.692 220.800,227.496 220.800 C 227.299 220.800,226.598 221.340,225.938 222.000 C 225.278 222.660,224.609 223.200,224.450 223.200 C 224.291 223.200,223.540 223.824,222.781 224.587 C 222.021 225.350,221.220 225.988,221.000 226.004 C 220.780 226.021,220.158 226.566,219.619 227.217 C 219.079 227.868,218.433 228.400,218.183 228.400 C 217.933 228.400,217.155 229.030,216.455 229.800 C 215.754 230.570,214.958 231.200,214.686 231.200 C 214.414 231.200,213.745 231.740,213.200 232.400 C 212.655 233.060,212.013 233.600,211.774 233.600 C 211.535 233.600,210.814 234.230,210.172 235.000 C 209.530 235.770,208.780 236.400,208.505 236.400 C 208.231 236.400,207.525 236.940,206.937 237.600 C 206.349 238.260,205.628 238.800,205.334 238.800 C 205.040 238.800,204.800 239.057,204.800 239.371 C 204.800 239.686,204.571 240.181,204.290 240.471 C 203.449 241.344,203.990 244.097,205.240 245.300 C 205.998 246.030,210.400 246.344,210.400 245.668 C 210.400 245.485,210.893 245.080,211.496 244.768 C 212.099 244.455,213.015 243.705,213.532 243.100 C 214.048 242.495,214.650 242.000,214.869 242.000 C 215.088 242.000,215.879 241.370,216.626 240.600 C 217.374 239.830,218.181 239.200,218.419 239.200 C 218.657 239.200,219.306 238.660,219.861 238.000 C 220.417 237.340,221.061 236.800,221.292 236.800 C 221.524 236.800,222.273 236.266,222.957 235.614 C 225.090 233.578,227.483 231.600,227.813 231.600 C 227.987 231.600,228.685 230.989,229.365 230.243 C 230.044 229.497,231.005 228.765,231.500 228.616 L 232.400 228.346 232.400 240.573 L 232.400 252.800 218.571 252.800 C 202.123 252.800,203.622 252.245,203.071 258.541 C 202.857 260.993,202.556 263.090,202.402 263.200 C 202.249 263.310,202.005 264.282,201.861 265.360 C 201.717 266.437,201.440 267.517,201.246 267.760 C 201.051 268.002,200.758 268.830,200.593 269.600 C 200.428 270.370,199.957 271.627,199.547 272.394 C 199.136 273.161,198.800 273.933,198.800 274.111 C 198.800 274.417,198.442 274.912,197.300 276.185 C 197.025 276.492,196.800 276.927,196.800 277.152 C 196.800 277.376,196.571 277.704,196.292 277.880 C 196.012 278.056,195.566 278.695,195.300 279.300 C 195.035 279.905,194.633 280.400,194.409 280.400 C 194.184 280.400,194.000 280.635,194.000 280.923 C 194.000 281.481,189.528 285.988,188.946 286.017 C 188.756 286.026,188.158 286.566,187.619 287.217 C 187.079 287.868,186.398 288.400,186.106 288.400 C 185.814 288.400,185.471 288.670,185.345 289.000 C 185.218 289.330,184.787 289.600,184.386 289.600 C 183.985 289.600,183.387 289.870,183.057 290.200 C 182.727 290.530,182.343 290.800,182.204 290.800 C 181.954 290.800,177.985 292.540,176.784 293.176 C 176.445 293.355,175.185 293.636,173.984 293.799 C 172.783 293.963,171.671 294.300,171.514 294.548 C 171.124 295.166,157.285 295.175,156.884 294.559 C 156.728 294.318,155.827 294.001,154.883 293.853 C 153.938 293.706,152.858 293.415,152.483 293.208 C 150.982 292.379,147.295 290.800,146.861 290.800 C 146.608 290.800,146.400 290.634,146.400 290.432 C 146.400 290.229,145.875 289.948,145.233 289.807 C 144.592 289.666,143.967 289.292,143.846 288.976 C 143.724 288.659,143.410 288.400,143.146 288.400 C 142.584 288.400,142.464 288.298,137.904 283.940 C 135.982 282.103,134.407 280.381,134.404 280.114 C 134.402 279.847,134.040 279.435,133.600 279.200 C 133.160 278.965,132.800 278.508,132.800 278.186 C 132.800 277.864,132.632 277.600,132.426 277.600 C 132.220 277.600,131.824 276.970,131.546 276.200 C 131.267 275.430,130.895 274.800,130.720 274.800 C 130.544 274.800,130.398 274.575,130.396 274.300 C 130.394 274.025,129.950 272.900,129.409 271.800 C 128.868 270.700,128.419 269.485,128.413 269.100 C 128.406 268.715,128.231 268.400,128.025 268.400 C 127.818 268.400,127.523 267.545,127.369 266.500 C 127.215 265.455,126.889 264.472,126.644 264.315 C 126.323 264.108,126.142 244.264,125.991 192.315 L 125.781 120.600 124.655 117.800 C 124.036 116.260,123.435 114.505,123.319 113.900 C 123.204 113.295,122.963 112.800,122.784 112.800 C 122.605 112.800,122.209 112.305,121.903 111.700 C 120.746 109.410,120.151 108.599,118.500 107.061 C 117.565 106.190,116.800 105.323,116.800 105.135 C 116.800 104.299,212.801 104.943,215.800 105.800 M205.500 110.664 C 204.875 110.993,204.400 111.580,204.400 112.022 C 204.400 112.450,204.245 112.800,204.055 112.800 C 203.320 112.800,204.208 116.305,205.181 117.245 C 205.576 117.626,206.944 118.008,208.525 118.177 C 209.996 118.335,211.200 118.610,211.200 118.788 C 211.200 118.967,211.673 119.232,212.252 119.377 C 213.524 119.697,216.191 122.304,216.607 123.637 C 216.772 124.167,217.078 124.710,217.287 124.844 C 217.495 124.978,217.766 126.193,217.888 127.544 C 218.011 128.895,218.266 130.000,218.456 130.000 C 218.645 130.000,218.800 130.257,218.800 130.571 C 218.800 132.330,223.923 133.038,224.800 131.400 C 225.094 130.850,225.485 130.400,225.668 130.400 C 226.968 130.400,225.299 119.888,223.900 119.267 C 223.735 119.193,223.600 118.873,223.600 118.554 C 223.600 118.236,223.330 117.871,223.000 117.745 C 222.670 117.618,222.400 117.275,222.400 116.982 C 222.400 116.325,219.586 113.608,218.900 113.603 C 218.625 113.602,218.400 113.436,218.400 113.236 C 218.400 112.676,214.981 111.148,213.193 110.908 C 212.317 110.791,211.600 110.538,211.600 110.347 C 211.600 109.781,206.693 110.036,205.500 110.664 M135.861 143.624 C 133.834 145.218,134.461 150.400,136.680 150.400 C 137.186 150.400,137.600 150.580,137.600 150.800 C 137.600 151.064,152.133 151.200,180.400 151.200 C 208.667 151.200,223.200 151.064,223.200 150.800 C 223.200 150.580,223.532 150.400,223.938 150.400 C 225.997 150.400,226.887 145.719,225.177 143.883 L 224.354 143.000 180.638 142.895 L 136.921 142.790 135.861 143.624 M316.935 147.600 C 316.312 148.260,315.653 148.800,315.471 148.800 C 315.288 148.800,314.598 149.340,313.938 150.000 C 313.278 150.660,312.609 151.200,312.450 151.200 C 312.291 151.200,311.540 151.824,310.781 152.587 C 310.021 153.350,309.218 153.980,308.996 153.987 C 308.773 153.994,308.145 154.540,307.600 155.200 C 307.055 155.860,306.411 156.400,306.169 156.400 C 305.927 156.400,305.155 157.030,304.455 157.800 C 303.754 158.570,302.952 159.200,302.672 159.200 C 302.392 159.200,301.721 159.732,301.181 160.383 C 300.642 161.034,300.006 161.574,299.770 161.583 C 299.533 161.592,298.814 162.230,298.172 163.000 C 297.530 163.770,296.780 164.400,296.505 164.400 C 296.231 164.400,295.525 164.940,294.937 165.600 C 294.349 166.260,293.661 166.800,293.407 166.800 C 293.154 166.800,292.389 167.430,291.708 168.200 C 291.026 168.970,290.304 169.600,290.104 169.600 C 289.903 169.600,289.317 170.050,288.800 170.600 C 288.283 171.150,287.691 171.600,287.484 171.600 C 287.276 171.600,286.404 172.346,285.545 173.258 C 284.177 174.711,282.793 175.261,283.906 173.910 C 284.136 173.629,284.455 172.500,284.615 171.400 C 284.774 170.300,285.141 168.933,285.430 168.363 C 285.719 167.792,286.079 166.397,286.229 165.263 C 286.380 164.128,286.642 163.200,286.812 163.200 C 286.982 163.200,287.247 162.120,287.400 160.800 C 287.553 159.480,287.820 158.400,287.994 158.400 C 288.167 158.400,288.433 157.545,288.583 156.500 C 289.098 152.933,289.117 152.903,291.033 152.616 C 292.005 152.470,292.800 152.190,292.800 151.994 C 292.800 151.797,293.430 151.518,294.200 151.374 C 294.970 151.229,295.600 150.975,295.600 150.810 C 295.600 150.644,296.382 150.401,297.339 150.270 C 298.295 150.139,299.897 149.754,300.898 149.414 C 301.900 149.074,303.547 148.682,304.559 148.544 C 305.572 148.405,306.400 148.157,306.400 147.993 C 306.400 147.829,307.930 147.567,309.800 147.411 C 311.670 147.256,313.200 146.964,313.200 146.764 C 313.200 146.564,314.295 146.400,315.634 146.400 L 318.068 146.400 316.935 147.600 M323.079 154.700 C 322.833 155.525,322.512 156.290,322.366 156.400 C 322.220 156.510,321.974 157.185,321.818 157.900 C 321.663 158.615,321.391 159.200,321.213 159.200 C 321.035 159.200,320.771 159.830,320.626 160.600 C 320.482 161.370,320.210 162.000,320.022 162.000 C 319.834 162.000,319.464 162.900,319.200 164.000 C 318.936 165.100,318.572 166.000,318.392 166.000 C 318.211 166.000,317.945 166.540,317.800 167.200 C 317.655 167.860,317.390 168.400,317.212 168.400 C 317.033 168.400,316.765 168.884,316.617 169.476 C 316.468 170.067,315.999 171.040,315.573 171.637 C 315.148 172.235,314.800 172.921,314.800 173.162 C 314.800 173.403,314.634 173.600,314.432 173.600 C 314.229 173.600,313.942 174.152,313.794 174.827 C 313.646 175.502,313.272 176.151,312.962 176.270 C 312.653 176.388,312.400 176.654,312.400 176.860 C 312.400 177.236,311.991 177.806,310.700 179.229 C 310.315 179.653,310.000 180.167,310.000 180.371 C 310.000 181.849,308.962 182.000,298.771 182.000 C 288.738 182.000,287.627 181.831,289.900 180.648 C 290.505 180.334,291.436 179.609,291.970 179.038 C 292.503 178.467,293.114 178.000,293.327 178.000 C 293.540 178.000,294.273 177.460,294.957 176.801 C 297.653 174.200,299.332 172.800,299.756 172.800 C 300.000 172.800,300.703 172.170,301.317 171.400 C 301.931 170.630,302.632 170.000,302.874 170.000 C 303.116 170.000,303.829 169.460,304.460 168.800 C 305.091 168.140,305.781 167.600,305.994 167.600 C 306.207 167.600,306.954 166.970,307.655 166.200 C 308.355 165.430,309.133 164.800,309.383 164.800 C 309.633 164.800,310.279 164.268,310.819 163.617 C 311.358 162.966,311.990 162.426,312.222 162.417 C 312.453 162.408,313.254 161.770,314.000 161.000 C 314.746 160.230,315.585 159.600,315.864 159.600 C 316.143 159.600,316.544 159.285,316.754 158.900 C 316.965 158.515,317.860 157.760,318.743 157.221 C 319.626 156.683,320.571 155.828,320.842 155.321 C 321.113 154.815,321.553 154.400,321.819 154.400 C 322.085 154.400,322.526 154.130,322.800 153.800 C 323.533 152.917,323.572 153.042,323.079 154.700 M278.944 160.100 C 278.798 161.035,278.544 161.890,278.380 162.000 C 278.216 162.110,277.952 163.235,277.795 164.500 C 277.637 165.765,277.373 166.800,277.209 166.800 C 277.045 166.800,276.712 167.835,276.470 169.100 C 275.594 173.675,274.609 177.804,274.348 178.000 C 274.201 178.110,273.952 179.235,273.795 180.500 C 273.637 181.765,273.370 182.800,273.201 182.800 C 273.032 182.800,272.799 183.159,272.685 183.598 C 272.570 184.037,272.144 184.521,271.738 184.675 C 271.332 184.828,270.491 185.459,269.869 186.077 C 269.247 186.695,268.609 187.200,268.450 187.200 C 268.291 187.200,267.540 187.824,266.781 188.587 C 266.021 189.350,265.236 189.980,265.036 189.987 C 264.835 189.994,264.160 190.572,263.536 191.272 L 262.400 192.544 262.400 191.472 C 262.400 190.882,262.562 190.400,262.759 190.400 C 262.957 190.400,263.245 189.140,263.400 187.600 C 263.555 186.060,263.820 184.800,263.989 184.800 C 264.158 184.800,264.424 183.675,264.579 182.300 C 264.735 180.925,265.116 178.824,265.427 177.632 C 265.738 176.440,266.108 174.325,266.251 172.932 C 266.394 171.539,266.642 170.400,266.803 170.400 C 266.964 170.400,267.183 169.628,267.289 168.684 C 267.475 167.033,268.967 164.800,269.884 164.800 C 270.100 164.800,270.619 164.418,271.038 163.952 C 271.873 163.023,275.806 160.400,276.365 160.400 C 276.557 160.400,276.818 160.130,276.945 159.800 C 277.071 159.470,277.451 159.200,277.787 159.200 C 278.124 159.200,278.400 159.020,278.400 158.800 C 278.400 158.580,278.582 158.400,278.805 158.400 C 279.056 158.400,279.109 159.045,278.944 160.100 M135.700 164.184 C 134.385 165.499,134.501 170.400,135.847 170.400 C 136.151 170.400,136.400 170.580,136.400 170.800 C 136.400 171.615,187.112 171.320,187.947 170.500 C 189.267 169.205,189.762 167.364,189.183 165.900 C 188.022 162.968,190.346 163.195,162.038 163.242 L 136.600 163.284 135.700 164.184 M194.500 164.184 C 193.204 165.480,193.253 168.577,194.593 170.100 L 195.562 171.200 209.501 171.200 C 224.172 171.200,225.324 171.073,225.774 169.400 C 226.286 167.497,225.969 165.394,225.007 164.300 L 224.038 163.200 209.719 163.242 C 195.430 163.284,195.398 163.286,194.500 164.184 M256.091 181.557 C 255.886 181.690,255.485 183.600,255.200 185.800 C 254.915 188.000,254.557 189.890,254.404 190.000 C 254.251 190.110,253.930 191.460,253.691 193.000 C 252.671 199.558,251.247 202.800,249.386 202.800 C 249.144 202.800,248.389 203.430,247.708 204.200 C 247.026 204.970,246.304 205.600,246.104 205.600 C 245.903 205.600,245.317 206.050,244.800 206.600 C 244.283 207.150,243.691 207.600,243.485 207.600 C 243.053 207.600,243.511 203.911,243.981 203.600 C 244.148 203.490,244.508 202.455,244.782 201.300 C 245.056 200.145,245.442 199.200,245.640 199.200 C 245.838 199.200,246.000 198.882,246.000 198.494 C 246.000 198.106,246.360 197.116,246.800 196.296 C 247.240 195.475,247.600 194.442,247.600 194.001 C 247.600 193.561,247.751 193.200,247.936 193.200 C 248.121 193.200,248.510 192.480,248.800 191.600 C 249.090 190.720,249.465 190.000,249.632 190.000 C 249.800 190.000,250.055 189.460,250.200 188.800 C 250.345 188.140,250.611 187.600,250.791 187.600 C 250.972 187.600,251.514 186.842,251.998 185.915 C 252.481 184.988,253.219 183.794,253.638 183.261 C 254.057 182.728,254.400 182.046,254.400 181.746 C 254.400 181.446,254.584 181.200,254.810 181.200 C 255.035 181.200,255.430 180.705,255.687 180.100 L 256.154 179.000 256.309 180.157 C 256.394 180.793,256.296 181.423,256.091 181.557 M136.557 181.872 C 135.291 182.125,134.741 183.549,134.878 186.216 C 135.090 190.351,130.976 190.021,180.868 189.902 L 223.936 189.800 224.968 188.830 C 226.400 187.485,226.478 183.797,225.100 182.589 C 224.256 181.849,140.083 181.168,136.557 181.872 M302.000 190.413 C 302.000 190.639,301.730 190.929,301.400 191.055 C 301.070 191.182,300.800 191.496,300.800 191.754 C 300.800 192.349,298.579 194.800,298.039 194.800 C 297.815 194.800,296.773 195.700,295.722 196.800 C 294.671 197.900,293.590 198.800,293.320 198.800 C 293.049 198.800,292.637 199.158,292.403 199.595 C 292.168 200.033,291.545 200.499,291.017 200.631 C 290.490 200.764,289.961 201.126,289.841 201.436 C 289.722 201.746,289.369 202.000,289.055 202.000 C 288.742 202.000,288.382 202.270,288.255 202.600 C 288.129 202.930,287.749 203.200,287.413 203.200 C 287.076 203.200,286.800 203.358,286.800 203.551 C 286.800 203.745,286.215 204.140,285.500 204.429 C 284.785 204.718,284.110 205.082,284.000 205.239 C 283.570 205.849,277.348 208.790,276.476 208.795 C 275.968 208.798,275.655 208.965,275.780 209.167 C 275.905 209.370,275.453 209.657,274.777 209.805 C 274.100 209.954,273.068 210.323,272.484 210.627 C 271.899 210.930,270.649 211.294,269.706 211.435 C 268.762 211.577,267.901 211.836,267.793 212.011 C 267.685 212.187,266.832 212.456,265.898 212.610 C 264.964 212.764,264.020 213.032,263.800 213.206 C 263.580 213.379,262.140 213.653,260.600 213.814 C 259.060 213.975,257.710 214.243,257.600 214.409 C 257.490 214.576,255.240 214.844,252.600 215.006 L 247.800 215.301 248.562 214.450 C 248.981 213.983,249.488 213.600,249.688 213.600 C 249.887 213.600,250.535 213.153,251.126 212.606 C 254.312 209.657,255.354 208.800,255.756 208.800 C 256.000 208.800,256.703 208.170,257.317 207.400 C 257.931 206.630,258.653 206.000,258.921 206.000 C 259.189 206.000,259.855 205.460,260.400 204.800 C 260.945 204.140,261.614 203.600,261.886 203.600 C 262.158 203.600,262.954 202.970,263.655 202.200 C 264.355 201.430,265.133 200.800,265.383 200.800 C 265.633 200.800,266.279 200.268,266.819 199.617 C 267.358 198.966,267.990 198.426,268.222 198.417 C 268.453 198.408,269.254 197.770,270.000 197.000 C 270.746 196.230,271.585 195.600,271.864 195.600 C 272.143 195.600,272.544 195.285,272.754 194.900 C 272.965 194.515,273.860 193.760,274.743 193.221 C 275.626 192.683,276.567 191.836,276.832 191.340 C 277.098 190.843,277.605 190.359,277.958 190.265 C 279.426 189.872,302.000 190.011,302.000 190.413 M137.600 200.695 C 134.599 201.054,133.402 206.042,135.854 207.971 C 137.488 209.256,155.756 209.252,157.239 207.966 C 159.735 205.801,158.219 201.206,154.822 200.644 C 153.266 200.387,139.850 200.426,137.600 200.695 M165.600 200.687 C 163.354 200.969,162.800 201.749,162.800 204.633 C 162.800 209.193,159.992 208.833,194.564 208.707 L 224.200 208.600 225.100 207.700 C 226.403 206.397,226.403 202.531,225.100 201.389 C 224.240 200.635,171.011 200.007,165.600 200.687 M135.700 220.184 C 134.385 221.499,134.501 226.400,135.847 226.400 C 136.151 226.400,136.400 226.580,136.400 226.800 C 136.400 227.440,203.140 227.342,204.500 226.700 C 206.367 225.819,206.659 221.895,204.982 220.218 L 203.964 219.200 170.282 219.242 L 136.600 219.284 135.700 220.184 M135.700 238.938 C 134.463 240.162,134.401 244.001,135.600 245.200 C 136.861 246.461,193.431 246.456,194.511 245.195 C 195.703 243.803,195.447 240.585,194.031 239.169 L 192.862 238.000 164.731 238.024 L 136.600 238.048 135.700 238.938 M316.655 263.278 C 316.513 264.640,316.257 265.855,316.087 265.978 C 315.917 266.100,315.560 267.268,315.295 268.573 C 315.029 269.878,314.643 271.050,314.438 271.177 C 314.232 271.304,313.940 271.901,313.788 272.504 C 313.637 273.107,313.367 273.600,313.188 273.600 C 313.010 273.600,312.745 274.140,312.600 274.800 C 312.455 275.460,312.193 276.000,312.017 276.000 C 311.841 276.000,311.466 276.557,311.184 277.238 C 310.633 278.568,310.303 278.962,305.778 283.700 C 304.149 285.405,302.639 286.800,302.422 286.800 C 302.205 286.800,301.835 287.160,301.600 287.600 C 301.365 288.040,300.921 288.400,300.614 288.400 C 300.308 288.400,299.819 288.626,299.529 288.901 C 298.833 289.561,294.727 291.600,294.094 291.600 C 293.822 291.600,293.600 291.772,293.600 291.982 C 293.600 292.192,292.970 292.482,292.200 292.626 C 291.430 292.771,290.800 293.029,290.800 293.199 C 290.800 293.370,289.945 293.637,288.900 293.794 C 287.855 293.950,286.872 294.286,286.715 294.539 C 286.330 295.161,191.600 295.435,191.600 294.814 C 191.600 294.586,191.835 294.400,192.122 294.400 C 192.408 294.400,193.254 293.770,194.000 293.000 C 194.746 292.230,195.525 291.600,195.731 291.600 C 196.177 291.600,199.600 288.239,199.600 287.801 C 199.600 287.535,201.274 285.460,203.017 283.566 C 203.338 283.218,203.600 282.794,203.600 282.624 C 203.600 282.455,204.138 281.519,204.796 280.544 C 205.454 279.569,206.103 278.328,206.239 277.786 C 206.375 277.244,206.633 276.800,206.812 276.800 C 206.990 276.800,207.262 276.215,207.414 275.500 C 207.567 274.785,207.850 274.004,208.043 273.763 C 208.784 272.839,210.037 268.086,210.272 265.307 C 210.407 263.708,210.671 262.400,210.859 262.400 C 211.046 262.400,211.200 262.040,211.200 261.600 C 211.200 260.804,211.467 260.800,264.057 260.800 L 316.914 260.800 316.655 263.278 " stroke="none" fill="#f8b119" fill-rule="evenodd"></path><path id="path4" d="" stroke="none" fill="#00ff00" fill-rule="evenodd"></path></g></svg>