<svg id="svg" version="1.1" width="400" height="400" viewBox="0 0 400 400" xmlns="http://www.w3.org/2000/svg" xmlns:xlink="http://www.w3.org/1999/xlink" ><g id="svgg"><path id="path0" d="M135.800 72.000 C 135.936 72.220,136.397 72.400,136.824 72.400 C 137.251 72.400,137.600 72.220,137.600 72.000 C 137.600 71.780,137.139 71.600,136.576 71.600 C 135.996 71.600,135.660 71.773,135.800 72.000 M175.900 83.100 C 196.195 83.157,229.405 83.157,249.700 83.100 C 269.995 83.043,253.390 82.996,212.800 82.996 C 172.210 82.996,155.605 83.043,175.900 83.100 M103.600 100.200 C 103.600 100.530,103.780 100.800,104.000 100.800 C 104.220 100.800,104.400 100.530,104.400 100.200 C 104.400 99.870,104.220 99.600,104.000 99.600 C 103.780 99.600,103.600 99.870,103.600 100.200 M114.965 109.400 C 114.966 113.360,115.026 114.926,115.098 112.880 C 115.171 110.834,115.171 107.594,115.098 105.680 C 115.024 103.766,114.965 105.440,114.965 109.400 M130.509 109.200 C 130.509 110.190,130.587 110.595,130.682 110.100 C 130.778 109.605,130.778 108.795,130.682 108.300 C 130.587 107.805,130.509 108.210,130.509 109.200 M170.332 115.100 C 189.764 115.157,221.444 115.157,240.732 115.100 C 260.019 115.043,244.120 114.996,205.400 114.996 C 166.680 114.996,150.899 115.043,170.332 115.100 M138.000 135.600 C 138.000 135.820,138.450 136.000,139.000 136.000 C 139.550 136.000,140.000 135.820,140.000 135.600 C 140.000 135.380,139.550 135.200,139.000 135.200 C 138.450 135.200,138.000 135.380,138.000 135.600 M114.996 217.600 C 114.996 261.930,115.043 280.065,115.100 257.900 C 115.157 235.735,115.157 199.465,115.100 177.300 C 115.043 155.135,114.996 173.270,114.996 217.600 M212.100 147.100 L 284.800 147.202 284.800 232.001 L 284.800 316.800 209.400 316.800 C 153.815 316.800,134.000 316.918,134.000 317.250 C 134.000 317.541,134.443 317.611,135.250 317.450 C 135.937 317.313,169.957 317.200,210.850 317.200 L 285.200 317.200 285.200 232.000 L 285.200 146.800 212.300 146.899 L 139.400 146.998 212.100 147.100 M103.600 300.200 C 103.600 300.530,103.780 300.800,104.000 300.800 C 104.220 300.800,104.400 300.530,104.400 300.200 C 104.400 299.870,104.220 299.600,104.000 299.600 C 103.780 299.600,103.600 299.870,103.600 300.200 M131.200 328.000 C 131.200 328.220,131.470 328.400,131.800 328.400 C 132.130 328.400,132.400 328.220,132.400 328.000 C 132.400 327.780,132.130 327.600,131.800 327.600 C 131.470 327.600,131.200 327.780,131.200 328.000 " stroke="none" fill="#bc7a00" fill-rule="evenodd"></path><path id="path1" d="" stroke="none" fill="#ff0000" fill-rule="evenodd"></path><path id="path2" d="" stroke="none" fill="#ff5500" fill-rule="evenodd"></path><path id="path3" d="M134.167 72.141 C 134.041 72.471,133.579 72.609,132.980 72.494 C 132.441 72.391,131.999 72.463,131.998 72.653 C 131.996 72.844,131.237 73.029,130.309 73.065 C 129.382 73.101,128.558 73.326,128.478 73.565 C 128.399 73.804,128.068 74.000,127.743 74.000 C 127.399 74.000,127.272 74.192,127.438 74.462 C 127.617 74.751,127.548 74.815,127.254 74.633 C 126.689 74.284,124.000 75.108,124.000 75.631 C 124.000 75.834,123.865 75.972,123.700 75.938 C 123.179 75.831,120.302 77.234,118.988 78.237 C 118.293 78.766,117.560 79.200,117.358 79.200 C 117.157 79.200,116.768 79.560,116.493 80.000 C 116.218 80.440,115.799 80.800,115.562 80.800 C 113.461 80.800,104.009 93.997,104.983 95.572 C 105.128 95.807,105.037 96.000,104.780 96.000 C 104.487 96.000,104.403 96.357,104.554 96.958 C 104.717 97.607,104.601 97.991,104.197 98.146 C 103.533 98.400,103.371 99.600,104.000 99.600 C 104.629 99.600,104.467 100.689,103.800 100.945 C 103.269 101.148,103.200 112.568,103.200 200.387 C 103.200 288.310,103.268 299.600,103.800 299.600 C 104.130 299.600,104.400 299.870,104.400 300.200 C 104.400 300.530,104.220 300.800,104.000 300.800 C 103.395 300.800,103.521 302.795,104.141 303.033 C 104.471 303.159,104.609 303.621,104.494 304.220 C 104.388 304.773,104.496 305.200,104.741 305.200 C 104.980 305.200,105.078 305.454,104.959 305.764 C 104.840 306.074,105.205 307.306,105.771 308.502 C 106.337 309.699,106.800 310.783,106.800 310.912 C 106.800 311.486,109.522 315.522,110.700 316.693 C 111.415 317.404,112.000 318.138,112.000 318.323 C 112.000 318.709,113.719 320.400,114.112 320.400 C 114.255 320.400,114.900 320.895,115.545 321.500 C 117.022 322.886,121.343 325.600,122.072 325.600 C 122.375 325.600,123.017 325.877,123.500 326.215 C 123.984 326.554,124.923 326.869,125.589 326.915 C 126.254 326.962,126.799 327.158,126.799 327.350 C 126.800 327.543,127.338 327.592,127.996 327.461 C 128.826 327.295,129.163 327.372,129.096 327.711 C 129.043 327.980,129.495 328.257,130.100 328.327 C 130.705 328.396,131.200 328.261,131.200 328.027 C 131.200 327.792,131.470 327.600,131.800 327.600 C 132.130 327.600,132.400 327.780,132.400 328.000 C 132.400 328.265,159.533 328.400,213.000 328.400 C 259.372 328.400,293.600 328.250,293.600 328.047 C 293.600 327.852,293.959 327.599,294.398 327.485 C 294.837 327.370,295.322 326.944,295.476 326.538 C 295.629 326.132,295.990 325.562,296.278 325.271 C 296.704 324.840,296.800 307.843,296.800 232.370 C 296.800 128.105,297.125 138.252,293.723 136.161 L 292.200 135.225 216.100 135.212 C 165.625 135.204,140.000 135.335,140.000 135.600 C 140.000 135.820,139.550 136.000,139.000 136.000 C 138.347 136.000,138.000 135.776,138.000 135.355 C 138.000 134.865,137.710 134.752,136.800 134.885 C 136.140 134.982,135.600 134.900,135.600 134.703 C 135.600 134.506,135.195 134.403,134.700 134.474 C 134.205 134.545,133.451 134.287,133.025 133.902 C 132.598 133.516,132.053 133.200,131.814 133.200 C 128.507 133.200,118.216 124.633,117.029 120.891 C 116.873 120.401,116.443 119.997,116.073 119.994 C 115.491 119.989,115.481 119.934,116.000 119.586 C 116.526 119.234,116.516 119.120,115.919 118.662 C 115.483 118.327,115.320 117.828,115.466 117.270 C 115.599 116.760,115.508 116.400,115.247 116.400 C 114.935 116.400,114.800 114.281,114.800 109.376 C 114.800 104.164,114.919 102.426,115.262 102.639 C 115.595 102.844,115.658 102.512,115.486 101.453 C 115.342 100.567,115.398 100.075,115.627 100.217 C 115.836 100.346,116.362 99.621,116.797 98.607 C 118.512 94.605,126.443 86.800,128.794 86.800 C 129.017 86.800,129.200 86.620,129.200 86.400 C 129.200 86.180,129.425 86.045,129.700 86.100 C 129.975 86.155,130.151 85.962,130.090 85.670 C 130.030 85.379,130.156 85.249,130.372 85.383 C 130.962 85.747,132.831 85.174,132.547 84.714 C 132.394 84.467,132.624 84.417,133.150 84.584 C 133.770 84.781,134.000 84.684,134.000 84.227 C 134.000 83.496,134.660 83.381,134.891 84.072 C 134.981 84.343,135.346 84.430,135.749 84.275 C 136.135 84.127,136.336 83.820,136.196 83.593 C 136.028 83.321,136.494 83.269,137.571 83.442 C 138.675 83.618,139.200 83.555,139.200 83.247 C 139.200 82.908,158.166 82.794,213.300 82.800 C 254.055 82.805,287.707 82.806,288.082 82.804 C 288.843 82.800,290.778 81.030,290.840 80.282 C 291.255 75.312,291.152 74.752,289.520 73.069 C 288.498 72.017,287.844 71.606,287.661 71.901 C 287.477 72.199,287.174 72.228,286.789 71.985 C 285.954 71.456,137.600 71.471,137.600 72.000 C 137.600 72.220,137.251 72.400,136.824 72.400 C 136.397 72.400,135.936 72.220,135.800 72.000 C 135.442 71.420,134.410 71.509,134.167 72.141 M134.394 103.900 C 134.389 104.483,134.326 104.503,134.018 104.016 C 133.627 103.398,132.654 103.980,131.187 105.708 C 130.025 107.077,130.457 112.680,131.815 113.847 C 133.072 114.926,133.447 115.015,133.735 114.300 C 133.873 113.958,133.947 113.990,133.968 114.400 C 133.996 114.931,142.224 114.989,205.887 114.906 L 277.774 114.813 279.187 113.395 C 280.363 112.215,280.499 111.913,280.000 111.595 C 279.488 111.268,279.503 111.211,280.100 111.206 C 282.231 111.187,280.260 105.666,277.579 104.143 L 275.918 103.200 205.159 103.200 C 138.038 103.200,134.400 103.236,134.394 103.900 M116.177 138.400 C 116.473 138.400,116.818 138.670,116.945 139.000 C 117.071 139.330,117.442 139.600,117.768 139.600 C 118.094 139.600,118.504 139.825,118.680 140.100 C 119.697 141.690,127.746 145.265,128.135 144.300 C 128.249 144.018,128.351 144.125,128.368 144.547 C 128.391 145.091,128.617 145.237,129.200 145.084 C 129.640 144.969,130.000 145.050,130.000 145.264 C 130.000 145.480,130.381 145.533,130.850 145.384 C 131.425 145.202,131.611 145.259,131.425 145.560 C 131.273 145.805,131.465 146.127,131.851 146.275 C 132.254 146.430,132.619 146.343,132.709 146.072 C 132.935 145.394,133.600 145.490,133.600 146.200 C 133.600 146.869,135.013 147.026,135.400 146.400 C 135.748 145.837,136.400 145.902,136.400 146.500 C 136.400 146.899,151.488 146.978,210.800 146.891 L 285.200 146.782 285.200 231.991 L 285.200 317.200 210.850 317.200 C 169.958 317.200,135.938 317.313,135.250 317.450 C 134.230 317.654,134.000 317.571,134.000 316.998 C 134.000 316.421,133.754 316.335,132.631 316.517 C 131.622 316.681,131.200 316.578,131.026 316.125 C 130.836 315.628,130.676 315.605,130.195 316.004 C 129.710 316.407,129.600 316.378,129.600 315.849 C 129.600 315.088,128.559 314.971,128.265 315.700 C 128.137 316.018,128.052 315.963,128.032 315.549 C 128.014 315.190,127.460 314.673,126.800 314.400 C 126.140 314.127,125.600 313.757,125.600 313.578 C 125.600 313.400,125.209 313.130,124.730 312.978 C 123.477 312.580,120.124 309.330,119.115 307.535 C 118.641 306.691,118.125 306.000,117.970 306.000 C 117.814 306.000,117.574 305.550,117.436 305.000 C 117.290 304.419,116.895 303.997,116.492 303.994 C 116.042 303.990,115.962 303.885,116.263 303.693 C 116.826 303.335,116.489 301.209,115.829 300.956 C 115.552 300.849,115.429 300.214,115.525 299.389 C 115.624 298.541,115.515 298.000,115.244 298.000 C 114.920 298.000,114.803 276.200,114.812 217.500 C 114.820 162.621,114.954 137.223,115.232 137.700 C 115.456 138.085,115.882 138.400,116.177 138.400 " stroke="none" fill="#f8b119" fill-rule="evenodd"></path><path id="path4" d="" stroke="none" fill="#ffff00" fill-rule="evenodd"></path></g></svg>