<svg id="svg" version="1.1" width="400" height="400" viewBox="0 0 400 400" xmlns="http://www.w3.org/2000/svg" xmlns:xlink="http://www.w3.org/1999/xlink" ><g id="svgg"><path id="path0" d="" stroke="none" fill="#000000" fill-rule="evenodd"></path><path id="path1" d="" stroke="none" fill="#555500" fill-rule="evenodd"></path><path id="path2" d="M276.378 116.700 L 275.000 118.200 276.500 116.822 C 277.896 115.538,278.184 115.200,277.878 115.200 C 277.812 115.200,277.137 115.875,276.378 116.700 M252.575 140.900 L 251.400 142.200 252.700 141.025 C 253.415 140.379,254.000 139.794,254.000 139.725 C 254.000 139.416,253.670 139.688,252.575 140.900 M220.975 235.300 L 219.800 236.600 221.100 235.425 C 221.815 234.779,222.400 234.194,222.400 234.125 C 222.400 233.816,222.070 234.088,220.975 235.300 " stroke="none" fill="#ff5500" fill-rule="evenodd"></path><path id="path3" d="M316.200 88.773 C 312.938 89.741,307.644 92.444,303.913 95.047 C 302.215 96.231,300.685 97.202,300.513 97.204 C 300.204 97.208,297.259 99.360,295.900 100.574 C 295.515 100.918,295.065 101.202,294.900 101.204 C 294.735 101.207,293.750 101.993,292.710 102.952 C 291.671 103.910,290.411 104.963,289.910 105.291 C 283.367 109.579,259.038 133.569,247.576 147.036 C 241.943 153.654,241.226 154.557,241.213 155.057 C 241.206 155.309,240.967 155.604,240.683 155.713 C 240.399 155.822,239.284 157.236,238.207 158.856 C 237.130 160.475,236.012 161.944,235.724 162.120 C 235.436 162.296,235.198 162.656,235.196 162.920 C 235.195 163.184,233.890 165.384,232.296 167.809 C 230.703 170.235,229.058 172.980,228.639 173.910 L 227.878 175.602 228.997 180.101 C 231.777 191.281,229.872 212.712,226.790 204.915 C 226.287 203.642,225.723 202.429,225.538 202.220 C 225.352 202.011,225.200 201.581,225.200 201.264 C 225.200 200.947,224.857 199.948,224.438 199.044 C 224.019 198.140,222.641 194.610,221.376 191.200 C 220.111 187.790,218.466 183.470,217.720 181.600 C 216.204 177.797,214.753 174.014,212.177 167.147 C 204.266 146.054,204.100 145.700,200.362 141.960 C 194.495 136.090,186.094 134.515,177.400 137.656 C 175.200 138.451,172.050 139.584,170.400 140.173 C 168.750 140.763,165.870 141.896,164.000 142.691 C 162.130 143.486,159.250 144.622,157.600 145.216 C 152.508 147.046,143.094 150.650,141.200 151.493 C 140.210 151.934,137.330 153.046,134.800 153.964 C 129.394 155.925,126.149 157.128,124.900 157.635 C 124.405 157.836,123.595 158.162,123.100 158.359 C 122.605 158.557,121.570 158.992,120.800 159.326 C 119.230 160.006,116.356 161.107,109.600 163.616 C 107.070 164.555,102.129 166.466,98.620 167.862 C 95.111 169.258,92.051 170.401,91.820 170.402 C 91.589 170.404,90.925 170.653,90.345 170.955 C 89.765 171.258,88.325 171.823,87.145 172.211 C 75.946 175.896,70.287 182.917,70.227 193.200 C 70.181 201.126,73.258 204.929,76.980 201.545 C 77.189 201.355,77.619 201.200,77.936 201.200 C 78.253 201.200,79.252 200.855,80.156 200.433 C 82.062 199.545,94.554 194.800,94.988 194.800 C 95.149 194.800,97.616 193.810,100.471 192.600 C 106.151 190.192,106.713 190.064,107.058 191.100 C 107.402 192.135,109.626 198.043,110.107 199.200 C 110.336 199.750,110.571 200.380,110.629 200.600 C 110.687 200.820,111.221 202.170,111.815 203.600 C 112.410 205.030,113.772 208.615,114.842 211.567 C 115.912 214.518,117.675 219.108,118.759 221.767 C 119.842 224.425,122.030 230.020,123.619 234.200 C 128.329 246.584,131.617 255.254,132.494 257.600 C 133.606 260.572,134.368 262.402,134.994 263.600 C 135.281 264.150,135.695 265.230,135.913 266.000 C 136.132 266.770,137.411 270.261,138.755 273.759 C 140.100 277.256,141.200 280.270,141.200 280.457 C 141.200 280.645,141.719 281.923,142.353 283.299 C 142.987 284.675,143.963 287.060,144.522 288.600 C 149.395 302.027,150.804 304.531,155.473 308.057 C 162.082 313.048,171.279 313.327,181.400 308.843 C 181.840 308.648,184.000 307.811,186.200 306.983 C 188.400 306.155,191.010 305.119,192.000 304.682 C 193.947 303.821,197.946 302.323,204.088 300.154 C 206.226 299.398,209.466 298.137,211.288 297.350 C 214.360 296.023,219.656 293.983,222.000 293.222 C 222.550 293.043,227.643 291.075,233.317 288.849 C 238.991 286.622,243.731 284.800,243.849 284.800 C 244.303 284.800,253.793 281.061,256.675 279.746 C 257.817 279.226,258.940 278.800,259.172 278.800 C 259.822 278.800,270.409 274.613,272.627 273.478 C 279.434 269.996,283.340 263.428,283.377 255.400 C 283.425 245.336,282.411 244.488,274.179 247.710 C 271.110 248.911,268.150 250.028,267.600 250.191 C 267.050 250.355,266.060 250.717,265.400 250.997 C 264.740 251.276,262.400 252.173,260.200 252.990 C 258.000 253.807,255.975 254.660,255.700 254.887 C 255.425 255.113,255.200 255.176,255.200 255.026 C 255.200 254.877,254.705 255.027,254.100 255.360 C 252.897 256.022,247.142 258.091,247.003 257.911 C 246.956 257.850,246.428 256.450,245.830 254.800 C 245.232 253.150,244.289 250.630,243.735 249.200 C 243.181 247.770,242.452 245.880,242.116 245.000 C 241.147 242.465,240.927 241.938,239.832 239.525 C 239.265 238.273,238.800 237.075,238.800 236.861 C 238.800 236.648,237.442 232.952,235.783 228.648 L 232.767 220.823 235.738 217.091 C 240.633 210.942,250.541 207.045,262.627 206.515 C 269.154 206.229,270.322 205.380,280.384 193.600 C 281.041 192.830,281.944 191.789,282.390 191.286 C 282.835 190.783,283.200 190.198,283.200 189.986 C 283.200 189.774,283.366 189.600,283.569 189.600 C 283.772 189.600,284.769 188.385,285.784 186.900 C 286.798 185.415,288.237 183.390,288.980 182.400 C 289.722 181.410,291.381 179.071,292.665 177.202 C 293.949 175.334,295.765 172.749,296.700 171.458 C 297.635 170.168,298.400 168.862,298.400 168.556 C 298.400 168.250,298.550 168.000,298.734 168.000 C 298.917 168.000,300.222 166.001,301.634 163.558 C 303.045 161.115,304.470 158.704,304.800 158.201 C 307.648 153.854,312.039 145.755,316.837 136.000 C 318.839 131.930,320.801 127.970,321.197 127.200 C 323.748 122.242,328.291 109.192,329.440 103.521 C 331.896 91.401,326.732 85.649,316.200 88.773 M318.317 95.900 C 316.504 98.233,306.750 110.667,303.490 114.800 C 302.882 115.570,301.624 117.190,300.693 118.400 C 299.762 119.610,298.595 121.048,298.100 121.596 C 297.605 122.144,297.200 122.819,297.200 123.096 C 297.200 123.373,297.046 123.600,296.857 123.600 C 296.669 123.600,295.724 124.689,294.757 126.021 C 293.791 127.352,292.325 129.190,291.500 130.105 C 290.675 131.020,290.000 131.918,290.000 132.102 C 290.000 132.286,288.605 134.198,286.900 136.352 C 285.195 138.505,281.568 143.096,278.840 146.554 C 276.112 150.011,273.749 152.696,273.589 152.520 C 273.190 152.079,271.577 148.246,269.585 143.000 C 268.666 140.580,267.546 137.669,267.096 136.531 L 266.279 134.462 271.019 129.631 C 273.626 126.974,275.931 124.800,276.141 124.800 C 276.352 124.800,277.525 123.694,278.748 122.342 C 279.972 120.989,281.463 119.585,282.063 119.220 C 282.663 118.856,284.469 117.371,286.077 115.922 C 287.684 114.473,289.900 112.522,291.000 111.588 C 292.100 110.653,293.060 109.734,293.133 109.544 C 293.207 109.355,293.489 109.200,293.761 109.200 C 294.033 109.200,294.630 108.795,295.086 108.300 C 297.110 106.107,310.154 97.138,313.800 95.431 C 320.169 92.451,320.934 92.530,318.317 95.900 M324.273 100.100 C 323.947 103.985,321.808 112.050,320.002 116.200 C 319.811 116.640,319.386 117.630,319.059 118.400 C 317.297 122.546,311.735 134.527,310.610 136.600 C 303.830 149.095,303.961 148.892,302.847 148.677 C 302.271 148.565,298.245 148.060,293.900 147.554 C 289.555 147.048,286.000 146.497,286.000 146.330 C 286.000 146.163,287.472 144.176,289.271 141.913 C 291.069 139.651,293.829 136.180,295.402 134.200 C 296.976 132.220,299.419 129.070,300.832 127.200 C 302.244 125.330,303.494 123.710,303.610 123.600 C 304.281 122.961,310.000 115.612,310.000 115.389 C 310.000 114.948,323.989 97.200,324.337 97.200 C 324.435 97.200,324.406 98.505,324.273 100.100 M264.168 143.778 C 264.955 145.745,265.600 147.502,265.600 147.682 C 265.600 147.862,265.944 148.772,266.364 149.704 C 266.784 150.637,267.694 152.906,268.386 154.746 L 269.645 158.092 268.523 159.746 C 267.905 160.656,266.906 161.940,266.302 162.600 C 265.698 163.260,265.200 163.980,265.196 164.200 C 265.192 164.420,264.595 165.301,263.870 166.158 L 262.553 167.715 261.827 165.758 C 260.047 160.954,256.699 152.564,256.416 152.200 C 256.245 151.980,255.729 150.737,255.269 149.437 L 254.432 147.074 256.006 145.437 C 256.871 144.537,258.529 142.801,259.690 141.579 C 262.214 138.923,262.227 138.930,264.168 143.778 M191.852 142.572 C 194.217 143.655,197.654 146.662,198.971 148.800 C 200.094 150.625,200.654 151.990,203.793 160.550 C 205.235 164.483,206.545 167.903,206.704 168.150 C 206.863 168.398,207.192 169.140,207.434 169.800 C 210.458 178.046,211.547 180.912,213.210 185.000 C 215.109 189.670,222.443 208.926,223.291 211.468 C 223.745 212.827,223.419 213.451,220.649 216.523 C 220.016 217.225,219.034 218.520,218.468 219.400 C 217.901 220.280,216.505 222.170,215.365 223.600 C 212.299 227.447,208.800 234.657,208.800 237.131 C 208.800 239.779,210.815 241.512,213.342 241.037 C 215.096 240.708,222.314 234.207,225.741 229.869 C 228.293 226.641,229.200 225.833,229.200 226.789 C 229.200 227.003,229.648 228.128,230.195 229.289 C 230.742 230.450,231.895 233.380,232.759 235.800 C 234.787 241.486,237.500 248.669,238.201 250.208 C 239.111 252.209,242.001 259.733,241.897 259.830 C 241.729 259.988,234.760 262.820,231.000 264.258 C 229.020 265.015,227.040 265.788,226.600 265.976 C 226.160 266.163,224.072 266.956,221.961 267.737 C 219.849 268.518,215.349 270.235,211.961 271.554 C 208.572 272.872,202.877 275.039,199.304 276.370 C 195.731 277.700,192.491 278.978,192.104 279.210 C 191.717 279.441,189.690 280.235,187.600 280.973 C 182.364 282.822,181.970 283.375,183.189 287.166 C 184.188 290.273,184.099 294.016,182.975 296.183 C 182.659 296.793,182.400 297.458,182.400 297.662 C 182.400 298.212,180.835 300.368,179.010 302.334 C 173.600 308.160,163.664 308.431,157.564 302.919 C 154.804 300.426,153.766 298.233,148.425 283.600 C 147.742 281.730,146.939 279.660,146.639 279.000 C 146.340 278.340,145.866 277.080,145.587 276.200 C 145.307 275.320,144.853 274.240,144.578 273.800 C 144.303 273.360,143.265 270.750,142.271 268.000 C 141.278 265.250,139.623 260.840,138.593 258.200 C 137.563 255.560,135.908 251.240,134.915 248.600 C 133.144 243.892,132.237 241.505,130.165 236.100 C 129.596 234.615,128.786 232.660,128.365 231.756 C 127.944 230.852,127.600 229.890,127.600 229.618 C 127.600 229.346,127.341 228.646,127.025 228.062 C 126.709 227.478,125.523 224.390,124.390 221.200 C 123.257 218.010,122.061 214.770,121.732 214.000 C 121.403 213.230,120.878 212.008,120.565 211.284 C 120.253 210.560,119.445 208.490,118.770 206.684 C 118.094 204.878,117.397 203.040,117.221 202.600 C 117.044 202.160,115.954 199.280,114.798 196.200 C 113.643 193.120,112.360 189.891,111.948 189.025 C 111.537 188.159,111.200 187.259,111.200 187.025 C 111.197 183.853,102.401 174.000,99.572 174.000 C 99.003 174.000,99.129 173.202,99.700 173.186 C 99.975 173.179,100.920 172.825,101.800 172.400 C 102.680 171.975,103.590 171.621,103.822 171.614 C 104.230 171.600,110.568 169.162,112.200 168.390 C 112.640 168.182,116.690 166.650,121.200 164.985 C 125.710 163.320,130.570 161.451,132.000 160.831 C 133.430 160.210,135.680 159.304,137.000 158.815 C 138.320 158.327,140.030 157.685,140.800 157.389 C 141.570 157.093,144.000 156.195,146.200 155.394 C 148.400 154.593,150.740 153.707,151.400 153.425 C 152.060 153.143,153.116 152.701,153.747 152.443 C 155.056 151.908,163.225 148.840,167.400 147.315 C 168.940 146.753,170.371 146.137,170.580 145.946 C 170.789 145.756,171.189 145.600,171.470 145.600 C 171.750 145.600,173.148 145.065,174.575 144.411 C 176.003 143.758,177.672 143.103,178.285 142.956 C 178.898 142.809,179.580 142.579,179.800 142.445 C 182.167 140.996,188.558 141.064,191.852 142.572 M289.028 152.479 C 289.263 152.632,290.793 152.843,292.428 152.946 C 294.063 153.049,295.670 153.223,296.000 153.333 C 296.330 153.442,297.486 153.638,298.568 153.768 C 299.651 153.897,300.606 154.073,300.690 154.157 C 301.340 154.807,295.334 163.200,294.216 163.203 C 292.429 163.208,276.318 161.208,275.506 160.880 C 274.740 160.571,276.163 158.433,280.020 154.097 C 280.361 153.714,280.928 152.939,281.279 152.376 L 281.918 151.353 285.259 151.776 C 287.097 152.009,288.793 152.326,289.028 152.479 M254.519 162.100 C 256.656 167.435,258.448 172.025,258.502 172.300 C 258.592 172.760,252.053 181.558,251.600 181.585 C 251.490 181.592,250.788 180.023,250.040 178.099 C 249.292 176.174,248.369 173.880,247.990 173.000 C 246.037 168.469,243.600 162.059,243.600 161.453 C 243.600 160.559,249.718 152.400,250.388 152.400 C 250.523 152.400,252.381 156.765,254.519 162.100 M281.800 167.016 C 292.529 168.267,292.388 168.225,291.026 169.807 C 290.461 170.463,289.736 171.554,289.414 172.231 C 287.861 175.496,285.517 178.019,284.229 177.813 C 283.553 177.705,278.950 177.147,274.000 176.574 C 269.050 176.000,264.692 175.412,264.315 175.266 C 263.161 174.818,270.650 165.629,272.000 165.836 C 272.550 165.921,276.960 166.452,281.800 167.016 M240.118 167.500 C 240.491 168.733,242.050 172.960,242.590 174.200 C 242.877 174.860,243.880 177.380,244.820 179.800 C 245.759 182.220,246.653 184.380,246.806 184.600 C 247.759 185.969,247.513 186.928,245.574 189.396 C 244.488 190.777,243.600 192.102,243.600 192.339 C 243.600 192.577,243.240 192.965,242.800 193.200 C 242.360 193.435,242.000 193.826,242.000 194.067 C 242.000 194.309,241.679 194.797,241.286 195.153 C 240.893 195.509,240.170 196.340,239.679 197.000 C 236.269 201.586,235.015 202.924,235.366 201.600 C 236.474 197.430,235.954 184.822,234.430 178.909 L 233.685 176.019 235.692 172.509 C 238.957 166.802,239.665 166.000,240.118 167.500 M188.600 169.827 C 187.060 170.359,185.440 170.955,185.000 171.150 C 184.560 171.345,182.850 172.007,181.200 172.621 C 179.550 173.235,177.616 173.978,176.902 174.273 C 176.188 174.568,175.509 174.800,175.392 174.788 C 175.276 174.776,174.690 175.022,174.090 175.335 C 172.632 176.094,171.789 176.428,166.400 178.380 C 159.920 180.726,157.703 181.579,155.303 182.650 C 154.150 183.165,151.450 184.203,149.303 184.957 C 134.692 190.089,132.363 191.590,134.747 194.339 C 135.891 195.658,141.568 194.652,143.900 192.717 C 144.175 192.489,144.400 192.424,144.400 192.574 C 144.400 192.723,144.895 192.587,145.500 192.271 C 147.098 191.438,147.836 191.151,156.000 188.187 C 160.070 186.710,163.580 185.364,163.800 185.197 C 164.209 184.885,170.611 182.414,174.200 181.182 C 175.300 180.805,177.910 179.827,180.000 179.009 C 182.090 178.191,185.870 176.717,188.400 175.733 C 194.374 173.410,194.800 173.123,194.800 171.413 C 194.800 168.742,193.042 168.292,188.600 169.827 M95.116 178.351 C 98.455 179.228,101.252 180.926,103.149 183.226 C 104.802 185.232,104.781 185.256,99.770 187.009 C 97.586 187.773,95.440 188.560,95.000 188.759 C 94.560 188.957,93.570 189.349,92.800 189.630 C 92.030 189.911,90.320 190.625,89.000 191.216 C 87.680 191.807,86.150 192.416,85.600 192.570 C 85.050 192.724,84.240 193.006,83.800 193.196 C 81.912 194.012,76.391 196.000,76.013 196.000 C 75.773 196.000,75.602 194.955,75.605 193.500 C 75.625 182.819,84.851 175.656,95.116 178.351 M263.600 180.572 C 264.370 180.687,268.150 181.145,272.000 181.591 C 275.850 182.036,279.677 182.506,280.505 182.636 L 282.010 182.872 280.715 184.536 C 277.974 188.058,270.384 196.703,268.145 198.852 L 265.800 201.104 261.206 201.365 C 253.861 201.782,244.336 204.165,240.083 206.651 C 238.440 207.610,238.557 207.411,242.783 202.075 C 245.212 199.007,247.200 196.372,247.200 196.220 C 247.200 196.067,247.425 195.710,247.700 195.425 C 248.861 194.222,250.337 192.421,252.477 189.601 C 260.244 179.361,259.682 179.983,260.991 180.180 C 261.656 180.280,262.830 180.457,263.600 180.572 M198.600 192.393 C 197.500 192.810,194.136 194.057,191.125 195.164 C 188.114 196.271,182.354 198.457,178.325 200.023 C 174.296 201.588,169.920 203.278,168.600 203.778 C 162.408 206.123,161.261 206.577,159.288 207.457 C 158.127 207.976,157.036 208.400,156.866 208.400 C 156.515 208.400,149.500 211.071,145.700 212.651 L 143.200 213.690 143.200 215.436 C 143.200 219.077,144.772 219.148,152.111 215.841 C 153.382 215.269,154.577 214.800,154.768 214.800 C 155.180 214.800,162.821 211.909,172.093 208.246 C 178.775 205.605,180.086 205.113,184.593 203.556 C 185.909 203.101,187.698 202.385,188.568 201.964 C 189.438 201.544,190.330 201.200,190.549 201.200 C 190.768 201.200,191.679 200.861,192.574 200.448 C 193.468 200.034,195.978 199.021,198.151 198.197 C 202.560 196.525,203.600 195.733,203.600 194.049 C 203.600 191.911,201.609 191.252,198.600 192.393 M232.510 211.443 C 232.726 211.660,232.127 213.077,231.598 213.600 C 231.486 213.710,230.874 214.520,230.236 215.400 C 229.598 216.280,228.745 217.360,228.340 217.800 C 227.935 218.240,225.729 221.030,223.439 224.000 C 221.148 226.970,218.507 230.120,217.568 231.000 C 216.303 232.187,216.087 232.302,216.731 231.446 C 217.209 230.811,217.603 230.091,217.606 229.846 C 217.609 229.601,219.675 226.790,222.197 223.600 C 224.720 220.410,227.912 216.316,229.292 214.502 C 231.785 211.224,232.044 210.978,232.510 211.443 M207.000 215.409 C 205.900 215.950,204.715 216.394,204.367 216.396 C 204.018 216.398,203.617 216.516,203.475 216.659 C 203.332 216.801,202.357 217.227,201.308 217.605 C 192.798 220.671,190.093 221.668,189.400 221.993 C 187.452 222.908,180.670 225.600,180.314 225.600 C 180.098 225.600,179.354 225.851,178.660 226.158 C 177.967 226.465,175.600 227.387,173.400 228.208 C 171.200 229.028,168.860 229.933,168.200 230.217 C 165.627 231.326,157.667 234.359,155.219 235.162 C 152.309 236.118,152.015 236.418,152.006 238.438 C 151.993 241.603,153.242 241.775,159.261 239.437 C 161.758 238.468,166.680 236.591,170.200 235.266 C 173.720 233.941,178.760 232.018,181.400 230.993 C 184.040 229.969,187.730 228.589,189.600 227.927 C 191.470 227.265,193.630 226.453,194.400 226.121 C 195.170 225.790,196.250 225.336,196.800 225.113 C 197.350 224.889,198.117 224.545,198.505 224.347 C 198.892 224.149,201.772 223.065,204.905 221.939 C 210.993 219.748,212.404 218.862,212.394 217.230 C 212.378 214.526,210.253 213.809,207.000 215.409 M202.000 243.453 C 199.250 244.454,196.829 245.437,196.620 245.637 C 196.411 245.837,196.011 246.000,195.730 246.000 C 195.450 246.000,194.091 246.515,192.710 247.145 C 191.330 247.775,189.750 248.416,189.200 248.570 C 188.650 248.724,187.840 249.004,187.400 249.192 C 186.960 249.379,184.080 250.472,181.000 251.620 C 177.920 252.768,173.060 254.649,170.200 255.800 C 167.340 256.951,164.460 258.016,163.800 258.166 C 161.058 258.790,159.590 261.590,161.174 263.174 C 162.376 264.376,162.861 264.280,171.309 261.154 C 178.959 258.324,180.346 257.780,183.400 256.408 C 184.280 256.013,186.084 255.324,187.408 254.877 C 188.733 254.430,191.173 253.526,192.830 252.868 C 194.487 252.209,196.913 251.307,198.221 250.861 C 209.173 247.134,212.133 244.933,209.600 242.400 C 208.477 241.277,207.663 241.390,202.000 243.453 M277.927 255.967 C 277.653 261.700,274.360 266.804,269.601 268.874 C 266.473 270.235,265.441 270.687,263.852 271.394 C 263.000 271.773,260.840 272.590,259.052 273.210 C 257.263 273.829,252.740 275.532,249.000 276.993 C 245.260 278.454,240.760 280.190,239.000 280.852 C 227.051 285.342,224.785 286.212,223.000 287.000 C 221.900 287.485,218.660 288.729,215.800 289.766 C 212.940 290.802,208.350 292.551,205.600 293.653 C 199.955 295.914,187.955 300.400,187.550 300.400 C 187.404 300.400,187.653 299.275,188.103 297.900 C 188.734 295.974,188.924 294.344,188.928 290.800 L 188.934 286.200 197.167 283.022 C 201.695 281.275,207.020 279.242,209.000 278.505 C 210.980 277.768,212.960 277.012,213.400 276.824 C 213.840 276.636,215.820 275.898,217.800 275.182 C 219.780 274.467,222.530 273.368,223.910 272.741 C 225.291 272.113,226.656 271.600,226.943 271.600 C 227.231 271.600,227.577 271.490,227.712 271.355 C 227.847 271.220,229.092 270.703,230.479 270.206 C 239.059 267.133,242.065 265.996,244.200 265.017 C 245.520 264.412,247.590 263.563,248.800 263.132 C 250.010 262.700,251.630 262.098,252.400 261.794 C 253.170 261.490,256.680 260.158,260.200 258.834 C 263.720 257.511,267.770 255.945,269.200 255.356 C 272.783 253.879,276.889 252.433,277.549 252.415 C 277.987 252.403,278.063 253.123,277.927 255.967 " stroke="none" fill="#f8b119" fill-rule="evenodd"></path><path id="path4" d="M286.705 152.283 C 287.202 152.379,287.922 152.375,288.305 152.275 C 288.687 152.175,288.280 152.096,287.400 152.101 C 286.520 152.105,286.207 152.187,286.705 152.283 M289.105 168.283 C 289.602 168.379,290.322 168.375,290.705 168.275 C 291.087 168.175,290.680 168.096,289.800 168.101 C 288.920 168.105,288.607 168.187,289.105 168.283 M265.105 175.483 C 265.602 175.579,266.322 175.575,266.705 175.475 C 267.087 175.375,266.680 175.296,265.800 175.301 C 264.920 175.305,264.607 175.387,265.105 175.483 M142.893 215.600 C 142.893 216.370,142.975 216.685,143.076 216.300 C 143.176 215.915,143.176 215.285,143.076 214.900 C 142.975 214.515,142.893 214.830,142.893 215.600 M166.100 312.294 C 167.145 312.376,168.855 312.376,169.900 312.294 C 170.945 312.212,170.090 312.144,168.000 312.144 C 165.910 312.144,165.055 312.212,166.100 312.294 " stroke="none" fill="#ffff00" fill-rule="evenodd"></path></g></svg>