<svg id="svg" version="1.1" width="400" height="400" viewBox="0 0 400 400" xmlns="http://www.w3.org/2000/svg" xmlns:xlink="http://www.w3.org/1999/xlink" ><g id="svgg"><path id="path0" d="" stroke="none" fill="#000000" fill-rule="evenodd"></path><path id="path1" d="" stroke="none" fill="#555500" fill-rule="evenodd"></path><path id="path2" d="" stroke="none" fill="#ff5500" fill-rule="evenodd"></path><path id="path3" d="M195.500 41.266 C 185.615 41.662,179.159 42.418,167.667 44.524 C 165.332 44.952,158.873 46.571,155.917 47.470 C 154.725 47.833,153.337 48.223,152.833 48.338 C 150.386 48.894,139.588 52.982,135.000 55.089 C 129.867 57.446,120.876 62.042,120.500 62.501 C 120.395 62.630,117.849 64.167,117.742 64.167 C 117.582 64.167,112.901 67.153,112.439 67.550 C 112.177 67.775,111.652 68.120,111.273 68.315 C 110.894 68.510,110.154 68.988,109.630 69.377 C 109.105 69.765,107.793 70.721,106.713 71.500 C 103.825 73.584,99.129 77.269,97.448 78.771 C 96.640 79.493,95.740 80.254,95.448 80.464 C 93.736 81.689,81.696 93.708,80.719 95.167 C 80.565 95.396,79.985 96.071,79.428 96.667 C 78.186 97.999,75.064 101.895,73.085 104.583 C 69.666 109.228,68.561 110.784,68.267 111.367 C 68.096 111.707,67.810 112.141,67.631 112.333 C 67.205 112.790,65.004 116.269,63.675 118.583 C 63.096 119.592,62.576 120.454,62.520 120.500 C 62.413 120.586,62.345 120.700,61.329 122.500 C 60.336 124.257,56.471 131.943,55.671 133.750 C 55.265 134.667,54.623 136.092,54.244 136.917 C 53.282 139.009,52.666 140.579,50.381 146.750 C 49.516 149.087,48.541 152.098,47.925 154.333 C 47.685 155.204,47.299 156.554,47.068 157.333 C 46.318 159.853,44.704 166.379,44.492 167.750 C 44.378 168.483,44.037 170.471,43.735 172.167 C 40.505 190.288,40.401 208.719,43.430 225.990 C 43.744 227.783,44.083 229.775,44.182 230.417 C 44.757 234.140,46.899 242.548,48.915 249.000 C 49.644 251.331,51.624 256.707,53.182 260.583 C 55.472 266.280,60.562 276.514,62.923 280.167 C 63.308 280.762,63.869 281.698,64.170 282.245 C 64.929 283.625,67.141 287.085,67.884 288.054 C 68.223 288.497,68.503 288.947,68.506 289.054 C 68.509 289.162,68.881 289.737,69.333 290.333 C 69.784 290.929,70.694 292.167,71.355 293.083 C 74.043 296.815,77.869 301.653,79.595 303.500 C 80.066 304.004,80.528 304.561,80.623 304.737 C 81.171 305.756,93.245 317.812,95.446 319.538 C 95.828 319.838,96.878 320.730,97.779 321.521 C 99.431 322.970,105.122 327.381,107.315 328.910 C 107.967 329.365,108.500 329.796,108.500 329.869 C 108.500 329.941,108.606 330.000,108.736 330.000 C 108.866 330.000,108.997 330.057,109.028 330.127 C 109.106 330.306,110.625 331.354,111.380 331.750 C 111.726 331.932,112.204 332.248,112.441 332.452 C 113.097 333.015,117.734 335.874,122.131 338.426 C 124.151 339.598,132.419 343.756,135.333 345.065 C 138.307 346.401,142.167 348.000,142.418 348.000 C 142.520 348.000,143.086 348.197,143.677 348.438 C 146.683 349.667,152.674 351.721,154.083 352.008 C 154.450 352.082,155.350 352.331,156.083 352.561 C 165.427 355.485,179.086 357.818,190.750 358.483 C 203.119 359.188,213.428 358.632,226.083 356.577 C 231.772 355.653,233.360 355.348,236.500 354.574 C 239.477 353.841,242.599 352.985,247.833 351.468 C 249.745 350.914,253.136 349.714,255.750 348.667 C 256.667 348.299,257.503 347.999,257.607 348.000 C 258.675 348.002,273.513 340.986,278.107 338.306 C 281.961 336.058,287.038 332.919,287.658 332.401 C 287.892 332.206,288.383 331.886,288.750 331.691 C 289.117 331.497,289.958 330.943,290.619 330.460 C 291.280 329.978,292.480 329.104,293.286 328.519 C 296.924 325.873,303.646 320.513,303.807 320.127 C 303.838 320.052,304.138 319.806,304.474 319.581 C 306.136 318.461,318.235 306.396,319.542 304.555 C 319.748 304.264,320.410 303.476,321.014 302.805 C 322.845 300.765,326.763 295.751,328.750 292.903 C 329.117 292.377,329.535 291.828,329.679 291.682 C 330.083 291.273,331.833 288.720,331.833 288.539 C 331.833 288.451,332.065 288.088,332.348 287.731 C 332.817 287.141,334.829 283.952,336.683 280.859 C 337.086 280.185,337.672 279.210,337.983 278.692 C 340.819 273.979,346.937 260.992,348.165 257.083 C 348.280 256.717,348.515 256.102,348.687 255.718 C 349.454 254.003,351.596 247.633,352.206 245.250 C 352.347 244.700,352.736 243.313,353.069 242.167 C 354.573 237.004,355.443 233.014,356.578 226.083 C 359.533 208.029,359.512 191.248,356.513 173.583 C 356.248 172.025,355.984 170.337,355.925 169.833 C 355.664 167.596,353.809 160.242,351.468 152.167 C 350.966 150.435,349.656 146.695,348.987 145.083 C 348.797 144.625,348.487 143.800,348.299 143.250 C 346.700 138.586,341.128 126.665,338.355 121.978 C 337.930 121.260,337.217 120.053,336.768 119.295 C 335.158 116.571,332.814 112.863,332.407 112.394 C 332.178 112.132,331.948 111.748,331.894 111.542 C 331.841 111.335,331.730 111.167,331.649 111.167 C 331.567 111.167,331.500 111.083,331.500 110.981 C 331.500 110.777,330.334 109.117,330.128 109.028 C 330.058 108.997,330.000 108.898,330.000 108.808 C 330.000 108.717,329.889 108.532,329.754 108.397 C 329.619 108.262,328.909 107.311,328.176 106.284 C 326.317 103.678,323.219 99.722,321.517 97.782 C 320.729 96.882,319.875 95.870,319.621 95.532 C 317.965 93.331,305.964 81.363,304.556 80.509 C 304.266 80.333,303.966 80.084,303.890 79.955 C 303.381 79.100,291.198 69.720,288.917 68.427 C 288.458 68.167,287.933 67.822,287.750 67.660 C 287.307 67.267,282.952 64.510,282.000 64.019 C 281.587 63.806,280.762 63.312,280.167 62.921 C 278.395 61.757,276.495 60.724,270.282 57.548 C 269.348 57.070,268.021 56.442,267.333 56.151 C 266.646 55.861,265.258 55.234,264.250 54.757 C 260.560 53.014,249.279 48.785,246.853 48.235 C 246.247 48.098,245.188 47.808,244.500 47.591 C 241.245 46.563,234.484 44.866,231.833 44.411 C 230.963 44.262,229.237 43.958,228.000 43.736 C 217.770 41.898,204.625 40.899,195.500 41.266 M192.833 100.009 L 192.833 138.184 191.458 138.092 C 190.702 138.042,188.883 137.921,187.417 137.824 C 183.004 137.532,175.630 136.722,169.917 135.903 C 167.962 135.622,161.518 134.373,159.167 133.819 C 153.319 132.440,151.838 132.080,150.000 131.590 C 147.377 130.891,143.340 129.681,142.968 129.482 C 142.709 129.344,142.721 129.252,143.113 128.374 C 143.347 127.848,143.711 126.967,143.922 126.417 C 144.699 124.382,147.938 117.795,150.028 114.000 C 150.810 112.579,151.772 110.817,152.166 110.083 C 152.559 109.350,153.197 108.263,153.584 107.667 C 153.970 107.071,154.855 105.632,155.551 104.469 C 156.246 103.306,157.326 101.590,157.949 100.655 C 158.573 99.721,159.520 98.273,160.054 97.437 C 160.589 96.601,161.196 95.729,161.404 95.500 C 161.613 95.271,162.280 94.371,162.888 93.500 C 163.496 92.629,164.053 91.842,164.125 91.750 C 164.197 91.658,165.317 90.196,166.613 88.500 C 167.910 86.804,169.483 84.824,170.110 84.101 C 170.737 83.377,171.483 82.477,171.768 82.101 C 172.421 81.238,174.176 79.268,174.355 79.196 C 174.430 79.166,174.994 78.529,175.610 77.779 C 176.226 77.030,177.372 75.768,178.157 74.976 C 178.941 74.184,180.671 72.427,182.000 71.073 C 183.329 69.719,184.904 68.184,185.500 67.663 C 186.096 67.142,187.146 66.161,187.833 65.483 C 188.521 64.805,189.526 63.875,190.068 63.417 C 190.609 62.958,191.239 62.415,191.467 62.208 C 191.695 62.002,192.096 61.833,192.358 61.833 L 192.833 61.833 192.833 100.009 M208.890 62.542 C 209.282 62.931,210.034 63.584,210.562 63.992 C 211.090 64.400,211.780 65.019,212.094 65.367 C 212.409 65.715,212.686 66.000,212.710 66.000 C 213.068 66.000,224.833 77.868,224.833 78.229 C 224.833 78.275,225.354 78.860,225.990 79.531 C 227.594 81.223,230.586 84.850,233.373 88.481 C 234.666 90.166,235.899 91.733,236.112 91.963 C 236.325 92.194,236.500 92.444,236.500 92.520 C 236.500 92.596,236.969 93.300,237.542 94.084 C 238.115 94.869,238.922 95.977,239.337 96.547 C 239.751 97.117,240.908 98.858,241.907 100.417 C 242.907 101.975,243.853 103.400,244.010 103.583 C 244.167 103.767,244.343 104.077,244.403 104.272 C 244.462 104.468,245.004 105.406,245.607 106.356 C 246.760 108.174,248.500 111.134,248.500 111.278 C 248.500 111.325,249.314 112.838,250.310 114.640 C 251.305 116.442,252.403 118.554,252.750 119.333 C 253.098 120.112,253.900 121.784,254.534 123.047 C 255.167 124.311,255.862 125.811,256.076 126.381 C 256.291 126.950,256.659 127.851,256.894 128.382 L 257.321 129.346 256.869 129.526 C 255.458 130.086,249.289 131.859,246.833 132.411 C 246.146 132.566,244.496 132.952,243.167 133.269 C 237.631 134.591,230.876 135.902,228.250 136.164 C 227.425 136.246,225.625 136.467,224.250 136.653 C 222.875 136.840,220.287 137.140,218.500 137.320 C 215.606 137.611,213.974 137.739,208.625 138.095 L 207.167 138.192 207.167 100.013 L 207.167 61.833 207.673 61.833 C 208.046 61.833,208.366 62.020,208.890 62.542 M166.230 66.711 C 164.463 68.579,161.772 71.662,159.505 74.417 C 158.374 75.792,157.365 76.992,157.263 77.083 C 157.162 77.175,156.955 77.443,156.805 77.679 C 156.654 77.915,155.693 79.152,154.669 80.429 C 153.645 81.705,152.669 83.012,152.501 83.333 C 152.333 83.654,152.051 84.069,151.875 84.256 C 151.269 84.896,146.721 91.416,145.917 92.797 C 145.825 92.955,145.708 93.121,145.656 93.167 C 145.432 93.364,144.500 94.825,144.500 94.978 C 144.500 95.070,144.177 95.619,143.783 96.198 C 143.009 97.333,140.333 101.744,140.333 101.885 C 140.333 102.014,138.976 104.380,138.738 104.667 C 138.352 105.130,133.302 115.043,132.503 116.905 C 132.067 117.920,131.339 119.537,130.884 120.500 C 130.429 121.462,129.845 122.756,129.587 123.375 C 129.089 124.566,129.065 124.587,128.466 124.346 C 126.644 123.613,124.866 122.855,123.750 122.335 C 121.210 121.151,119.386 120.333,119.282 120.333 C 119.039 120.333,108.387 114.910,108.000 114.589 C 107.787 114.412,106.595 113.733,103.667 112.120 C 103.031 111.770,99.730 109.761,99.022 109.294 C 98.781 109.134,98.471 108.952,98.333 108.889 C 98.196 108.826,98.046 108.731,98.000 108.677 C 97.954 108.624,97.642 108.436,97.307 108.260 L 96.697 107.941 98.039 106.563 C 98.777 105.806,99.501 105.013,99.649 104.801 C 99.989 104.313,104.594 99.719,104.822 99.641 C 104.915 99.609,105.762 98.828,106.704 97.904 C 107.646 96.981,108.792 95.943,109.250 95.598 C 109.708 95.253,110.646 94.470,111.333 93.858 C 113.157 92.233,114.273 91.333,114.464 91.333 C 114.556 91.333,114.674 91.221,114.727 91.083 C 114.780 90.946,114.934 90.833,115.070 90.833 C 115.206 90.833,115.377 90.734,115.450 90.612 C 115.763 90.093,123.611 84.495,125.417 83.502 C 126.429 82.946,127.347 82.354,127.500 82.160 C 127.613 82.016,130.207 80.497,131.886 79.590 C 132.636 79.185,133.850 78.514,134.583 78.098 C 135.815 77.399,140.578 75.000,140.734 75.000 C 140.771 75.000,141.878 74.486,143.193 73.858 C 144.507 73.230,146.033 72.545,146.583 72.336 C 147.917 71.828,147.907 71.832,150.583 70.777 C 155.079 69.005,162.469 66.681,167.313 65.515 C 167.347 65.507,166.860 66.045,166.230 66.711 M239.000 67.238 C 240.512 67.667,243.175 68.510,244.917 69.111 C 247.970 70.164,248.392 70.322,249.667 70.885 C 249.987 71.027,250.963 71.403,251.833 71.721 C 253.482 72.323,255.887 73.332,256.433 73.651 C 256.608 73.752,258.356 74.583,260.318 75.497 C 262.281 76.411,264.156 77.337,264.485 77.555 C 264.814 77.773,266.096 78.500,267.333 79.170 C 269.996 80.611,272.115 81.854,273.207 82.616 C 273.641 82.919,274.072 83.167,274.165 83.167 C 274.258 83.167,274.333 83.228,274.333 83.302 C 274.333 83.377,274.592 83.562,274.909 83.713 C 276.541 84.491,286.742 92.003,288.766 93.918 C 289.216 94.343,290.033 95.037,290.583 95.460 C 291.133 95.883,292.309 96.940,293.197 97.810 C 294.084 98.679,294.936 99.461,295.089 99.547 C 295.475 99.763,300.142 104.510,301.667 106.238 C 302.354 107.017,303.025 107.698,303.157 107.751 C 303.313 107.814,302.948 108.123,302.113 108.632 C 297.418 111.500,295.949 112.375,294.917 112.922 C 294.275 113.261,293.551 113.681,293.308 113.853 C 293.064 114.026,292.808 114.167,292.737 114.167 C 292.667 114.167,292.491 114.270,292.346 114.397 C 291.859 114.824,282.284 119.692,280.667 120.335 C 280.254 120.498,279.030 121.055,277.946 121.571 C 275.302 122.830,271.334 124.500,270.986 124.500 C 270.929 124.500,270.672 123.994,270.414 123.375 C 270.156 122.756,269.507 121.327,268.972 120.198 C 268.438 119.069,268.000 118.054,268.000 117.941 C 268.000 117.701,262.836 107.436,261.893 105.802 C 261.539 105.188,260.740 103.779,260.117 102.670 C 258.851 100.419,257.030 97.390,256.107 96.004 C 255.773 95.502,255.500 95.033,255.500 94.962 C 255.500 94.813,249.710 86.244,248.938 85.250 C 248.653 84.883,248.288 84.438,248.126 84.260 C 247.965 84.083,247.833 83.872,247.833 83.792 C 247.833 83.610,245.980 81.143,245.171 80.248 C 244.838 79.880,244.237 79.093,243.835 78.498 C 243.433 77.903,243.016 77.342,242.908 77.250 C 242.800 77.158,241.714 75.883,240.496 74.417 C 238.008 71.422,235.472 68.516,233.786 66.731 L 232.656 65.533 234.453 65.995 C 235.441 66.249,237.487 66.808,239.000 67.238 M92.280 122.026 C 92.905 122.419,93.516 122.836,93.637 122.953 C 93.758 123.071,93.964 123.167,94.095 123.167 C 94.226 123.167,94.333 123.227,94.333 123.301 C 94.333 123.375,94.652 123.573,95.042 123.741 C 95.431 123.909,96.237 124.363,96.833 124.750 C 97.429 125.137,98.967 126.019,100.250 126.710 C 101.533 127.400,103.071 128.233,103.667 128.560 C 104.263 128.886,106.362 129.947,108.333 130.916 C 110.304 131.885,112.269 132.860,112.699 133.083 C 113.984 133.750,118.533 135.773,119.250 135.996 C 119.617 136.110,120.067 136.294,120.250 136.405 C 120.433 136.516,121.383 136.933,122.361 137.332 L 124.139 138.056 123.501 139.903 C 121.848 144.682,121.211 146.930,119.433 154.250 C 117.921 160.479,116.907 165.338,116.512 168.250 C 116.413 168.983,116.107 171.233,115.832 173.250 C 114.938 179.811,114.696 182.299,114.065 191.458 L 113.970 192.833 87.902 192.833 L 61.833 192.833 61.834 192.208 C 61.837 190.074,62.702 182.425,63.496 177.500 C 63.755 175.896,64.019 174.208,64.083 173.750 C 64.719 169.174,68.143 157.331,70.781 150.583 C 71.462 148.842,72.177 147.004,72.369 146.500 C 72.561 145.996,73.017 144.946,73.382 144.167 C 76.242 138.060,77.349 135.759,77.464 135.677 C 77.538 135.626,78.371 134.158,79.316 132.417 C 80.260 130.675,81.529 128.500,82.135 127.583 C 82.741 126.667,83.428 125.573,83.660 125.153 C 83.893 124.733,84.900 123.220,85.898 121.791 L 87.713 119.193 89.428 120.253 C 90.371 120.836,91.655 121.634,92.280 122.026 M314.392 122.194 C 315.458 123.722,316.406 125.147,316.498 125.361 C 316.693 125.814,317.037 126.380,317.190 126.500 C 317.248 126.546,317.435 126.817,317.606 127.102 C 317.777 127.387,318.423 128.462,319.042 129.491 C 319.660 130.519,320.167 131.392,320.167 131.430 C 320.167 131.468,320.654 132.371,321.250 133.435 C 321.846 134.500,322.333 135.438,322.333 135.519 C 322.333 135.600,322.394 135.667,322.469 135.667 C 322.624 135.667,322.662 135.741,324.794 140.250 C 326.819 144.531,328.136 147.532,328.453 148.583 C 328.591 149.042,328.840 149.717,329.005 150.083 C 331.192 154.933,334.928 167.861,336.061 174.500 C 337.032 180.190,338.162 189.702,338.166 192.208 L 338.167 192.833 312.098 192.833 L 286.028 192.833 285.937 191.625 C 285.886 190.960,285.764 189.142,285.664 187.583 C 284.951 176.378,283.223 164.970,280.688 154.742 C 280.325 153.280,279.978 151.783,279.916 151.417 C 279.693 150.095,277.646 143.171,276.555 140.047 C 275.823 137.953,275.778 138.056,277.774 137.267 C 278.677 136.910,279.567 136.528,279.750 136.418 C 279.933 136.307,280.383 136.121,280.750 136.004 C 281.589 135.736,283.156 135.032,288.417 132.558 C 290.925 131.378,295.758 128.953,295.833 128.836 C 295.879 128.765,296.592 128.375,297.417 127.969 C 298.242 127.563,300.066 126.560,301.470 125.740 C 302.875 124.921,304.487 124.002,305.054 123.699 C 305.620 123.397,306.683 122.752,307.417 122.266 C 308.150 121.781,309.387 120.986,310.167 120.500 C 310.946 120.014,311.733 119.522,311.917 119.407 C 312.322 119.153,312.069 118.868,314.392 122.194 M141.833 144.159 C 143.162 144.514,145.862 145.249,147.833 145.794 C 156.106 148.079,168.770 150.429,178.083 151.408 C 179.458 151.553,180.866 151.708,181.212 151.755 C 181.557 151.801,183.507 151.911,185.545 151.999 C 187.583 152.088,190.056 152.210,191.042 152.270 L 192.833 152.381 192.833 172.607 L 192.833 192.833 160.512 192.833 L 128.191 192.833 128.261 191.958 C 128.300 191.477,128.412 189.883,128.510 188.417 C 128.756 184.716,129.252 180.051,129.840 175.917 C 130.363 172.236,130.492 171.470,131.422 166.500 C 131.740 164.804,132.080 162.967,132.179 162.417 C 132.530 160.461,134.434 153.052,135.245 150.485 C 135.470 149.772,135.773 148.678,135.918 148.053 C 136.062 147.429,136.484 146.005,136.855 144.890 L 137.530 142.862 138.473 143.188 C 138.992 143.367,140.504 143.804,141.833 144.159 M262.710 143.625 C 263.138 144.708,264.179 148.042,264.415 149.083 C 264.540 149.633,264.951 151.171,265.328 152.500 C 268.685 164.335,271.048 178.855,271.708 191.708 L 271.766 192.833 239.466 192.833 L 207.167 192.833 207.167 172.607 L 207.167 152.381 208.958 152.270 C 209.944 152.209,212.362 152.089,214.333 152.003 C 221.280 151.699,230.057 150.550,239.083 148.763 C 241.100 148.364,243.275 147.944,243.917 147.830 C 246.201 147.424,252.495 145.812,256.583 144.585 C 257.592 144.282,258.904 143.918,259.500 143.775 C 260.096 143.631,260.883 143.404,261.250 143.269 C 262.270 142.893,262.438 142.934,262.710 143.625 M114.147 211.042 C 114.464 217.006,114.940 221.856,115.825 228.167 C 116.089 230.046,116.351 232.033,116.407 232.583 C 116.633 234.782,118.609 244.215,119.759 248.583 C 119.976 249.408,120.269 250.646,120.410 251.333 C 120.635 252.435,122.030 257.164,123.220 260.858 L 123.630 262.132 122.523 262.595 C 121.915 262.850,120.876 263.307,120.216 263.612 C 119.556 263.917,118.949 264.167,118.868 264.167 C 118.701 264.167,113.416 266.511,112.709 266.899 C 112.456 267.037,110.528 267.981,108.424 268.996 C 106.319 270.011,104.557 270.906,104.507 270.984 C 104.457 271.061,103.706 271.481,102.838 271.916 C 100.742 272.967,97.315 274.892,96.302 275.589 C 95.854 275.898,95.228 276.244,94.910 276.358 C 94.593 276.473,94.333 276.618,94.333 276.681 C 94.333 276.743,94.202 276.840,94.042 276.895 C 93.881 276.951,93.548 277.128,93.301 277.290 C 92.847 277.587,88.713 280.195,88.067 280.593 C 87.737 280.796,87.639 280.696,86.400 278.896 C 85.676 277.845,84.802 276.605,84.458 276.142 C 84.115 275.679,83.833 275.231,83.833 275.146 C 83.833 275.061,83.205 274.037,82.438 272.871 C 81.670 271.704,80.348 269.475,79.500 267.917 C 78.652 266.358,77.779 264.816,77.561 264.490 C 77.343 264.163,76.500 262.475,75.688 260.740 C 74.875 259.004,73.875 256.871,73.464 256.000 C 73.054 255.129,72.561 254.004,72.369 253.500 C 72.178 252.996,71.462 251.158,70.780 249.417 C 68.219 242.885,64.981 231.735,64.172 226.667 C 64.077 226.071,63.813 224.421,63.584 223.000 C 62.716 217.587,62.163 212.970,61.904 208.958 L 61.788 207.167 87.864 207.167 L 113.940 207.167 114.147 211.042 M192.833 227.393 L 192.833 247.619 190.958 247.728 C 189.927 247.787,187.621 247.914,185.833 248.008 C 174.463 248.610,158.120 251.273,147.650 254.230 C 146.238 254.629,144.071 255.237,142.833 255.581 C 141.596 255.925,139.879 256.422,139.019 256.686 C 138.158 256.951,137.357 257.167,137.238 257.167 C 136.812 257.167,132.474 241.622,132.075 238.667 C 132.019 238.254,131.721 236.567,131.413 234.917 C 129.603 225.228,128.717 218.036,128.246 209.208 L 128.137 207.167 160.485 207.167 L 192.833 207.167 192.833 227.393 M271.761 209.042 C 271.268 217.494,270.506 224.205,269.219 231.417 C 268.891 233.250,268.528 235.387,268.412 236.167 C 268.020 238.793,266.513 245.013,265.073 249.954 C 264.666 251.350,264.334 252.587,264.335 252.704 C 264.335 252.821,264.027 253.898,263.649 255.096 L 262.962 257.276 262.023 256.965 C 261.506 256.794,260.228 256.427,259.183 256.150 C 258.138 255.872,256.713 255.468,256.017 255.252 C 252.868 254.273,246.435 252.635,244.247 252.255 C 243.424 252.113,241.100 251.661,239.083 251.251 C 229.229 249.249,214.940 247.625,207.542 247.665 L 207.167 247.667 207.167 227.417 L 207.167 207.167 239.518 207.167 L 271.870 207.167 271.761 209.042 M338.098 208.875 C 337.903 211.868,337.494 215.646,336.975 219.250 C 336.698 221.175,336.405 223.275,336.325 223.917 C 335.693 228.955,332.430 241.035,329.977 247.417 C 329.519 248.608,328.930 250.183,328.668 250.917 C 328.100 252.503,326.735 255.716,326.083 257.000 C 325.826 257.504,325.114 259.017,324.498 260.362 C 323.883 261.708,322.816 263.808,322.128 265.029 C 321.439 266.251,320.612 267.737,320.290 268.333 C 319.407 269.964,318.320 271.769,317.360 273.196 C 316.887 273.899,316.500 274.538,316.500 274.614 C 316.500 274.760,315.360 276.520,315.171 276.667 C 315.112 276.712,314.440 277.667,313.677 278.788 L 312.291 280.826 311.828 280.496 C 311.574 280.315,311.323 280.167,311.271 280.167 C 311.179 280.167,309.931 279.382,307.583 277.848 C 306.101 276.879,305.909 276.767,305.006 276.340 C 304.597 276.146,304.147 275.886,304.006 275.761 C 303.614 275.415,299.299 272.983,297.333 272.000 C 296.371 271.519,295.543 271.062,295.493 270.985 C 295.444 270.907,293.756 270.046,291.743 269.070 C 285.110 265.855,283.296 265.005,281.833 264.425 C 281.421 264.262,280.596 263.917,280.000 263.660 C 279.404 263.403,278.343 262.954,277.643 262.664 L 276.369 262.135 276.781 260.859 C 278.283 256.209,279.547 251.760,280.247 248.667 C 280.402 247.979,280.824 246.179,281.185 244.667 C 282.477 239.243,283.738 232.595,283.999 229.833 C 284.072 229.054,284.324 226.954,284.557 225.167 C 285.264 219.755,285.682 215.036,285.934 209.625 L 286.048 207.167 312.129 207.167 L 338.210 207.167 338.098 208.875 M192.833 300.025 L 192.833 338.216 191.493 338.113 C 190.756 338.056,190.002 337.903,189.816 337.774 C 188.086 336.562,177.592 326.098,174.333 322.334 C 173.463 321.329,172.697 320.505,172.633 320.503 C 172.569 320.501,172.272 320.144,171.974 319.708 C 171.367 318.822,169.776 316.883,169.341 316.500 C 168.876 316.090,167.833 314.730,167.833 314.533 C 167.833 314.432,167.730 314.290,167.604 314.217 C 167.477 314.143,167.177 313.792,166.937 313.435 C 166.697 313.078,166.398 312.703,166.274 312.602 C 165.981 312.362,164.525 310.397,162.246 307.167 C 161.243 305.746,160.290 304.438,160.128 304.260 C 159.966 304.083,159.833 303.878,159.833 303.807 C 159.833 303.658,158.042 300.901,157.495 300.207 C 156.986 299.562,152.860 292.737,152.212 291.469 C 151.916 290.890,151.614 290.342,151.539 290.250 C 151.465 290.158,151.302 289.833,151.176 289.527 C 151.051 289.222,150.863 288.884,150.758 288.777 C 150.560 288.574,148.000 283.871,148.000 283.711 C 148.000 283.626,145.032 277.501,144.344 276.167 C 144.178 275.846,143.993 275.370,143.931 275.110 C 143.870 274.849,143.630 274.249,143.399 273.776 C 142.652 272.248,142.161 270.939,142.290 270.822 C 142.614 270.530,149.210 268.528,151.583 268.002 C 152.500 267.799,153.925 267.456,154.750 267.241 C 159.244 266.069,169.457 264.000,170.753 264.000 C 171.046 264.000,172.252 263.853,173.434 263.674 C 178.606 262.888,185.572 262.221,192.375 261.858 L 192.833 261.833 192.833 300.025 M212.667 262.174 C 216.003 262.397,220.773 262.888,224.756 263.421 C 226.494 263.653,228.554 263.914,229.333 264.001 C 231.342 264.226,237.453 265.372,240.417 266.080 C 240.967 266.211,242.992 266.695,244.917 267.156 C 246.842 267.617,248.792 268.080,249.250 268.185 C 249.708 268.290,251.546 268.822,253.333 269.367 C 255.121 269.912,256.865 270.437,257.208 270.533 C 257.983 270.749,257.997 270.586,256.989 273.034 C 256.022 275.378,255.902 275.639,253.848 279.862 C 253.015 281.574,252.333 283.024,252.333 283.085 C 252.333 283.146,251.594 284.558,250.691 286.223 C 249.788 287.888,248.692 289.925,248.255 290.750 C 247.818 291.575,247.368 292.362,247.255 292.500 C 247.141 292.637,246.202 294.175,245.167 295.917 C 244.132 297.658,242.744 299.871,242.081 300.833 C 241.419 301.796,240.724 302.883,240.536 303.250 C 240.349 303.617,240.057 304.067,239.887 304.250 C 239.716 304.433,238.757 305.746,237.754 307.167 C 235.001 311.069,233.844 312.599,233.125 313.293 C 232.965 313.448,232.833 313.643,232.833 313.727 C 232.833 313.894,231.118 316.095,230.673 316.500 C 230.174 316.954,228.667 318.792,228.667 318.947 C 228.667 319.031,228.241 319.546,227.721 320.091 C 227.201 320.637,226.216 321.721,225.532 322.500 C 222.275 326.212,214.637 333.909,211.042 337.101 C 210.118 337.922,209.466 338.146,207.958 338.159 L 207.167 338.167 207.167 299.987 L 207.167 261.808 208.625 261.905 C 209.427 261.959,211.246 262.080,212.667 262.174 M128.917 276.620 C 129.083 277.058,129.515 278.054,129.878 278.833 C 130.241 279.612,130.871 281.000,131.278 281.917 C 131.685 282.833,132.089 283.655,132.175 283.742 C 132.262 283.829,132.333 284.035,132.333 284.201 C 132.333 284.439,134.186 288.194,136.057 291.750 C 136.202 292.025,136.507 292.662,136.734 293.167 C 136.962 293.671,137.396 294.503,137.699 295.015 C 138.002 295.528,138.769 296.878,139.403 298.015 C 141.226 301.287,142.359 303.223,142.661 303.583 C 142.954 303.933,144.333 306.136,144.333 306.254 C 144.333 306.388,147.215 310.766,147.851 311.599 C 148.208 312.066,148.500 312.506,148.500 312.577 C 148.500 312.731,150.292 315.343,150.562 315.583 C 150.780 315.777,151.350 316.538,152.248 317.833 C 153.775 320.038,159.198 326.943,159.871 327.539 C 160.050 327.698,160.400 328.130,160.649 328.501 C 160.897 328.871,161.791 329.917,162.635 330.826 C 163.479 331.734,164.425 332.813,164.738 333.223 L 165.308 333.969 164.195 333.652 C 156.803 331.547,156.938 331.589,154.000 330.492 C 147.070 327.904,146.021 327.487,143.750 326.411 C 142.833 325.977,140.972 325.113,139.614 324.490 C 138.256 323.868,136.644 323.062,136.031 322.699 C 134.557 321.826,131.555 320.167,131.451 320.167 C 131.406 320.167,130.529 319.660,129.503 319.042 C 128.477 318.423,127.502 317.839,127.336 317.743 C 127.171 317.648,126.907 317.464,126.750 317.333 C 126.428 317.066,126.189 316.923,125.097 316.345 C 124.676 316.122,124.201 315.820,124.041 315.674 C 123.881 315.527,122.662 314.667,121.333 313.763 C 118.747 312.003,116.066 310.034,115.354 309.371 C 115.113 309.148,114.542 308.715,114.083 308.410 C 113.625 308.105,112.614 307.280,111.837 306.577 C 111.060 305.874,109.972 304.957,109.420 304.538 C 108.868 304.119,107.737 303.109,106.906 302.295 C 106.075 301.480,105.213 300.687,104.989 300.531 C 104.518 300.204,99.833 295.545,99.833 295.404 C 99.833 295.294,99.845 295.307,98.040 293.460 L 96.664 292.052 97.332 291.751 C 97.699 291.585,98.000 291.386,98.000 291.308 C 98.000 291.230,98.107 291.167,98.238 291.167 C 98.369 291.167,98.575 291.068,98.696 290.947 C 98.992 290.652,102.537 288.523,105.417 286.911 C 106.700 286.192,107.787 285.553,107.833 285.491 C 107.958 285.321,117.074 280.665,118.667 279.958 C 121.260 278.806,122.603 278.199,123.750 277.662 C 124.889 277.128,125.591 276.834,128.083 275.841 C 128.531 275.662,128.571 275.700,128.917 276.620 M273.833 276.579 C 274.429 276.829,276.192 277.618,277.750 278.333 C 279.308 279.047,281.371 279.985,282.333 280.417 C 283.296 280.848,284.308 281.336,284.583 281.500 C 284.858 281.665,286.658 282.602,288.583 283.583 C 290.508 284.564,292.196 285.461,292.333 285.576 C 292.471 285.692,293.633 286.370,294.917 287.083 C 297.537 288.539,300.441 290.270,300.862 290.625 C 301.156 290.874,301.899 291.320,302.781 291.776 L 303.311 292.051 301.951 293.447 C 301.203 294.215,300.523 294.964,300.440 295.113 C 300.237 295.475,295.461 300.246,295.097 300.449 C 294.939 300.537,294.084 301.321,293.197 302.191 C 292.309 303.061,291.021 304.214,290.333 304.752 C 289.646 305.290,288.858 305.962,288.583 306.244 C 287.754 307.097,282.949 310.777,279.839 312.943 C 278.232 314.062,276.617 315.197,276.250 315.465 C 275.883 315.732,275.321 316.094,275.000 316.268 C 274.679 316.441,274.379 316.626,274.333 316.679 C 274.287 316.731,274.137 316.828,274.000 316.894 C 273.630 317.070,273.172 317.355,272.333 317.932 C 271.256 318.672,269.645 319.597,266.417 321.330 C 265.683 321.723,264.732 322.265,264.302 322.533 C 263.872 322.802,262.109 323.681,260.385 324.487 C 258.661 325.293,256.612 326.253,255.833 326.622 C 255.054 326.990,253.592 327.610,252.583 328.000 C 251.575 328.389,250.497 328.819,250.187 328.955 C 249.315 329.338,243.027 331.597,242.000 331.897 C 240.552 332.319,236.329 333.518,235.463 333.754 L 234.675 333.968 235.213 333.298 C 235.508 332.930,236.341 331.981,237.064 331.189 C 238.726 329.369,242.189 325.160,244.701 321.907 C 245.767 320.526,246.758 319.298,246.903 319.178 C 247.048 319.058,247.167 318.862,247.167 318.743 C 247.167 318.625,247.226 318.503,247.298 318.472 C 247.370 318.442,247.777 317.890,248.203 317.246 C 248.628 316.601,249.176 315.859,249.419 315.596 C 249.951 315.023,254.909 307.539,256.164 305.417 C 256.652 304.592,257.178 303.767,257.334 303.583 C 257.619 303.249,258.979 300.951,259.998 299.083 C 260.298 298.533,260.809 297.596,261.134 297.000 C 261.458 296.404,261.873 295.701,262.055 295.437 C 262.631 294.604,267.140 285.539,268.449 282.583 C 269.139 281.025,269.987 279.112,270.333 278.333 C 270.678 277.554,271.078 276.637,271.221 276.295 L 271.480 275.674 272.115 275.900 C 272.464 276.023,273.237 276.329,273.833 276.579 " stroke="none" fill="#f8b119" fill-rule="evenodd"></path><path id="path4" d="" stroke="none" fill="#ffff00" fill-rule="evenodd"></path></g></svg>