<svg id="svg" version="1.1" width="400" height="446.15384615384613" viewBox="0 0 400 446.15384615384613" xmlns="http://www.w3.org/2000/svg" xmlns:xlink="http://www.w3.org/1999/xlink" ><g id="svgg"><path id="path0" d="" stroke="none" fill="#f1b129" fill-rule="evenodd"></path><path id="path1" d="M179.692 64.192 C 151.511 66.307,131.599 90.390,135.770 117.316 C 136.256 120.451,136.283 120.379,134.818 119.868 C 127.203 117.211,116.094 118.494,108.126 122.950 C 93.936 130.885,87.674 149.413,93.955 164.871 C 94.504 166.222,94.628 166.831,94.369 166.902 C 94.166 166.958,92.754 167.148,91.231 167.323 C 82.314 168.351,75.356 173.286,71.245 181.497 C 68.968 186.045,67.964 193.321,69.413 194.778 L 70.058 195.425 95.875 195.406 L 121.692 195.387 122.418 194.560 C 123.022 193.872,123.118 193.500,122.987 192.340 C 122.684 189.654,124.585 189.846,98.292 189.846 C 82.971 189.846,75.048 189.740,74.921 189.534 C 74.815 189.363,74.957 188.428,75.238 187.457 C 78.145 177.389,88.776 171.032,98.830 173.349 C 103.712 174.474,105.039 171.993,102.018 167.389 C 86.230 143.328,112.898 114.107,138.283 127.653 C 142.835 130.082,144.503 128.083,142.818 122.219 C 138.145 105.960,143.361 89.601,156.615 78.946 C 178.635 61.245,211.296 70.784,220.672 97.656 C 222.628 103.261,223.961 103.622,228.193 99.690 C 235.262 93.126,243.610 90.104,252.052 91.053 C 272.270 93.326,285.036 114.091,277.488 132.427 C 275.465 137.341,276.944 138.906,282.462 137.692 C 298.008 134.273,312.799 151.051,307.416 166.000 C 305.396 171.608,305.721 172.594,309.846 173.396 C 315.974 174.587,322.267 180.586,324.452 187.319 C 325.351 190.089,327.626 189.846,300.765 189.846 L 276.895 189.846 276.140 190.601 C 275.150 191.591,275.075 193.844,276.000 194.769 C 276.652 195.421,280.199 195.472,320.769 195.418 L 329.692 195.406 330.425 194.562 C 331.119 193.762,331.148 193.567,330.962 190.923 C 330.267 181.032,323.936 172.296,315.000 168.896 C 313.010 168.138,313.070 168.299,313.687 165.385 C 317.252 148.554,305.139 132.525,288.308 131.799 C 283.689 131.599,283.960 131.742,284.482 129.788 C 286.777 121.180,284.950 109.986,279.933 101.916 C 269.016 84.360,243.989 79.797,227.415 92.342 C 226.545 93.000,225.778 93.538,225.710 93.538 C 225.642 93.538,224.894 92.089,224.047 90.317 C 216.133 73.751,197.622 62.847,179.692 64.192 M205.273 128.265 C 203.764 129.774,204.877 133.231,206.872 133.231 C 213.812 133.231,228.292 138.310,235.955 143.432 C 253.924 155.444,262.312 173.154,262.238 198.923 C 262.111 243.154,251.558 263.118,222.790 273.556 C 219.654 274.694,218.948 275.068,218.570 275.789 C 217.880 277.109,218.092 297.103,218.817 299.006 C 221.002 304.746,224.925 307.375,232.000 307.838 C 269.800 310.315,293.214 325.456,298.147 350.615 C 301.249 366.435,299.129 371.767,288.256 375.498 L 285.897 376.308 199.924 376.308 L 113.952 376.308 111.976 375.509 C 100.848 371.013,99.149 367.582,101.103 353.567 C 104.882 326.473,126.175 311.722,167.082 307.859 C 179.460 306.690,181.538 303.587,181.538 286.277 C 181.538 274.387,181.836 275.283,177.370 273.709 C 148.349 263.475,137.077 242.597,137.077 199.077 C 137.077 185.631,137.916 180.779,141.854 171.456 C 147.541 157.990,160.139 144.791,172.790 139.047 C 175.440 137.843,176.091 136.756,175.405 134.677 C 174.508 131.959,171.602 132.497,164.688 136.659 C 143.185 149.604,131.079 171.377,131.077 197.109 C 131.074 242.591,142.629 266.071,170.566 277.356 C 173.132 278.392,175.394 279.344,175.593 279.471 C 176.300 279.920,175.930 295.553,175.172 297.252 C 173.629 300.712,171.727 301.624,164.615 302.313 C 117.777 306.848,94.739 326.689,94.775 362.462 C 94.784 372.244,98.306 376.518,110.113 381.077 L 112.884 382.148 200.365 382.068 L 287.846 381.989 290.923 380.837 C 301.913 376.724,304.904 372.754,304.918 362.263 C 304.965 326.695,281.743 306.757,235.077 302.298 C 228.064 301.628,226.093 300.706,224.576 297.385 C 223.735 295.544,223.702 279.467,224.538 279.181 C 255.946 268.449,267.851 246.418,267.824 199.077 C 267.817 187.000,267.654 185.110,265.975 177.598 C 260.256 152.017,242.020 134.450,215.267 128.750 C 209.803 127.586,206.131 127.407,205.273 128.265 " stroke="none" fill="#f8b119" fill-rule="evenodd"></path><path id="path2" d="M181.773 63.910 C 182.156 63.984,182.709 63.981,183.004 63.904 C 183.298 63.827,182.985 63.766,182.308 63.770 C 181.631 63.773,181.390 63.836,181.773 63.910 M177.762 64.222 C 178.309 64.290,179.278 64.291,179.916 64.225 C 180.555 64.158,180.108 64.102,178.923 64.101 C 177.738 64.100,177.216 64.154,177.762 64.222 M184.532 64.222 C 185.078 64.290,186.047 64.291,186.685 64.225 C 187.324 64.158,186.877 64.102,185.692 64.101 C 184.508 64.100,183.985 64.154,184.532 64.222 M175.154 64.520 C 175.450 64.597,175.935 64.597,176.231 64.520 C 176.527 64.442,176.285 64.379,175.692 64.379 C 175.100 64.379,174.858 64.442,175.154 64.520 M173.000 64.827 C 173.296 64.905,173.781 64.905,174.077 64.827 C 174.373 64.750,174.131 64.687,173.538 64.687 C 172.946 64.687,172.704 64.750,173.000 64.827 M180.231 70.074 C 181.288 70.134,183.019 70.134,184.077 70.074 C 185.135 70.014,184.269 69.965,182.154 69.965 C 180.038 69.965,179.173 70.014,180.231 70.074 M176.542 70.371 C 176.925 70.445,177.479 70.442,177.773 70.365 C 178.067 70.288,177.754 70.228,177.077 70.231 C 176.400 70.235,176.159 70.298,176.542 70.371 M186.538 70.366 C 186.835 70.443,187.319 70.443,187.615 70.366 C 187.912 70.289,187.669 70.225,187.077 70.225 C 186.485 70.225,186.242 70.289,186.538 70.366 M247.308 85.151 C 248.365 85.211,250.096 85.211,251.154 85.151 C 252.212 85.091,251.346 85.042,249.231 85.042 C 247.115 85.042,246.250 85.091,247.308 85.151 M243.769 85.443 C 244.065 85.520,244.550 85.520,244.846 85.443 C 245.142 85.365,244.900 85.302,244.308 85.302 C 243.715 85.302,243.473 85.365,243.769 85.443 M248.234 90.987 C 248.617 91.060,249.171 91.058,249.465 90.981 C 249.759 90.904,249.446 90.843,248.769 90.847 C 248.092 90.850,247.852 90.913,248.234 90.987 M245.462 91.294 C 245.842 91.367,246.465 91.367,246.846 91.294 C 247.227 91.221,246.915 91.161,246.154 91.161 C 245.392 91.161,245.081 91.221,245.462 91.294 M251.773 91.298 C 252.241 91.368,252.933 91.367,253.312 91.294 C 253.690 91.220,253.308 91.163,252.462 91.165 C 251.615 91.167,251.306 91.227,251.773 91.298 M223.769 102.366 C 224.065 102.443,224.550 102.443,224.846 102.366 C 225.142 102.289,224.900 102.225,224.308 102.225 C 223.715 102.225,223.473 102.289,223.769 102.366 M135.462 105.077 C 135.466 105.754,135.529 105.995,135.602 105.612 C 135.676 105.229,135.673 104.675,135.596 104.381 C 135.519 104.087,135.459 104.400,135.462 105.077 M141.323 107.077 C 141.323 108.008,141.381 108.388,141.451 107.923 C 141.522 107.458,141.522 106.696,141.451 106.231 C 141.381 105.765,141.323 106.146,141.323 107.077 M135.199 110.769 C 135.199 113.223,135.247 114.227,135.305 113.000 C 135.364 111.773,135.364 109.765,135.305 108.538 C 135.247 107.312,135.199 108.315,135.199 110.769 M141.022 110.769 C 141.022 111.869,141.077 112.319,141.146 111.769 C 141.214 111.219,141.214 110.319,141.146 109.769 C 141.077 109.219,141.022 109.669,141.022 110.769 M141.323 114.462 C 141.323 115.392,141.381 115.773,141.451 115.308 C 141.522 114.842,141.522 114.081,141.451 113.615 C 141.381 113.150,141.323 113.531,141.323 114.462 M135.462 116.462 C 135.466 117.138,135.529 117.379,135.602 116.996 C 135.676 116.614,135.673 116.060,135.596 115.766 C 135.519 115.471,135.459 115.785,135.462 116.462 M285.323 117.846 C 285.323 118.777,285.381 119.158,285.451 118.692 C 285.522 118.227,285.522 117.465,285.451 117.000 C 285.381 116.535,285.323 116.915,285.323 117.846 M279.501 121.231 C 279.501 123.177,279.551 123.973,279.612 123.000 C 279.673 122.027,279.673 120.435,279.612 119.462 C 279.551 118.488,279.501 119.285,279.501 121.231 M123.626 118.381 C 124.520 118.443,125.904 118.443,126.703 118.380 C 127.501 118.316,126.769 118.265,125.077 118.266 C 123.385 118.267,122.732 118.319,123.626 118.381 M120.234 118.679 C 120.617 118.753,121.171 118.750,121.465 118.673 C 121.759 118.596,121.446 118.536,120.769 118.539 C 120.092 118.543,119.852 118.606,120.234 118.679 M128.850 118.679 C 129.232 118.753,129.786 118.750,130.081 118.673 C 130.375 118.596,130.062 118.536,129.385 118.539 C 128.708 118.543,128.467 118.606,128.850 118.679 M285.634 121.385 C 285.636 122.400,285.693 122.778,285.761 122.225 C 285.830 121.672,285.829 120.841,285.758 120.379 C 285.688 119.917,285.632 120.369,285.634 121.385 M285.323 124.923 C 285.323 125.854,285.381 126.235,285.451 125.769 C 285.522 125.304,285.522 124.542,285.451 124.077 C 285.381 123.612,285.323 123.992,285.323 124.923 M123.167 124.536 C 124.316 124.596,126.116 124.595,127.167 124.535 C 128.217 124.475,127.277 124.427,125.077 124.427 C 122.877 124.428,122.017 124.477,123.167 124.536 M279.148 125.846 C 279.148 126.438,279.212 126.681,279.289 126.385 C 279.366 126.088,279.366 125.604,279.289 125.308 C 279.212 125.012,279.148 125.254,279.148 125.846 M207.000 127.607 C 207.550 127.675,208.450 127.675,209.000 127.607 C 209.550 127.539,209.100 127.483,208.000 127.483 C 206.900 127.483,206.450 127.539,207.000 127.607 M210.538 127.904 C 210.835 127.982,211.319 127.982,211.615 127.904 C 211.912 127.827,211.669 127.764,211.077 127.764 C 210.485 127.764,210.242 127.827,210.538 127.904 M204.385 130.308 C 204.389 130.985,204.452 131.225,204.525 130.843 C 204.599 130.460,204.596 129.906,204.519 129.612 C 204.442 129.318,204.382 129.631,204.385 130.308 M284.272 131.474 C 284.407 131.607,285.820 131.676,287.412 131.626 L 290.308 131.534 287.168 131.383 C 285.441 131.299,284.138 131.340,284.272 131.474 M206.846 133.443 C 207.142 133.520,207.627 133.520,207.923 133.443 C 208.219 133.365,207.977 133.302,207.385 133.302 C 206.792 133.302,206.550 133.365,206.846 133.443 M209.000 133.751 C 209.296 133.828,209.781 133.828,210.077 133.751 C 210.373 133.673,210.131 133.610,209.538 133.610 C 208.946 133.610,208.704 133.673,209.000 133.751 M276.379 135.385 C 276.379 135.977,276.442 136.219,276.520 135.923 C 276.597 135.627,276.597 135.142,276.520 134.846 C 276.442 134.550,276.379 134.792,276.379 135.385 M285.162 137.456 C 285.886 137.521,286.993 137.521,287.624 137.454 C 288.254 137.388,287.662 137.335,286.308 137.336 C 284.954 137.337,284.438 137.391,285.162 137.456 M278.692 138.371 C 279.073 138.444,279.696 138.444,280.077 138.371 C 280.458 138.298,280.146 138.238,279.385 138.238 C 278.623 138.238,278.312 138.298,278.692 138.371 M97.610 148.000 C 97.610 148.592,97.673 148.835,97.751 148.538 C 97.828 148.242,97.828 147.758,97.751 147.462 C 97.673 147.165,97.610 147.408,97.610 148.000 M91.480 149.077 C 91.482 150.092,91.539 150.471,91.608 149.918 C 91.676 149.365,91.675 148.534,91.604 148.071 C 91.534 147.609,91.478 148.062,91.480 149.077 M97.343 152.154 C 97.344 153.846,97.396 154.499,97.458 153.605 C 97.520 152.711,97.520 151.326,97.457 150.528 C 97.393 149.730,97.342 150.462,97.343 152.154 M91.155 152.154 C 91.158 152.831,91.221 153.071,91.295 152.689 C 91.368 152.306,91.365 151.752,91.288 151.458 C 91.211 151.164,91.151 151.477,91.155 152.154 M91.477 155.077 C 91.477 156.008,91.535 156.388,91.605 155.923 C 91.676 155.458,91.676 154.696,91.605 154.231 C 91.535 153.765,91.477 154.146,91.477 155.077 M314.273 159.538 C 314.274 161.738,314.323 162.598,314.382 161.449 C 314.442 160.299,314.441 158.499,314.381 157.449 C 314.321 156.398,314.273 157.338,314.273 159.538 M308.411 159.385 C 308.411 160.654,308.465 161.173,308.532 160.538 C 308.598 159.904,308.598 158.865,308.532 158.231 C 308.465 157.596,308.411 158.115,308.411 159.385 M308.071 162.769 C 308.071 163.362,308.135 163.604,308.212 163.308 C 308.289 163.012,308.289 162.527,308.212 162.231 C 308.135 161.935,308.071 162.177,308.071 162.769 M93.077 166.769 L 91.538 166.980 92.982 167.029 C 93.776 167.055,94.511 166.938,94.615 166.769 C 94.720 166.600,94.763 166.483,94.710 166.510 C 94.658 166.536,93.923 166.653,93.077 166.769 M89.923 167.289 C 90.219 167.366,90.704 167.366,91.000 167.289 C 91.296 167.212,91.054 167.148,90.462 167.148 C 89.869 167.148,89.627 167.212,89.923 167.289 M305.918 170.154 C 305.918 170.746,305.981 170.988,306.058 170.692 C 306.136 170.396,306.136 169.912,306.058 169.615 C 305.981 169.319,305.918 169.562,305.918 170.154 M91.615 173.140 C 91.996 173.214,92.619 173.214,93.000 173.140 C 93.381 173.067,93.069 173.007,92.308 173.007 C 91.546 173.007,91.235 173.067,91.615 173.140 M95.154 173.143 C 95.619 173.214,96.381 173.214,96.846 173.143 C 97.312 173.073,96.931 173.015,96.000 173.015 C 95.069 173.015,94.688 173.073,95.154 173.143 M267.148 183.385 C 267.148 183.977,267.212 184.219,267.289 183.923 C 267.366 183.627,267.366 183.142,267.289 182.846 C 267.212 182.550,267.148 182.792,267.148 183.385 M261.302 185.231 C 261.302 185.823,261.365 186.065,261.443 185.769 C 261.520 185.473,261.520 184.988,261.443 184.692 C 261.365 184.396,261.302 184.638,261.302 185.231 M267.462 185.692 C 267.466 186.369,267.529 186.610,267.602 186.227 C 267.676 185.844,267.673 185.291,267.596 184.996 C 267.519 184.702,267.459 185.015,267.462 185.692 M131.462 186.923 C 131.466 187.600,131.529 187.841,131.602 187.458 C 131.676 187.075,131.673 186.521,131.596 186.227 C 131.519 185.933,131.459 186.246,131.462 186.923 M261.622 187.692 C 261.622 188.454,261.682 188.765,261.756 188.385 C 261.829 188.004,261.829 187.381,261.756 187.000 C 261.682 186.619,261.622 186.931,261.622 187.692 M267.791 188.923 C 267.791 190.023,267.847 190.473,267.915 189.923 C 267.983 189.373,267.983 188.473,267.915 187.923 C 267.847 187.373,267.791 187.823,267.791 188.923 M137.315 188.615 C 137.315 189.377,137.375 189.688,137.448 189.308 C 137.521 188.927,137.521 188.304,137.448 187.923 C 137.375 187.542,137.315 187.854,137.315 188.615 M330.847 189.077 C 330.850 189.754,330.913 189.995,330.987 189.612 C 331.060 189.229,331.058 188.675,330.981 188.381 C 330.904 188.087,330.843 188.400,330.847 189.077 M68.693 189.385 C 68.696 190.062,68.759 190.302,68.833 189.919 C 68.907 189.537,68.904 188.983,68.827 188.689 C 68.750 188.395,68.690 188.708,68.693 189.385 M131.172 190.000 C 131.174 191.015,131.231 191.394,131.300 190.841 C 131.368 190.288,131.367 189.457,131.297 188.994 C 131.227 188.532,131.171 188.985,131.172 190.000 M324.640 188.844 L 324.615 189.535 300.846 189.615 L 277.077 189.696 300.856 189.771 C 325.998 189.850,325.359 189.883,324.823 188.549 C 324.735 188.331,324.653 188.465,324.640 188.844 M74.868 189.077 C 74.931 189.686,75.159 189.692,98.081 189.695 L 121.231 189.698 98.176 189.616 C 76.557 189.540,75.111 189.501,74.963 188.998 C 74.841 188.584,74.819 188.602,74.868 189.077 M261.954 191.692 C 261.954 193.131,262.007 193.719,262.071 193.000 C 262.136 192.281,262.136 191.104,262.071 190.385 C 262.007 189.665,261.954 190.254,261.954 191.692 M137.059 198.769 C 137.059 203.592,137.101 205.565,137.153 203.154 C 137.205 200.742,137.205 196.796,137.153 194.385 C 137.101 191.973,137.059 193.946,137.059 198.769 M331.169 192.000 C 331.169 192.931,331.227 193.312,331.297 192.846 C 331.368 192.381,331.368 191.619,331.297 191.154 C 331.227 190.688,331.169 191.069,331.169 192.000 M68.391 192.000 C 68.391 192.762,68.452 193.073,68.525 192.692 C 68.598 192.312,68.598 191.688,68.525 191.308 C 68.452 190.927,68.391 191.238,68.391 192.000 M268.134 198.769 C 268.134 203.085,268.177 204.850,268.230 202.692 C 268.283 200.535,268.283 197.004,268.230 194.846 C 268.177 192.688,268.134 194.454,268.134 198.769 M275.155 192.769 C 275.158 193.446,275.221 193.687,275.295 193.304 C 275.368 192.921,275.365 192.368,275.288 192.073 C 275.211 191.779,275.151 192.092,275.155 192.769 M130.897 197.692 C 130.898 200.908,130.943 202.181,130.999 200.522 C 131.054 198.864,131.054 196.233,130.998 194.676 C 130.943 193.120,130.897 194.477,130.897 197.692 M262.269 197.692 C 262.270 199.554,262.320 200.276,262.382 199.296 C 262.443 198.317,262.442 196.794,262.380 195.912 C 262.318 195.030,262.268 195.831,262.269 197.692 M75.462 195.614 C 77.281 195.669,80.258 195.669,82.077 195.614 C 83.896 195.560,82.408 195.515,78.769 195.515 C 75.131 195.515,73.642 195.560,75.462 195.614 M95.615 195.615 C 100.396 195.663,108.219 195.663,113.000 195.615 C 117.781 195.568,113.869 195.528,104.308 195.528 C 94.746 195.528,90.835 195.568,95.615 195.615 M285.440 195.615 C 290.208 195.663,298.101 195.663,302.978 195.615 C 307.856 195.568,303.954 195.529,294.308 195.529 C 284.662 195.529,280.671 195.567,285.440 195.615 M317.000 195.614 C 318.988 195.668,322.242 195.668,324.231 195.614 C 326.219 195.561,324.592 195.517,320.615 195.517 C 316.638 195.517,315.012 195.561,317.000 195.614 M261.968 205.538 C 261.968 207.992,262.016 208.996,262.075 207.769 C 262.133 206.542,262.133 204.535,262.075 203.308 C 262.016 202.081,261.968 203.085,261.968 205.538 M131.189 206.615 C 131.190 208.308,131.242 208.961,131.304 208.067 C 131.366 207.172,131.366 205.788,131.303 204.990 C 131.240 204.192,131.189 204.923,131.189 206.615 M267.805 209.692 C 267.805 211.385,267.857 212.038,267.920 211.144 C 267.982 210.249,267.981 208.865,267.918 208.067 C 267.855 207.268,267.804 208.000,267.805 209.692 M137.336 210.000 C 137.337 211.354,137.391 211.869,137.456 211.146 C 137.521 210.422,137.521 209.314,137.454 208.684 C 137.388 208.054,137.335 208.646,137.336 210.000 M261.642 212.308 C 261.642 213.577,261.696 214.096,261.763 213.462 C 261.829 212.827,261.829 211.788,261.763 211.154 C 261.696 210.519,261.642 211.038,261.642 212.308 M131.486 212.462 C 131.487 213.646,131.543 214.093,131.609 213.455 C 131.676 212.816,131.675 211.847,131.607 211.301 C 131.539 210.755,131.484 211.277,131.486 212.462 M137.631 214.154 C 137.631 215.085,137.688 215.465,137.759 215.000 C 137.829 214.535,137.829 213.773,137.759 213.308 C 137.688 212.842,137.631 213.223,137.631 214.154 M267.480 214.615 C 267.482 215.631,267.539 216.009,267.608 215.456 C 267.676 214.903,267.675 214.072,267.604 213.610 C 267.534 213.148,267.478 213.600,267.480 214.615 M131.780 216.154 C 131.783 217.000,131.842 217.310,131.913 216.842 C 131.984 216.374,131.982 215.682,131.909 215.303 C 131.836 214.925,131.778 215.308,131.780 216.154 M261.323 216.308 C 261.323 217.238,261.381 217.619,261.451 217.154 C 261.522 216.688,261.522 215.927,261.451 215.462 C 261.381 214.996,261.323 215.377,261.323 216.308 M137.934 217.385 C 137.936 218.231,137.996 218.540,138.067 218.073 C 138.138 217.605,138.136 216.913,138.063 216.534 C 137.990 216.156,137.932 216.538,137.934 217.385 M267.169 218.154 C 267.169 219.085,267.227 219.465,267.297 219.000 C 267.368 218.535,267.368 217.773,267.297 217.308 C 267.227 216.842,267.169 217.223,267.169 218.154 M132.084 219.077 C 132.084 219.838,132.144 220.150,132.217 219.769 C 132.290 219.388,132.290 218.765,132.217 218.385 C 132.144 218.004,132.084 218.315,132.084 219.077 M261.007 219.385 C 261.007 220.146,261.067 220.458,261.140 220.077 C 261.214 219.696,261.214 219.073,261.140 218.692 C 261.067 218.312,261.007 218.623,261.007 219.385 M138.231 220.154 C 138.235 220.831,138.298 221.071,138.371 220.689 C 138.445 220.306,138.442 219.752,138.365 219.458 C 138.288 219.164,138.228 219.477,138.231 220.154 M266.847 221.077 C 266.850 221.754,266.913 221.995,266.987 221.612 C 267.060 221.229,267.058 220.675,266.981 220.381 C 266.904 220.087,266.843 220.400,266.847 221.077 M132.385 221.692 C 132.389 222.369,132.452 222.610,132.525 222.227 C 132.599 221.844,132.596 221.291,132.519 220.996 C 132.442 220.702,132.382 221.015,132.385 221.692 M260.693 222.000 C 260.696 222.677,260.759 222.918,260.833 222.535 C 260.907 222.152,260.904 221.598,260.827 221.304 C 260.750 221.010,260.690 221.323,260.693 222.000 M138.533 222.462 C 138.533 223.054,138.596 223.296,138.674 223.000 C 138.751 222.704,138.751 222.219,138.674 221.923 C 138.596 221.627,138.533 221.869,138.533 222.462 M266.539 223.538 C 266.543 224.215,266.606 224.456,266.679 224.073 C 266.753 223.691,266.750 223.137,266.673 222.843 C 266.596 222.548,266.536 222.862,266.539 223.538 M132.687 224.000 C 132.687 224.592,132.750 224.835,132.827 224.538 C 132.905 224.242,132.905 223.758,132.827 223.462 C 132.750 223.165,132.687 223.408,132.687 224.000 M260.379 224.308 C 260.379 224.900,260.442 225.142,260.520 224.846 C 260.597 224.550,260.597 224.065,260.520 223.769 C 260.442 223.473,260.379 223.715,260.379 224.308 M266.225 225.846 C 266.225 226.438,266.289 226.681,266.366 226.385 C 266.443 226.088,266.443 225.604,266.366 225.308 C 266.289 225.012,266.225 225.254,266.225 225.846 M181.676 286.462 C 181.676 291.962,181.718 294.212,181.769 291.462 C 181.820 288.712,181.820 284.212,181.769 281.462 C 181.718 278.712,181.676 280.962,181.676 286.462 M217.984 286.462 C 217.984 291.962,218.025 294.212,218.076 291.462 C 218.127 288.712,218.127 284.212,218.076 281.462 C 218.025 278.712,217.984 280.962,217.984 286.462 M224.139 279.466 C 224.057 279.680,224.029 283.592,224.077 288.158 L 224.164 296.462 224.236 287.949 C 224.290 281.481,224.400 279.399,224.692 279.281 C 224.994 279.159,224.991 279.120,224.683 279.101 C 224.466 279.088,224.221 279.252,224.139 279.466 M175.793 281.692 C 175.795 282.877,175.850 283.324,175.917 282.685 C 175.983 282.047,175.982 281.078,175.914 280.532 C 175.846 279.985,175.792 280.508,175.793 281.692 M175.473 285.385 C 175.475 286.231,175.535 286.540,175.605 286.073 C 175.676 285.605,175.674 284.913,175.601 284.534 C 175.528 284.156,175.470 284.538,175.473 285.385 M175.806 290.154 C 175.806 291.931,175.857 292.658,175.919 291.769 C 175.981 290.881,175.981 289.427,175.919 288.538 C 175.857 287.650,175.806 288.377,175.806 290.154 M175.473 294.923 C 175.475 295.769,175.535 296.079,175.605 295.611 C 175.676 295.143,175.674 294.451,175.601 294.073 C 175.528 293.694,175.470 294.077,175.473 294.923 M168.542 301.756 C 168.925 301.830,169.479 301.827,169.773 301.750 C 170.067 301.673,169.754 301.613,169.077 301.616 C 168.400 301.619,168.159 301.682,168.542 301.756 M230.081 301.756 C 230.463 301.830,231.017 301.827,231.311 301.750 C 231.605 301.673,231.292 301.613,230.615 301.616 C 229.938 301.619,229.698 301.682,230.081 301.756 M165.308 302.067 C 165.773 302.137,166.535 302.137,167.000 302.067 C 167.465 301.996,167.085 301.938,166.154 301.938 C 165.223 301.938,164.842 301.996,165.308 302.067 M232.692 302.067 C 233.158 302.137,233.919 302.137,234.385 302.067 C 234.850 301.996,234.469 301.938,233.538 301.938 C 232.608 301.938,232.227 301.996,232.692 302.067 M162.385 302.371 C 162.765 302.444,163.388 302.444,163.769 302.371 C 164.150 302.298,163.838 302.238,163.077 302.238 C 162.315 302.238,162.004 302.298,162.385 302.371 M236.081 302.375 C 236.549 302.445,237.241 302.443,237.620 302.370 C 237.998 302.297,237.615 302.240,236.769 302.242 C 235.923 302.244,235.613 302.304,236.081 302.375 M159.615 302.679 C 159.996 302.752,160.619 302.752,161.000 302.679 C 161.381 302.605,161.069 302.545,160.308 302.545 C 159.546 302.545,159.235 302.605,159.615 302.679 M239.004 302.679 C 239.386 302.753,239.940 302.750,240.234 302.673 C 240.529 302.596,240.215 302.536,239.538 302.539 C 238.862 302.543,238.621 302.606,239.004 302.679 M155.462 303.289 C 155.758 303.366,156.242 303.366,156.538 303.289 C 156.835 303.212,156.592 303.148,156.000 303.148 C 155.408 303.148,155.165 303.212,155.462 303.289 M243.154 303.289 C 243.450 303.366,243.935 303.366,244.231 303.289 C 244.527 303.212,244.285 303.148,243.692 303.148 C 243.100 303.148,242.858 303.212,243.154 303.289 M167.929 307.915 C 168.482 307.984,169.312 307.982,169.775 307.912 C 170.237 307.842,169.785 307.786,168.769 307.788 C 167.754 307.789,167.376 307.847,167.929 307.915 M229.769 307.915 C 230.319 307.983,231.219 307.983,231.769 307.915 C 232.319 307.847,231.869 307.791,230.769 307.791 C 229.669 307.791,229.219 307.847,229.769 307.915 M164.697 308.221 C 165.164 308.292,165.857 308.290,166.235 308.217 C 166.613 308.144,166.231 308.086,165.385 308.088 C 164.538 308.090,164.229 308.150,164.697 308.221 M233.620 308.221 C 234.087 308.292,234.780 308.290,235.158 308.217 C 235.537 308.144,235.154 308.086,234.308 308.088 C 233.462 308.090,233.152 308.150,233.620 308.221 M161.769 308.525 C 162.150 308.598,162.773 308.598,163.154 308.525 C 163.535 308.452,163.223 308.391,162.462 308.391 C 161.700 308.391,161.388 308.452,161.769 308.525 M236.538 308.525 C 236.919 308.598,237.542 308.598,237.923 308.525 C 238.304 308.452,237.992 308.391,237.231 308.391 C 236.469 308.391,236.158 308.452,236.538 308.525 M159.462 308.827 C 159.758 308.905,160.242 308.905,160.538 308.827 C 160.835 308.750,160.592 308.687,160.000 308.687 C 159.408 308.687,159.165 308.750,159.462 308.827 M239.154 308.827 C 239.450 308.905,239.935 308.905,240.231 308.827 C 240.527 308.750,240.285 308.687,239.692 308.687 C 239.100 308.687,238.858 308.750,239.154 308.827 M157.308 309.135 C 157.604 309.213,158.088 309.213,158.385 309.135 C 158.681 309.058,158.438 308.994,157.846 308.994 C 157.254 308.994,157.012 309.058,157.308 309.135 M241.465 309.141 C 241.848 309.214,242.402 309.211,242.696 309.134 C 242.990 309.057,242.677 308.997,242.000 309.001 C 241.323 309.004,241.082 309.067,241.465 309.141 M155.154 309.443 C 155.450 309.520,155.935 309.520,156.231 309.443 C 156.527 309.365,156.285 309.302,155.692 309.302 C 155.100 309.302,154.858 309.365,155.154 309.443 M101.302 352.308 C 101.302 352.900,101.365 353.142,101.443 352.846 C 101.520 352.550,101.520 352.065,101.443 351.769 C 101.365 351.473,101.302 351.715,101.302 352.308 M95.155 352.769 C 95.158 353.446,95.221 353.687,95.295 353.304 C 95.368 352.921,95.365 352.368,95.288 352.073 C 95.211 351.779,95.151 352.092,95.155 352.769 M304.379 352.615 C 304.379 353.208,304.442 353.450,304.520 353.154 C 304.597 352.858,304.597 352.373,304.520 352.077 C 304.442 351.781,304.379 352.023,304.379 352.615 M298.539 354.308 C 298.543 354.985,298.606 355.225,298.679 354.843 C 298.753 354.460,298.750 353.906,298.673 353.612 C 298.596 353.318,298.536 353.631,298.539 354.308 M100.994 354.462 C 100.994 355.054,101.058 355.296,101.135 355.000 C 101.213 354.704,101.213 354.219,101.135 353.923 C 101.058 353.627,100.994 353.869,100.994 354.462 M304.708 355.385 C 304.708 356.315,304.765 356.696,304.836 356.231 C 304.906 355.765,304.906 355.004,304.836 354.538 C 304.765 354.073,304.708 354.454,304.708 355.385 M94.865 355.846 C 94.866 356.862,94.924 357.240,94.992 356.687 C 95.061 356.134,95.059 355.303,94.989 354.841 C 94.919 354.378,94.863 354.831,94.865 355.846 M100.721 358.000 C 100.722 359.354,100.776 359.869,100.841 359.146 C 100.906 358.422,100.905 357.314,100.839 356.684 C 100.773 356.054,100.720 356.646,100.721 358.000 M298.870 357.692 C 298.872 358.877,298.927 359.324,298.994 358.685 C 299.060 358.047,299.059 357.078,298.991 356.532 C 298.923 355.985,298.869 356.508,298.870 357.692 M305.047 361.846 C 305.047 364.469,305.094 365.542,305.152 364.231 C 305.209 362.919,305.209 360.773,305.152 359.462 C 305.094 358.150,305.047 359.223,305.047 361.846 M94.583 362.000 C 94.583 364.369,94.632 365.298,94.690 364.063 C 94.749 362.829,94.748 360.891,94.689 359.756 C 94.630 358.621,94.582 359.631,94.583 362.000 M299.184 362.462 C 299.184 363.900,299.237 364.488,299.302 363.769 C 299.367 363.050,299.367 361.873,299.302 361.154 C 299.237 360.435,299.184 361.023,299.184 362.462 M100.403 362.308 C 100.405 363.323,100.462 363.701,100.531 363.148 C 100.599 362.595,100.598 361.765,100.528 361.302 C 100.457 360.840,100.401 361.292,100.403 362.308 M100.687 365.231 C 100.687 365.823,100.750 366.065,100.827 365.769 C 100.905 365.473,100.905 364.988,100.827 364.692 C 100.750 364.396,100.687 364.638,100.687 365.231 M156.717 376.231 C 180.550 376.274,219.458 376.274,243.179 376.231 C 266.900 376.187,247.400 376.152,199.846 376.152 C 152.292 376.152,132.884 376.187,156.717 376.231 M178.698 382.069 C 179.251 382.138,180.082 382.136,180.544 382.066 C 181.006 381.996,180.554 381.940,179.538 381.941 C 178.523 381.943,178.145 382.001,178.698 382.069 M184.385 382.058 C 184.681 382.136,185.165 382.136,185.462 382.058 C 185.758 381.981,185.515 381.918,184.923 381.918 C 184.331 381.918,184.088 381.981,184.385 382.058 M128.562 382.385 C 137.248 382.430,151.371 382.430,159.947 382.385 C 168.522 382.339,161.415 382.302,144.154 382.302 C 126.892 382.302,119.876 382.339,128.562 382.385 M176.077 382.366 C 176.373 382.443,176.858 382.443,177.154 382.366 C 177.450 382.289,177.208 382.225,176.615 382.225 C 176.023 382.225,175.781 382.289,176.077 382.366 M182.081 382.371 C 182.463 382.445,183.017 382.442,183.311 382.365 C 183.605 382.288,183.292 382.228,182.615 382.231 C 181.938 382.235,181.698 382.298,182.081 382.371 M209.000 382.385 C 221.650 382.429,242.350 382.429,255.000 382.385 C 267.650 382.340,257.300 382.304,232.000 382.304 C 206.700 382.304,196.350 382.340,209.000 382.385 M282.081 382.371 C 282.463 382.445,283.017 382.442,283.311 382.365 C 283.605 382.288,283.292 382.228,282.615 382.231 C 281.938 382.235,281.698 382.298,282.081 382.371 M284.538 382.371 C 284.919 382.444,285.542 382.444,285.923 382.371 C 286.304 382.298,285.992 382.238,285.231 382.238 C 284.469 382.238,284.158 382.298,284.538 382.371 " stroke="none" fill="#faaf15" fill-rule="evenodd"></path><path id="path3" d="" stroke="none" fill="#f6b416" fill-rule="evenodd"></path><path id="path4" d="M213.218 75.769 C 213.972 76.573,214.630 77.231,214.679 77.231 C 214.910 77.231,214.666 76.955,213.308 75.679 L 211.846 74.308 213.218 75.769 M148.609 77.769 L 145.692 80.769 148.692 77.852 C 150.342 76.248,151.692 74.898,151.692 74.852 C 151.692 74.629,151.319 74.983,148.609 77.769 M216.603 79.154 C 217.357 79.958,218.015 80.615,218.064 80.615 C 218.295 80.615,218.051 80.339,216.692 79.064 L 215.231 77.692 216.603 79.154 M210.462 82.000 C 211.893 83.438,213.133 84.615,213.217 84.615 C 213.302 84.615,212.200 83.438,210.769 82.000 C 209.338 80.562,208.098 79.385,208.014 79.385 C 207.929 79.385,209.031 80.562,210.462 82.000 M153.231 82.000 C 151.970 83.269,151.008 84.308,151.092 84.308 C 151.177 84.308,152.278 83.269,153.538 82.000 C 154.799 80.731,155.762 79.692,155.677 79.692 C 155.592 79.692,154.492 80.731,153.231 82.000 M226.367 92.779 C 225.893 93.197,225.626 93.538,225.775 93.538 C 225.925 93.538,226.372 93.192,226.769 92.769 C 227.689 91.790,227.486 91.795,226.367 92.779 M273.231 94.000 C 273.805 94.592,274.344 95.077,274.428 95.077 C 274.513 95.077,274.113 94.592,273.538 94.000 C 272.964 93.408,272.425 92.923,272.341 92.923 C 272.256 92.923,272.657 93.408,273.231 94.000 M276.295 97.000 C 277.049 97.804,277.707 98.462,277.756 98.462 C 277.987 98.462,277.743 98.185,276.385 96.910 L 274.923 95.538 276.295 97.000 M268.308 97.931 C 268.308 97.977,269.381 99.050,270.692 100.315 L 273.077 102.615 270.777 100.231 C 268.641 98.016,268.308 97.706,268.308 97.931 M227.529 100.385 L 225.692 102.308 227.615 100.471 C 228.673 99.461,229.538 98.596,229.538 98.548 C 229.538 98.321,229.235 98.598,227.529 100.385 M100.914 128.231 L 98.923 130.308 101.000 128.317 C 102.142 127.221,103.077 126.287,103.077 126.240 C 103.077 126.013,102.764 126.302,100.914 128.231 M105.373 132.692 L 103.846 134.308 105.462 132.781 C 106.350 131.941,107.077 131.214,107.077 131.165 C 107.077 130.936,106.792 131.191,105.373 132.692 M306.154 139.538 C 307.244 140.638,308.205 141.538,308.290 141.538 C 308.375 141.538,307.552 140.638,306.462 139.538 C 305.371 138.438,304.410 137.538,304.325 137.538 C 304.241 137.538,305.064 138.438,306.154 139.538 M244.615 141.942 C 244.615 141.995,245.065 142.445,245.615 142.942 L 246.615 143.846 245.712 142.846 C 244.869 141.914,244.615 141.705,244.615 141.942 M155.211 143.154 L 154.308 144.154 155.308 143.250 C 155.858 142.753,156.308 142.303,156.308 142.250 C 156.308 142.012,156.054 142.222,155.211 143.154 M301.692 144.000 C 302.526 144.846,303.277 145.538,303.361 145.538 C 303.446 145.538,302.833 144.846,302.000 144.000 C 301.167 143.154,300.415 142.462,300.331 142.462 C 300.246 142.462,300.859 143.154,301.692 144.000 M249.231 146.308 C 250.662 147.746,251.902 148.923,251.986 148.923 C 252.071 148.923,250.969 147.746,249.538 146.308 C 248.107 144.869,246.867 143.692,246.783 143.692 C 246.698 143.692,247.800 144.869,249.231 146.308 M150.917 147.154 L 147.846 150.308 151.000 147.237 C 152.735 145.547,154.154 144.128,154.154 144.083 C 154.154 143.860,153.770 144.225,150.917 147.154 M158.904 148.385 L 158.000 149.385 159.000 148.481 C 159.550 147.984,160.000 147.534,160.000 147.481 C 160.000 147.243,159.746 147.452,158.904 148.385 M241.231 147.481 C 241.231 147.534,241.681 147.984,242.231 148.481 L 243.231 149.385 242.327 148.385 C 241.485 147.452,241.231 147.243,241.231 147.481 M155.070 151.923 L 152.462 154.615 155.154 152.007 C 156.635 150.572,157.846 149.361,157.846 149.314 C 157.846 149.091,157.493 149.423,155.070 151.923 M244.923 150.923 C 245.842 151.854,246.664 152.615,246.748 152.615 C 246.833 152.615,246.150 151.854,245.231 150.923 C 244.312 149.992,243.490 149.231,243.406 149.231 C 243.321 149.231,244.004 149.992,244.923 150.923 M146.904 151.462 L 146.000 152.462 147.000 151.558 C 147.550 151.061,148.000 150.611,148.000 150.558 C 148.000 150.320,147.746 150.529,146.904 151.462 M246.769 153.019 C 246.769 153.072,247.219 153.522,247.769 154.019 L 248.769 154.923 247.866 153.923 C 247.023 152.991,246.769 152.782,246.769 153.019 M151.519 155.769 L 150.615 156.769 151.615 155.866 C 152.165 155.368,152.615 154.918,152.615 154.866 C 152.615 154.628,152.361 154.837,151.519 155.769 M75.991 174.385 L 74.000 176.462 76.077 174.470 C 78.006 172.621,78.295 172.308,78.068 172.308 C 78.021 172.308,77.086 173.242,75.991 174.385 M323.385 174.308 C 324.475 175.408,325.436 176.308,325.521 176.308 C 325.605 176.308,324.783 175.408,323.692 174.308 C 322.602 173.208,321.641 172.308,321.556 172.308 C 321.472 172.308,322.294 173.208,323.385 174.308 M80.450 178.846 L 78.923 180.462 80.538 178.935 C 81.427 178.095,82.154 177.368,82.154 177.319 C 82.154 177.090,81.869 177.345,80.450 178.846 M318.923 178.769 C 319.757 179.615,320.508 180.308,320.592 180.308 C 320.677 180.308,320.064 179.615,319.231 178.769 C 318.397 177.923,317.646 177.231,317.562 177.231 C 317.477 177.231,318.090 177.923,318.923 178.769 M151.385 256.712 C 151.385 256.765,151.835 257.215,152.385 257.712 L 153.385 258.615 152.481 257.615 C 151.639 256.683,151.385 256.474,151.385 256.712 M244.914 260.231 L 242.923 262.308 245.000 260.317 C 246.142 259.221,247.077 258.287,247.077 258.240 C 247.077 258.013,246.764 258.302,244.914 260.231 M154.615 260.308 C 155.449 261.154,156.200 261.846,156.285 261.846 C 156.369 261.846,155.757 261.154,154.923 260.308 C 154.090 259.462,153.339 258.769,153.254 258.769 C 153.169 258.769,153.782 259.462,154.615 260.308 M249.224 264.846 L 246.615 267.538 249.308 264.930 C 251.808 262.507,252.140 262.154,251.916 262.154 C 251.870 262.154,250.659 263.365,249.224 264.846 M150.308 264.923 C 151.483 266.108,152.514 267.077,152.599 267.077 C 152.683 267.077,151.791 266.108,150.615 264.923 C 149.440 263.738,148.409 262.769,148.324 262.769 C 148.240 262.769,149.132 263.738,150.308 264.923 M226.154 299.538 C 226.728 300.131,227.267 300.615,227.351 300.615 C 227.436 300.615,227.036 300.131,226.462 299.538 C 225.887 298.946,225.349 298.462,225.264 298.462 C 225.179 298.462,225.580 298.946,226.154 299.538 M177.673 304.385 L 176.769 305.385 177.769 304.481 C 178.319 303.984,178.769 303.534,178.769 303.481 C 178.769 303.243,178.515 303.452,177.673 304.385 M109.070 323.154 L 106.615 325.692 109.154 323.238 C 110.550 321.888,111.692 320.746,111.692 320.700 C 111.692 320.475,111.349 320.796,109.070 323.154 M290.308 323.077 C 291.654 324.431,292.824 325.538,292.909 325.538 C 292.993 325.538,291.961 324.431,290.615 323.077 C 289.269 321.723,288.099 320.615,288.014 320.615 C 287.930 320.615,288.962 321.723,290.308 323.077 M285.692 327.385 C 286.868 328.569,287.899 329.538,287.983 329.538 C 288.068 329.538,287.176 328.569,286.000 327.385 C 284.824 326.200,283.793 325.231,283.709 325.231 C 283.624 325.231,284.517 326.200,285.692 327.385 M113.683 327.462 L 111.846 329.385 113.769 327.548 C 114.827 326.538,115.692 325.673,115.692 325.625 C 115.692 325.398,115.389 325.675,113.683 327.462 M102.462 369.635 C 102.462 369.688,102.912 370.138,103.462 370.635 L 104.462 371.538 103.558 370.538 C 102.715 369.606,102.462 369.397,102.462 369.635 M296.291 371.000 L 295.231 372.154 296.385 371.093 C 297.459 370.107,297.680 369.846,297.445 369.846 C 297.394 369.846,296.874 370.365,296.291 371.000 M98.756 374.846 C 100.031 376.205,100.308 376.449,100.308 376.218 C 100.308 376.169,99.650 375.511,98.846 374.756 L 97.385 373.385 98.756 374.846 M300.605 375.615 L 298.923 377.385 300.692 375.703 C 302.336 374.140,302.602 373.846,302.374 373.846 C 302.326 373.846,301.530 374.642,300.605 375.615 " stroke="none" fill="#ffad19" fill-rule="evenodd"></path></g></svg>