<svg id="svg" version="1.1" width="400" height="400" viewBox="0 0 400 400" xmlns="http://www.w3.org/2000/svg" xmlns:xlink="http://www.w3.org/1999/xlink" ><g id="svgg"><path id="path0" d="" stroke="none" fill="#000000" fill-rule="evenodd"></path><path id="path1" d="" stroke="none" fill="#555500" fill-rule="evenodd"></path><path id="path2" d="" stroke="none" fill="#ff5500" fill-rule="evenodd"></path><path id="path3" d="M184.243 55.931 C 184.124 56.123,182.266 56.403,180.113 56.553 C 175.258 56.893,168.000 57.998,168.000 58.399 C 168.000 58.563,167.066 58.821,165.925 58.972 C 162.576 59.417,155.828 60.835,155.605 61.141 C 155.492 61.296,154.050 61.754,152.400 62.158 C 150.750 62.562,148.680 63.218,147.800 63.616 C 146.920 64.014,145.241 64.618,144.068 64.958 C 142.895 65.298,141.185 65.918,140.268 66.337 C 136.897 67.875,135.560 68.400,135.015 68.400 C 134.708 68.400,134.219 68.632,133.929 68.915 C 133.638 69.198,132.500 69.767,131.400 70.178 C 129.355 70.943,123.560 73.893,123.200 74.353 C 123.090 74.493,121.920 75.138,120.600 75.786 C 119.280 76.434,118.056 77.197,117.880 77.482 C 117.704 77.767,117.366 78.000,117.129 78.000 C 116.891 78.000,115.642 78.720,114.353 79.600 C 113.064 80.480,111.827 81.200,111.605 81.200 C 111.382 81.200,111.200 81.380,111.200 81.600 C 111.200 81.820,110.949 82.000,110.643 82.000 C 110.336 82.000,109.981 82.273,109.853 82.606 C 109.725 82.939,109.209 83.368,108.707 83.559 C 108.204 83.750,106.306 85.098,104.488 86.553 C 102.670 88.009,101.019 89.200,100.819 89.200 C 100.618 89.200,100.070 89.740,99.600 90.400 C 99.130 91.060,98.558 91.600,98.329 91.600 C 98.101 91.600,96.899 92.635,95.659 93.900 C 94.419 95.165,93.047 96.384,92.610 96.608 C 92.173 96.832,91.632 97.372,91.408 97.808 C 91.184 98.244,89.335 100.251,87.300 102.270 C 85.265 104.288,83.600 106.129,83.600 106.361 C 83.600 106.592,83.150 107.076,82.600 107.437 C 82.050 107.797,81.600 108.250,81.600 108.444 C 81.600 108.638,80.700 109.913,79.600 111.278 C 78.500 112.643,77.600 113.930,77.600 114.138 C 77.600 114.346,77.224 114.895,76.765 115.358 C 75.831 116.300,71.381 123.005,70.179 125.283 C 66.492 132.268,63.098 139.623,62.203 142.566 C 61.808 143.867,61.249 145.385,60.962 145.939 C 60.675 146.492,60.031 148.667,59.532 150.772 C 59.032 152.878,58.482 154.701,58.310 154.825 C 58.137 154.949,57.617 157.649,57.155 160.825 C 56.692 164.001,56.153 166.913,55.957 167.295 C 55.499 168.185,55.486 195.483,55.944 195.765 C 56.133 195.882,56.409 197.165,56.558 198.617 C 56.937 202.316,57.939 208.047,58.374 209.000 C 58.575 209.440,59.137 211.420,59.623 213.400 C 60.109 215.380,60.744 217.450,61.033 218.000 C 61.322 218.550,61.957 220.350,62.445 222.000 C 62.932 223.650,63.542 225.270,63.801 225.600 C 64.060 225.930,64.683 227.325,65.185 228.700 C 65.687 230.075,66.214 231.200,66.356 231.200 C 66.498 231.200,67.046 232.288,67.574 233.618 C 68.103 234.948,68.661 236.114,68.815 236.209 C 68.970 236.305,69.614 237.418,70.248 238.682 C 70.882 239.947,71.715 241.301,72.100 241.691 C 72.485 242.081,72.800 242.644,72.800 242.942 C 72.800 243.239,73.250 243.969,73.800 244.562 C 74.350 245.156,74.801 245.767,74.802 245.921 C 74.803 246.074,75.498 247.116,76.347 248.236 C 77.196 249.355,77.960 250.467,78.045 250.706 C 78.634 252.359,94.997 270.400,95.907 270.400 C 96.019 270.400,96.861 271.075,97.779 271.900 C 101.374 275.132,105.906 278.800,106.303 278.800 C 106.476 278.800,107.289 279.353,108.109 280.029 L 109.600 281.258 109.600 312.829 L 109.600 344.400 110.627 344.400 C 111.191 344.400,112.226 343.971,112.927 343.446 C 113.627 342.922,114.605 342.370,115.100 342.219 C 115.595 342.069,116.000 341.788,116.000 341.594 C 116.000 341.400,116.945 340.768,118.100 340.189 C 119.255 339.611,120.470 338.907,120.800 338.626 C 121.130 338.345,122.255 337.698,123.300 337.187 C 124.345 336.676,125.200 336.151,125.200 336.021 C 125.200 335.890,126.043 335.337,127.073 334.792 C 128.104 334.246,129.274 333.485,129.673 333.100 C 130.073 332.715,130.594 332.400,130.832 332.400 C 131.070 332.400,132.214 331.770,133.374 331.000 C 134.534 330.230,135.689 329.600,135.941 329.600 C 136.194 329.600,136.400 329.420,136.400 329.200 C 136.400 328.980,136.657 328.800,136.971 328.800 C 137.286 328.800,137.781 328.565,138.071 328.278 C 138.362 327.990,139.402 327.315,140.383 326.778 C 141.363 326.240,142.488 325.485,142.883 325.100 C 143.277 324.715,143.799 324.400,144.042 324.400 C 144.285 324.400,145.290 323.856,146.275 323.191 C 147.260 322.527,148.816 321.602,149.733 321.138 C 150.650 320.673,151.490 320.170,151.600 320.020 C 151.710 319.870,152.854 319.129,154.142 318.374 C 155.431 317.618,157.231 316.546,158.142 315.990 C 159.054 315.435,160.405 314.625,161.144 314.190 C 161.883 313.756,163.053 313.000,163.744 312.510 C 164.435 312.021,165.433 311.430,165.963 311.196 C 166.492 310.963,167.690 310.256,168.625 309.625 C 169.560 308.994,170.670 308.368,171.092 308.234 C 171.514 308.100,172.267 307.611,172.765 307.147 C 173.505 306.458,173.830 306.383,174.535 306.738 C 178.863 308.917,224.121 309.018,225.586 306.852 C 225.704 306.678,227.330 306.326,229.200 306.069 C 234.549 305.333,239.600 304.295,239.600 303.932 C 239.600 303.749,239.933 303.600,240.341 303.600 C 241.324 303.600,249.289 301.595,249.800 301.219 C 250.020 301.058,251.370 300.611,252.800 300.226 C 254.230 299.842,255.760 299.303,256.200 299.029 C 256.640 298.754,258.438 298.036,260.196 297.433 C 261.954 296.830,263.484 296.203,263.596 296.041 C 263.708 295.878,265.150 295.250,266.800 294.644 C 268.450 294.038,270.070 293.301,270.400 293.005 C 270.730 292.709,271.765 292.162,272.700 291.790 C 273.635 291.418,274.400 290.992,274.400 290.845 C 274.400 290.697,275.314 290.221,276.432 289.788 C 277.549 289.355,278.769 288.730,279.143 288.400 C 279.516 288.070,280.537 287.440,281.411 287.001 C 282.285 286.561,283.242 285.972,283.538 285.692 C 283.834 285.411,284.644 284.892,285.338 284.539 C 286.032 284.186,287.434 283.290,288.454 282.548 C 289.473 281.807,290.427 281.200,290.573 281.200 C 290.720 281.200,291.488 280.570,292.281 279.800 C 293.074 279.030,293.959 278.400,294.247 278.400 C 294.536 278.400,294.965 278.040,295.200 277.600 C 295.435 277.160,295.859 276.800,296.142 276.800 C 296.425 276.800,298.512 275.135,300.780 273.100 C 303.048 271.065,305.334 269.067,305.862 268.659 C 307.627 267.295,316.587 257.685,318.722 254.866 C 319.315 254.082,320.205 253.001,320.700 252.462 C 321.195 251.924,321.600 251.291,321.600 251.056 C 321.600 250.821,321.964 250.262,322.409 249.814 C 322.853 249.366,324.201 247.470,325.404 245.600 C 326.607 243.730,327.728 242.015,327.895 241.788 C 328.178 241.406,329.143 239.713,330.171 237.800 C 330.407 237.360,330.702 236.910,330.827 236.800 C 331.124 236.539,334.529 229.408,335.220 227.600 C 335.514 226.830,335.864 226.110,335.997 226.000 C 336.130 225.890,336.770 224.180,337.419 222.200 C 338.069 220.220,338.727 218.505,338.881 218.388 C 339.036 218.271,339.548 216.561,340.018 214.588 C 340.488 212.615,341.025 210.706,341.210 210.347 C 341.693 209.414,342.678 204.407,343.206 200.200 C 343.454 198.220,343.825 196.287,344.029 195.905 C 344.497 195.030,344.523 169.723,344.056 169.435 C 343.867 169.318,343.591 168.002,343.442 166.511 C 343.049 162.579,341.605 154.292,341.229 153.811 C 341.052 153.585,340.615 152.081,340.258 150.469 C 339.901 148.857,339.340 146.967,339.013 146.269 C 338.686 145.571,338.070 143.902,337.645 142.561 C 336.391 138.603,329.350 123.902,328.276 123.000 C 328.014 122.780,327.440 121.880,327.000 121.000 C 326.560 120.120,325.795 118.952,325.300 118.404 C 324.805 117.856,324.400 117.208,324.400 116.962 C 324.400 116.717,323.995 116.079,323.500 115.544 C 323.005 115.009,322.253 114.037,321.829 113.385 C 318.813 108.752,307.304 96.360,300.931 90.885 C 298.006 88.372,291.160 83.241,290.419 83.006 C 290.009 82.876,289.573 82.506,289.450 82.185 C 289.326 81.863,289.048 81.600,288.832 81.600 C 288.615 81.600,287.280 80.790,285.863 79.800 C 284.447 78.810,283.101 78.000,282.873 78.000 C 282.644 78.000,282.160 77.703,281.797 77.340 C 281.131 76.674,277.601 74.681,274.544 73.244 C 273.633 72.816,272.777 72.287,272.641 72.067 C 272.506 71.848,271.091 71.170,269.497 70.561 C 267.904 69.953,266.362 69.218,266.071 68.927 C 265.781 68.637,265.292 68.400,264.985 68.400 C 264.427 68.400,263.184 67.906,259.376 66.172 C 258.263 65.665,256.463 65.033,255.376 64.767 C 254.289 64.502,253.197 64.126,252.948 63.933 C 252.385 63.496,246.053 61.620,245.100 61.608 C 244.715 61.604,244.400 61.446,244.400 61.259 C 244.400 61.071,241.835 60.431,238.700 59.837 C 235.565 59.243,232.640 58.600,232.200 58.408 C 231.100 57.928,227.110 57.253,220.970 56.510 C 215.158 55.806,184.617 55.325,184.243 55.931 M201.362 74.738 C 201.477 74.924,204.502 75.187,208.085 75.323 C 215.004 75.585,224.469 76.586,225.800 77.198 C 226.240 77.400,228.220 77.849,230.200 78.195 C 235.845 79.184,238.000 79.700,238.000 80.064 C 238.000 80.249,238.281 80.400,238.625 80.400 C 239.450 80.400,246.487 82.412,247.000 82.795 C 247.220 82.959,248.660 83.507,250.200 84.011 C 251.740 84.516,253.540 85.231,254.200 85.600 C 254.860 85.969,256.334 86.581,257.475 86.959 C 258.616 87.338,259.606 87.777,259.675 87.935 C 259.744 88.093,260.970 88.739,262.400 89.371 C 263.830 90.003,265.090 90.633,265.200 90.771 C 265.310 90.909,266.210 91.377,267.200 91.811 C 268.190 92.245,269.824 93.140,270.830 93.800 C 271.837 94.460,273.681 95.630,274.928 96.400 C 279.819 99.421,285.854 104.014,288.725 106.900 C 289.546 107.725,290.381 108.400,290.582 108.400 C 290.782 108.400,292.891 110.425,295.269 112.900 C 297.648 115.375,300.135 117.950,300.797 118.622 C 301.459 119.294,302.000 120.037,302.000 120.273 C 302.000 120.509,302.266 120.923,302.591 121.192 C 303.431 121.890,310.000 130.644,310.000 131.067 C 310.000 131.260,310.585 132.319,311.300 133.419 C 314.849 138.882,319.912 150.612,321.392 156.800 C 321.786 158.450,322.252 159.983,322.426 160.207 C 323.206 161.208,324.800 173.531,324.800 178.561 C 324.800 180.284,324.984 181.667,325.235 181.822 C 325.548 182.015,325.548 182.212,325.235 182.525 C 324.996 182.764,324.800 184.371,324.800 186.096 C 324.800 191.450,323.410 201.951,322.403 204.200 C 322.206 204.640,321.666 206.512,321.204 208.361 C 320.741 210.209,320.196 212.033,319.993 212.413 C 319.789 212.794,319.326 213.979,318.963 215.047 C 318.600 216.116,317.763 218.162,317.103 219.595 C 316.442 221.028,315.569 222.920,315.163 223.800 C 313.642 227.096,309.510 234.081,308.315 235.375 C 307.922 235.802,307.600 236.385,307.600 236.672 C 307.600 236.959,307.240 237.418,306.800 237.693 C 306.360 237.968,306.000 238.337,306.000 238.513 C 306.000 238.890,306.132 238.719,301.988 243.716 C 296.905 249.843,297.583 249.125,291.646 254.672 C 287.536 258.511,282.311 262.800,281.742 262.800 C 281.460 262.800,281.035 263.160,280.800 263.600 C 280.565 264.040,280.127 264.400,279.828 264.400 C 279.529 264.400,278.728 264.920,278.048 265.555 C 277.368 266.190,276.584 266.816,276.306 266.946 C 276.028 267.077,275.080 267.636,274.200 268.189 C 273.320 268.742,272.330 269.316,272.000 269.465 C 271.670 269.614,270.500 270.297,269.400 270.984 C 266.622 272.717,258.230 276.800,257.446 276.800 C 257.091 276.800,256.800 276.956,256.800 277.146 C 256.800 277.337,255.675 277.887,254.300 278.369 C 252.925 278.852,251.170 279.577,250.400 279.982 C 249.630 280.387,247.830 281.039,246.400 281.430 C 244.970 281.822,243.710 282.263,243.600 282.411 C 243.490 282.560,242.950 282.776,242.400 282.892 C 239.818 283.437,234.116 284.922,233.400 285.236 C 232.378 285.684,224.652 287.040,221.000 287.412 C 219.460 287.569,218.020 287.835,217.800 288.004 C 215.958 289.415,185.041 289.438,181.800 288.030 C 181.360 287.839,178.429 287.285,175.287 286.798 C 169.174 285.851,168.100 285.956,166.225 287.685 C 165.798 288.078,165.284 288.400,165.083 288.400 C 164.881 288.400,163.907 288.946,162.918 289.614 C 161.928 290.281,160.237 291.274,159.160 291.820 C 158.082 292.367,157.198 292.945,157.196 293.107 C 157.194 293.268,156.204 293.839,154.996 294.376 C 153.788 294.913,152.800 295.503,152.800 295.686 C 152.800 295.870,152.332 296.198,151.760 296.415 C 151.187 296.633,149.774 297.439,148.618 298.205 C 147.463 298.972,146.391 299.600,146.237 299.600 C 146.083 299.600,144.717 300.410,143.200 301.400 C 141.683 302.390,140.281 303.200,140.083 303.200 C 139.886 303.200,139.398 303.560,139.000 304.000 C 138.602 304.440,138.077 304.800,137.833 304.800 C 137.589 304.800,136.454 305.430,135.310 306.200 C 134.167 306.970,133.087 307.600,132.910 307.600 C 132.734 307.600,131.624 308.250,130.445 309.044 L 128.300 310.489 128.450 290.316 C 128.616 267.999,128.798 269.631,125.980 268.205 C 125.221 267.821,123.663 266.808,122.517 265.953 C 121.372 265.099,120.256 264.400,120.037 264.400 C 119.819 264.400,119.496 264.165,119.320 263.878 C 119.144 263.591,118.323 262.945,117.495 262.442 C 116.667 261.940,115.806 261.185,115.581 260.764 C 115.356 260.344,114.980 260.000,114.745 260.000 C 112.712 260.000,93.615 240.000,92.445 236.645 C 92.359 236.400,91.708 235.390,90.997 234.400 C 90.285 233.410,89.385 231.970,88.996 231.200 C 88.607 230.430,88.174 229.710,88.034 229.600 C 87.895 229.490,87.335 228.500,86.790 227.400 C 86.246 226.300,85.605 225.130,85.367 224.800 C 85.129 224.470,84.521 223.210,84.017 222.000 C 83.512 220.790,82.982 219.710,82.838 219.600 C 82.695 219.490,82.060 217.870,81.427 216.000 C 80.795 214.130,80.141 212.420,79.975 212.200 C 79.808 211.980,79.202 210.000,78.628 207.800 C 78.053 205.600,77.415 203.440,77.210 203.000 C 76.580 201.651,75.559 194.068,75.312 188.900 C 75.184 186.205,74.926 184.000,74.739 184.000 C 74.553 184.000,74.400 182.740,74.400 181.200 C 74.400 179.600,74.571 178.400,74.800 178.400 C 75.027 178.400,75.201 177.232,75.202 175.700 C 75.205 172.373,76.628 162.304,77.364 160.400 C 77.662 159.630,78.308 157.380,78.801 155.400 C 79.293 153.420,79.810 151.710,79.950 151.600 C 80.089 151.490,80.548 150.320,80.969 149.000 C 81.391 147.680,82.059 145.970,82.455 145.200 C 82.851 144.430,83.623 142.810,84.170 141.600 C 85.081 139.586,86.345 137.225,89.418 131.800 C 90.041 130.700,90.787 129.656,91.075 129.480 C 91.364 129.304,91.604 128.944,91.608 128.680 C 91.615 128.247,94.209 124.678,96.509 121.938 C 96.999 121.353,97.940 120.212,98.600 119.401 C 100.204 117.431,109.485 108.160,111.615 106.400 C 112.547 105.630,113.601 104.730,113.957 104.400 C 115.106 103.336,119.476 100.094,120.453 99.581 C 120.974 99.307,121.544 98.839,121.720 98.542 C 121.896 98.244,122.261 98.000,122.531 98.000 C 122.801 98.000,123.571 97.505,124.241 96.900 C 125.368 95.884,126.911 94.966,132.200 92.167 C 133.300 91.585,134.470 90.888,134.800 90.618 C 135.130 90.349,136.525 89.717,137.900 89.215 C 139.275 88.713,140.400 88.166,140.400 88.000 C 140.400 87.834,141.525 87.287,142.900 86.785 C 144.275 86.283,145.670 85.660,146.000 85.401 C 146.330 85.141,147.680 84.606,149.000 84.210 C 150.320 83.815,151.850 83.255,152.400 82.965 C 153.533 82.369,160.423 80.400,161.375 80.400 C 161.719 80.400,162.000 80.249,162.000 80.064 C 162.000 79.700,164.155 79.184,169.800 78.195 C 171.780 77.849,173.760 77.400,174.200 77.198 C 175.531 76.586,184.996 75.585,191.915 75.323 C 195.498 75.187,198.523 74.924,198.638 74.738 C 198.753 74.552,199.366 74.400,200.000 74.400 C 200.634 74.400,201.247 74.552,201.362 74.738 M136.000 154.348 C 136.000 154.540,135.140 154.811,134.089 154.950 C 128.706 155.665,125.569 162.680,128.152 168.228 C 129.049 170.155,131.649 172.800,132.645 172.800 C 132.900 172.800,133.624 173.069,134.254 173.398 C 135.913 174.263,264.275 174.312,265.938 173.449 C 266.522 173.146,267.508 172.658,268.128 172.366 C 271.250 170.896,272.946 167.555,272.731 163.301 C 272.634 161.380,272.397 160.199,272.089 160.096 C 271.820 160.007,271.600 159.674,271.600 159.356 C 271.600 158.073,268.165 155.274,266.236 154.985 C 265.221 154.832,264.292 154.548,264.171 154.354 C 263.885 153.890,136.000 153.885,136.000 154.348 M151.800 208.767 C 149.995 209.209,148.996 209.845,147.837 211.291 C 147.260 212.011,146.608 212.820,146.388 213.089 C 143.811 216.244,145.523 223.747,149.337 226.012 C 152.684 228.000,151.057 227.937,199.723 227.969 C 244.442 227.999,248.776 227.898,249.600 226.805 C 249.710 226.659,250.385 226.199,251.100 225.784 C 251.815 225.368,252.400 224.874,252.400 224.687 C 252.400 224.500,252.895 223.697,253.500 222.904 C 256.233 219.319,254.713 212.859,250.417 209.800 L 248.731 208.600 200.866 208.537 C 174.540 208.502,152.460 208.606,151.800 208.767 " stroke="none" fill="#f8b119" fill-rule="evenodd"></path><path id="path4" d="" stroke="none" fill="#ffff00" fill-rule="evenodd"></path></g></svg>