<svg id="svg" version="1.1" width="400" height="400" viewBox="0 0 400 400" xmlns="http://www.w3.org/2000/svg" xmlns:xlink="http://www.w3.org/1999/xlink" ><g id="svgg"><path id="path0" d="" stroke="none" fill="#ff0000" fill-rule="evenodd"></path><path id="path1" d="M302.175 206.500 L 301.000 207.800 302.300 206.625 C 303.015 205.979,303.600 205.394,303.600 205.325 C 303.600 205.016,303.270 205.288,302.175 206.500 " stroke="none" fill="#ff5500" fill-rule="evenodd"></path><path id="path2" d="" stroke="none" fill="#d88900" fill-rule="evenodd"></path><path id="path3" d="M316.563 84.706 C 316.323 84.868,315.352 86.498,314.404 88.328 C 312.074 92.830,307.888 98.113,302.300 103.605 C 301.255 104.633,300.400 105.619,300.400 105.797 C 300.400 105.975,299.635 106.865,298.700 107.775 C 297.765 108.686,296.190 110.470,295.200 111.740 C 294.210 113.010,293.085 114.348,292.700 114.713 C 292.315 115.079,292.000 115.589,292.000 115.846 C 292.000 116.104,291.730 116.418,291.400 116.545 C 291.070 116.671,290.800 117.031,290.800 117.345 C 290.800 117.658,290.530 118.018,290.200 118.145 C 289.870 118.271,289.600 118.651,289.600 118.987 C 289.600 119.324,289.450 119.600,289.268 119.600 C 289.085 119.600,288.688 120.095,288.385 120.700 C 288.082 121.305,287.615 122.070,287.346 122.400 C 286.576 123.347,282.398 131.932,281.321 134.783 C 280.783 136.204,280.224 137.554,280.078 137.783 C 279.932 138.013,279.797 138.290,279.778 138.400 C 279.759 138.510,279.508 139.140,279.222 139.800 C 278.285 141.957,278.072 142.565,277.263 145.400 C 274.537 154.957,273.110 162.760,271.521 176.800 C 270.667 184.343,271.010 259.215,271.902 259.900 C 272.615 260.448,277.102 260.577,277.896 260.073 C 278.274 259.833,278.416 255.756,278.496 242.799 L 278.600 225.841 281.600 224.015 C 285.535 221.621,288.455 219.431,291.400 216.669 C 292.720 215.431,293.951 214.414,294.136 214.409 C 294.445 214.401,297.970 210.873,303.700 204.838 C 304.965 203.506,306.000 202.238,306.000 202.022 C 306.000 201.805,306.360 201.435,306.800 201.200 C 307.240 200.965,307.600 200.527,307.600 200.229 C 307.600 199.930,307.842 199.593,308.137 199.480 C 308.432 199.366,308.983 198.672,309.361 197.937 C 309.740 197.202,310.932 195.250,312.012 193.600 C 315.957 187.572,320.090 178.169,321.009 173.132 L 321.277 171.664 317.389 169.063 L 313.500 166.463 315.787 165.132 C 317.045 164.399,318.656 163.440,319.367 163.000 C 320.078 162.560,321.426 161.754,322.362 161.209 C 327.417 158.263,331.600 144.022,331.600 129.754 C 331.600 114.944,327.815 102.044,319.086 87.100 C 317.474 84.340,317.322 84.196,316.563 84.706 M94.200 87.995 C 86.411 88.895,79.867 92.833,73.920 100.200 C 72.320 102.181,70.896 104.906,69.716 108.244 L 68.600 111.400 68.495 199.982 L 68.390 288.565 69.242 291.982 C 70.510 297.060,76.559 306.400,78.581 306.400 C 78.816 306.400,79.213 306.728,79.463 307.129 C 80.128 308.194,85.584 310.733,89.131 311.629 C 92.125 312.385,94.252 312.402,176.600 312.302 L 261.000 312.200 261.085 200.646 C 261.141 126.825,261.035 88.839,260.770 88.344 C 260.356 87.571,100.762 87.236,94.200 87.995 M253.501 173.500 L 253.601 252.000 183.401 252.000 L 113.200 252.000 113.200 181.985 L 113.200 111.970 109.500 112.085 L 105.800 112.200 105.699 182.057 L 105.598 251.914 98.099 252.096 C 88.332 252.334,84.234 253.647,78.600 258.345 L 76.200 260.346 76.096 187.273 L 75.991 114.200 77.004 111.051 C 77.560 109.318,78.372 107.401,78.808 106.789 C 79.244 106.177,79.600 105.479,79.600 105.238 C 79.600 104.997,79.780 104.800,80.000 104.800 C 80.220 104.800,80.400 104.582,80.400 104.317 C 80.400 103.806,84.207 100.000,84.718 100.000 C 84.883 100.000,85.644 99.486,86.409 98.858 C 88.656 97.014,92.076 95.714,96.400 95.059 C 96.950 94.976,132.500 94.929,175.400 94.954 L 253.400 95.000 253.501 173.500 M317.323 99.913 C 317.445 100.525,318.070 102.190,318.712 103.613 C 320.736 108.100,321.814 111.564,323.003 117.400 C 323.317 118.940,323.779 121.190,324.031 122.400 C 324.581 125.049,324.334 138.504,323.720 139.280 C 323.494 139.566,323.186 140.610,323.035 141.600 C 322.747 143.489,320.872 149.913,320.408 150.600 C 320.259 150.820,319.822 151.855,319.436 152.900 C 319.050 153.945,318.609 154.800,318.457 154.800 C 318.305 154.800,316.745 155.629,314.990 156.642 C 313.236 157.656,310.938 158.972,309.884 159.567 C 308.830 160.162,307.613 160.953,307.180 161.325 C 306.746 161.696,306.295 162.000,306.177 162.000 C 305.476 162.000,299.588 165.771,299.704 166.145 C 299.863 166.659,309.180 173.149,309.804 173.180 C 310.339 173.207,312.400 175.130,312.400 175.603 C 312.400 176.008,311.755 177.509,309.727 181.823 C 308.997 183.375,308.400 184.860,308.400 185.123 C 308.400 185.385,308.223 185.600,308.008 185.600 C 307.792 185.600,307.502 186.050,307.364 186.600 C 307.226 187.150,306.953 187.600,306.757 187.600 C 306.560 187.600,306.400 187.785,306.400 188.012 C 306.400 188.929,301.073 196.358,298.817 198.587 C 297.487 199.901,296.400 201.165,296.400 201.397 C 296.400 202.021,291.050 207.136,287.600 209.811 C 285.950 211.091,284.280 212.465,283.888 212.865 C 282.433 214.351,278.769 216.902,278.489 216.623 C 277.992 216.126,277.921 191.356,278.395 183.800 C 279.020 173.856,280.504 162.268,281.261 161.420 C 281.447 161.211,281.600 160.703,281.600 160.291 C 281.600 159.478,282.933 153.698,283.788 150.800 C 286.465 141.733,288.449 136.592,291.427 131.000 C 292.247 129.460,293.175 127.705,293.488 127.100 C 293.802 126.495,294.225 126.000,294.429 126.000 C 294.633 126.000,294.800 125.730,294.800 125.400 C 294.800 125.070,294.952 124.800,295.137 124.800 C 295.323 124.800,295.872 124.026,296.359 123.080 C 297.117 121.606,299.987 117.731,302.343 115.000 C 305.255 111.625,307.269 109.384,309.738 106.772 C 313.710 102.569,314.927 101.173,315.727 99.900 C 316.604 98.505,317.042 98.508,317.323 99.913 M304.491 130.300 C 303.400 131.785,302.276 133.450,301.994 134.000 C 301.711 134.550,301.372 135.090,301.240 135.200 C 300.902 135.481,300.181 136.703,299.115 138.800 C 298.612 139.790,297.990 140.823,297.732 141.096 C 297.475 141.369,297.050 142.269,296.788 143.096 C 296.525 143.923,296.095 144.960,295.830 145.400 C 295.566 145.840,294.486 148.540,293.430 151.400 C 292.374 154.260,291.355 156.960,291.164 157.400 C 289.005 162.393,285.339 181.099,286.327 182.087 C 286.836 182.596,292.846 183.322,293.209 182.919 C 293.367 182.743,293.889 180.080,294.370 177.000 C 296.269 164.826,302.544 146.035,305.899 142.474 C 306.174 142.183,306.509 141.507,306.643 140.972 C 306.777 140.437,307.047 140.000,307.243 140.000 C 307.440 140.000,307.600 139.839,307.600 139.642 C 307.600 139.446,308.602 137.806,309.826 135.998 C 312.353 132.264,312.353 132.260,309.733 130.154 C 308.670 129.299,307.656 128.375,307.480 128.100 C 306.927 127.235,306.529 127.528,304.491 130.300 M139.443 136.233 C 139.124 137.062,139.126 195.742,139.444 196.572 C 139.743 197.350,226.164 197.493,227.100 196.716 C 227.813 196.125,227.833 136.793,227.120 136.080 C 226.288 135.248,139.763 135.399,139.443 136.233 M220.092 162.100 C 220.152 172.495,220.149 182.935,220.086 185.300 L 219.973 189.600 183.386 189.600 L 146.800 189.600 146.800 166.400 L 146.800 143.200 183.392 143.200 L 219.985 143.200 220.092 162.100 M253.513 264.100 L 253.625 268.800 186.236 268.800 C 143.527 268.800,118.760 268.941,118.609 269.185 C 118.473 269.406,117.995 269.433,117.486 269.248 C 116.775 268.990,110.726 268.911,109.500 269.143 C 109.335 269.174,109.200 270.820,109.200 272.800 L 109.200 276.400 181.400 276.400 L 253.600 276.400 253.600 282.200 L 253.600 288.000 181.385 288.000 L 109.170 288.000 109.285 291.700 L 109.400 295.400 181.400 295.600 L 253.400 295.800 253.513 300.500 L 253.625 305.200 173.655 305.200 L 93.684 305.200 90.942 304.355 C 84.925 302.501,81.986 300.081,78.437 294.063 C 75.173 288.527,74.936 277.791,77.930 271.105 C 78.299 270.282,78.735 269.607,78.900 269.605 C 79.065 269.602,79.200 269.334,79.200 269.008 C 79.200 268.245,84.655 262.800,85.419 262.800 C 85.739 262.800,86.000 262.662,86.000 262.492 C 86.000 262.227,88.630 261.175,93.000 259.691 C 93.801 259.420,120.671 259.303,173.800 259.342 L 253.400 259.400 253.513 264.100 " stroke="none" fill="#f8b119" fill-rule="evenodd"></path><path id="path4" d="" stroke="none" fill="#ffff00" fill-rule="evenodd"></path></g></svg>