<svg id="svg" version="1.1" width="400" height="400" viewBox="0 0 400 400" xmlns="http://www.w3.org/2000/svg" xmlns:xlink="http://www.w3.org/1999/xlink" ><g id="svgg"><path id="path0" d="" stroke="none" fill="#ff0000" fill-rule="evenodd"></path><path id="path1" d="" stroke="none" fill="#ff5500" fill-rule="evenodd"></path><path id="path2" d="" stroke="none" fill="#ff8e00" fill-rule="evenodd"></path><path id="path3" d="M217.600 57.976 C 217.600 58.843,217.438 59.653,217.241 59.775 C 217.043 59.897,216.755 61.258,216.600 62.798 C 216.445 64.339,216.192 65.600,216.036 65.600 C 215.880 65.600,215.524 67.220,215.243 69.200 C 214.963 71.180,214.592 72.800,214.419 72.800 C 214.245 72.800,213.984 73.700,213.838 74.800 C 213.692 75.900,213.422 76.800,213.238 76.800 C 213.054 76.800,212.785 77.693,212.640 78.784 C 212.495 79.875,212.202 80.875,211.988 81.007 C 211.774 81.139,211.398 82.047,211.152 83.024 C 210.906 84.001,210.561 84.800,210.384 84.800 C 210.208 84.800,209.945 85.340,209.800 86.000 C 209.655 86.660,209.390 87.200,209.212 87.200 C 209.033 87.200,208.773 87.655,208.633 88.210 C 208.494 88.766,208.069 89.546,207.690 89.944 C 207.310 90.342,206.735 91.058,206.412 91.534 C 206.088 92.010,205.633 92.400,205.401 92.400 C 205.168 92.400,204.680 92.715,204.317 93.100 C 203.129 94.358,202.524 94.731,200.850 95.232 C 199.943 95.504,199.200 95.870,199.200 96.045 C 199.200 96.220,198.570 96.482,197.800 96.626 C 197.030 96.771,196.400 97.041,196.400 97.226 C 196.400 97.412,195.770 97.682,195.000 97.826 C 194.230 97.971,193.600 98.217,193.600 98.374 C 193.600 98.531,192.160 98.902,190.400 99.200 C 188.640 99.498,187.200 99.869,187.200 100.025 C 187.200 100.180,186.210 100.432,185.000 100.583 C 183.790 100.734,182.800 101.003,182.800 101.182 C 182.800 101.360,181.450 101.633,179.800 101.787 C 178.150 101.942,176.800 102.218,176.800 102.400 C 176.800 102.582,175.450 102.858,173.800 103.013 C 170.296 103.341,169.134 104.800,172.376 104.800 C 173.243 104.800,174.053 104.963,174.177 105.162 C 174.300 105.361,176.290 105.755,178.600 106.037 C 180.910 106.320,182.800 106.684,182.800 106.847 C 182.800 107.009,183.790 107.266,185.000 107.417 C 186.210 107.568,187.200 107.828,187.200 107.995 C 187.200 108.161,188.141 108.422,189.290 108.574 C 190.440 108.727,191.565 108.996,191.790 109.173 C 192.016 109.350,193.145 109.717,194.300 109.988 C 195.455 110.258,196.400 110.622,196.400 110.795 C 196.400 110.969,197.030 111.229,197.800 111.374 C 198.570 111.518,199.200 111.794,199.200 111.986 C 199.200 112.179,199.740 112.455,200.400 112.600 C 201.060 112.745,201.600 112.993,201.600 113.151 C 201.600 113.310,202.230 113.667,203.000 113.946 C 203.770 114.224,204.400 114.620,204.400 114.826 C 204.400 115.032,204.630 115.200,204.911 115.200 C 205.474 115.200,206.800 116.591,206.800 117.182 C 206.800 117.387,207.147 117.798,207.572 118.095 C 207.996 118.393,208.466 119.123,208.615 119.718 C 208.765 120.313,209.033 120.800,209.212 120.800 C 209.390 120.800,209.655 121.340,209.800 122.000 C 209.945 122.660,210.215 123.200,210.400 123.200 C 210.585 123.200,210.858 123.785,211.007 124.500 C 211.157 125.215,211.518 126.179,211.810 126.642 C 212.103 127.104,212.465 128.139,212.615 128.942 C 212.766 129.744,213.031 130.400,213.205 130.400 C 213.379 130.400,213.647 131.480,213.800 132.800 C 213.953 134.120,214.216 135.200,214.384 135.200 C 214.551 135.200,214.929 136.820,215.222 138.800 C 215.515 140.780,215.879 142.400,216.031 142.400 C 216.182 142.400,216.433 143.750,216.587 145.400 C 216.742 147.050,217.033 148.400,217.234 148.400 C 217.435 148.400,217.600 149.120,217.600 150.000 C 217.600 153.262,219.057 152.122,219.387 148.603 C 219.541 146.954,219.814 145.515,219.993 145.404 C 220.172 145.294,220.445 143.942,220.600 142.402 C 220.755 140.861,221.014 139.600,221.176 139.600 C 221.338 139.600,221.709 138.070,222.000 136.200 C 222.291 134.330,222.657 132.800,222.813 132.800 C 222.969 132.800,223.216 131.900,223.362 130.800 C 223.508 129.700,223.801 128.800,224.014 128.800 C 224.226 128.800,224.400 128.520,224.400 128.178 C 224.400 127.836,224.747 126.795,225.171 125.864 C 225.595 124.934,226.064 123.683,226.214 123.086 C 226.364 122.489,226.633 122.000,226.812 122.000 C 226.990 122.000,227.255 121.460,227.400 120.800 C 227.545 120.140,227.829 119.600,228.032 119.600 C 228.234 119.600,228.400 119.422,228.400 119.205 C 228.400 118.451,230.605 115.624,231.400 115.359 C 231.840 115.212,232.296 114.944,232.414 114.762 C 232.780 114.196,238.871 111.200,239.655 111.200 C 240.065 111.200,240.400 111.033,240.400 110.829 C 240.400 110.624,241.390 110.236,242.600 109.965 C 243.810 109.694,244.800 109.342,244.800 109.182 C 244.800 109.023,245.787 108.769,246.994 108.618 C 248.200 108.467,249.283 108.189,249.400 108.000 C 249.517 107.811,250.600 107.533,251.806 107.382 C 253.013 107.231,254.000 106.966,254.000 106.793 C 254.000 106.621,255.890 106.255,258.200 105.981 C 260.510 105.708,262.400 105.330,262.400 105.142 C 262.400 104.954,263.210 104.800,264.200 104.800 C 267.771 104.800,266.634 103.359,262.800 103.024 C 261.040 102.871,259.600 102.596,259.600 102.413 C 259.600 102.231,258.340 101.955,256.800 101.800 C 255.260 101.645,254.000 101.375,254.000 101.199 C 254.000 101.023,252.920 100.753,251.600 100.600 C 250.280 100.447,249.200 100.184,249.200 100.016 C 249.200 99.847,247.850 99.492,246.200 99.226 C 244.550 98.960,243.200 98.575,243.200 98.371 C 243.200 98.167,242.763 98.000,242.229 98.000 C 241.694 98.000,241.015 97.758,240.719 97.461 C 240.422 97.165,239.509 96.797,238.690 96.643 C 237.870 96.490,237.200 96.199,237.200 95.998 C 237.200 95.797,236.480 95.416,235.600 95.153 C 234.720 94.889,234.000 94.522,234.000 94.337 C 234.000 94.152,233.770 94.000,233.489 94.000 C 233.208 94.000,232.670 93.640,232.293 93.200 C 231.916 92.760,231.381 92.393,231.104 92.385 C 230.577 92.369,228.400 89.479,228.400 88.795 C 228.400 88.578,228.234 88.400,228.032 88.400 C 227.829 88.400,227.545 87.860,227.400 87.200 C 227.255 86.540,226.990 86.000,226.812 86.000 C 226.633 86.000,226.364 85.511,226.214 84.914 C 226.064 84.317,225.595 83.066,225.171 82.136 C 224.747 81.205,224.400 80.164,224.400 79.822 C 224.400 79.480,224.226 79.200,224.014 79.200 C 223.801 79.200,223.508 78.300,223.362 77.200 C 223.216 76.100,222.969 75.200,222.813 75.200 C 222.657 75.200,222.291 73.670,222.000 71.800 C 221.709 69.930,221.338 68.400,221.176 68.400 C 221.014 68.400,220.755 67.140,220.600 65.600 C 220.445 64.060,220.176 62.800,220.001 62.800 C 219.826 62.800,219.556 61.360,219.400 59.600 C 219.075 55.924,217.600 54.594,217.600 57.976 M272.400 112.371 C 272.400 113.267,272.257 114.000,272.081 114.000 C 271.906 114.000,271.548 115.473,271.286 117.274 C 271.023 119.074,270.649 120.649,270.453 120.774 C 270.258 120.898,269.970 121.765,269.814 122.700 C 269.658 123.635,269.386 124.400,269.209 124.400 C 269.033 124.400,268.771 125.030,268.626 125.800 C 268.482 126.570,268.183 127.200,267.961 127.200 C 267.740 127.200,267.370 127.741,267.139 128.402 C 266.885 129.131,266.353 129.697,265.789 129.839 C 265.277 129.967,264.764 130.316,264.650 130.614 C 264.536 130.912,263.803 131.276,263.021 131.422 C 262.239 131.569,261.600 131.829,261.600 131.999 C 261.600 132.170,260.790 132.431,259.800 132.579 C 258.810 132.728,258.000 133.012,258.000 133.211 C 258.000 133.410,257.100 133.692,256.000 133.838 C 254.900 133.984,254.000 134.248,254.000 134.424 C 254.000 134.601,252.560 134.871,250.800 135.024 C 246.966 135.359,245.829 136.800,249.400 136.800 C 250.390 136.800,251.200 136.943,251.200 137.119 C 251.200 137.294,252.673 137.652,254.474 137.914 C 256.274 138.177,257.849 138.546,257.974 138.734 C 258.098 138.922,258.905 139.188,259.768 139.324 C 260.630 139.460,261.440 139.735,261.568 139.936 C 261.695 140.136,262.385 140.426,263.100 140.582 C 263.815 140.737,264.400 141.039,264.400 141.253 C 264.400 141.467,264.927 141.825,265.571 142.050 C 266.314 142.309,266.891 142.886,267.150 143.629 C 267.375 144.273,267.733 144.800,267.947 144.800 C 268.161 144.800,268.463 145.385,268.618 146.100 C 268.774 146.815,269.064 147.505,269.264 147.632 C 269.465 147.760,269.740 148.570,269.876 149.432 C 270.012 150.295,270.278 151.102,270.466 151.226 C 270.654 151.351,271.023 152.926,271.286 154.726 C 271.548 156.527,271.906 158.000,272.081 158.000 C 272.257 158.000,272.400 158.810,272.400 159.800 C 272.400 163.228,273.799 161.757,274.207 157.900 C 274.365 156.415,274.629 155.200,274.795 155.200 C 274.961 155.200,275.216 154.300,275.362 153.200 C 275.508 152.100,275.778 151.200,275.961 151.200 C 276.145 151.200,276.395 150.454,276.517 149.542 C 276.639 148.631,276.910 147.776,277.119 147.642 C 277.328 147.509,277.629 146.803,277.787 146.073 C 277.946 145.343,278.312 144.655,278.602 144.544 C 278.891 144.433,279.236 143.950,279.368 143.471 C 279.634 142.511,281.848 140.950,283.526 140.539 C 284.117 140.395,284.709 140.111,284.842 139.908 C 284.976 139.705,285.831 139.439,286.742 139.317 C 287.654 139.195,288.400 138.955,288.400 138.783 C 288.400 138.612,289.705 138.266,291.300 138.013 C 292.895 137.760,294.560 137.390,295.000 137.191 C 295.440 136.991,296.338 136.777,296.997 136.714 C 299.692 136.457,298.633 135.316,295.420 135.015 C 293.759 134.859,292.400 134.590,292.400 134.417 C 292.400 134.245,291.500 133.984,290.400 133.838 C 289.300 133.692,288.400 133.422,288.400 133.239 C 288.400 133.055,287.654 132.805,286.742 132.683 C 285.831 132.561,284.976 132.295,284.842 132.092 C 284.709 131.889,284.117 131.605,283.526 131.461 C 281.848 131.050,279.634 129.489,279.368 128.529 C 279.236 128.050,278.884 127.564,278.586 127.450 C 278.288 127.336,277.924 126.603,277.778 125.821 C 277.631 125.039,277.359 124.400,277.174 124.400 C 276.988 124.400,276.718 123.770,276.574 123.000 C 276.429 122.230,276.169 121.600,275.995 121.600 C 275.821 121.600,275.553 120.520,275.400 119.200 C 275.247 117.880,274.984 116.800,274.816 116.800 C 274.648 116.800,274.351 115.497,274.155 113.903 C 273.733 110.459,272.400 109.295,272.400 112.371 M144.400 123.800 C 144.400 124.790,144.259 125.600,144.086 125.600 C 143.913 125.600,143.536 127.355,143.249 129.500 C 142.961 131.644,142.580 133.489,142.402 133.600 C 142.224 133.710,141.950 134.655,141.794 135.700 C 141.637 136.745,141.370 137.600,141.199 137.600 C 141.029 137.600,140.763 138.275,140.609 139.100 C 140.455 139.925,140.197 140.780,140.036 141.000 C 139.876 141.220,139.503 142.165,139.208 143.100 C 138.913 144.035,138.533 144.800,138.363 144.800 C 138.193 144.800,137.934 145.179,137.787 145.641 C 137.485 146.592,135.240 148.770,134.543 148.788 C 134.291 148.795,133.982 149.070,133.855 149.400 C 133.729 149.730,133.349 150.000,133.013 150.000 C 132.676 150.000,132.400 150.162,132.400 150.360 C 132.400 150.558,131.455 150.942,130.300 151.212 C 129.145 151.483,128.020 151.845,127.800 152.017 C 127.580 152.188,126.725 152.455,125.900 152.609 C 125.075 152.763,124.400 153.031,124.400 153.205 C 124.400 153.379,123.320 153.647,122.000 153.800 C 120.680 153.953,119.600 154.217,119.600 154.387 C 119.600 154.556,117.620 154.930,115.200 155.218 C 111.121 155.703,110.800 155.804,110.800 156.604 C 110.800 157.405,111.106 157.501,115.057 157.932 C 117.399 158.188,119.518 158.566,119.767 158.773 C 120.016 158.980,121.160 159.273,122.310 159.426 C 123.459 159.578,124.400 159.840,124.400 160.007 C 124.400 160.174,125.075 160.437,125.900 160.591 C 126.725 160.745,127.580 161.012,127.800 161.183 C 128.020 161.355,129.145 161.717,130.300 161.988 C 131.455 162.258,132.400 162.642,132.400 162.840 C 132.400 163.038,132.676 163.200,133.013 163.200 C 133.349 163.200,133.729 163.470,133.855 163.800 C 133.982 164.130,134.296 164.400,134.554 164.400 C 135.257 164.400,137.465 166.546,137.779 167.534 C 137.930 168.010,138.193 168.400,138.363 168.400 C 138.533 168.400,138.913 169.165,139.208 170.100 C 139.503 171.035,139.876 171.980,140.036 172.200 C 140.197 172.420,140.455 173.275,140.609 174.100 C 140.763 174.925,141.038 175.600,141.220 175.600 C 141.402 175.600,141.677 176.455,141.831 177.500 C 141.985 178.545,142.237 179.490,142.392 179.600 C 142.781 179.878,143.512 184.700,143.230 185.132 C 143.103 185.325,141.564 185.610,139.808 185.766 C 138.053 185.922,136.523 186.184,136.408 186.349 C 136.294 186.513,134.769 186.865,133.019 187.131 C 131.270 187.397,129.740 187.769,129.619 187.958 C 129.499 188.147,128.635 188.430,127.700 188.586 C 126.765 188.742,126.000 189.019,126.000 189.200 C 126.000 189.381,125.280 189.651,124.400 189.800 C 123.520 189.949,122.800 190.232,122.800 190.430 C 122.800 190.628,122.068 190.908,121.173 191.051 C 120.278 191.194,119.325 191.532,119.054 191.803 C 118.784 192.073,118.121 192.421,117.581 192.575 C 116.364 192.922,113.871 194.107,113.596 194.468 C 113.484 194.616,112.884 194.864,112.264 195.020 C 111.643 195.176,111.045 195.539,110.934 195.827 C 110.824 196.115,110.208 196.466,109.567 196.607 C 108.925 196.748,108.400 197.029,108.400 197.232 C 108.400 197.434,108.124 197.600,107.787 197.600 C 107.451 197.600,107.078 197.854,106.959 198.164 C 106.839 198.474,106.287 198.842,105.731 198.982 C 104.703 199.240,102.309 200.754,102.067 201.300 C 101.993 201.465,101.673 201.600,101.354 201.600 C 101.036 201.600,100.674 201.863,100.550 202.185 C 100.427 202.506,99.985 202.878,99.569 203.010 C 99.152 203.142,98.283 203.779,97.636 204.425 C 96.990 205.071,96.263 205.600,96.021 205.600 C 95.484 205.600,94.800 207.296,94.800 208.626 C 94.800 209.162,94.620 209.600,94.400 209.600 C 94.180 209.600,93.998 210.095,93.996 210.700 C 93.993 211.305,93.880 212.475,93.743 213.300 L 93.495 214.800 90.567 214.800 C 87.070 214.800,83.523 215.486,83.080 216.249 C 82.904 216.552,82.577 216.800,82.354 216.800 C 81.788 216.800,77.600 220.975,77.600 221.539 C 77.600 221.793,77.434 222.000,77.232 222.000 C 77.029 222.000,76.745 222.540,76.600 223.200 C 76.455 223.860,76.188 224.400,76.006 224.400 C 75.825 224.400,75.445 226.290,75.163 228.600 C 74.880 230.910,74.519 232.800,74.359 232.800 C 74.199 232.800,73.942 234.150,73.787 235.800 C 73.633 237.450,73.360 238.800,73.182 238.800 C 73.003 238.800,72.732 239.835,72.579 241.100 C 72.426 242.365,72.165 243.580,72.000 243.800 C 71.834 244.020,71.467 246.045,71.184 248.300 C 70.902 250.555,70.541 252.400,70.382 252.400 C 70.223 252.400,69.968 253.570,69.815 255.000 C 69.662 256.430,69.389 257.600,69.209 257.600 C 69.029 257.600,68.755 258.860,68.600 260.400 C 68.445 261.940,68.186 263.200,68.024 263.200 C 67.862 263.200,67.491 265.000,67.200 267.200 C 66.909 269.400,66.538 271.200,66.376 271.200 C 66.214 271.200,65.955 272.460,65.800 274.000 C 65.645 275.540,65.371 276.800,65.191 276.800 C 65.011 276.800,64.738 277.970,64.585 279.400 C 64.432 280.830,64.177 282.000,64.018 282.000 C 63.859 282.000,63.491 283.800,63.200 286.000 C 62.909 288.200,62.538 290.000,62.376 290.000 C 62.214 290.000,61.955 291.261,61.800 292.802 C 61.645 294.342,61.369 295.695,61.187 295.808 C 61.005 295.920,60.731 297.045,60.579 298.306 C 60.426 299.568,60.161 300.780,59.989 301.000 C 59.818 301.220,59.454 303.200,59.182 305.400 C 58.909 307.600,58.533 309.500,58.345 309.622 C 58.158 309.745,57.887 310.960,57.745 312.322 C 57.603 313.685,57.350 314.800,57.184 314.800 C 57.017 314.800,56.755 316.060,56.600 317.600 C 56.445 319.140,56.186 320.400,56.024 320.400 C 55.862 320.400,55.496 322.245,55.211 324.500 C 54.926 326.755,54.511 328.717,54.288 328.860 C 53.711 329.230,53.672 338.747,54.246 339.114 C 54.491 339.271,54.830 339.842,54.999 340.382 C 55.281 341.284,58.152 344.400,58.701 344.400 C 58.831 344.400,59.221 344.650,59.569 344.955 C 61.204 346.392,61.971 346.400,200.000 346.400 C 338.029 346.400,338.796 346.392,340.431 344.955 C 340.779 344.650,341.178 344.400,341.318 344.400 C 341.794 344.400,344.591 341.407,345.246 340.196 C 346.518 337.849,346.469 327.924,345.178 326.200 C 345.013 325.980,344.750 324.585,344.593 323.100 C 344.435 321.615,344.166 320.400,343.994 320.400 C 343.822 320.400,343.555 319.140,343.400 317.600 C 343.245 316.060,342.957 314.800,342.759 314.800 C 342.562 314.800,342.400 314.396,342.400 313.903 C 342.400 312.344,341.435 306.800,341.163 306.800 C 341.020 306.800,340.775 305.496,340.618 303.903 C 340.461 302.309,340.168 300.904,339.968 300.780 C 339.768 300.657,339.487 299.440,339.345 298.078 C 339.203 296.715,338.964 295.600,338.815 295.600 C 338.666 295.600,338.324 293.944,338.054 291.919 C 337.784 289.895,337.410 288.050,337.221 287.819 C 337.033 287.589,336.750 286.185,336.593 284.700 C 336.435 283.215,336.169 282.000,336.000 282.000 C 335.831 282.000,335.568 280.830,335.415 279.400 C 335.262 277.970,335.000 276.800,334.833 276.800 C 334.666 276.800,334.300 275.000,334.020 272.800 C 333.739 270.600,333.368 268.800,333.196 268.800 C 333.023 268.800,332.755 267.540,332.600 266.000 C 332.445 264.460,332.178 263.200,332.006 263.200 C 331.834 263.200,331.568 262.030,331.415 260.600 C 331.262 259.170,330.997 258.000,330.827 258.000 C 330.657 258.000,330.285 256.110,330.000 253.800 C 329.715 251.490,329.349 249.600,329.188 249.600 C 329.026 249.600,328.768 248.430,328.615 247.000 C 328.462 245.570,328.189 244.400,328.009 244.400 C 327.829 244.400,327.555 243.140,327.400 241.600 C 327.245 240.060,326.986 238.800,326.824 238.800 C 326.662 238.800,326.291 236.730,326.000 234.200 C 325.709 231.670,325.340 229.600,325.182 229.600 C 325.023 229.600,324.768 228.430,324.615 227.000 C 324.462 225.570,324.185 224.400,324.000 224.400 C 323.815 224.400,323.545 223.860,323.400 223.200 C 323.255 222.540,322.971 222.000,322.768 222.000 C 322.566 222.000,322.400 221.786,322.400 221.525 C 322.400 221.130,319.058 217.744,317.115 216.171 C 316.163 215.399,312.908 214.800,309.671 214.800 L 306.497 214.800 306.049 211.784 C 305.802 210.125,305.600 208.434,305.600 208.026 C 305.600 207.619,305.330 207.182,305.000 207.055 C 304.670 206.929,304.400 206.549,304.400 206.213 C 304.400 205.876,304.173 205.600,303.896 205.600 C 303.618 205.600,302.945 205.060,302.400 204.400 C 301.855 203.740,301.180 203.200,300.900 203.200 C 300.621 203.200,300.084 202.840,299.707 202.400 C 299.330 201.960,298.792 201.600,298.511 201.600 C 298.230 201.600,298.000 201.416,298.000 201.190 C 298.000 200.965,297.595 200.600,297.100 200.381 C 296.605 200.161,295.480 199.540,294.600 199.000 C 293.720 198.461,292.685 197.904,292.300 197.763 C 291.915 197.622,291.600 197.348,291.600 197.153 C 291.600 196.959,291.324 196.800,290.987 196.800 C 290.651 196.800,290.279 196.550,290.162 196.245 C 290.045 195.939,289.150 195.466,288.174 195.193 C 287.198 194.920,286.400 194.539,286.400 194.348 C 286.400 194.157,286.143 194.000,285.829 194.000 C 285.514 194.000,285.018 193.761,284.727 193.470 C 284.435 193.178,283.602 192.820,282.875 192.675 C 282.148 192.530,281.281 192.138,280.948 191.805 C 280.615 191.472,279.946 191.200,279.460 191.200 C 278.975 191.200,278.223 190.953,277.789 190.651 C 277.355 190.349,276.370 189.967,275.600 189.801 C 274.830 189.635,274.091 189.328,273.958 189.119 C 273.824 188.910,272.969 188.639,272.058 188.517 C 271.146 188.395,270.400 188.151,270.400 187.976 C 270.400 187.801,269.050 187.440,267.400 187.174 C 265.750 186.908,264.400 186.551,264.400 186.381 C 264.400 186.211,262.870 185.944,261.000 185.789 C 259.130 185.633,257.600 185.347,257.600 185.153 C 257.600 184.674,240.569 184.701,239.695 185.182 C 239.313 185.391,237.605 185.677,235.900 185.816 C 234.195 185.955,232.800 186.208,232.800 186.379 C 232.800 186.550,231.450 186.908,229.800 187.174 C 228.150 187.440,226.800 187.805,226.800 187.984 C 226.800 188.163,225.990 188.431,225.000 188.579 C 224.010 188.728,223.200 189.010,223.200 189.206 C 223.200 189.403,222.570 189.682,221.800 189.826 C 221.030 189.971,220.400 190.232,220.400 190.408 C 220.400 190.583,219.500 190.957,218.400 191.239 C 217.300 191.521,216.400 191.883,216.400 192.044 C 216.400 192.205,215.875 192.452,215.233 192.593 C 214.592 192.734,213.967 193.108,213.846 193.424 C 213.724 193.741,213.349 194.000,213.013 194.000 C 212.676 194.000,212.400 194.166,212.400 194.368 C 212.400 194.571,211.848 194.858,211.173 195.006 C 210.498 195.154,209.853 195.517,209.740 195.813 C 209.626 196.109,209.023 196.463,208.400 196.600 C 207.777 196.737,207.167 197.108,207.046 197.424 C 206.924 197.741,206.549 198.000,206.213 198.000 C 205.876 198.000,205.600 198.150,205.600 198.332 C 205.600 198.515,205.106 198.920,204.503 199.232 C 203.900 199.545,203.024 200.205,202.557 200.700 C 202.090 201.195,201.513 201.600,201.274 201.600 C 201.035 201.600,200.651 201.915,200.420 202.300 C 200.020 202.967,199.980 202.967,199.580 202.300 C 199.349 201.915,198.981 201.600,198.761 201.600 C 198.541 201.600,197.965 201.192,197.481 200.694 C 196.996 200.196,196.105 199.536,195.500 199.227 C 194.895 198.918,194.400 198.515,194.400 198.332 C 194.400 198.150,194.124 198.000,193.787 198.000 C 193.451 198.000,193.076 197.741,192.954 197.424 C 192.833 197.108,192.223 196.737,191.600 196.600 C 190.977 196.463,190.374 196.109,190.260 195.813 C 190.147 195.517,189.502 195.154,188.827 195.006 C 188.152 194.858,187.600 194.571,187.600 194.368 C 187.600 194.166,187.324 194.000,186.987 194.000 C 186.651 194.000,186.276 193.741,186.154 193.424 C 186.033 193.108,185.408 192.734,184.767 192.593 C 184.125 192.452,183.600 192.205,183.600 192.044 C 183.600 191.883,182.700 191.521,181.600 191.239 C 180.500 190.957,179.600 190.583,179.600 190.408 C 179.600 190.232,178.970 189.971,178.200 189.826 C 177.430 189.682,176.800 189.403,176.800 189.206 C 176.800 189.010,175.990 188.728,175.000 188.579 C 174.010 188.431,173.200 188.166,173.200 187.991 C 173.200 187.816,171.895 187.444,170.300 187.164 C 168.705 186.884,167.304 186.516,167.187 186.344 C 167.069 186.173,165.494 185.910,163.687 185.759 C 161.879 185.608,160.400 185.331,160.400 185.142 C 160.400 184.954,157.205 184.797,153.300 184.794 C 149.395 184.791,146.407 184.656,146.659 184.494 C 146.912 184.332,147.248 183.165,147.405 181.900 C 147.563 180.635,147.835 179.600,148.009 179.600 C 148.183 179.600,148.449 178.700,148.600 177.600 C 148.751 176.500,149.019 175.600,149.194 175.600 C 149.370 175.600,149.746 174.430,150.030 173.000 C 150.314 171.570,150.694 170.400,150.873 170.400 C 151.053 170.400,151.200 170.158,151.200 169.861 C 151.200 169.565,151.560 168.907,152.000 168.400 C 152.440 167.893,152.800 167.327,152.800 167.142 C 152.800 166.629,155.252 164.400,155.817 164.400 C 156.090 164.400,156.418 164.130,156.545 163.800 C 156.671 163.470,157.051 163.200,157.387 163.200 C 157.724 163.200,158.000 163.033,158.000 162.829 C 158.000 162.624,158.990 162.236,160.200 161.965 C 161.410 161.694,162.400 161.342,162.400 161.182 C 162.400 161.022,163.210 160.769,164.200 160.621 C 165.190 160.472,166.000 160.205,166.000 160.027 C 166.000 159.849,166.942 159.578,168.092 159.425 C 169.243 159.273,170.283 158.989,170.403 158.796 C 170.522 158.602,172.641 158.224,175.110 157.957 C 179.304 157.502,179.600 157.412,179.600 156.600 C 179.600 155.788,179.304 155.698,175.110 155.243 C 172.641 154.976,170.522 154.598,170.403 154.404 C 170.283 154.211,169.243 153.927,168.092 153.775 C 166.942 153.622,166.000 153.351,166.000 153.173 C 166.000 152.995,165.190 152.728,164.200 152.579 C 163.210 152.431,162.400 152.178,162.400 152.018 C 162.400 151.858,161.410 151.506,160.200 151.235 C 158.990 150.964,158.000 150.576,158.000 150.371 C 158.000 150.167,157.724 150.000,157.387 150.000 C 157.051 150.000,156.671 149.730,156.545 149.400 C 156.418 149.070,156.090 148.800,155.817 148.800 C 155.120 148.800,152.928 146.635,152.610 145.632 C 152.465 145.174,152.178 144.800,151.973 144.800 C 151.768 144.800,151.600 144.543,151.600 144.229 C 151.600 143.914,151.363 143.419,151.074 143.129 C 150.785 142.838,150.311 141.475,150.020 140.100 C 149.729 138.725,149.352 137.600,149.183 137.600 C 149.014 137.600,148.751 136.700,148.600 135.600 C 148.449 134.500,148.179 133.600,148.002 133.600 C 147.824 133.600,147.553 132.520,147.400 131.200 C 147.247 129.880,146.975 128.800,146.797 128.800 C 146.618 128.800,146.344 127.270,146.189 125.400 C 145.855 121.394,144.400 120.092,144.400 123.800 M160.789 194.782 C 160.908 194.975,162.309 195.261,163.903 195.418 C 165.496 195.575,166.800 195.844,166.800 196.017 C 166.800 196.189,167.519 196.451,168.398 196.600 C 169.277 196.748,170.092 197.026,170.211 197.217 C 170.329 197.408,171.500 197.776,172.813 198.034 C 174.126 198.293,175.200 198.646,175.200 198.820 C 175.200 198.994,175.740 199.255,176.400 199.400 C 177.060 199.545,177.600 199.809,177.600 199.987 C 177.600 200.165,178.230 200.429,179.000 200.574 C 179.770 200.718,180.400 200.974,180.400 201.143 C 180.400 201.312,181.030 201.698,181.800 202.000 C 182.570 202.302,183.200 202.681,183.200 202.843 C 183.200 203.004,183.725 203.252,184.367 203.393 C 185.008 203.534,185.633 203.908,185.754 204.224 C 185.876 204.541,186.251 204.800,186.587 204.800 C 186.924 204.800,187.200 204.989,187.200 205.221 C 187.200 205.452,187.740 205.830,188.400 206.060 C 189.060 206.290,189.600 206.641,189.600 206.839 C 189.600 207.038,189.827 207.200,190.104 207.200 C 190.382 207.200,191.055 207.740,191.600 208.400 C 192.145 209.060,192.784 209.600,193.020 209.600 C 193.256 209.600,193.843 209.967,194.325 210.416 L 195.200 211.231 195.200 263.816 C 195.200 310.291,195.130 316.400,194.600 316.400 C 194.270 316.400,194.000 316.237,194.000 316.037 C 194.000 315.837,193.100 315.443,192.000 315.161 C 190.900 314.879,190.000 314.517,190.000 314.356 C 190.000 314.195,189.460 313.945,188.800 313.800 C 188.140 313.655,187.600 313.379,187.600 313.186 C 187.600 312.994,186.970 312.718,186.200 312.574 C 185.430 312.429,184.800 312.164,184.800 311.984 C 184.800 311.804,183.810 311.436,182.600 311.165 C 181.390 310.894,180.400 310.529,180.400 310.354 C 180.400 310.179,179.770 309.918,179.000 309.774 C 178.230 309.629,177.600 309.371,177.600 309.201 C 177.600 309.030,176.790 308.769,175.800 308.621 C 174.810 308.472,174.000 308.198,174.000 308.012 C 174.000 307.825,172.740 307.447,171.200 307.172 C 169.660 306.897,168.400 306.538,168.400 306.373 C 168.400 306.209,167.500 305.951,166.400 305.800 C 165.300 305.649,164.400 305.379,164.400 305.202 C 164.400 305.024,163.275 304.749,161.900 304.591 C 160.525 304.433,159.308 304.160,159.197 303.985 C 159.085 303.809,156.745 303.438,153.997 303.160 C 151.248 302.882,148.874 302.467,148.721 302.237 C 148.329 301.652,123.677 301.641,123.285 302.226 C 123.128 302.461,121.023 302.878,118.607 303.153 C 116.191 303.429,114.121 303.800,114.007 303.979 C 113.893 304.157,112.855 304.432,111.700 304.589 C 110.545 304.746,109.600 305.015,109.600 305.186 C 109.600 305.357,108.700 305.616,107.600 305.762 C 106.500 305.908,105.600 306.168,105.600 306.340 C 105.600 306.512,104.430 306.886,103.000 307.170 C 101.570 307.454,100.400 307.839,100.400 308.025 C 100.400 308.211,99.770 308.482,99.000 308.626 C 98.230 308.771,97.600 309.041,97.600 309.226 C 97.600 309.412,96.970 309.682,96.200 309.826 C 95.430 309.971,94.800 310.247,94.800 310.440 C 94.800 310.633,94.068 310.908,93.173 311.051 C 92.278 311.194,91.310 311.547,91.021 311.836 C 90.733 312.124,90.025 312.479,89.448 312.624 C 88.872 312.768,88.400 313.033,88.400 313.212 C 88.400 313.390,87.860 313.655,87.200 313.800 C 86.540 313.945,86.000 314.199,86.000 314.365 C 86.000 314.530,85.366 314.860,84.591 315.098 L 83.182 315.531 83.450 313.465 C 83.597 312.329,83.856 311.309,84.025 311.197 C 84.194 311.086,84.461 309.691,84.618 308.097 C 84.775 306.504,85.028 305.200,85.181 305.200 C 85.334 305.200,85.694 303.220,85.982 300.800 C 86.270 298.380,86.640 296.400,86.806 296.400 C 86.971 296.400,87.233 295.050,87.387 293.400 C 87.542 291.750,87.815 290.400,87.994 290.400 C 88.172 290.400,88.445 289.140,88.600 287.600 C 88.755 286.060,89.016 284.800,89.182 284.800 C 89.347 284.800,89.715 282.910,90.000 280.600 C 90.285 278.290,90.650 276.400,90.812 276.400 C 90.974 276.400,91.233 275.050,91.387 273.400 C 91.542 271.750,91.815 270.400,91.994 270.400 C 92.172 270.400,92.445 269.140,92.600 267.600 C 92.755 266.060,93.016 264.800,93.182 264.800 C 93.347 264.800,93.715 262.910,94.000 260.600 C 94.285 258.290,94.650 256.400,94.812 256.400 C 94.974 256.400,95.233 255.050,95.387 253.400 C 95.542 251.750,95.815 250.400,95.994 250.400 C 96.172 250.400,96.445 249.140,96.600 247.600 C 96.755 246.060,97.016 244.800,97.182 244.800 C 97.347 244.800,97.715 242.910,98.000 240.600 C 98.285 238.290,98.650 236.400,98.812 236.400 C 98.974 236.400,99.233 235.050,99.387 233.400 C 99.542 231.750,99.815 230.400,99.994 230.400 C 100.172 230.400,100.445 229.140,100.600 227.600 C 100.755 226.060,101.016 224.800,101.182 224.800 C 101.347 224.800,101.715 222.910,102.000 220.600 C 102.285 218.290,102.672 216.400,102.859 216.400 C 103.047 216.400,103.202 215.725,103.205 214.900 C 103.214 212.656,103.591 211.657,104.543 211.356 C 105.014 211.207,105.635 210.751,105.923 210.343 C 106.210 209.934,106.690 209.600,106.989 209.600 C 107.289 209.600,107.593 209.465,107.667 209.300 C 107.869 208.845,110.310 207.200,110.784 207.200 C 111.013 207.200,111.200 207.022,111.200 206.805 C 111.200 206.588,111.785 206.142,112.500 205.813 C 113.967 205.139,115.300 204.331,115.604 203.932 C 115.716 203.784,116.301 203.540,116.904 203.388 C 117.507 203.237,118.000 202.953,118.000 202.757 C 118.000 202.560,118.232 202.400,118.515 202.400 C 118.799 202.400,119.716 202.050,120.554 201.623 C 121.392 201.196,122.601 200.732,123.239 200.591 C 123.878 200.451,124.400 200.191,124.400 200.013 C 124.400 199.835,125.030 199.571,125.800 199.426 C 126.570 199.282,127.200 199.021,127.200 198.846 C 127.200 198.671,128.235 198.299,129.500 198.019 C 130.765 197.740,131.980 197.368,132.200 197.193 C 132.420 197.018,133.455 196.748,134.500 196.592 C 135.545 196.436,136.400 196.165,136.400 195.989 C 136.400 195.812,137.750 195.542,139.400 195.387 C 141.050 195.233,142.400 194.955,142.400 194.771 C 142.400 194.013,160.320 194.024,160.789 194.782 M257.579 194.757 C 257.701 194.948,259.106 195.234,260.702 195.393 C 262.297 195.552,263.693 195.828,263.804 196.006 C 263.914 196.184,264.768 196.456,265.702 196.610 C 266.636 196.764,267.580 197.030,267.800 197.201 C 268.020 197.371,269.235 197.740,270.500 198.019 C 271.765 198.299,272.800 198.664,272.800 198.832 C 272.800 198.999,273.385 199.264,274.100 199.419 C 274.815 199.575,275.755 199.949,276.189 200.251 C 276.623 200.553,277.388 200.800,277.889 200.800 C 278.390 200.800,278.800 200.973,278.800 201.184 C 278.800 201.395,279.520 201.784,280.400 202.047 C 281.280 202.311,282.000 202.664,282.000 202.832 C 282.000 202.999,282.540 203.255,283.200 203.400 C 283.860 203.545,284.400 203.824,284.400 204.020 C 284.400 204.216,285.390 204.845,286.600 205.417 C 287.810 205.990,288.800 206.625,288.800 206.829 C 288.800 207.033,289.042 207.200,289.339 207.200 C 289.813 207.200,290.355 207.566,292.283 209.193 C 292.549 209.417,292.909 209.600,293.083 209.600 C 293.257 209.601,293.923 210.051,294.562 210.600 C 295.201 211.150,295.867 211.600,296.042 211.600 C 296.217 211.600,296.482 212.680,296.632 214.000 C 296.781 215.320,297.042 216.400,297.211 216.400 C 297.380 216.400,297.645 217.660,297.800 219.200 C 297.955 220.740,298.216 222.000,298.382 222.000 C 298.547 222.000,298.915 223.890,299.200 226.200 C 299.485 228.510,299.850 230.400,300.012 230.400 C 300.174 230.400,300.433 231.750,300.587 233.400 C 300.742 235.050,301.015 236.400,301.194 236.400 C 301.372 236.400,301.645 237.660,301.800 239.200 C 301.955 240.740,302.216 242.000,302.382 242.000 C 302.547 242.000,302.915 243.890,303.200 246.200 C 303.485 248.510,303.850 250.400,304.012 250.400 C 304.174 250.400,304.433 251.750,304.587 253.400 C 304.742 255.050,305.015 256.400,305.194 256.400 C 305.372 256.400,305.645 257.660,305.800 259.200 C 305.955 260.740,306.216 262.000,306.382 262.000 C 306.547 262.000,306.915 263.890,307.200 266.200 C 307.485 268.510,307.850 270.400,308.012 270.400 C 308.174 270.400,308.433 271.750,308.587 273.400 C 308.742 275.050,309.015 276.400,309.194 276.400 C 309.372 276.400,309.645 277.660,309.800 279.200 C 309.955 280.740,310.216 282.000,310.382 282.000 C 310.547 282.000,310.915 283.890,311.200 286.200 C 311.485 288.510,311.853 290.400,312.017 290.400 C 312.182 290.400,312.444 291.840,312.600 293.600 C 312.756 295.360,313.026 296.800,313.201 296.800 C 313.376 296.800,313.645 298.060,313.800 299.600 C 313.955 301.140,314.207 302.400,314.362 302.400 C 314.516 302.400,314.872 304.244,315.154 306.498 C 315.435 308.752,315.806 310.777,315.979 310.998 C 316.152 311.219,316.412 312.329,316.556 313.465 L 316.818 315.531 315.409 315.098 C 314.634 314.860,314.000 314.530,314.000 314.365 C 314.000 314.199,313.460 313.945,312.800 313.800 C 312.140 313.655,311.600 313.385,311.600 313.200 C 311.600 313.015,311.060 312.745,310.400 312.600 C 309.740 312.455,309.200 312.171,309.200 311.968 C 309.200 311.766,308.878 311.600,308.485 311.600 C 308.091 311.600,307.084 311.250,306.246 310.823 C 305.408 310.396,304.199 309.932,303.561 309.791 C 302.922 309.651,302.400 309.391,302.400 309.213 C 302.400 309.035,301.770 308.771,301.000 308.626 C 300.230 308.482,299.600 308.211,299.600 308.025 C 299.600 307.839,298.430 307.454,297.000 307.170 C 295.570 306.886,294.400 306.512,294.400 306.340 C 294.400 306.168,293.500 305.908,292.400 305.762 C 291.300 305.616,290.400 305.357,290.400 305.186 C 290.400 305.015,289.455 304.746,288.300 304.589 C 287.145 304.432,286.107 304.157,285.993 303.979 C 285.879 303.800,283.809 303.429,281.393 303.153 C 278.977 302.878,276.872 302.461,276.715 302.226 C 276.324 301.643,251.671 301.652,251.279 302.236 C 251.126 302.465,248.851 302.871,246.225 303.140 C 243.598 303.408,241.258 303.779,241.025 303.964 C 240.791 304.150,239.568 304.426,238.306 304.579 C 237.045 304.731,235.920 305.007,235.806 305.191 C 235.692 305.375,234.699 305.649,233.600 305.800 C 232.500 305.951,231.600 306.209,231.600 306.373 C 231.600 306.538,230.340 306.897,228.800 307.172 C 227.260 307.447,226.000 307.820,226.000 308.001 C 226.000 308.182,225.280 308.451,224.400 308.600 C 223.520 308.749,222.800 309.014,222.800 309.190 C 222.800 309.365,221.990 309.631,221.000 309.779 C 220.010 309.928,219.200 310.200,219.200 310.385 C 219.200 310.569,218.300 310.936,217.200 311.200 C 216.100 311.464,215.200 311.822,215.200 311.995 C 215.200 312.169,214.570 312.429,213.800 312.574 C 213.030 312.718,212.400 312.994,212.400 313.186 C 212.400 313.379,211.860 313.655,211.200 313.800 C 210.540 313.945,210.000 314.195,210.000 314.356 C 210.000 314.517,209.100 314.879,208.000 315.161 C 206.900 315.443,206.000 315.837,206.000 316.037 C 206.000 316.237,205.730 316.400,205.400 316.400 C 204.870 316.400,204.800 310.311,204.800 264.003 L 204.800 211.606 205.672 210.603 C 206.152 210.051,206.739 209.600,206.977 209.600 C 207.214 209.600,207.855 209.060,208.400 208.400 C 208.945 207.740,209.618 207.200,209.896 207.200 C 210.173 207.200,210.400 207.038,210.400 206.839 C 210.400 206.641,210.940 206.290,211.600 206.060 C 212.260 205.830,212.800 205.452,212.800 205.221 C 212.800 204.989,213.076 204.800,213.413 204.800 C 213.749 204.800,214.124 204.541,214.246 204.224 C 214.367 203.908,214.992 203.534,215.633 203.393 C 216.275 203.252,216.800 202.982,216.800 202.794 C 216.800 202.606,217.430 202.224,218.200 201.946 C 218.970 201.667,219.600 201.310,219.600 201.151 C 219.600 200.993,220.140 200.745,220.800 200.600 C 221.460 200.455,222.000 200.191,222.000 200.013 C 222.000 199.835,222.630 199.571,223.400 199.426 C 224.170 199.282,224.800 199.026,224.800 198.857 C 224.800 198.689,225.745 198.314,226.900 198.024 C 228.055 197.734,229.180 197.360,229.400 197.194 C 229.620 197.027,230.564 196.764,231.498 196.610 C 232.432 196.456,233.286 196.184,233.396 196.006 C 233.507 195.828,234.858 195.555,236.398 195.400 C 237.939 195.245,239.200 194.965,239.200 194.778 C 239.200 194.020,257.098 194.000,257.579 194.757 M240.400 205.776 C 240.400 206.565,240.233 207.523,240.028 207.905 C 239.823 208.287,239.438 209.995,239.171 211.700 C 238.905 213.405,238.555 214.800,238.395 214.800 C 238.234 214.800,237.987 215.520,237.846 216.400 C 237.706 217.280,237.433 218.000,237.240 218.000 C 237.047 218.000,236.774 218.612,236.634 219.360 C 236.494 220.108,236.114 220.940,235.789 221.209 C 235.465 221.478,235.200 221.914,235.200 222.178 C 235.200 222.663,232.237 224.800,231.564 224.800 C 231.364 224.800,231.200 224.960,231.200 225.155 C 231.200 225.351,230.570 225.629,229.800 225.774 C 229.030 225.918,228.400 226.172,228.400 226.339 C 228.400 226.505,227.005 226.885,225.300 227.184 C 223.595 227.483,222.110 227.858,222.000 228.017 C 221.890 228.176,220.452 228.462,218.804 228.653 C 215.133 229.078,214.048 230.400,217.371 230.400 C 218.377 230.400,219.200 230.559,219.200 230.753 C 219.200 230.948,220.370 231.232,221.800 231.385 C 223.230 231.538,224.400 231.823,224.400 232.018 C 224.400 232.213,225.300 232.492,226.400 232.638 C 227.500 232.784,228.400 233.042,228.400 233.212 C 228.400 233.381,229.300 233.736,230.400 234.000 C 231.500 234.264,232.400 234.647,232.400 234.852 C 232.400 235.057,232.707 235.343,233.082 235.487 C 234.117 235.884,235.200 236.914,235.200 237.501 C 235.200 237.789,235.459 238.124,235.776 238.246 C 236.092 238.367,236.475 239.037,236.627 239.733 C 236.778 240.430,237.149 241.355,237.451 241.789 C 237.753 242.223,238.000 243.063,238.000 243.656 C 238.000 244.248,238.180 244.793,238.400 244.867 C 238.621 244.940,239.017 246.485,239.282 248.300 C 239.546 250.115,239.906 251.600,240.081 251.600 C 240.257 251.600,240.400 252.410,240.400 253.400 C 240.400 256.971,241.841 255.834,242.176 252.000 C 242.329 250.240,242.602 248.800,242.781 248.800 C 242.961 248.800,243.232 247.810,243.383 246.600 C 243.534 245.390,243.802 244.400,243.978 244.400 C 244.154 244.400,244.413 243.680,244.554 242.800 C 244.694 241.920,244.967 241.200,245.160 241.200 C 245.353 241.200,245.631 240.561,245.778 239.779 C 245.924 238.997,246.304 238.258,246.622 238.136 C 246.940 238.014,247.200 237.689,247.200 237.413 C 247.200 237.138,247.670 236.572,248.244 236.156 C 248.819 235.740,249.512 235.189,249.784 234.932 C 250.057 234.674,251.019 234.264,251.923 234.021 C 252.827 233.777,253.671 233.408,253.800 233.201 C 253.928 232.993,254.925 232.705,256.016 232.560 C 257.107 232.415,258.000 232.154,258.000 231.980 C 258.000 231.806,259.170 231.538,260.600 231.385 C 262.030 231.232,263.200 230.948,263.200 230.753 C 263.200 230.559,263.920 230.400,264.800 230.400 C 268.062 230.400,266.922 228.943,263.403 228.613 C 261.754 228.459,260.319 228.192,260.213 228.021 C 260.108 227.850,258.666 227.470,257.011 227.176 C 255.355 226.882,254.000 226.505,254.000 226.339 C 254.000 226.172,253.370 225.918,252.600 225.774 C 251.830 225.629,251.200 225.351,251.200 225.155 C 251.200 224.960,250.943 224.800,250.629 224.800 C 250.314 224.800,249.816 224.558,249.520 224.263 C 249.225 223.968,248.582 223.512,248.092 223.249 C 247.601 222.987,247.200 222.508,247.200 222.186 C 247.200 221.864,247.034 221.600,246.831 221.600 C 246.628 221.600,246.248 220.953,245.987 220.161 C 245.726 219.370,245.263 218.245,244.959 217.661 C 244.654 217.078,244.404 216.195,244.402 215.700 C 244.401 215.205,244.237 214.800,244.038 214.800 C 243.838 214.800,243.551 213.900,243.400 212.800 C 243.249 211.700,242.990 210.800,242.824 210.800 C 242.659 210.800,242.361 209.406,242.162 207.703 C 241.756 204.230,240.400 202.747,240.400 205.776 M91.463 225.300 C 91.340 225.795,91.115 227.415,90.964 228.900 C 90.813 230.385,90.556 231.600,90.392 231.600 C 90.228 231.600,89.967 232.950,89.813 234.600 C 89.658 236.250,89.385 237.600,89.206 237.600 C 89.028 237.600,88.755 238.860,88.600 240.400 C 88.445 241.940,88.183 243.200,88.017 243.200 C 87.851 243.200,87.475 245.090,87.181 247.400 C 86.888 249.710,86.516 251.600,86.356 251.600 C 86.195 251.600,85.938 252.770,85.785 254.200 C 85.632 255.630,85.363 256.800,85.188 256.800 C 85.012 256.800,84.742 258.150,84.587 259.800 C 84.433 261.450,84.174 262.800,84.012 262.800 C 83.850 262.800,83.485 264.690,83.200 267.000 C 82.915 269.310,82.547 271.200,82.382 271.200 C 82.216 271.200,81.955 272.460,81.800 274.000 C 81.645 275.540,81.372 276.800,81.194 276.800 C 81.015 276.800,80.742 278.150,80.587 279.800 C 80.433 281.450,80.176 282.800,80.018 282.800 C 79.859 282.800,79.500 284.600,79.220 286.800 C 78.939 289.000,78.568 290.800,78.396 290.800 C 78.223 290.800,77.955 292.060,77.800 293.600 C 77.645 295.140,77.375 296.400,77.200 296.400 C 77.025 296.400,76.755 297.660,76.600 299.200 C 76.445 300.740,76.181 302.000,76.012 302.000 C 75.843 302.000,75.470 303.980,75.182 306.400 C 74.894 308.820,74.526 310.800,74.364 310.800 C 74.201 310.800,73.942 312.150,73.787 313.800 C 73.633 315.450,73.363 316.800,73.187 316.800 C 73.012 316.800,72.742 318.150,72.587 319.800 C 72.433 321.450,72.147 322.800,71.953 322.800 C 71.759 322.800,71.600 323.610,71.600 324.600 C 71.600 325.590,71.760 326.400,71.957 326.400 C 72.153 326.400,72.426 326.847,72.563 327.394 C 72.717 328.007,73.193 328.483,73.806 328.637 C 74.353 328.774,74.800 329.047,74.800 329.243 C 74.800 329.451,126.852 329.600,199.768 329.600 C 337.613 329.600,326.811 329.795,327.455 327.300 C 327.582 326.805,327.847 326.400,328.043 326.400 C 328.240 326.400,328.400 325.590,328.400 324.600 C 328.400 323.610,328.241 322.800,328.047 322.800 C 327.853 322.800,327.567 321.450,327.413 319.800 C 327.258 318.150,326.993 316.800,326.824 316.800 C 326.655 316.800,326.290 314.865,326.013 312.500 C 325.737 310.135,325.368 308.020,325.194 307.800 C 325.021 307.580,324.750 306.185,324.593 304.700 C 324.435 303.215,324.166 302.000,323.994 302.000 C 323.822 302.000,323.555 300.740,323.400 299.200 C 323.245 297.660,322.977 296.400,322.804 296.400 C 322.632 296.400,322.261 294.600,321.980 292.400 C 321.700 290.200,321.338 288.400,321.176 288.400 C 321.014 288.400,320.755 287.140,320.600 285.600 C 320.445 284.060,320.178 282.800,320.006 282.800 C 319.835 282.800,319.567 281.450,319.413 279.800 C 319.258 278.150,318.994 276.800,318.825 276.800 C 318.656 276.800,318.285 274.910,318.000 272.600 C 317.715 270.290,317.347 268.400,317.182 268.400 C 317.016 268.400,316.755 267.140,316.600 265.600 C 316.445 264.060,316.183 262.800,316.016 262.800 C 315.850 262.800,315.597 261.685,315.455 260.322 C 315.313 258.960,315.039 257.745,314.847 257.622 C 314.654 257.500,314.269 255.465,313.990 253.100 C 313.712 250.735,313.348 248.800,313.182 248.800 C 313.017 248.800,312.755 247.540,312.600 246.000 C 312.445 244.460,312.175 243.200,312.000 243.200 C 311.825 243.200,311.555 241.940,311.400 240.400 C 311.245 238.860,310.983 237.600,310.818 237.600 C 310.652 237.600,310.288 235.665,310.010 233.300 C 309.731 230.935,309.372 228.910,309.213 228.800 C 309.053 228.690,308.813 227.655,308.680 226.500 L 308.438 224.400 310.319 224.412 C 313.274 224.430,314.756 226.007,315.319 229.732 C 315.557 231.310,315.874 232.690,316.023 232.800 C 316.173 232.910,316.424 234.395,316.582 236.100 C 316.739 237.805,317.015 239.200,317.194 239.200 C 317.372 239.200,317.645 240.460,317.800 242.000 C 317.955 243.540,318.214 244.800,318.376 244.800 C 318.538 244.800,318.909 246.600,319.200 248.800 C 319.491 251.000,319.862 252.800,320.024 252.800 C 320.186 252.800,320.445 254.060,320.600 255.600 C 320.755 257.140,321.022 258.400,321.194 258.400 C 321.366 258.400,321.632 259.570,321.785 261.000 C 321.938 262.430,322.200 263.600,322.368 263.600 C 322.535 263.600,322.887 265.348,323.149 267.485 C 323.412 269.621,323.779 271.466,323.965 271.585 C 324.151 271.703,324.435 272.970,324.596 274.400 C 324.757 275.830,325.027 277.180,325.195 277.400 C 325.364 277.620,325.626 278.835,325.779 280.100 C 325.932 281.365,326.188 282.400,326.348 282.400 C 326.508 282.400,326.859 284.147,327.128 286.282 C 327.398 288.417,327.773 290.262,327.961 290.382 C 328.150 290.502,328.434 291.905,328.593 293.500 C 328.751 295.095,329.020 296.400,329.189 296.400 C 329.358 296.400,329.618 297.475,329.767 298.788 C 329.915 300.101,330.181 301.265,330.358 301.374 C 330.534 301.483,330.912 303.468,331.198 305.786 C 331.484 308.104,331.851 310.000,332.012 310.000 C 332.174 310.000,332.432 311.170,332.585 312.600 C 332.738 314.030,333.011 315.200,333.191 315.200 C 333.371 315.200,333.645 316.460,333.800 318.000 C 333.955 319.540,334.214 320.800,334.376 320.800 C 334.538 320.800,334.904 322.645,335.189 324.900 C 335.474 327.155,335.839 329.090,336.001 329.200 C 336.492 329.534,336.853 335.344,336.423 336.000 C 336.074 336.531,320.473 336.600,200.000 336.600 C 79.531 336.600,63.925 336.531,63.567 336.000 C 63.120 335.334,63.462 330.053,63.995 329.400 C 64.174 329.180,64.450 327.785,64.607 326.300 C 64.765 324.815,65.026 323.600,65.188 323.600 C 65.349 323.600,65.715 321.710,66.000 319.400 C 66.285 317.090,66.651 315.200,66.812 315.200 C 66.974 315.200,67.232 314.030,67.385 312.600 C 67.538 311.170,67.808 310.000,67.985 310.000 C 68.162 310.000,68.435 308.799,68.593 307.332 C 68.750 305.864,69.033 304.379,69.221 304.032 C 69.410 303.684,69.771 301.825,70.024 299.900 C 70.276 297.975,70.621 296.400,70.790 296.400 C 70.958 296.400,71.225 295.096,71.382 293.503 C 71.539 291.909,71.832 290.504,72.032 290.380 C 72.232 290.257,72.513 289.040,72.655 287.678 C 72.797 286.315,73.036 285.200,73.185 285.200 C 73.334 285.200,73.676 283.544,73.946 281.519 C 74.216 279.495,74.588 277.650,74.773 277.419 C 74.959 277.189,75.243 275.830,75.404 274.400 C 75.565 272.970,75.854 271.700,76.046 271.578 C 76.239 271.455,76.513 270.240,76.655 268.878 C 76.797 267.515,77.039 266.400,77.192 266.400 C 77.345 266.400,77.700 264.600,77.980 262.400 C 78.261 260.200,78.632 258.400,78.804 258.400 C 78.977 258.400,79.245 257.140,79.400 255.600 C 79.555 254.060,79.825 252.800,80.000 252.800 C 80.175 252.800,80.445 251.540,80.600 250.000 C 80.755 248.460,81.023 247.200,81.196 247.200 C 81.368 247.200,81.739 245.400,82.020 243.200 C 82.300 241.000,82.668 239.200,82.837 239.200 C 83.006 239.200,83.271 237.760,83.424 236.000 C 83.578 234.240,83.839 232.800,84.005 232.800 C 84.171 232.800,84.432 231.630,84.585 230.200 C 84.738 228.770,85.029 227.600,85.232 227.600 C 85.434 227.600,85.600 227.385,85.600 227.122 C 85.600 225.811,87.734 224.400,89.718 224.400 C 91.559 224.400,91.672 224.458,91.463 225.300 M148.748 311.896 C 148.887 312.109,150.435 312.410,152.189 312.566 C 153.943 312.722,155.563 312.990,155.789 313.162 C 156.015 313.334,157.775 313.712,159.700 314.002 C 161.625 314.292,163.200 314.657,163.200 314.813 C 163.200 314.969,164.100 315.216,165.200 315.362 C 166.300 315.508,167.200 315.790,167.200 315.989 C 167.200 316.188,168.010 316.472,169.000 316.621 C 169.990 316.769,170.800 317.022,170.800 317.182 C 170.800 317.342,171.835 317.701,173.100 317.981 C 174.365 318.260,175.580 318.630,175.800 318.801 C 176.020 318.973,176.560 319.202,177.000 319.311 C 177.440 319.419,159.800 319.507,137.800 319.507 C 115.800 319.507,98.115 319.425,98.500 319.324 C 98.885 319.224,99.200 319.003,99.200 318.835 C 99.200 318.666,100.190 318.290,101.400 318.000 C 102.610 317.710,103.600 317.341,103.600 317.182 C 103.600 317.022,104.410 316.769,105.400 316.621 C 106.390 316.472,107.200 316.198,107.200 316.011 C 107.200 315.823,107.920 315.549,108.800 315.400 C 109.680 315.251,110.400 314.987,110.400 314.812 C 110.400 314.638,111.840 314.261,113.600 313.976 C 115.360 313.690,116.800 313.321,116.800 313.155 C 116.800 312.990,118.240 312.729,120.000 312.576 C 121.760 312.422,123.200 312.149,123.200 311.968 C 123.200 311.195,148.246 311.124,148.748 311.896 M276.738 311.886 C 276.882 312.111,278.395 312.424,280.100 312.582 C 281.805 312.739,283.200 313.000,283.200 313.162 C 283.200 313.324,284.640 313.690,286.400 313.976 C 288.160 314.261,289.600 314.638,289.600 314.812 C 289.600 314.987,290.320 315.251,291.200 315.400 C 292.080 315.549,292.800 315.814,292.800 315.990 C 292.800 316.165,293.610 316.431,294.600 316.579 C 295.590 316.728,296.400 316.989,296.400 317.161 C 296.400 317.332,297.390 317.710,298.600 318.000 C 299.810 318.290,300.800 318.666,300.800 318.835 C 300.800 319.003,301.115 319.224,301.500 319.324 C 301.885 319.425,284.200 319.501,262.200 319.494 C 240.200 319.486,222.695 319.405,223.300 319.313 C 223.905 319.222,224.400 319.007,224.400 318.837 C 224.400 318.667,225.435 318.299,226.700 318.019 C 227.965 317.740,229.180 317.367,229.400 317.191 C 229.620 317.015,230.475 316.745,231.300 316.591 C 232.125 316.437,232.800 316.157,232.800 315.969 C 232.800 315.781,233.700 315.508,234.800 315.362 C 235.900 315.216,236.800 314.969,236.800 314.813 C 236.800 314.657,238.375 314.292,240.300 314.002 C 242.225 313.712,243.990 313.330,244.222 313.153 C 244.454 312.976,246.119 312.709,247.922 312.558 C 249.725 312.408,251.200 312.139,251.200 311.961 C 251.200 311.188,276.245 311.115,276.738 311.886 " stroke="none" fill="#f8b119" fill-rule="evenodd"></path><path id="path4" d="M174.900 102.676 C 175.285 102.776,175.915 102.776,176.300 102.676 C 176.685 102.575,176.370 102.493,175.600 102.493 C 174.830 102.493,174.515 102.575,174.900 102.676 M260.100 102.676 C 260.485 102.776,261.115 102.776,261.500 102.676 C 261.885 102.575,261.570 102.493,260.800 102.493 C 260.030 102.493,259.715 102.575,260.100 102.676 M274.493 115.600 C 274.493 116.370,274.575 116.685,274.676 116.300 C 274.776 115.915,274.776 115.285,274.676 114.900 C 274.575 114.515,274.493 114.830,274.493 115.600 M146.501 127.400 C 146.505 128.280,146.587 128.593,146.683 128.095 C 146.779 127.598,146.775 126.878,146.675 126.495 C 146.575 126.113,146.496 126.520,146.501 127.400 M252.100 134.676 C 252.485 134.776,253.115 134.776,253.500 134.676 C 253.885 134.575,253.570 134.493,252.800 134.493 C 252.030 134.493,251.715 134.575,252.100 134.676 M292.900 134.676 C 293.285 134.776,293.915 134.776,294.300 134.676 C 294.685 134.575,294.370 134.493,293.600 134.493 C 292.830 134.493,292.515 134.575,292.900 134.676 M274.493 156.400 C 274.493 157.170,274.575 157.485,274.676 157.100 C 274.776 156.715,274.776 156.085,274.676 155.700 C 274.575 155.315,274.493 155.630,274.493 156.400 M134.500 186.676 C 134.885 186.776,135.515 186.776,135.900 186.676 C 136.285 186.575,135.970 186.493,135.200 186.493 C 134.430 186.493,134.115 186.575,134.500 186.676 M143.907 194.690 C 144.626 194.779,145.706 194.777,146.307 194.686 C 146.908 194.595,146.320 194.522,145.000 194.524 C 143.680 194.526,143.188 194.601,143.907 194.690 M157.507 194.690 C 158.226 194.779,159.306 194.777,159.907 194.686 C 160.508 194.595,159.920 194.522,158.600 194.524 C 157.280 194.526,156.788 194.601,157.507 194.690 M240.307 194.690 C 241.026 194.779,242.106 194.777,242.707 194.686 C 243.308 194.595,242.720 194.522,241.400 194.524 C 240.080 194.526,239.588 194.601,240.307 194.690 M254.500 194.687 C 255.105 194.778,256.095 194.778,256.700 194.687 C 257.305 194.595,256.810 194.520,255.600 194.520 C 254.390 194.520,253.895 194.595,254.500 194.687 M306.502 214.000 C 306.628 214.466,307.373 214.607,309.832 214.630 L 313.000 214.660 310.012 214.511 C 308.305 214.425,306.877 214.155,306.681 213.881 C 306.440 213.541,306.387 213.576,306.502 214.000 M88.700 214.693 C 89.635 214.777,91.165 214.777,92.100 214.693 C 93.035 214.609,92.270 214.540,90.400 214.540 C 88.530 214.540,87.765 214.609,88.700 214.693 M102.493 217.600 C 102.493 218.370,102.575 218.685,102.676 218.300 C 102.776 217.915,102.776 217.285,102.676 216.900 C 102.575 216.515,102.493 216.830,102.493 217.600 M298.493 223.200 C 298.493 223.970,298.575 224.285,298.676 223.900 C 298.776 223.515,298.776 222.885,298.676 222.500 C 298.575 222.115,298.493 222.430,298.493 223.200 M90.501 230.200 C 90.505 231.080,90.587 231.393,90.683 230.895 C 90.779 230.398,90.775 229.678,90.675 229.295 C 90.575 228.913,90.496 229.320,90.501 230.200 M74.501 231.400 C 74.505 232.280,74.587 232.593,74.683 232.095 C 74.779 231.598,74.775 230.878,74.675 230.495 C 74.575 230.113,74.496 230.520,74.501 231.400 M217.105 230.683 C 217.602 230.779,218.322 230.775,218.705 230.675 C 219.087 230.575,218.680 230.496,217.800 230.501 C 216.920 230.505,216.607 230.587,217.105 230.683 M263.905 230.683 C 264.402 230.779,265.122 230.775,265.505 230.675 C 265.887 230.575,265.480 230.496,264.600 230.501 C 263.720 230.505,263.407 230.587,263.905 230.683 M310.493 236.400 C 310.493 237.170,310.575 237.485,310.676 237.100 C 310.776 236.715,310.776 236.085,310.676 235.700 C 310.575 235.315,310.493 235.630,310.493 236.400 M98.493 237.600 C 98.493 238.370,98.575 238.685,98.676 238.300 C 98.776 237.915,98.776 237.285,98.676 236.900 C 98.575 236.515,98.493 236.830,98.493 237.600 M82.493 240.400 C 82.493 241.170,82.575 241.485,82.676 241.100 C 82.776 240.715,82.776 240.085,82.676 239.700 C 82.575 239.315,82.493 239.630,82.493 240.400 M302.493 243.200 C 302.493 243.970,302.575 244.285,302.676 243.900 C 302.776 243.515,302.776 242.885,302.676 242.500 C 302.575 242.115,302.493 242.430,302.493 243.200 M318.493 246.000 C 318.493 246.770,318.575 247.085,318.676 246.700 C 318.776 246.315,318.776 245.685,318.676 245.300 C 318.575 244.915,318.493 245.230,318.493 246.000 M86.501 250.200 C 86.505 251.080,86.587 251.393,86.683 250.895 C 86.779 250.398,86.775 249.678,86.675 249.295 C 86.575 248.913,86.496 249.320,86.501 250.200 M242.493 250.000 C 242.493 250.770,242.575 251.085,242.676 250.700 C 242.776 250.315,242.776 249.685,242.676 249.300 C 242.575 248.915,242.493 249.230,242.493 250.000 M70.493 251.200 C 70.493 251.970,70.575 252.285,70.676 251.900 C 70.776 251.515,70.776 250.885,70.676 250.500 C 70.575 250.115,70.493 250.430,70.493 251.200 M314.493 256.400 C 314.493 257.170,314.575 257.485,314.676 257.100 C 314.776 256.715,314.776 256.085,314.676 255.700 C 314.575 255.315,314.493 255.630,314.493 256.400 M330.493 256.800 C 330.493 257.570,330.575 257.885,330.676 257.500 C 330.776 257.115,330.776 256.485,330.676 256.100 C 330.575 255.715,330.493 256.030,330.493 256.800 M94.493 257.600 C 94.493 258.370,94.575 258.685,94.676 258.300 C 94.776 257.915,94.776 257.285,94.676 256.900 C 94.575 256.515,94.493 256.830,94.493 257.600 M306.493 263.200 C 306.493 263.970,306.575 264.285,306.676 263.900 C 306.776 263.515,306.776 262.885,306.676 262.500 C 306.575 262.115,306.493 262.430,306.493 263.200 M322.493 264.800 C 322.493 265.570,322.575 265.885,322.676 265.500 C 322.776 265.115,322.776 264.485,322.676 264.100 C 322.575 263.715,322.493 264.030,322.493 264.800 M66.493 270.000 C 66.493 270.770,66.575 271.085,66.676 270.700 C 66.776 270.315,66.776 269.685,66.676 269.300 C 66.575 268.915,66.493 269.230,66.493 270.000 M82.493 270.000 C 82.493 270.770,82.575 271.085,82.676 270.700 C 82.776 270.315,82.776 269.685,82.676 269.300 C 82.575 268.915,82.493 269.230,82.493 270.000 M318.493 275.600 C 318.493 276.370,318.575 276.685,318.676 276.300 C 318.776 275.915,318.776 275.285,318.676 274.900 C 318.575 274.515,318.493 274.830,318.493 275.600 M334.493 275.600 C 334.493 276.370,334.575 276.685,334.676 276.300 C 334.776 275.915,334.776 275.285,334.676 274.900 C 334.575 274.515,334.493 274.830,334.493 275.600 M90.493 277.600 C 90.493 278.370,90.575 278.685,90.676 278.300 C 90.776 277.915,90.776 277.285,90.676 276.900 C 90.575 276.515,90.493 276.830,90.493 277.600 M310.493 283.200 C 310.493 283.970,310.575 284.285,310.676 283.900 C 310.776 283.515,310.776 282.885,310.676 282.500 C 310.575 282.115,310.493 282.430,310.493 283.200 M62.493 288.800 C 62.493 289.570,62.575 289.885,62.676 289.500 C 62.776 289.115,62.776 288.485,62.676 288.100 C 62.575 287.715,62.493 288.030,62.493 288.800 M86.493 297.600 C 86.493 298.370,86.575 298.685,86.676 298.300 C 86.776 297.915,86.776 297.285,86.676 296.900 C 86.575 296.515,86.493 296.830,86.493 297.600 M121.105 302.683 C 121.602 302.779,122.322 302.775,122.705 302.675 C 123.087 302.575,122.680 302.496,121.800 302.501 C 120.920 302.505,120.607 302.587,121.105 302.683 M149.705 302.687 C 150.314 302.779,151.214 302.777,151.705 302.682 C 152.197 302.587,151.700 302.511,150.600 302.514 C 149.500 302.517,149.097 302.595,149.705 302.687 M248.505 302.687 C 249.114 302.779,250.014 302.777,250.505 302.682 C 250.997 302.587,250.500 302.511,249.400 302.514 C 248.300 302.517,247.897 302.595,248.505 302.687 M277.505 302.683 C 278.002 302.779,278.722 302.775,279.105 302.675 C 279.487 302.575,279.080 302.496,278.200 302.501 C 277.320 302.505,277.007 302.587,277.505 302.683 M58.493 308.400 C 58.493 309.170,58.575 309.485,58.676 309.100 C 58.776 308.715,58.776 308.085,58.676 307.700 C 58.575 307.315,58.493 307.630,58.493 308.400 M326.493 315.600 C 326.493 316.370,326.575 316.685,326.676 316.300 C 326.776 315.915,326.776 315.285,326.676 314.900 C 326.575 314.515,326.493 314.830,326.493 315.600 M66.493 316.400 C 66.493 317.170,66.575 317.485,66.676 317.100 C 66.776 316.715,66.776 316.085,66.676 315.700 C 66.575 315.315,66.493 315.630,66.493 316.400 M334.493 322.000 C 334.493 322.770,334.575 323.085,334.676 322.700 C 334.776 322.315,334.776 321.685,334.676 321.300 C 334.575 320.915,334.493 321.230,334.493 322.000 M54.493 327.600 C 54.493 328.370,54.575 328.685,54.676 328.300 C 54.776 327.915,54.776 327.285,54.676 326.900 C 54.575 326.515,54.493 326.830,54.493 327.600 " stroke="none" fill="#ffff00" fill-rule="evenodd"></path></g></svg>