<svg id="svg" version="1.1" width="400" height="400" viewBox="0 0 400 400" xmlns="http://www.w3.org/2000/svg" xmlns:xlink="http://www.w3.org/1999/xlink" ><g id="svgg"><path id="path0" d="" stroke="none" fill="#000000" fill-rule="evenodd"></path><path id="path1" d="" stroke="none" fill="#555500" fill-rule="evenodd"></path><path id="path2" d="" stroke="none" fill="#ff5500" fill-rule="evenodd"></path><path id="path3" d="M191.200 83.153 C 191.200 83.347,189.625 83.635,187.700 83.793 C 185.775 83.951,184.020 84.220,183.800 84.391 C 183.580 84.562,182.365 84.826,181.100 84.979 C 179.835 85.132,178.800 85.405,178.800 85.584 C 178.800 85.764,178.125 86.037,177.300 86.191 C 176.475 86.345,175.620 86.612,175.400 86.784 C 175.180 86.955,174.280 87.226,173.401 87.385 C 172.521 87.543,171.711 87.792,171.601 87.937 C 171.241 88.407,168.752 89.600,168.129 89.600 C 167.448 89.600,165.072 90.838,164.867 91.300 C 164.793 91.465,164.500 91.600,164.216 91.600 C 163.931 91.600,163.489 91.852,163.233 92.161 C 162.977 92.469,162.281 92.843,161.688 92.992 C 161.094 93.141,160.516 93.384,160.404 93.532 C 160.105 93.925,157.672 95.600,157.399 95.600 C 157.146 95.600,156.932 95.761,154.747 97.586 C 153.948 98.254,153.171 98.800,153.019 98.800 C 152.868 98.800,151.991 99.510,151.072 100.378 C 150.152 101.245,148.545 102.708,147.500 103.629 C 146.455 104.549,145.600 105.478,145.600 105.694 C 145.600 105.910,144.610 107.030,143.400 108.183 C 142.190 109.336,141.200 110.459,141.200 110.678 C 141.200 110.897,140.840 111.402,140.400 111.800 C 139.960 112.198,139.600 112.700,139.600 112.916 C 139.600 113.132,139.171 113.706,138.647 114.192 C 138.123 114.678,137.570 115.463,137.420 115.938 C 137.269 116.412,136.978 116.800,136.773 116.800 C 136.568 116.800,136.400 117.055,136.400 117.367 C 136.400 117.678,136.257 117.993,136.083 118.067 C 135.561 118.286,134.000 121.044,134.000 121.747 C 134.000 122.106,133.834 122.400,133.632 122.400 C 133.429 122.400,133.145 122.940,133.000 123.600 C 132.855 124.260,132.585 124.800,132.400 124.800 C 132.215 124.800,131.945 125.340,131.800 126.000 C 131.655 126.660,131.415 127.200,131.266 127.200 C 130.912 127.200,130.303 128.710,129.168 132.400 C 128.661 134.050,128.094 135.606,127.909 135.858 C 127.724 136.109,127.461 137.279,127.325 138.458 C 127.189 139.636,126.933 140.696,126.755 140.813 C 126.578 140.931,126.310 142.506,126.159 144.313 C 126.008 146.121,125.731 147.600,125.542 147.600 C 125.089 147.600,125.098 165.490,125.552 165.770 C 125.746 165.890,126.032 167.700,126.189 169.793 C 126.346 171.886,126.625 173.692,126.809 173.806 C 126.993 173.920,127.268 175.002,127.419 176.212 C 127.570 177.421,127.837 178.499,128.012 178.607 C 128.187 178.716,128.452 179.522,128.600 180.400 C 128.748 181.278,129.034 182.097,129.235 182.222 C 129.436 182.346,129.606 182.842,129.613 183.324 C 129.620 183.806,129.890 184.549,130.213 184.976 C 130.536 185.404,130.800 186.079,130.800 186.476 C 130.800 186.874,130.980 187.200,131.200 187.200 C 131.420 187.200,131.600 187.405,131.600 187.655 C 131.600 188.371,135.276 195.676,136.000 196.400 C 136.297 196.697,137.167 198.114,137.473 198.800 C 137.620 199.130,138.159 199.796,138.670 200.281 C 139.182 200.765,139.600 201.322,139.600 201.519 C 139.600 201.715,139.960 202.202,140.400 202.600 C 140.840 202.998,141.200 203.488,141.200 203.689 C 141.200 203.889,141.810 204.700,142.556 205.491 L 143.912 206.928 141.742 208.764 C 138.523 211.487,130.800 219.130,130.800 219.592 C 130.800 219.812,129.990 220.755,129.000 221.686 C 128.010 222.618,127.200 223.508,127.200 223.665 C 127.200 223.822,126.660 224.542,126.000 225.264 C 125.340 225.987,124.800 226.728,124.800 226.912 C 124.800 227.095,124.287 227.730,123.661 228.323 C 123.034 228.915,121.920 230.300,121.184 231.400 C 120.448 232.500,119.701 233.460,119.523 233.533 C 119.345 233.607,119.200 233.922,119.200 234.233 C 119.200 234.545,119.023 234.800,118.808 234.800 C 118.592 234.800,118.302 235.250,118.164 235.800 C 118.026 236.350,117.771 236.800,117.597 236.800 C 117.423 236.800,116.883 237.565,116.397 238.500 C 115.910 239.435,115.397 240.290,115.256 240.400 C 114.892 240.685,113.227 243.596,112.683 244.900 C 112.431 245.505,112.098 246.000,111.944 246.000 C 111.790 246.000,111.545 246.540,111.400 247.200 C 111.255 247.860,110.971 248.400,110.768 248.400 C 110.566 248.400,110.400 248.605,110.400 248.856 C 110.400 249.359,108.744 252.882,108.358 253.200 C 108.225 253.310,107.991 254.075,107.840 254.900 C 107.688 255.725,107.436 256.400,107.280 256.400 C 107.123 256.400,106.800 256.895,106.561 257.500 C 104.767 262.044,104.400 263.095,104.400 263.684 C 104.400 264.052,104.236 264.454,104.035 264.578 C 103.834 264.703,103.548 265.522,103.400 266.400 C 103.252 267.278,102.982 268.088,102.800 268.200 C 102.618 268.312,102.348 269.122,102.200 270.000 C 102.052 270.878,101.784 271.686,101.605 271.797 C 101.425 271.908,101.153 273.079,101.000 274.399 C 100.847 275.720,100.570 276.800,100.385 276.800 C 100.200 276.800,99.924 278.060,99.773 279.600 C 99.621 281.140,99.359 282.400,99.190 282.400 C 99.022 282.400,98.779 283.075,98.652 283.900 C 95.417 304.777,95.467 314.567,98.816 316.546 C 101.314 318.021,106.517 316.982,107.055 314.900 C 107.182 314.405,107.447 314.000,107.643 314.000 C 107.840 314.000,108.000 311.671,108.000 308.824 C 108.000 305.977,108.154 303.552,108.341 303.436 C 108.529 303.320,108.811 300.749,108.968 297.722 C 109.125 294.695,109.410 292.029,109.602 291.798 C 109.794 291.567,110.076 289.988,110.230 288.289 C 110.384 286.590,110.648 285.200,110.816 285.200 C 110.984 285.200,111.247 284.120,111.400 282.799 C 111.553 281.479,111.833 280.303,112.021 280.187 C 112.209 280.071,112.485 278.901,112.633 277.588 C 112.782 276.275,113.049 275.200,113.227 275.200 C 113.405 275.200,113.672 274.390,113.821 273.400 C 113.969 272.410,114.239 271.600,114.421 271.600 C 114.602 271.600,114.872 270.790,115.021 269.800 C 115.169 268.810,115.450 268.000,115.645 268.000 C 115.840 268.000,116.000 267.623,116.000 267.162 C 116.000 266.701,116.254 265.846,116.564 265.262 C 117.468 263.561,118.400 261.316,118.400 260.840 C 118.400 260.598,118.580 260.400,118.800 260.400 C 119.020 260.400,119.201 260.085,119.202 259.700 C 119.203 259.315,119.833 257.774,120.602 256.276 C 121.371 254.777,122.000 253.312,122.000 253.019 C 122.000 252.725,122.270 252.382,122.600 252.255 C 122.930 252.129,123.200 251.764,123.200 251.446 C 123.200 251.127,123.335 250.807,123.500 250.733 C 123.665 250.660,124.141 249.970,124.557 249.200 C 124.974 248.430,125.604 247.268,125.957 246.618 C 126.311 245.968,126.825 245.190,127.100 244.890 C 127.375 244.589,127.600 244.086,127.600 243.771 C 127.600 243.457,127.784 243.200,128.010 243.200 C 128.235 243.200,128.595 242.795,128.809 242.300 C 129.376 240.988,130.081 239.967,131.100 238.980 C 131.595 238.501,132.000 237.973,132.000 237.807 C 132.000 237.503,133.594 235.502,135.412 233.526 C 135.955 232.935,136.402 232.305,136.404 232.126 C 136.405 231.946,137.485 230.684,138.804 229.320 C 140.122 227.956,141.214 226.696,141.230 226.520 C 141.247 226.344,142.192 225.345,143.330 224.299 C 144.469 223.254,146.750 221.140,148.400 219.601 C 150.050 218.062,151.616 216.802,151.880 216.801 C 152.144 216.801,152.535 216.488,152.748 216.107 C 153.101 215.476,153.223 215.508,154.105 216.460 C 154.639 217.036,155.447 217.624,155.901 217.768 C 156.355 217.913,156.827 218.294,156.950 218.615 C 157.074 218.937,157.451 219.200,157.787 219.200 C 158.124 219.200,158.400 219.364,158.400 219.564 C 158.400 219.765,159.165 220.314,160.100 220.784 C 162.198 221.839,163.337 222.517,163.604 222.868 C 163.716 223.016,164.301 223.260,164.904 223.412 C 165.507 223.563,166.000 223.833,166.000 224.012 C 166.000 224.190,166.540 224.455,167.200 224.600 C 167.860 224.745,168.400 225.027,168.400 225.227 C 168.400 225.427,169.120 225.706,170.000 225.846 C 170.880 225.987,171.600 226.239,171.600 226.407 C 171.600 226.574,172.230 226.829,173.000 226.974 C 173.770 227.118,174.400 227.408,174.400 227.618 C 174.400 227.828,174.839 228.000,175.376 228.000 C 175.913 228.000,176.461 228.175,176.593 228.388 C 176.725 228.602,177.725 228.895,178.816 229.040 C 179.907 229.185,180.800 229.446,180.800 229.620 C 180.800 229.794,182.015 230.065,183.500 230.221 C 184.985 230.378,186.320 230.693,186.466 230.921 C 186.843 231.511,207.033 231.786,210.600 231.250 C 216.460 230.369,219.007 229.882,219.200 229.607 C 219.310 229.450,220.173 229.201,221.117 229.053 C 222.062 228.906,223.142 228.623,223.517 228.426 C 225.114 227.587,227.167 226.800,227.760 226.800 C 228.112 226.800,228.400 226.643,228.400 226.451 C 228.400 226.259,229.120 225.987,230.000 225.846 C 230.880 225.706,231.600 225.427,231.600 225.227 C 231.600 225.027,232.140 224.745,232.800 224.600 C 233.460 224.455,234.000 224.190,234.000 224.012 C 234.000 223.833,234.493 223.563,235.096 223.412 C 235.699 223.260,236.284 223.016,236.396 222.868 C 236.680 222.495,237.978 221.714,239.400 221.061 C 240.060 220.758,240.943 220.126,241.362 219.655 C 241.781 219.185,242.366 218.800,242.662 218.800 C 242.958 218.800,243.200 218.632,243.200 218.427 C 243.200 218.222,243.605 217.927,244.100 217.771 C 244.595 217.616,245.428 217.030,245.950 216.469 C 246.822 215.535,246.942 215.506,247.395 216.125 C 247.666 216.496,248.095 216.800,248.347 216.800 C 248.599 216.800,250.027 218.060,251.519 219.600 C 253.010 221.140,254.388 222.400,254.579 222.400 C 255.040 222.400,258.799 226.100,258.799 226.554 C 258.800 226.749,259.205 227.294,259.700 227.766 C 260.554 228.580,262.064 230.303,264.925 233.726 C 265.626 234.566,266.605 235.717,267.100 236.285 C 267.595 236.852,268.000 237.495,268.000 237.713 C 268.000 237.930,268.405 238.501,268.900 238.980 C 269.919 239.967,270.624 240.988,271.191 242.300 C 271.405 242.795,271.722 243.200,271.895 243.200 C 272.205 243.200,272.542 243.762,273.724 246.251 C 274.051 246.939,274.493 247.610,274.706 247.742 C 274.920 247.874,276.114 250.011,277.360 252.491 C 278.606 254.971,279.778 257.270,279.965 257.600 C 280.723 258.937,282.000 261.917,282.000 262.349 C 282.000 262.839,282.829 264.464,283.251 264.800 C 283.389 264.910,283.630 265.765,283.786 266.700 C 283.942 267.635,284.219 268.400,284.400 268.400 C 284.581 268.400,284.851 269.120,285.000 270.000 C 285.149 270.880,285.411 271.600,285.584 271.600 C 285.756 271.600,286.022 272.542,286.175 273.692 C 286.327 274.843,286.630 275.895,286.848 276.030 C 287.067 276.165,287.350 277.293,287.478 278.537 C 287.607 279.782,287.846 280.800,288.010 280.800 C 288.174 280.800,288.431 281.787,288.582 282.994 C 288.733 284.200,289.004 285.279,289.185 285.391 C 289.366 285.503,289.643 287.217,289.800 289.200 C 289.957 291.183,290.246 292.905,290.443 293.026 C 290.639 293.148,290.800 294.317,290.800 295.624 C 290.800 296.931,290.955 298.000,291.143 298.000 C 291.332 298.000,291.617 301.555,291.775 305.900 C 291.934 310.245,292.229 313.860,292.432 313.933 C 292.634 314.007,292.800 314.306,292.800 314.598 C 292.800 317.549,300.008 318.176,302.600 315.450 C 303.481 314.524,303.725 294.530,302.868 293.470 C 302.659 293.212,302.359 291.334,302.202 289.297 C 302.044 287.261,301.772 285.506,301.598 285.399 C 301.424 285.291,301.155 283.942,301.000 282.400 C 300.845 280.858,300.557 279.497,300.359 279.375 C 300.162 279.253,300.000 278.623,300.000 277.976 C 300.000 277.329,299.838 276.800,299.639 276.800 C 299.441 276.800,299.153 275.720,299.000 274.399 C 298.847 273.079,298.569 271.905,298.384 271.790 C 298.198 271.675,297.925 270.776,297.778 269.791 C 297.630 268.806,297.361 268.000,297.179 268.000 C 296.998 268.000,296.728 267.190,296.579 266.200 C 296.431 265.210,296.161 264.400,295.979 264.400 C 295.798 264.400,295.528 263.590,295.379 262.600 C 295.231 261.610,294.964 260.800,294.786 260.800 C 294.609 260.800,294.341 260.241,294.191 259.558 C 294.041 258.875,293.507 257.480,293.004 256.458 C 291.575 253.554,290.800 251.718,290.800 251.240 C 290.800 250.998,290.634 250.800,290.432 250.800 C 290.229 250.800,289.945 250.260,289.800 249.600 C 289.655 248.940,289.390 248.400,289.212 248.400 C 289.033 248.400,288.763 247.907,288.612 247.304 C 288.460 246.701,288.216 246.116,288.068 246.004 C 287.709 245.731,287.027 244.575,285.940 242.400 C 285.446 241.410,284.807 240.362,284.521 240.071 C 284.234 239.781,284.000 239.305,284.000 239.014 C 284.000 238.723,283.730 238.382,283.400 238.255 C 283.070 238.129,282.800 237.749,282.800 237.413 C 282.800 237.076,282.620 236.800,282.400 236.800 C 282.180 236.800,282.000 236.558,282.000 236.262 C 282.000 235.966,281.640 235.398,281.200 235.000 C 280.760 234.602,280.400 234.129,280.400 233.950 C 280.400 233.448,277.889 230.000,277.523 230.000 C 277.345 230.000,277.200 229.796,277.200 229.546 C 277.200 229.296,276.750 228.675,276.200 228.165 C 275.650 227.655,275.200 227.056,275.200 226.833 C 275.200 226.610,274.660 225.875,274.000 225.200 C 273.340 224.525,272.800 223.867,272.800 223.738 C 272.800 223.109,261.110 210.800,260.512 210.800 C 260.305 210.800,259.232 209.906,258.128 208.813 L 256.120 206.826 257.060 205.943 C 257.577 205.458,258.000 204.888,258.000 204.676 C 258.000 204.465,258.450 203.875,259.000 203.365 C 259.550 202.855,260.000 202.248,260.000 202.016 C 260.000 201.784,260.450 201.203,261.000 200.725 C 261.550 200.247,262.000 199.613,262.000 199.315 C 262.000 199.018,262.270 198.671,262.600 198.545 C 262.930 198.418,263.200 198.077,263.200 197.786 C 263.200 197.495,263.446 197.011,263.747 196.710 C 264.048 196.409,264.432 195.721,264.601 195.181 C 264.770 194.642,265.019 194.110,265.154 194.000 C 265.561 193.669,266.346 192.306,267.228 190.400 C 267.687 189.410,268.493 187.700,269.019 186.600 C 269.546 185.500,270.097 184.060,270.244 183.400 C 270.390 182.740,270.658 182.011,270.838 181.780 C 271.018 181.549,271.286 180.604,271.434 179.680 C 271.581 178.756,271.839 178.000,272.005 178.000 C 272.172 178.000,272.436 176.965,272.592 175.700 C 272.749 174.435,273.033 173.210,273.223 172.978 C 273.413 172.746,273.692 171.075,273.843 169.266 C 273.994 167.456,274.271 165.880,274.459 165.764 C 274.903 165.489,274.905 150.912,274.461 150.638 C 274.275 150.523,274.001 148.585,273.854 146.333 C 273.706 144.081,273.433 142.140,273.246 142.019 C 273.059 141.899,272.778 140.585,272.621 139.100 C 272.465 137.615,272.182 136.400,271.993 136.400 C 271.804 136.400,271.528 135.590,271.379 134.600 C 271.231 133.610,270.950 132.800,270.755 132.800 C 270.560 132.800,270.400 132.423,270.400 131.962 C 270.400 131.501,270.160 130.646,269.867 130.062 C 268.562 127.464,267.243 124.520,266.980 123.619 C 266.823 123.079,266.448 122.391,266.147 122.090 C 265.846 121.789,265.600 121.286,265.600 120.971 C 265.600 120.657,265.440 120.400,265.243 120.400 C 265.047 120.400,264.763 119.907,264.612 119.304 C 264.460 118.701,264.216 118.116,264.068 118.004 C 263.675 117.705,262.000 115.272,262.000 114.999 C 262.000 114.704,261.638 114.240,259.625 111.955 C 258.731 110.941,258.000 109.985,258.000 109.831 C 258.000 109.480,248.154 99.600,247.804 99.600 C 247.663 99.600,246.884 98.970,246.073 98.201 C 245.263 97.431,244.285 96.699,243.900 96.574 C 243.515 96.449,243.200 96.178,243.200 95.973 C 243.200 95.768,243.013 95.600,242.784 95.600 C 242.374 95.600,239.995 94.056,239.596 93.532 C 239.484 93.384,238.899 93.140,238.296 92.988 C 237.693 92.837,237.200 92.553,237.200 92.357 C 237.200 92.160,236.943 92.000,236.629 92.000 C 236.314 92.000,235.817 91.775,235.522 91.500 C 234.741 90.769,229.633 88.400,228.840 88.400 C 228.598 88.400,228.400 88.231,228.400 88.025 C 228.400 87.818,227.590 87.528,226.600 87.379 C 225.610 87.231,224.800 86.961,224.800 86.779 C 224.800 86.598,223.990 86.328,223.000 86.179 C 222.010 86.031,221.200 85.767,221.200 85.594 C 221.200 85.420,220.120 85.153,218.799 85.000 C 217.479 84.847,216.310 84.578,216.202 84.403 C 216.094 84.228,214.384 83.957,212.403 83.800 C 210.421 83.643,208.800 83.354,208.800 83.158 C 208.800 82.958,204.903 82.800,200.000 82.800 C 195.160 82.800,191.200 82.959,191.200 83.153 M203.600 94.740 C 203.600 94.927,205.618 95.202,208.084 95.352 C 210.550 95.502,212.665 95.777,212.784 95.964 C 212.903 96.150,213.945 96.432,215.100 96.589 C 216.255 96.746,217.200 97.015,217.200 97.186 C 217.200 97.357,218.100 97.616,219.200 97.762 C 220.300 97.908,221.200 98.193,221.200 98.396 C 221.200 98.598,221.875 98.888,222.700 99.040 C 223.525 99.191,224.290 99.438,224.400 99.588 C 224.510 99.738,226.355 100.720,228.500 101.772 C 230.645 102.823,232.400 103.825,232.400 103.998 C 232.400 104.172,232.850 104.426,233.400 104.564 C 233.950 104.702,234.400 104.992,234.400 105.208 C 234.400 105.423,234.587 105.600,234.816 105.600 C 235.345 105.600,237.497 107.125,238.627 108.300 C 239.102 108.795,239.655 109.200,239.854 109.200 C 240.731 109.200,250.800 120.095,250.800 121.044 C 250.800 121.303,251.070 121.618,251.400 121.745 C 251.730 121.871,252.000 122.236,252.000 122.554 C 252.000 122.873,252.153 123.193,252.340 123.267 C 253.060 123.549,257.424 131.917,258.459 135.000 C 258.754 135.880,259.145 136.709,259.328 136.842 C 259.511 136.976,259.761 137.831,259.883 138.742 C 260.005 139.654,260.249 140.400,260.424 140.400 C 260.599 140.400,260.868 141.435,261.021 142.700 C 261.174 143.965,261.454 145.195,261.644 145.434 C 261.834 145.673,262.109 147.968,262.255 150.534 C 262.402 153.100,262.674 155.200,262.861 155.200 C 263.304 155.200,263.304 160.689,262.861 160.962 C 262.675 161.077,262.402 163.008,262.255 165.253 C 262.108 167.497,261.822 169.533,261.619 169.777 C 261.417 170.021,261.126 171.165,260.973 172.319 C 260.820 173.473,260.549 174.508,260.370 174.618 C 260.192 174.728,259.925 175.624,259.778 176.609 C 259.630 177.594,259.394 178.400,259.252 178.400 C 259.111 178.400,258.760 178.985,258.473 179.700 C 257.561 181.973,255.010 187.392,254.754 187.600 C 254.619 187.710,254.373 188.233,254.207 188.762 C 254.042 189.292,253.509 190.102,253.023 190.562 C 252.538 191.023,252.012 191.670,251.855 192.000 C 251.255 193.257,250.458 194.518,250.113 194.754 C 249.915 194.889,249.463 195.425,249.108 195.945 C 248.057 197.483,240.402 205.200,239.928 205.200 C 239.688 205.200,239.102 205.605,238.627 206.100 C 237.685 207.080,235.374 208.800,234.999 208.800 C 234.871 208.800,234.549 208.977,234.283 209.194 C 231.954 211.093,231.205 211.584,230.273 211.817 C 229.683 211.966,229.200 212.233,229.200 212.412 C 229.200 212.590,228.660 212.855,228.000 213.000 C 227.340 213.145,226.800 213.415,226.800 213.600 C 226.800 213.785,226.260 214.055,225.600 214.200 C 224.940 214.345,224.400 214.629,224.400 214.832 C 224.400 215.034,224.085 215.201,223.700 215.202 C 223.315 215.204,222.517 215.457,221.927 215.765 C 221.337 216.073,220.257 216.453,219.527 216.609 C 218.797 216.766,218.020 217.007,217.800 217.146 C 217.219 217.511,213.293 218.420,211.200 218.674 C 210.210 218.794,209.272 219.096,209.115 219.346 C 208.688 220.024,190.726 219.978,190.499 219.298 C 190.405 219.015,189.665 218.800,188.790 218.800 C 187.942 218.800,187.144 218.633,187.017 218.428 C 186.891 218.223,185.798 217.932,184.588 217.781 C 183.379 217.630,182.301 217.363,182.193 217.188 C 182.084 217.013,181.278 216.748,180.400 216.600 C 179.522 216.452,178.703 216.166,178.578 215.965 C 178.454 215.764,178.068 215.600,177.720 215.600 C 176.982 215.600,173.462 213.940,173.267 213.500 C 173.193 213.335,172.943 213.200,172.710 213.200 C 172.227 213.200,168.703 211.527,168.400 211.154 C 168.290 211.019,167.795 210.781,167.300 210.627 C 166.805 210.472,166.400 210.199,166.400 210.020 C 166.400 209.840,166.085 209.588,165.700 209.458 C 164.721 209.130,163.602 208.355,162.580 207.300 C 162.101 206.805,161.541 206.400,161.337 206.400 C 161.133 206.400,160.172 205.590,159.200 204.600 C 158.228 203.610,157.267 202.800,157.064 202.800 C 156.640 202.800,154.000 200.090,154.000 199.655 C 154.000 199.496,153.190 198.572,152.200 197.600 C 151.210 196.628,150.400 195.661,150.400 195.450 C 150.400 195.240,150.131 194.782,149.802 194.434 C 148.482 193.035,147.200 191.259,147.200 190.830 C 147.200 190.580,146.941 190.276,146.624 190.154 C 146.308 190.033,145.934 189.408,145.793 188.767 C 145.652 188.125,145.385 187.600,145.200 187.600 C 145.015 187.600,144.748 187.072,144.606 186.428 C 144.464 185.783,144.090 185.041,143.774 184.779 C 143.458 184.517,143.200 184.064,143.200 183.772 C 143.200 183.481,142.755 182.405,142.211 181.382 C 141.667 180.358,141.106 178.907,140.965 178.156 C 140.825 177.405,140.550 176.693,140.355 176.572 C 140.160 176.451,140.000 175.928,140.000 175.410 C 140.000 174.891,139.811 174.404,139.581 174.327 C 139.350 174.250,139.055 173.155,138.925 171.894 C 138.795 170.632,138.549 169.600,138.380 169.600 C 138.210 169.600,137.958 168.025,137.818 166.100 C 137.678 164.175,137.392 162.287,137.182 161.905 C 136.709 161.045,136.671 151.600,137.141 151.600 C 137.329 151.600,137.602 150.039,137.749 148.132 C 137.895 146.224,138.180 144.465,138.382 144.222 C 138.584 143.979,138.877 142.795,139.033 141.590 C 139.190 140.386,139.428 139.310,139.562 139.200 C 139.697 139.090,140.147 138.010,140.563 136.800 C 140.978 135.590,141.451 134.420,141.613 134.200 C 141.775 133.980,142.033 133.215,142.186 132.500 C 142.338 131.785,142.615 131.200,142.800 131.200 C 142.985 131.200,143.255 130.660,143.400 130.000 C 143.545 129.340,143.829 128.800,144.032 128.800 C 144.234 128.800,144.400 128.603,144.400 128.363 C 144.400 128.123,144.760 127.469,145.200 126.909 C 145.640 126.350,146.000 125.576,146.000 125.189 C 146.000 124.802,146.270 124.382,146.600 124.255 C 146.930 124.129,147.200 123.832,147.200 123.596 C 147.200 123.142,147.274 123.036,149.186 120.747 C 149.854 119.948,150.400 119.177,150.400 119.033 C 150.400 118.889,151.210 117.926,152.200 116.892 C 153.190 115.859,154.000 114.882,154.000 114.720 C 154.000 114.322,156.746 111.600,157.147 111.600 C 157.324 111.600,158.290 110.790,159.294 109.800 C 160.298 108.810,161.252 108.000,161.414 108.000 C 161.576 108.000,162.125 107.550,162.635 107.000 C 163.145 106.450,163.738 106.000,163.952 106.000 C 164.167 106.000,164.587 105.775,164.886 105.500 C 165.579 104.861,166.898 104.128,171.600 101.765 C 173.690 100.715,175.460 99.709,175.533 99.528 C 175.607 99.348,176.062 99.200,176.544 99.200 C 177.027 99.200,177.799 98.936,178.260 98.613 C 178.721 98.290,179.841 97.907,180.749 97.762 C 181.657 97.617,182.400 97.361,182.400 97.195 C 182.400 97.028,183.435 96.763,184.700 96.605 C 185.965 96.448,187.097 96.163,187.216 95.972 C 187.335 95.781,189.450 95.502,191.916 95.352 C 194.382 95.202,196.400 94.927,196.400 94.740 C 196.400 94.553,198.020 94.400,200.000 94.400 C 201.980 94.400,203.600 94.553,203.600 94.740 " stroke="none" fill="#f8b119" fill-rule="evenodd"></path><path id="path4" d="" stroke="none" fill="#ffff00" fill-rule="evenodd"></path></g></svg>