<svg id="svg" version="1.1" width="400" height="400" viewBox="0 0 400 400" xmlns="http://www.w3.org/2000/svg" xmlns:xlink="http://www.w3.org/1999/xlink" ><g id="svgg"><path id="path0" d="M54.510 54.741 L 52.593 56.741 54.593 54.823 C 55.693 53.769,56.593 52.869,56.593 52.823 C 56.593 52.605,56.291 52.883,54.510 54.741 M345.185 54.667 C 346.235 55.726,347.161 56.593,347.242 56.593 C 347.324 56.593,346.531 55.726,345.481 54.667 C 344.432 53.607,343.506 52.741,343.425 52.741 C 343.343 52.741,344.135 53.607,345.185 54.667 M77.333 54.667 C 78.218 55.563,79.009 56.296,79.091 56.296 C 79.172 56.296,78.515 55.563,77.630 54.667 C 76.744 53.770,75.954 53.037,75.872 53.037 C 75.791 53.037,76.448 53.770,77.333 54.667 M322.360 54.741 L 320.741 56.444 322.444 54.825 C 324.027 53.320,324.284 53.037,324.064 53.037 C 324.018 53.037,323.251 53.804,322.360 54.741 M337.185 60.833 C 337.185 60.884,337.619 61.318,338.148 61.796 L 339.111 62.667 338.241 61.704 C 337.430 60.806,337.185 60.605,337.185 60.833 M316.138 65.704 L 314.519 67.407 316.222 65.788 C 317.805 64.283,318.062 64.000,317.842 64.000 C 317.795 64.000,317.029 64.767,316.138 65.704 M83.259 65.278 C 83.259 65.329,83.693 65.762,84.222 66.241 L 85.185 67.111 84.315 66.148 C 83.504 65.251,83.259 65.049,83.259 65.278 M86.963 68.741 C 87.931 69.719,88.789 70.519,88.870 70.519 C 88.952 70.519,88.227 69.719,87.259 68.741 C 86.292 67.763,85.433 66.963,85.352 66.963 C 85.270 66.963,85.995 67.763,86.963 68.741 M312.582 68.963 L 310.963 70.667 312.667 69.047 C 313.604 68.156,314.370 67.390,314.370 67.343 C 314.370 67.124,314.087 67.380,312.582 68.963 M90.667 72.148 C 91.552 73.044,92.343 73.778,92.424 73.778 C 92.506 73.778,91.848 73.044,90.963 72.148 C 90.078 71.252,89.287 70.519,89.205 70.519 C 89.124 70.519,89.782 71.252,90.667 72.148 M309.174 72.074 L 307.704 73.630 309.259 72.159 C 310.115 71.351,310.815 70.651,310.815 70.604 C 310.815 70.383,310.540 70.629,309.174 72.074 M305.768 75.185 L 304.148 76.889 305.852 75.269 C 306.789 74.379,307.556 73.612,307.556 73.566 C 307.556 73.346,307.272 73.602,305.768 75.185 M94.074 75.259 C 94.877 76.074,95.600 76.741,95.681 76.741 C 95.763 76.741,95.173 76.074,94.370 75.259 C 93.568 74.444,92.844 73.778,92.763 73.778 C 92.682 73.778,93.272 74.444,94.074 75.259 M318.510 77.259 L 316.593 79.259 318.563 77.371 C 319.842 76.146,320.663 75.564,320.905 75.714 C 321.146 75.863,321.202 75.823,321.065 75.601 C 320.717 75.038,320.510 75.173,318.510 77.259 M54.519 77.481 C 55.404 78.378,56.195 79.111,56.276 79.111 C 56.358 79.111,55.700 78.378,54.815 77.481 C 53.930 76.585,53.139 75.852,53.057 75.852 C 52.976 75.852,53.633 76.585,54.519 77.481 M81.481 77.481 C 82.367 78.378,83.158 79.111,83.239 79.111 C 83.320 79.111,82.663 78.378,81.778 77.481 C 80.893 76.585,80.102 75.852,80.020 75.852 C 79.939 75.852,80.596 76.585,81.481 77.481 M345.175 77.556 L 343.556 79.259 345.259 77.640 C 346.842 76.135,347.099 75.852,346.879 75.852 C 346.832 75.852,346.066 76.619,345.175 77.556 M77.333 77.481 C 76.614 78.215,76.091 78.815,76.173 78.815 C 76.254 78.815,76.910 78.215,77.630 77.481 C 78.349 76.748,78.872 76.148,78.790 76.148 C 78.709 76.148,78.053 76.748,77.333 77.481 M322.358 77.407 C 323.586 78.716,323.852 78.951,323.852 78.728 C 323.852 78.681,323.219 78.047,322.444 77.321 L 321.037 76.000 322.358 77.407 M97.173 78.000 C 98.401 79.308,98.667 79.543,98.667 79.321 C 98.667 79.273,98.033 78.640,97.259 77.914 L 95.852 76.593 97.173 78.000 M302.519 78.074 C 301.799 78.807,301.277 79.407,301.358 79.407 C 301.440 79.407,302.095 78.807,302.815 78.074 C 303.535 77.341,304.057 76.741,303.975 76.741 C 303.894 76.741,303.238 77.341,302.519 78.074 M123.797 86.720 C 116.586 93.931,115.845 94.589,115.354 94.217 C 114.837 93.827,114.836 93.834,115.338 94.381 C 115.848 94.936,116.077 94.737,123.930 86.883 C 128.368 82.446,131.932 78.815,131.850 78.815 C 131.769 78.815,128.145 82.372,123.797 86.720 M276.069 86.810 C 283.923 94.734,284.152 94.936,284.662 94.381 C 285.164 93.834,285.163 93.827,284.647 94.217 C 284.157 94.587,283.396 93.917,276.055 86.646 L 268.000 78.668 276.069 86.810 M85.185 80.889 C 86.153 81.867,87.011 82.667,87.093 82.667 C 87.174 82.667,86.449 81.867,85.481 80.889 C 84.514 79.911,83.656 79.111,83.574 79.111 C 83.493 79.111,84.218 79.911,85.185 80.889 M142.222 84.296 C 145.071 87.148,147.468 89.481,147.549 89.481 C 147.631 89.481,145.367 87.148,142.519 84.296 C 139.670 81.444,137.273 79.111,137.192 79.111 C 137.110 79.111,139.374 81.444,142.222 84.296 M257.478 84.370 L 252.296 89.630 257.556 84.448 C 260.448 81.598,262.815 79.231,262.815 79.188 C 262.815 78.977,262.293 79.484,257.478 84.370 M314.509 80.963 L 312.741 82.815 314.593 81.046 C 315.611 80.074,316.444 79.240,316.444 79.194 C 316.444 78.976,316.152 79.243,314.509 80.963 M100.296 80.889 C 101.099 81.704,101.822 82.370,101.904 82.370 C 101.985 82.370,101.395 81.704,100.593 80.889 C 99.790 80.074,99.067 79.407,98.985 79.407 C 98.904 79.407,99.494 80.074,100.296 80.889 M299.396 80.963 L 297.926 82.519 299.481 81.048 C 300.927 79.682,301.173 79.407,300.952 79.407 C 300.905 79.407,300.205 80.107,299.396 80.963 M77.185 81.481 C 78.153 82.459,79.011 83.259,79.093 83.259 C 79.174 83.259,78.449 82.459,77.481 81.481 C 76.514 80.504,75.656 79.704,75.574 79.704 C 75.493 79.704,76.218 80.504,77.185 81.481 M322.509 81.556 L 320.741 83.407 322.593 81.639 C 324.313 79.996,324.580 79.704,324.361 79.704 C 324.315 79.704,323.482 80.537,322.509 81.556 M65.333 83.556 C 66.136 84.370,66.859 85.037,66.941 85.037 C 67.022 85.037,66.432 84.370,65.630 83.556 C 64.827 82.741,64.104 82.074,64.022 82.074 C 63.941 82.074,64.531 82.741,65.333 83.556 M103.704 84.000 C 104.589 84.896,105.380 85.630,105.461 85.630 C 105.543 85.630,104.885 84.896,104.000 84.000 C 103.115 83.104,102.324 82.370,102.242 82.370 C 102.161 82.370,102.819 83.104,103.704 84.000 M296.296 83.704 C 295.577 84.437,295.054 85.037,295.136 85.037 C 295.217 85.037,295.873 84.437,296.593 83.704 C 297.312 82.970,297.834 82.370,297.753 82.370 C 297.672 82.370,297.016 82.970,296.296 83.704 M87.407 82.759 C 87.407 82.810,87.841 83.244,88.370 83.722 L 89.333 84.593 88.463 83.630 C 87.652 82.732,87.407 82.530,87.407 82.759 M333.759 84.222 L 332.889 85.185 333.852 84.315 C 334.749 83.504,334.951 83.259,334.722 83.259 C 334.671 83.259,334.238 83.693,333.759 84.222 M80.593 85.185 C 81.478 86.081,82.269 86.815,82.350 86.815 C 82.432 86.815,81.774 86.081,80.889 85.185 C 80.004 84.289,79.213 83.556,79.131 83.556 C 79.050 83.556,79.707 84.289,80.593 85.185 M318.954 85.407 L 317.185 87.259 319.037 85.491 C 320.056 84.518,320.889 83.685,320.889 83.639 C 320.889 83.420,320.596 83.687,318.954 85.407 M90.519 85.630 C 91.155 86.281,91.742 86.815,91.824 86.815 C 91.905 86.815,91.451 86.281,90.815 85.630 C 90.178 84.978,89.591 84.444,89.509 84.444 C 89.428 84.444,89.882 84.978,90.519 85.630 M308.878 86.000 L 307.407 87.556 308.963 86.085 C 309.819 85.277,310.519 84.577,310.519 84.530 C 310.519 84.309,310.244 84.555,308.878 86.000 M293.174 86.593 L 291.704 88.148 293.259 86.678 C 294.705 85.312,294.951 85.037,294.730 85.037 C 294.683 85.037,293.983 85.737,293.174 86.593 M68.593 87.111 C 69.560 88.089,70.418 88.889,70.500 88.889 C 70.581 88.889,69.856 88.089,68.889 87.111 C 67.921 86.133,67.063 85.333,66.982 85.333 C 66.900 85.333,67.625 86.133,68.593 87.111 M331.102 87.185 L 329.333 89.037 331.185 87.269 C 332.204 86.296,333.037 85.463,333.037 85.417 C 333.037 85.198,332.745 85.465,331.102 87.185 M106.951 86.889 C 107.677 87.663,108.310 88.296,108.358 88.296 C 108.580 88.296,108.345 88.030,107.037 86.802 L 105.630 85.481 106.951 86.889 M83.259 88.148 C 83.812 88.719,84.331 89.185,84.413 89.185 C 84.494 89.185,84.108 88.719,83.556 88.148 C 83.003 87.578,82.484 87.111,82.402 87.111 C 82.321 87.111,82.706 87.578,83.259 88.148 M94.222 89.037 C 95.107 89.933,95.898 90.667,95.980 90.667 C 96.061 90.667,95.404 89.933,94.519 89.037 C 93.633 88.141,92.842 87.407,92.761 87.407 C 92.680 87.407,93.337 88.141,94.222 89.037 M305.471 89.111 L 303.852 90.815 305.556 89.195 C 307.138 87.691,307.395 87.407,307.175 87.407 C 307.129 87.407,306.362 88.174,305.471 89.111 M290.074 89.333 C 289.354 90.067,288.832 90.667,288.914 90.667 C 288.995 90.667,289.651 90.067,290.370 89.333 C 291.090 88.600,291.612 88.000,291.531 88.000 C 291.449 88.000,290.794 88.600,290.074 89.333 M109.914 89.556 C 110.640 90.330,111.273 90.963,111.321 90.963 C 111.543 90.963,111.308 90.697,110.000 89.469 L 108.593 88.148 109.914 89.556 M71.852 90.667 C 72.654 91.481,73.378 92.148,73.459 92.148 C 73.541 92.148,72.951 91.481,72.148 90.667 C 71.346 89.852,70.622 89.185,70.541 89.185 C 70.459 89.185,71.049 89.852,71.852 90.667 M314.211 90.741 L 312.741 92.296 314.296 90.826 C 315.152 90.017,315.852 89.317,315.852 89.270 C 315.852 89.049,315.577 89.295,314.211 90.741 M327.546 91.037 L 325.778 92.889 327.630 91.120 C 328.648 90.148,329.481 89.314,329.481 89.269 C 329.481 89.050,329.189 89.317,327.546 91.037 M85.481 90.667 C 86.118 91.319,86.705 91.852,86.787 91.852 C 86.868 91.852,86.414 91.319,85.778 90.667 C 85.141 90.015,84.554 89.481,84.472 89.481 C 84.391 89.481,84.845 90.015,85.481 90.667 M97.926 92.444 C 98.894 93.422,99.752 94.222,99.833 94.222 C 99.915 94.222,99.190 93.422,98.222 92.444 C 97.255 91.467,96.396 90.667,96.315 90.667 C 96.233 90.667,96.958 91.467,97.926 92.444 M112.296 112.519 L 90.519 134.370 112.370 112.593 C 132.684 92.349,134.355 90.667,134.147 90.667 C 134.106 90.667,124.273 100.500,112.296 112.519 M135.407 91.704 C 135.960 92.274,136.479 92.741,136.561 92.741 C 136.642 92.741,136.257 92.274,135.704 91.704 C 135.151 91.133,134.632 90.667,134.550 90.667 C 134.469 90.667,134.855 91.133,135.407 91.704 M264.426 91.630 L 263.556 92.593 264.519 91.722 C 265.048 91.244,265.481 90.810,265.481 90.759 C 265.481 90.530,265.237 90.732,264.426 91.630 M287.407 112.444 C 299.384 124.422,309.250 134.222,309.332 134.222 C 309.413 134.222,299.681 124.422,287.704 112.444 C 275.727 100.467,265.861 90.667,265.779 90.667 C 265.698 90.667,275.430 100.467,287.407 112.444 M286.805 92.370 L 285.185 94.074 286.889 92.455 C 287.826 91.564,288.593 90.797,288.593 90.751 C 288.593 90.531,288.309 90.788,286.805 92.370 M301.916 92.370 L 300.296 94.074 302.000 92.455 C 303.583 90.950,303.839 90.667,303.620 90.667 C 303.573 90.667,302.807 91.433,301.916 92.370 M113.037 92.444 C 113.840 93.259,114.563 93.926,114.644 93.926 C 114.726 93.926,114.136 93.259,113.333 92.444 C 112.531 91.630,111.807 90.963,111.726 90.963 C 111.644 90.963,112.234 91.630,113.037 92.444 M88.593 94.074 C 89.642 95.133,90.568 96.000,90.650 96.000 C 90.731 96.000,89.939 95.133,88.889 94.074 C 87.839 93.015,86.913 92.148,86.832 92.148 C 86.750 92.148,87.543 93.015,88.593 94.074 M74.815 93.926 C 75.617 94.741,76.341 95.407,76.422 95.407 C 76.504 95.407,75.914 94.741,75.111 93.926 C 74.309 93.111,73.585 92.444,73.504 92.444 C 73.422 92.444,74.012 93.111,74.815 93.926 M310.954 94.296 L 309.185 96.148 311.037 94.380 C 312.757 92.737,313.024 92.444,312.806 92.444 C 312.760 92.444,311.926 93.278,310.954 94.296 M324.444 94.370 C 323.725 95.104,323.203 95.704,323.284 95.704 C 323.366 95.704,324.021 95.104,324.741 94.370 C 325.460 93.637,325.983 93.037,325.901 93.037 C 325.820 93.037,325.164 93.637,324.444 94.370 M298.667 95.259 C 297.947 95.993,297.425 96.593,297.506 96.593 C 297.588 96.593,298.243 95.993,298.963 95.259 C 299.683 94.526,300.205 93.926,300.123 93.926 C 300.042 93.926,299.386 94.526,298.667 95.259 M101.321 95.481 C 102.047 96.256,102.681 96.889,102.728 96.889 C 102.951 96.889,102.716 96.623,101.407 95.395 L 100.000 94.074 101.321 95.481 M77.778 97.185 C 78.580 98.000,79.304 98.667,79.385 98.667 C 79.467 98.667,78.877 98.000,78.074 97.185 C 77.272 96.370,76.548 95.704,76.467 95.704 C 76.385 95.704,76.975 96.370,77.778 97.185 M321.778 97.333 C 321.058 98.067,320.536 98.667,320.617 98.667 C 320.699 98.667,321.354 98.067,322.074 97.333 C 322.794 96.600,323.316 96.000,323.234 96.000 C 323.153 96.000,322.497 96.600,321.778 97.333 M92.148 97.926 C 93.033 98.822,93.824 99.556,93.906 99.556 C 93.987 99.556,93.330 98.822,92.444 97.926 C 91.559 97.030,90.768 96.296,90.687 96.296 C 90.605 96.296,91.263 97.030,92.148 97.926 M307.398 98.148 L 305.630 100.000 307.481 98.231 C 308.500 97.259,309.333 96.425,309.333 96.380 C 309.333 96.161,309.041 96.428,307.398 98.148 M296.130 97.556 L 295.259 98.519 296.222 97.648 C 296.752 97.170,297.185 96.736,297.185 96.685 C 297.185 96.456,296.941 96.658,296.130 97.556 M103.111 96.982 C 103.111 97.033,103.544 97.466,104.074 97.945 L 105.037 98.815 104.167 97.852 C 103.356 96.954,103.111 96.753,103.111 96.982 M80.741 100.444 C 81.543 101.259,82.267 101.926,82.348 101.926 C 82.430 101.926,81.840 101.259,81.037 100.444 C 80.234 99.630,79.511 98.963,79.430 98.963 C 79.348 98.963,79.938 99.630,80.741 100.444 M319.111 100.296 C 318.391 101.030,317.869 101.630,317.951 101.630 C 318.032 101.630,318.688 101.030,319.407 100.296 C 320.127 99.563,320.649 98.963,320.568 98.963 C 320.486 98.963,319.831 99.563,319.111 100.296 M95.259 101.333 C 96.062 102.148,96.785 102.815,96.867 102.815 C 96.948 102.815,96.358 102.148,95.556 101.333 C 94.753 100.519,94.030 99.852,93.948 99.852 C 93.867 99.852,94.457 100.519,95.259 101.333 M107.259 100.889 C 107.812 101.459,108.331 101.926,108.413 101.926 C 108.494 101.926,108.108 101.459,107.556 100.889 C 107.003 100.319,106.484 99.852,106.402 99.852 C 106.321 99.852,106.706 100.319,107.259 100.889 M292.360 100.972 L 291.267 102.092 294.596 105.342 L 297.926 108.593 294.741 105.328 L 291.555 102.064 292.662 100.958 C 293.270 100.350,293.697 99.852,293.611 99.852 C 293.524 99.852,292.962 100.356,292.360 100.972 M304.296 101.481 C 303.577 102.215,303.054 102.815,303.136 102.815 C 303.217 102.815,303.873 102.215,304.593 101.481 C 305.312 100.748,305.834 100.148,305.753 100.148 C 305.672 100.148,305.016 100.748,304.296 101.481 M316.138 103.630 L 314.519 105.333 316.222 103.714 C 317.805 102.209,318.062 101.926,317.842 101.926 C 317.795 101.926,317.029 102.693,316.138 103.630 M83.543 103.481 C 84.270 104.256,84.903 104.889,84.951 104.889 C 85.173 104.889,84.938 104.623,83.630 103.395 L 82.222 102.074 83.543 103.481 M105.180 105.407 L 102.074 108.593 105.259 105.487 C 107.011 103.779,108.444 102.345,108.444 102.302 C 108.444 102.088,108.065 102.449,105.180 105.407 M96.889 103.204 C 96.889 103.255,97.322 103.688,97.852 104.167 L 98.815 105.037 97.945 104.074 C 97.133 103.176,96.889 102.975,96.889 103.204 M301.470 104.667 L 300.000 106.222 301.556 104.752 C 303.001 103.386,303.247 103.111,303.026 103.111 C 302.979 103.111,302.279 103.811,301.470 104.667 M86.370 106.667 C 87.173 107.481,87.896 108.148,87.978 108.148 C 88.059 108.148,87.469 107.481,86.667 106.667 C 85.864 105.852,85.141 105.185,85.059 105.185 C 84.978 105.185,85.568 105.852,86.370 106.667 M313.026 107.037 L 311.556 108.593 313.111 107.122 C 313.967 106.314,314.667 105.614,314.667 105.567 C 314.667 105.346,314.392 105.592,313.026 107.037 M100.593 107.259 C 101.229 107.911,101.817 108.444,101.898 108.444 C 101.980 108.444,101.525 107.911,100.889 107.259 C 100.252 106.607,99.665 106.074,99.583 106.074 C 99.502 106.074,99.956 106.607,100.593 107.259 M298.947 107.481 L 297.926 108.593 299.037 107.572 C 300.071 106.621,300.284 106.370,300.058 106.370 C 300.009 106.370,299.509 106.870,298.947 107.481 M89.333 109.926 C 90.136 110.741,90.859 111.407,90.941 111.407 C 91.022 111.407,90.432 110.741,89.630 109.926 C 88.827 109.111,88.104 108.444,88.022 108.444 C 87.941 108.444,88.531 109.111,89.333 109.926 M310.222 110.074 C 309.503 110.807,308.980 111.407,309.062 111.407 C 309.143 111.407,309.799 110.807,310.519 110.074 C 311.238 109.341,311.760 108.741,311.679 108.741 C 311.597 108.741,310.942 109.341,310.222 110.074 M137.170 109.500 C 136.840 109.897,137.015 110.184,138.389 111.500 L 139.992 113.037 138.540 111.496 C 137.307 110.187,137.146 109.886,137.469 109.496 C 137.679 109.244,137.784 109.037,137.702 109.037 C 137.621 109.037,137.381 109.245,137.170 109.500 M262.658 109.584 C 262.808 109.847,262.395 110.503,261.446 111.510 L 260.008 113.037 261.624 111.487 C 262.968 110.198,263.173 109.874,262.836 109.561 C 262.507 109.256,262.474 109.260,262.658 109.584 M92.296 113.185 C 93.099 114.000,93.822 114.667,93.904 114.667 C 93.985 114.667,93.395 114.000,92.593 113.185 C 91.790 112.370,91.067 111.704,90.985 111.704 C 90.904 111.704,91.494 112.370,92.296 113.185 M307.396 113.259 L 305.926 114.815 307.481 113.344 C 308.337 112.536,309.037 111.836,309.037 111.789 C 309.037 111.568,308.763 111.814,307.396 113.259 M256.439 116.222 L 253.185 119.556 256.519 116.301 C 259.615 113.279,259.986 112.889,259.773 112.889 C 259.729 112.889,258.229 114.389,256.439 116.222 M143.852 116.741 C 145.475 118.370,146.870 119.704,146.952 119.704 C 147.033 119.704,145.772 118.370,144.148 116.741 C 142.525 115.111,141.130 113.778,141.048 113.778 C 140.967 113.778,142.228 115.111,143.852 116.741 M94.217 115.353 C 94.587 115.843,93.917 116.604,86.646 123.945 L 78.668 132.000 86.810 123.931 C 94.734 116.077,94.936 115.848,94.381 115.338 C 93.834 114.836,93.827 114.837,94.217 115.353 M305.465 115.428 C 305.130 115.830,306.162 116.966,313.205 123.946 L 321.332 132.000 313.354 123.945 C 306.449 116.974,305.428 115.829,305.762 115.427 C 305.973 115.172,306.080 114.963,305.998 114.963 C 305.917 114.963,305.677 115.172,305.465 115.428 M132.741 120.148 C 133.626 121.044,134.417 121.778,134.498 121.778 C 134.580 121.778,133.922 121.044,133.037 120.148 C 132.152 119.252,131.361 118.519,131.280 118.519 C 131.198 118.519,131.856 119.252,132.741 120.148 M266.953 120.222 L 265.333 121.926 267.037 120.306 C 267.974 119.416,268.741 118.649,268.741 118.603 C 268.741 118.383,268.457 118.639,266.953 120.222 M249.920 122.444 L 246.963 125.481 250.000 122.524 C 251.670 120.898,253.037 119.531,253.037 119.487 C 253.037 119.273,252.667 119.624,249.920 122.444 M149.926 122.519 C 151.468 124.067,152.796 125.333,152.877 125.333 C 152.959 125.333,151.764 124.067,150.222 122.519 C 148.681 120.970,147.352 119.704,147.271 119.704 C 147.189 119.704,148.384 120.970,149.926 122.519 M138.222 125.333 C 140.173 127.289,141.835 128.889,141.917 128.889 C 141.998 128.889,140.469 127.289,138.519 125.333 C 136.568 123.378,134.906 121.778,134.824 121.778 C 134.743 121.778,136.272 123.378,138.222 125.333 M260.438 126.444 L 257.926 129.037 260.519 126.525 C 261.944 125.143,263.111 123.977,263.111 123.932 C 263.111 123.717,262.771 124.037,260.438 126.444 M156.143 128.370 C 159.028 131.329,159.407 131.690,159.407 131.476 C 159.407 131.433,157.974 129.999,156.222 128.291 L 153.037 125.185 156.143 128.370 M242.661 129.407 L 239.556 132.593 242.741 129.487 C 245.699 126.602,246.061 126.222,245.847 126.222 C 245.803 126.222,244.370 127.656,242.661 129.407 M142.222 128.970 C 142.222 129.015,143.256 130.049,144.519 131.267 L 146.815 133.481 144.600 131.185 C 142.543 129.052,142.222 128.754,142.222 128.970 M255.548 131.037 L 253.481 133.185 255.630 131.119 C 256.811 129.983,257.778 129.016,257.778 128.971 C 257.778 128.754,257.467 129.042,255.548 131.037 M120.000 132.889 C 120.885 133.785,121.676 134.519,121.758 134.519 C 121.839 134.519,121.181 133.785,120.296 132.889 C 119.411 131.993,118.620 131.259,118.539 131.259 C 118.457 131.259,119.115 131.993,120.000 132.889 M279.694 132.963 L 278.074 134.667 279.778 133.047 C 281.361 131.543,281.617 131.259,281.397 131.259 C 281.351 131.259,280.584 132.026,279.694 132.963 M237.472 134.296 L 235.704 136.148 237.556 134.380 C 238.574 133.407,239.407 132.574,239.407 132.528 C 239.407 132.309,239.115 132.576,237.472 134.296 M162.370 134.370 C 163.256 135.267,164.046 136.000,164.128 136.000 C 164.209 136.000,163.552 135.267,162.667 134.370 C 161.782 133.474,160.991 132.741,160.909 132.741 C 160.828 132.741,161.485 133.474,162.370 134.370 M90.667 134.611 C 90.667 134.662,91.100 135.096,91.630 135.574 L 92.593 136.444 91.722 135.481 C 90.911 134.584,90.667 134.382,90.667 134.611 M308.278 135.481 L 307.407 136.444 308.370 135.574 C 308.900 135.096,309.333 134.662,309.333 134.611 C 309.333 134.382,309.089 134.584,308.278 135.481 M125.185 138.370 C 127.136 140.326,128.798 141.926,128.880 141.926 C 128.961 141.926,127.432 140.326,125.481 138.370 C 123.531 136.415,121.869 134.815,121.787 134.815 C 121.706 134.815,123.235 136.415,125.185 138.370 M248.735 137.556 L 246.074 140.296 248.815 137.636 C 250.322 136.173,251.556 134.939,251.556 134.895 C 251.556 134.680,251.206 135.010,248.735 137.556 M274.519 138.370 C 272.568 140.326,271.039 141.926,271.120 141.926 C 271.202 141.926,272.864 140.326,274.815 138.370 C 276.765 136.415,278.294 134.815,278.213 134.815 C 278.131 134.815,276.469 136.415,274.519 138.370 M149.333 135.785 C 149.333 135.830,150.367 136.863,151.630 138.081 L 153.926 140.296 151.711 138.000 C 149.654 135.867,149.333 135.569,149.333 135.785 M109.296 137.407 C 108.925 137.880,108.936 137.889,109.422 137.507 C 109.903 137.130,110.108 137.232,111.496 138.544 L 113.037 140.000 111.567 138.444 C 109.924 136.706,109.866 136.680,109.296 137.407 M288.433 138.444 L 286.963 140.000 288.490 138.558 C 289.465 137.637,290.151 137.198,290.388 137.344 C 290.627 137.492,290.684 137.452,290.547 137.231 C 290.205 136.678,289.981 136.807,288.433 138.444 M84.148 142.370 C 86.997 145.222,89.394 147.556,89.475 147.556 C 89.557 147.556,87.293 145.222,84.444 142.370 C 81.596 139.519,79.199 137.185,79.117 137.185 C 79.036 137.185,81.300 139.519,84.148 142.370 M315.552 142.444 L 310.370 147.704 315.630 142.522 C 318.522 139.672,320.889 137.305,320.889 137.262 C 320.889 137.051,320.367 137.558,315.552 142.444 M116.735 144.074 C 118.444 145.826,119.877 147.259,119.921 147.259 C 120.135 147.259,119.773 146.879,116.815 143.995 L 113.630 140.889 116.735 144.074 M283.105 144.074 L 280.444 146.815 283.185 144.154 C 284.693 142.691,285.926 141.458,285.926 141.414 C 285.926 141.198,285.576 141.529,283.105 144.074 M128.889 142.304 C 128.889 142.349,129.922 143.382,131.185 144.600 L 133.481 146.815 131.267 144.519 C 129.210 142.386,128.889 142.087,128.889 142.304 M268.741 144.444 C 267.527 145.667,266.600 146.667,266.681 146.667 C 266.763 146.667,267.823 145.667,269.037 144.444 C 270.251 143.222,271.178 142.222,271.096 142.222 C 271.015 142.222,269.955 143.222,268.741 144.444 M278.110 149.297 C 276.410 151.007,275.897 151.693,276.191 151.863 C 276.412 151.991,276.489 151.981,276.361 151.841 C 276.234 151.701,277.164 150.546,278.428 149.275 C 279.693 148.003,280.660 146.963,280.579 146.963 C 280.497 146.963,279.386 148.013,278.110 149.297 M121.868 149.572 C 122.969 150.681,123.765 151.702,123.638 151.841 C 123.511 151.981,123.588 151.991,123.808 151.863 C 124.161 151.659,120.548 147.556,120.016 147.556 C 119.934 147.556,120.768 148.463,121.868 149.572 M104.722 160.074 L 103.852 161.037 104.815 160.167 C 105.712 159.356,105.914 159.111,105.685 159.111 C 105.634 159.111,105.201 159.544,104.722 160.074 M294.222 159.204 C 294.222 159.255,294.656 159.688,295.185 160.167 L 296.148 161.037 295.278 160.074 C 294.467 159.176,294.222 158.975,294.222 159.204 M106.988 258.780 L 106.273 259.704 107.121 258.898 C 107.587 258.455,107.909 258.039,107.836 257.974 C 107.763 257.909,107.382 258.272,106.988 258.780 M293.926 260.000 C 294.811 260.896,295.602 261.630,295.683 261.630 C 295.765 261.630,295.107 260.896,294.222 260.000 C 293.337 259.104,292.546 258.370,292.465 258.370 C 292.383 258.370,293.041 259.104,293.926 260.000 M298.519 264.296 C 299.978 265.763,301.239 266.963,301.321 266.963 C 301.402 266.963,300.275 265.763,298.815 264.296 C 297.355 262.830,296.094 261.630,296.012 261.630 C 295.931 261.630,297.059 262.830,298.519 264.296 M101.030 264.519 L 98.519 267.111 101.111 264.599 C 103.519 262.266,103.839 261.926,103.623 261.926 C 103.579 261.926,102.412 263.093,101.030 264.519 M94.958 270.296 L 91.704 273.630 95.037 270.375 C 96.870 268.586,98.370 267.086,98.370 267.042 C 98.370 266.828,97.981 267.200,94.958 270.296 M304.587 270.000 C 306.295 271.752,307.729 273.185,307.772 273.185 C 307.986 273.185,307.625 272.805,304.667 269.921 L 301.481 266.815 304.587 270.000 M106.214 273.556 L 104.148 275.704 106.296 273.638 C 108.291 271.719,108.580 271.407,108.362 271.407 C 108.317 271.407,107.351 272.374,106.214 273.556 M293.481 273.481 C 294.613 274.622,295.606 275.556,295.688 275.556 C 295.769 275.556,294.910 274.622,293.778 273.481 C 292.646 272.341,291.653 271.407,291.571 271.407 C 291.490 271.407,292.349 272.341,293.481 273.481 M311.106 276.222 C 313.991 279.181,314.370 279.542,314.370 279.328 C 314.370 279.284,312.937 277.851,311.185 276.143 L 308.000 273.037 311.106 276.222 M88.143 276.815 L 84.889 280.148 88.222 276.894 C 90.056 275.104,91.556 273.604,91.556 273.561 C 91.556 273.347,91.166 273.719,88.143 276.815 M100.144 279.333 L 96.444 283.111 100.222 279.412 C 102.300 277.377,104.000 275.677,104.000 275.634 C 104.000 275.421,103.580 275.824,100.144 279.333 M298.370 278.074 C 299.748 279.459,300.942 280.593,301.024 280.593 C 301.105 280.593,300.045 279.459,298.667 278.074 C 297.289 276.689,296.095 275.556,296.013 275.556 C 295.932 275.556,296.992 276.689,298.370 278.074 M317.624 282.444 C 319.333 284.196,320.766 285.630,320.810 285.630 C 321.024 285.630,320.662 285.250,317.704 282.365 L 314.519 279.259 317.624 282.444 M81.920 282.741 L 79.259 285.481 82.000 282.821 C 84.546 280.350,84.876 280.000,84.660 280.000 C 84.616 280.000,83.383 281.233,81.920 282.741 M301.333 280.982 C 301.333 281.033,301.767 281.466,302.296 281.945 L 303.259 282.815 302.389 281.852 C 301.578 280.954,301.333 280.753,301.333 280.982 M305.778 285.185 C 307.156 286.570,308.350 287.704,308.431 287.704 C 308.513 287.704,307.452 286.570,306.074 285.185 C 304.696 283.800,303.502 282.667,303.420 282.667 C 303.339 282.667,304.400 283.800,305.778 285.185 M93.926 285.185 C 92.712 286.407,91.785 287.407,91.867 287.407 C 91.948 287.407,93.008 286.407,94.222 285.185 C 95.436 283.963,96.363 282.963,96.281 282.963 C 96.200 282.963,95.140 283.963,93.926 285.185 M324.296 288.889 C 325.756 290.356,327.017 291.556,327.099 291.556 C 327.180 291.556,326.052 290.356,324.593 288.889 C 323.133 287.422,321.872 286.222,321.790 286.222 C 321.709 286.222,322.836 287.422,324.296 288.889 M75.400 288.963 L 73.037 291.407 75.481 289.044 C 77.752 286.849,78.061 286.519,77.845 286.519 C 77.800 286.519,76.700 287.619,75.400 288.963 M313.037 292.148 C 314.497 293.615,315.758 294.815,315.839 294.815 C 315.921 294.815,314.793 293.615,313.333 292.148 C 311.873 290.681,310.612 289.481,310.531 289.481 C 310.449 289.481,311.577 290.681,313.037 292.148 M86.660 292.222 L 84.296 294.667 86.741 292.303 C 89.011 290.108,89.320 289.778,89.104 289.778 C 89.060 289.778,87.960 290.878,86.660 292.222 M69.329 294.741 L 65.926 298.222 69.407 294.820 C 72.641 291.659,73.023 291.259,72.810 291.259 C 72.767 291.259,71.200 292.826,69.329 294.741 M330.519 294.815 C 332.306 296.607,333.834 298.074,333.916 298.074 C 333.997 298.074,332.602 296.607,330.815 294.815 C 329.028 293.022,327.499 291.556,327.418 291.556 C 327.336 291.556,328.731 293.022,330.519 294.815 M81.623 296.963 L 79.259 299.407 81.704 297.044 C 83.974 294.849,84.283 294.519,84.067 294.519 C 84.023 294.519,82.923 295.619,81.623 296.963 M317.926 296.741 C 318.976 297.800,319.901 298.667,319.983 298.667 C 320.064 298.667,319.272 297.800,318.222 296.741 C 317.172 295.681,316.247 294.815,316.165 294.815 C 316.084 294.815,316.876 295.681,317.926 296.741 M122.808 296.847 C 122.966 297.123,122.077 298.235,119.965 300.402 L 116.892 303.556 120.142 300.377 C 122.840 297.737,123.322 297.134,122.985 296.821 C 122.655 296.514,122.622 296.519,122.808 296.847 M278.667 299.259 C 279.634 300.237,280.493 301.037,280.574 301.037 C 280.656 301.037,279.931 300.237,278.963 299.259 C 277.995 298.281,277.137 297.481,277.056 297.481 C 276.974 297.481,277.699 298.281,278.667 299.259 M64.137 299.630 L 62.667 301.185 64.222 299.715 C 65.078 298.906,65.778 298.206,65.778 298.159 C 65.778 297.938,65.503 298.184,64.137 299.630 M335.556 299.556 C 336.358 300.370,337.081 301.037,337.163 301.037 C 337.244 301.037,336.654 300.370,335.852 299.556 C 335.049 298.741,334.326 298.074,334.244 298.074 C 334.163 298.074,334.753 298.741,335.556 299.556 M321.469 300.222 C 322.196 300.996,322.829 301.630,322.877 301.630 C 323.099 301.630,322.864 301.364,321.556 300.136 L 320.148 298.815 321.469 300.222 M77.910 300.667 L 76.889 301.778 78.000 300.757 C 79.034 299.806,79.247 299.556,79.021 299.556 C 78.972 299.556,78.472 300.056,77.910 300.667 M74.215 304.074 L 71.852 306.519 74.296 304.155 C 76.567 301.960,76.876 301.630,76.660 301.630 C 76.615 301.630,75.515 302.730,74.215 304.074 M325.481 304.000 C 326.778 305.304,327.905 306.370,327.986 306.370 C 328.068 306.370,327.074 305.304,325.778 304.000 C 324.482 302.696,323.355 301.630,323.273 301.630 C 323.192 301.630,324.185 302.696,325.481 304.000 M285.037 305.926 C 286.415 307.311,287.609 308.444,287.691 308.444 C 287.772 308.444,286.711 307.311,285.333 305.926 C 283.955 304.541,282.761 303.407,282.680 303.407 C 282.598 303.407,283.659 304.541,285.037 305.926 M114.512 306.148 L 112.148 308.593 114.593 306.229 C 116.863 304.034,117.172 303.704,116.956 303.704 C 116.911 303.704,115.811 304.804,114.512 306.148 M140.741 305.574 C 140.741 305.625,141.174 306.059,141.704 306.537 L 142.667 307.407 141.796 306.444 C 140.985 305.547,140.741 305.345,140.741 305.574 M258.204 306.444 L 257.333 307.407 258.296 306.537 C 258.826 306.059,259.259 305.625,259.259 305.574 C 259.259 305.345,259.015 305.547,258.204 306.444 M127.391 307.185 L 126.370 308.296 127.481 307.275 C 128.516 306.325,128.729 306.074,128.503 306.074 C 128.453 306.074,127.953 306.574,127.391 307.185 M271.407 306.167 C 271.407 306.218,271.841 306.651,272.370 307.130 L 273.333 308.000 272.463 307.037 C 271.652 306.139,271.407 305.938,271.407 306.167 M142.519 307.648 C 142.519 307.699,142.952 308.133,143.481 308.611 L 144.444 309.481 143.574 308.519 C 142.763 307.621,142.519 307.419,142.519 307.648 M276.000 311.111 C 277.624 312.741,279.019 314.074,279.100 314.074 C 279.181 314.074,277.920 312.741,276.296 311.111 C 274.673 309.481,273.278 308.148,273.196 308.148 C 273.115 308.148,274.376 309.481,276.000 311.111 M123.402 311.481 L 120.444 314.519 123.481 311.561 C 126.302 308.814,126.653 308.444,126.439 308.444 C 126.395 308.444,125.028 309.811,123.402 311.481 M253.630 311.556 C 252.416 312.778,251.489 313.778,251.570 313.778 C 251.652 313.778,252.712 312.778,253.926 311.556 C 255.140 310.333,256.067 309.333,255.985 309.333 C 255.904 309.333,254.844 310.333,253.630 311.556 M145.469 310.889 C 146.196 311.663,146.829 312.296,146.877 312.296 C 147.099 312.296,146.864 312.030,145.556 310.802 L 144.148 309.481 145.469 310.889 M291.852 313.037 C 293.230 314.422,294.424 315.556,294.505 315.556 C 294.587 315.556,293.526 314.422,292.148 313.037 C 290.770 311.652,289.576 310.519,289.495 310.519 C 289.413 310.519,290.474 311.652,291.852 313.037 M107.549 313.407 L 105.037 316.000 107.630 313.488 C 110.038 311.155,110.357 310.815,110.142 310.815 C 110.097 310.815,108.931 311.981,107.549 313.407 M134.222 313.574 C 134.222 313.625,134.656 314.059,135.185 314.537 L 136.148 315.407 135.278 314.444 C 134.467 313.547,134.222 313.345,134.222 313.574 M264.722 314.444 L 263.852 315.407 264.815 314.537 C 265.344 314.059,265.778 313.625,265.778 313.574 C 265.778 313.345,265.533 313.547,264.722 314.444 M282.069 317.407 C 283.777 319.159,285.210 320.593,285.254 320.593 C 285.468 320.593,285.107 320.213,282.148 317.328 L 278.963 314.222 282.069 317.407 M117.476 317.704 L 114.519 320.741 117.556 317.783 C 120.376 315.036,120.727 314.667,120.513 314.667 C 120.469 314.667,119.102 316.033,117.476 317.704 M151.111 316.593 C 151.996 317.489,152.787 318.222,152.869 318.222 C 152.950 318.222,152.293 317.489,151.407 316.593 C 150.522 315.696,149.731 314.963,149.650 314.963 C 149.568 314.963,150.226 315.696,151.111 316.593 M248.582 316.667 L 246.963 318.370 248.667 316.751 C 249.604 315.860,250.370 315.093,250.370 315.047 C 250.370 314.827,250.087 315.084,248.582 316.667 M137.481 317.185 C 138.367 318.081,139.158 318.815,139.239 318.815 C 139.320 318.815,138.663 318.081,137.778 317.185 C 136.893 316.289,136.102 315.556,136.020 315.556 C 135.939 315.556,136.596 316.289,137.481 317.185 M262.212 317.259 L 260.593 318.963 262.296 317.343 C 263.233 316.453,264.000 315.686,264.000 315.640 C 264.000 315.420,263.717 315.676,262.212 317.259 M296.444 317.926 C 297.576 319.067,298.569 320.000,298.651 320.000 C 298.732 320.000,297.873 319.067,296.741 317.926 C 295.609 316.785,294.616 315.852,294.534 315.852 C 294.453 315.852,295.312 316.785,296.444 317.926 M102.069 319.185 L 99.111 322.222 102.148 319.265 C 104.969 316.518,105.320 316.148,105.106 316.148 C 105.062 316.148,103.695 317.515,102.069 319.185 M153.185 318.315 C 153.185 318.366,153.619 318.799,154.148 319.278 L 155.111 320.148 154.241 319.185 C 153.430 318.288,153.185 318.086,153.185 318.315 M245.759 319.185 L 244.889 320.148 245.852 319.278 C 246.381 318.799,246.815 318.366,246.815 318.315 C 246.815 318.086,246.570 318.288,245.759 319.185 M141.185 321.185 C 142.317 322.326,143.310 323.259,143.392 323.259 C 143.473 323.259,142.613 322.326,141.481 321.185 C 140.349 320.044,139.357 319.111,139.275 319.111 C 139.194 319.111,140.053 320.044,141.185 321.185 M258.658 321.111 L 256.741 323.111 258.741 321.194 C 260.598 319.413,260.876 319.111,260.658 319.111 C 260.613 319.111,259.713 320.011,258.658 321.111 M300.136 321.556 C 301.364 322.864,301.630 323.099,301.630 322.877 C 301.630 322.829,300.996 322.196,300.222 321.469 L 298.815 320.148 300.136 321.556 M111.105 324.370 L 108.593 326.963 111.185 324.451 C 113.593 322.118,113.913 321.778,113.697 321.778 C 113.653 321.778,112.486 322.944,111.105 324.370 M288.593 324.296 C 289.971 325.681,291.165 326.815,291.246 326.815 C 291.328 326.815,290.267 325.681,288.889 324.296 C 287.511 322.911,286.317 321.778,286.235 321.778 C 286.154 321.778,287.215 322.911,288.593 324.296 M95.993 325.556 L 93.481 328.148 96.074 325.636 C 98.482 323.303,98.802 322.963,98.586 322.963 C 98.542 322.963,97.375 324.130,95.993 325.556 M303.852 325.630 C 305.148 326.933,306.275 328.000,306.356 328.000 C 306.438 328.000,305.444 326.933,304.148 325.630 C 302.852 324.326,301.725 323.259,301.644 323.259 C 301.562 323.259,302.556 324.326,303.852 325.630 M254.055 325.407 L 253.185 326.370 254.148 325.500 C 255.046 324.689,255.247 324.444,255.018 324.444 C 254.967 324.444,254.534 324.878,254.055 325.407 M147.852 327.259 C 148.405 327.830,148.924 328.296,149.005 328.296 C 149.087 328.296,148.701 327.830,148.148 327.259 C 147.595 326.689,147.076 326.222,146.995 326.222 C 146.913 326.222,147.299 326.689,147.852 327.259 M251.836 327.333 L 250.815 328.444 251.926 327.423 C 252.960 326.473,253.173 326.222,252.947 326.222 C 252.897 326.222,252.397 326.722,251.836 327.333 M105.180 330.593 L 101.778 334.074 105.259 330.671 C 107.174 328.800,108.741 327.233,108.741 327.190 C 108.741 326.977,108.341 327.359,105.180 330.593 M294.519 330.519 C 296.387 332.393,297.983 333.926,298.064 333.926 C 298.146 333.926,296.684 332.393,294.815 330.519 C 292.946 328.644,291.350 327.111,291.269 327.111 C 291.187 327.111,292.650 328.644,294.519 330.519 M100.285 335.778 L 98.815 337.333 100.370 335.863 C 101.816 334.497,102.062 334.222,101.841 334.222 C 101.794 334.222,101.094 334.922,100.285 335.778 M299.407 335.704 C 300.210 336.519,300.933 337.185,301.015 337.185 C 301.096 337.185,300.506 336.519,299.704 335.704 C 298.901 334.889,298.178 334.222,298.096 334.222 C 298.015 334.222,298.605 334.889,299.407 335.704 " stroke="none" fill="#f5af19" fill-rule="evenodd"></path><path id="path1" d="" stroke="none" fill="#f7b019" fill-rule="evenodd"></path><path id="path2" d="M62.667 50.511 C 46.456 54.070,45.879 77.600,61.909 81.416 L 64.052 81.926 67.378 85.481 C 70.868 89.213,93.769 114.442,94.495 115.356 C 94.879 115.840,94.227 116.575,86.865 123.955 C 78.277 132.563,78.593 132.142,78.750 134.815 C 78.852 136.548,79.386 137.269,84.097 142.023 C 89.671 147.649,89.960 147.852,92.400 147.852 C 94.325 147.852,93.939 148.056,99.744 143.976 C 101.233 142.930,104.159 140.883,106.246 139.428 L 110.041 136.781 113.020 139.924 C 114.659 141.653,117.853 145.013,120.117 147.392 C 122.381 149.771,124.181 151.765,124.117 151.824 C 123.960 151.968,115.297 155.556,115.106 155.556 C 114.544 155.556,105.499 159.588,104.972 160.073 C 104.019 160.951,103.771 161.980,103.270 167.111 C 100.229 198.260,101.522 229.441,106.850 253.459 L 107.897 258.177 105.723 260.274 C 104.527 261.427,99.217 266.497,93.923 271.540 C 75.726 288.874,73.055 291.419,68.163 296.093 C 62.421 301.579,63.037 300.582,60.895 307.852 C 59.958 311.030,58.340 316.496,57.299 320.000 C 54.703 328.736,52.080 337.590,50.953 341.421 C 49.464 346.477,50.464 349.252,53.961 349.776 C 55.537 350.013,53.385 350.599,80.593 342.525 C 83.770 341.582,88.970 340.043,92.148 339.106 C 99.424 336.960,98.405 337.595,104.036 331.704 C 113.585 321.714,119.682 315.322,124.103 310.667 C 126.579 308.059,128.696 305.993,128.808 306.074 C 128.920 306.156,130.370 308.022,132.029 310.222 C 134.719 313.788,141.377 321.283,143.609 323.258 C 159.548 337.367,174.779 345.356,192.148 348.718 C 199.812 350.202,200.363 350.196,208.691 348.555 C 215.218 347.269,224.416 344.136,230.074 341.270 C 231.052 340.775,232.519 340.031,233.333 339.616 C 246.441 332.948,259.127 322.106,268.454 309.601 C 269.906 307.654,271.158 306.031,271.236 305.994 C 271.315 305.956,273.342 307.993,275.741 310.519 C 278.141 313.044,282.590 317.711,285.627 320.889 C 288.665 324.067,293.317 328.933,295.965 331.704 C 301.595 337.595,300.576 336.960,307.852 339.106 C 311.030 340.043,316.296 341.602,319.556 342.570 C 322.815 343.538,328.415 345.199,332.000 346.262 C 335.585 347.324,339.652 348.540,341.037 348.963 C 348.347 351.198,351.151 348.562,349.049 341.430 C 348.098 338.203,345.701 330.111,342.525 319.407 C 341.582 316.230,340.043 311.030,339.106 307.852 C 336.963 300.584,337.556 301.553,331.991 296.239 C 310.770 275.978,301.374 267.019,297.111 262.980 C 294.381 260.393,292.148 258.191,292.148 258.086 C 292.148 257.981,292.550 256.145,293.041 254.006 C 298.422 230.562,299.787 198.423,296.730 167.111 C 296.229 161.980,295.981 160.951,295.028 160.073 C 294.501 159.588,285.456 155.556,284.894 155.556 C 284.696 155.556,276.036 151.965,275.875 151.816 C 275.806 151.752,276.809 150.601,278.103 149.258 C 279.398 147.914,282.583 144.578,285.182 141.845 C 287.781 139.112,290.070 136.938,290.270 137.014 C 290.469 137.091,291.540 137.803,292.649 138.598 C 306.708 148.664,307.275 148.951,310.163 147.431 C 311.412 146.773,320.821 137.128,321.025 136.296 C 321.911 132.683,322.034 132.876,313.135 123.955 C 305.753 116.555,305.120 115.841,305.505 115.350 C 305.737 115.056,309.186 111.215,313.171 106.815 C 317.156 102.415,321.622 97.481,323.095 95.852 C 326.188 92.430,332.478 85.571,334.509 83.405 C 335.693 82.142,336.152 81.868,337.590 81.567 C 349.721 79.022,354.067 63.114,344.989 54.490 C 336.246 46.184,321.460 50.352,318.563 61.940 L 318.011 64.148 312.555 69.185 C 304.896 76.257,285.709 93.664,284.827 94.341 L 284.093 94.904 276.139 86.954 L 268.184 79.003 266.399 78.874 C 263.526 78.666,263.343 78.780,257.977 84.097 C 251.459 90.554,250.784 92.156,253.125 95.600 C 254.204 97.188,261.678 107.815,262.632 109.119 L 263.235 109.943 261.914 111.220 C 261.187 111.923,258.859 114.152,256.739 116.175 C 254.620 118.197,249.954 122.655,246.369 126.081 C 242.785 129.507,238.909 133.206,237.756 134.301 L 235.661 136.292 230.942 134.538 C 214.284 128.348,203.512 125.041,200.000 125.041 C 196.509 125.041,184.705 128.692,168.351 134.828 L 164.406 136.309 161.943 134.006 C 159.652 131.864,142.962 115.945,138.694 111.831 L 136.796 110.001 139.454 106.186 C 140.917 104.087,143.097 100.970,144.301 99.259 C 148.050 93.929,147.852 94.311,147.852 92.388 C 147.852 89.972,147.637 89.664,142.168 84.254 C 136.614 78.760,136.697 78.815,134.032 78.815 L 132.025 78.815 123.955 86.865 C 116.571 94.231,115.840 94.880,115.350 94.499 C 114.727 94.015,112.857 92.321,97.520 78.354 C 91.267 72.659,85.412 67.358,84.510 66.573 C 82.274 64.628,81.909 64.103,81.515 62.257 C 79.762 54.049,71.111 48.658,62.667 50.511 M67.597 59.899 C 72.805 61.460,73.836 68.315,69.314 71.307 C 63.970 74.844,57.124 68.126,60.691 62.846 C 62.480 60.198,65.003 59.122,67.597 59.899 M335.556 59.882 C 338.463 60.675,340.882 64.542,340.167 67.254 C 338.719 72.750,331.790 73.994,328.692 69.313 C 325.679 64.760,330.277 58.443,335.556 59.882 M83.198 78.741 C 85.269 80.656,88.026 83.156,89.325 84.296 C 90.624 85.437,93.628 88.170,95.999 90.370 C 98.371 92.570,101.418 95.345,102.771 96.537 C 104.124 97.729,106.025 99.462,106.996 100.389 L 108.761 102.074 105.388 105.433 L 102.014 108.791 99.486 106.025 C 98.096 104.504,94.710 100.800,91.961 97.795 C 89.212 94.790,85.835 91.057,84.457 89.499 C 83.079 87.941,80.440 85.043,78.594 83.058 L 75.237 79.449 77.248 77.383 C 78.354 76.246,79.299 75.304,79.347 75.288 C 79.395 75.272,81.128 76.826,83.198 78.741 M322.658 77.346 L 324.745 79.432 320.621 83.938 C 315.921 89.073,311.322 94.118,303.455 102.764 L 297.975 108.786 294.543 105.349 C 292.374 103.177,291.235 101.833,291.449 101.697 C 291.635 101.578,292.968 100.400,294.412 99.078 C 295.856 97.755,298.735 95.136,300.809 93.257 C 302.884 91.378,306.400 88.193,308.624 86.180 C 310.847 84.166,314.416 80.891,316.555 78.903 C 318.694 76.914,320.473 75.281,320.508 75.273 C 320.543 75.266,321.511 76.198,322.658 77.346 M135.228 95.078 C 134.338 96.319,133.011 98.200,132.281 99.259 C 131.550 100.319,130.199 102.252,129.279 103.556 C 123.943 111.114,121.837 114.115,120.761 115.693 C 119.166 118.032,117.908 119.267,115.407 120.950 C 114.266 121.718,111.533 123.625,109.333 125.190 C 107.133 126.755,104.467 128.636,103.407 129.372 C 100.967 131.066,98.109 133.079,95.526 134.922 C 92.832 136.843,92.869 136.838,91.528 135.529 L 90.357 134.385 112.358 112.383 L 134.359 90.381 135.603 91.602 L 136.848 92.824 135.228 95.078 M308.527 135.475 C 307.159 136.876,307.229 136.883,304.741 135.109 C 303.600 134.295,301.800 133.029,300.741 132.295 C 299.681 131.562,298.018 130.395,297.044 129.703 C 296.069 129.011,292.869 126.750,289.933 124.679 C 286.996 122.608,283.880 120.409,283.010 119.793 C 281.550 118.758,280.436 117.477,278.519 114.625 C 277.787 113.537,274.314 108.598,270.839 103.704 C 269.856 102.319,268.452 100.319,267.719 99.259 C 266.986 98.200,265.718 96.400,264.900 95.259 C 263.119 92.776,263.132 92.900,264.511 91.487 L 265.615 90.357 287.616 112.357 L 309.618 134.357 308.527 135.475 M138.222 125.040 C 140.341 127.076,144.708 131.256,147.926 134.329 C 151.145 137.403,153.778 140.003,153.777 140.107 C 153.777 140.211,151.410 141.210,148.518 142.326 C 145.626 143.442,141.231 145.162,138.751 146.148 L 134.243 147.941 131.492 145.014 C 129.979 143.404,126.381 139.626,123.498 136.619 C 120.614 133.611,118.317 131.049,118.393 130.926 C 118.469 130.803,119.962 129.708,121.710 128.494 C 125.259 126.028,126.093 125.216,128.155 122.222 C 128.940 121.081,129.910 119.702,130.310 119.157 L 131.036 118.165 132.703 119.753 C 133.620 120.626,136.104 123.005,138.222 125.040 M271.506 121.710 C 274.087 125.425,274.682 126.012,278.771 128.881 L 281.838 131.033 280.249 132.702 C 279.375 133.619,276.990 136.104,274.948 138.222 C 272.907 140.341,270.008 143.390,268.505 144.999 L 265.774 147.923 261.109 146.096 C 258.544 145.091,254.148 143.375,251.342 142.282 C 248.535 141.190,246.235 140.207,246.231 140.097 C 246.223 139.911,248.787 137.427,263.240 123.616 C 266.325 120.667,268.951 118.317,269.074 118.393 C 269.197 118.469,270.292 119.962,271.506 121.710 M202.856 135.234 C 204.300 135.628,206.281 136.174,207.259 136.447 C 210.427 137.334,225.876 142.924,234.667 146.366 C 240.194 148.529,245.868 150.745,252.593 153.367 C 260.930 156.617,270.666 160.443,281.547 164.746 C 287.645 167.158,287.041 166.442,287.546 171.852 C 289.443 192.154,289.225 214.109,286.942 232.889 C 280.402 286.692,253.735 324.650,213.630 337.245 C 202.725 340.669,200.105 340.855,191.852 338.793 C 161.084 331.106,136.589 308.283,123.433 275.046 C 112.623 247.736,108.768 211.492,112.456 171.852 C 112.960 166.434,112.362 167.141,118.466 164.751 C 121.021 163.751,124.378 162.410,125.926 161.770 C 127.474 161.130,129.674 160.260,130.815 159.838 C 131.956 159.415,135.022 158.225,137.630 157.194 C 140.237 156.163,144.170 154.621,146.370 153.768 C 148.570 152.915,152.504 151.382,155.111 150.362 C 176.322 142.062,187.156 138.102,194.815 135.850 C 200.085 134.300,199.574 134.340,202.856 135.234 M112.263 272.816 C 114.571 279.519,115.931 282.672,120.142 291.074 L 123.241 297.260 117.993 302.778 C 115.106 305.813,111.135 309.963,109.168 312.000 C 107.201 314.037,102.801 318.636,99.389 322.220 L 93.185 328.736 90.074 329.660 C 88.363 330.168,84.230 331.391,80.889 332.377 C 77.548 333.364,72.037 334.993,68.641 335.998 C 65.245 337.003,62.401 337.759,62.321 337.679 C 62.241 337.599,62.997 334.755,64.002 331.359 C 65.007 327.963,66.636 322.452,67.623 319.111 C 68.609 315.770,69.832 311.636,70.339 309.925 L 71.262 306.812 74.372 303.863 C 76.082 302.241,78.948 299.502,80.741 297.776 C 88.297 290.503,92.453 286.535,100.293 279.111 C 104.853 274.793,109.047 270.759,109.614 270.148 C 110.964 268.692,110.779 268.506,112.263 272.816 M290.284 270.025 C 290.413 270.239,291.785 271.597,293.333 273.044 C 296.396 275.906,306.171 285.222,311.847 290.688 C 313.805 292.574,316.535 295.174,317.913 296.466 C 319.292 297.758,320.825 299.236,321.321 299.751 C 321.817 300.265,323.689 302.062,325.481 303.743 L 328.741 306.799 329.522 309.474 C 329.952 310.945,331.395 315.815,332.729 320.296 C 336.950 334.472,337.822 337.536,337.675 337.683 C 337.597 337.761,334.755 337.003,331.359 335.998 C 327.963 334.993,322.452 333.364,319.111 332.377 C 315.770 331.391,311.632 330.167,309.914 329.658 L 306.791 328.732 303.739 325.477 C 302.060 323.687,300.265 321.816,299.751 321.319 C 299.236 320.823,297.685 319.223,296.304 317.764 C 291.575 312.767,282.519 303.266,281.630 302.369 C 281.141 301.876,279.835 300.524,278.727 299.365 L 276.713 297.257 278.651 293.614 C 279.717 291.610,281.199 288.627,281.945 286.985 C 282.690 285.343,283.416 283.783,283.557 283.517 C 284.160 282.380,286.530 276.303,287.723 272.838 C 289.049 268.984,289.412 268.585,290.284 270.025 " stroke="none" fill="#f8b119" fill-rule="evenodd"></path><path id="path3" d="M65.259 49.990 C 65.707 50.058,66.441 50.058,66.889 49.990 C 67.337 49.922,66.970 49.867,66.074 49.867 C 65.178 49.867,64.811 49.922,65.259 49.990 M333.111 49.990 C 333.559 50.058,334.293 50.058,334.741 49.990 C 335.189 49.922,334.822 49.867,333.926 49.867 C 333.030 49.867,332.663 49.922,333.111 49.990 M65.556 59.760 C 65.841 59.834,66.307 59.834,66.593 59.760 C 66.878 59.685,66.644 59.624,66.074 59.624 C 65.504 59.624,65.270 59.685,65.556 59.760 M333.407 59.760 C 333.693 59.834,334.159 59.834,334.444 59.760 C 334.730 59.685,334.496 59.624,333.926 59.624 C 333.356 59.624,333.122 59.685,333.407 59.760 M49.867 66.074 C 49.867 66.970,49.922 67.337,49.990 66.889 C 50.058 66.441,50.058 65.707,49.990 65.259 C 49.922 64.811,49.867 65.178,49.867 66.074 M72.089 66.074 C 72.089 66.970,72.144 67.337,72.212 66.889 C 72.280 66.441,72.280 65.707,72.212 65.259 C 72.144 64.811,72.089 65.178,72.089 66.074 M327.792 66.074 C 327.792 66.970,327.848 67.337,327.916 66.889 C 327.984 66.441,327.984 65.707,327.916 65.259 C 327.848 64.811,327.792 65.178,327.792 66.074 M350.015 66.074 C 350.015 66.970,350.070 67.337,350.138 66.889 C 350.206 66.441,350.206 65.707,350.138 65.259 C 350.070 64.811,350.015 65.178,350.015 66.074 M59.624 66.074 C 59.624 66.644,59.685 66.878,59.760 66.593 C 59.834 66.307,59.834 65.841,59.760 65.556 C 59.685 65.270,59.624 65.504,59.624 66.074 M340.217 66.074 C 340.217 66.644,340.278 66.878,340.352 66.593 C 340.427 66.307,340.427 65.841,340.352 65.556 C 340.278 65.270,340.217 65.504,340.217 66.074 M65.259 72.212 C 65.707 72.280,66.441 72.280,66.889 72.212 C 67.337 72.144,66.970 72.089,66.074 72.089 C 65.178 72.089,64.811 72.144,65.259 72.212 M333.111 72.212 C 333.559 72.280,334.293 72.280,334.741 72.212 C 335.189 72.144,334.822 72.089,333.926 72.089 C 333.030 72.089,332.663 72.144,333.111 72.212 M133.259 78.733 C 133.789 78.799,134.656 78.799,135.185 78.733 C 135.715 78.667,135.281 78.613,134.222 78.613 C 133.163 78.613,132.730 78.667,133.259 78.733 M264.820 78.733 C 265.353 78.799,266.153 78.798,266.598 78.730 C 267.043 78.663,266.607 78.609,265.630 78.610 C 264.652 78.612,264.288 78.667,264.820 78.733 M147.944 92.296 C 147.945 93.274,148.001 93.638,148.067 93.106 C 148.133 92.573,148.131 91.773,148.064 91.328 C 147.996 90.883,147.942 91.319,147.944 92.296 M251.944 92.296 C 251.945 93.274,252.001 93.638,252.067 93.106 C 252.133 92.573,252.131 91.773,252.064 91.328 C 251.996 90.883,251.942 91.319,251.944 92.296 M199.037 124.955 C 199.567 125.021,200.433 125.021,200.963 124.955 C 201.493 124.889,201.059 124.836,200.000 124.836 C 198.941 124.836,198.507 124.889,199.037 124.955 M91.487 148.067 C 92.019 148.133,92.819 148.131,93.265 148.064 C 93.710 147.996,93.274 147.942,92.296 147.944 C 91.319 147.945,90.954 148.001,91.487 148.067 M306.894 148.067 C 307.427 148.133,308.227 148.131,308.672 148.064 C 309.117 147.996,308.681 147.942,307.704 147.944 C 306.726 147.945,306.362 148.001,306.894 148.067 M103.476 163.259 C 103.476 163.830,103.537 164.063,103.612 163.778 C 103.686 163.493,103.686 163.026,103.612 162.741 C 103.537 162.456,103.476 162.689,103.476 163.259 M296.365 163.259 C 296.365 163.830,296.426 164.063,296.501 163.778 C 296.575 163.493,296.575 163.026,296.501 162.741 C 296.426 162.456,296.365 162.689,296.365 163.259 M103.196 165.778 C 103.198 166.593,103.256 166.891,103.324 166.440 C 103.392 165.990,103.390 165.323,103.320 164.959 C 103.249 164.594,103.194 164.963,103.196 165.778 M296.677 165.778 C 296.680 166.593,296.737 166.891,296.805 166.440 C 296.873 165.990,296.871 165.323,296.801 164.959 C 296.731 164.594,296.675 164.963,296.677 165.778 M102.904 168.889 C 102.904 169.785,102.959 170.152,103.027 169.704 C 103.095 169.256,103.095 168.522,103.027 168.074 C 102.959 167.626,102.904 167.993,102.904 168.889 M296.978 168.889 C 296.978 169.785,297.033 170.152,297.101 169.704 C 297.169 169.256,297.169 168.522,297.101 168.074 C 297.033 167.626,296.978 167.993,296.978 168.889 M112.681 170.074 C 112.681 170.970,112.737 171.337,112.805 170.889 C 112.873 170.441,112.873 169.707,112.805 169.259 C 112.737 168.811,112.681 169.178,112.681 170.074 M287.200 170.074 C 287.200 170.970,287.255 171.337,287.323 170.889 C 287.391 170.441,287.391 169.707,287.323 169.259 C 287.255 168.811,287.200 169.178,287.200 170.074 M102.610 172.296 C 102.612 173.274,102.667 173.638,102.733 173.106 C 102.799 172.573,102.798 171.773,102.730 171.328 C 102.663 170.883,102.609 171.319,102.610 172.296 M297.277 172.296 C 297.279 173.274,297.334 173.638,297.400 173.106 C 297.466 172.573,297.465 171.773,297.397 171.328 C 297.329 170.883,297.275 171.319,297.277 172.296 M112.385 173.333 C 112.385 174.230,112.441 174.596,112.509 174.148 C 112.576 173.700,112.576 172.967,112.509 172.519 C 112.441 172.070,112.385 172.437,112.385 173.333 M287.496 173.333 C 287.496 174.230,287.552 174.596,287.620 174.148 C 287.688 173.700,287.688 172.967,287.620 172.519 C 287.552 172.070,287.496 172.437,287.496 173.333 M102.319 176.148 C 102.321 177.289,102.374 177.719,102.438 177.105 C 102.503 176.490,102.502 175.556,102.436 175.030 C 102.371 174.504,102.318 175.007,102.319 176.148 M297.579 176.148 C 297.580 177.289,297.634 177.719,297.698 177.105 C 297.762 176.490,297.761 175.556,297.695 175.030 C 297.630 174.504,297.577 175.007,297.579 176.148 M112.097 177.037 C 112.099 178.178,112.152 178.608,112.216 177.993 C 112.280 177.379,112.279 176.445,112.214 175.919 C 112.148 175.393,112.096 175.896,112.097 177.037 M287.801 177.037 C 287.802 178.178,287.856 178.608,287.920 177.993 C 287.984 177.379,287.983 176.445,287.918 175.919 C 287.852 175.393,287.800 175.896,287.801 177.037 M102.027 180.593 C 102.029 181.896,102.081 182.393,102.143 181.696 C 102.206 180.999,102.205 179.932,102.141 179.326 C 102.078 178.719,102.026 179.289,102.027 180.593 M297.879 180.593 C 297.880 181.896,297.933 182.393,297.995 181.696 C 298.058 180.999,298.057 179.932,297.993 179.326 C 297.929 178.719,297.878 179.289,297.879 180.593 M111.799 181.037 C 111.799 182.096,111.852 182.530,111.918 182.000 C 111.984 181.470,111.984 180.604,111.918 180.074 C 111.852 179.544,111.799 179.978,111.799 181.037 M288.104 181.630 C 288.104 183.015,288.155 183.581,288.217 182.889 C 288.279 182.196,288.279 181.063,288.217 180.370 C 288.155 179.678,288.104 180.244,288.104 181.630 M101.746 186.963 C 101.746 189.163,101.792 190.063,101.849 188.963 C 101.906 187.863,101.906 186.063,101.849 184.963 C 101.792 183.863,101.746 184.763,101.746 186.963 M298.189 186.815 C 298.190 188.933,298.237 189.761,298.294 188.654 C 298.351 187.548,298.351 185.814,298.293 184.802 C 298.235 183.791,298.189 184.696,298.189 186.815 M111.519 187.556 C 111.519 189.430,111.568 190.196,111.626 189.259 C 111.685 188.322,111.685 186.789,111.626 185.852 C 111.568 184.915,111.519 185.681,111.519 187.556 M288.408 187.556 C 288.408 189.430,288.456 190.196,288.515 189.259 C 288.574 188.322,288.574 186.789,288.515 185.852 C 288.456 184.915,288.408 185.681,288.408 187.556 M111.244 200.741 C 111.244 206.119,111.284 208.360,111.333 205.723 C 111.382 203.085,111.382 198.685,111.333 195.945 C 111.284 193.205,111.244 195.363,111.244 200.741 M288.725 200.889 C 288.725 206.348,288.765 208.581,288.814 205.852 C 288.863 203.122,288.863 198.656,288.814 195.926 C 288.765 193.196,288.725 195.430,288.725 200.889 M298.503 200.741 C 298.503 205.956,298.543 208.047,298.592 205.389 C 298.641 202.730,298.641 198.464,298.592 195.907 C 298.543 193.351,298.502 195.526,298.503 200.741 M101.464 201.481 C 101.464 206.289,101.505 208.256,101.555 205.852 C 101.605 203.448,101.605 199.515,101.555 197.111 C 101.505 194.707,101.464 196.674,101.464 201.481 M101.744 213.926 C 101.744 215.963,101.791 216.796,101.849 215.778 C 101.907 214.759,101.907 213.093,101.849 212.074 C 101.791 211.056,101.744 211.889,101.744 213.926 M298.188 213.926 C 298.188 215.963,298.236 216.796,298.293 215.778 C 298.351 214.759,298.351 213.093,298.293 212.074 C 298.236 211.056,298.188 211.889,298.188 213.926 M111.518 213.778 C 111.519 215.570,111.568 216.266,111.627 215.323 C 111.686 214.380,111.685 212.913,111.625 212.063 C 111.566 211.214,111.518 211.985,111.518 213.778 M288.406 213.926 C 288.406 215.637,288.455 216.337,288.515 215.481 C 288.575 214.626,288.575 213.226,288.515 212.370 C 288.455 211.515,288.406 212.215,288.406 213.926 M111.803 219.259 C 111.803 220.481,111.856 220.981,111.920 220.370 C 111.983 219.759,111.983 218.759,111.920 218.148 C 111.856 217.537,111.803 218.037,111.803 219.259 M288.097 219.111 C 288.099 220.252,288.152 220.682,288.216 220.067 C 288.280 219.453,288.279 218.519,288.214 217.993 C 288.148 217.467,288.096 217.970,288.097 219.111 M102.026 219.852 C 102.026 221.074,102.078 221.574,102.142 220.963 C 102.206 220.352,102.206 219.352,102.142 218.741 C 102.078 218.130,102.026 218.630,102.026 219.852 M297.877 219.852 C 297.877 221.074,297.930 221.574,297.994 220.963 C 298.058 220.352,298.058 219.352,297.994 218.741 C 297.930 218.130,297.877 218.630,297.877 219.852 M102.314 223.852 C 102.316 224.830,102.371 225.194,102.437 224.661 C 102.503 224.129,102.502 223.329,102.434 222.884 C 102.366 222.438,102.312 222.874,102.314 223.852 M112.081 223.407 C 112.081 224.141,112.138 224.441,112.209 224.074 C 112.280 223.707,112.280 223.107,112.209 222.741 C 112.138 222.374,112.081 222.674,112.081 223.407 M297.573 223.852 C 297.575 224.830,297.630 225.194,297.696 224.661 C 297.762 224.129,297.761 223.329,297.693 222.884 C 297.626 222.438,297.572 222.874,297.573 223.852 M287.778 223.556 C 287.782 224.207,287.842 224.439,287.913 224.071 C 287.984 223.702,287.981 223.169,287.907 222.885 C 287.833 222.602,287.775 222.904,287.778 223.556 M112.381 226.222 C 112.383 227.037,112.441 227.335,112.509 226.885 C 112.577 226.434,112.575 225.768,112.505 225.403 C 112.435 225.039,112.379 225.407,112.381 226.222 M287.496 226.370 C 287.496 227.267,287.552 227.633,287.620 227.185 C 287.688 226.737,287.688 226.004,287.620 225.556 C 287.552 225.107,287.496 225.474,287.496 226.370 M102.603 227.111 C 102.605 227.926,102.663 228.224,102.731 227.774 C 102.799 227.323,102.797 226.657,102.727 226.292 C 102.657 225.928,102.601 226.296,102.603 227.111 M297.274 227.259 C 297.274 228.156,297.330 228.522,297.397 228.074 C 297.465 227.626,297.465 226.893,297.397 226.444 C 297.330 225.996,297.274 226.363,297.274 227.259 M112.677 229.185 C 112.680 230.000,112.737 230.298,112.805 229.848 C 112.873 229.397,112.871 228.731,112.801 228.366 C 112.731 228.002,112.675 228.370,112.677 229.185 M287.186 229.185 C 287.189 229.837,287.250 230.069,287.321 229.700 C 287.392 229.332,287.389 228.798,287.315 228.515 C 287.241 228.232,287.183 228.533,287.186 229.185 M102.900 230.074 C 102.902 230.889,102.959 231.187,103.027 230.737 C 103.096 230.286,103.094 229.620,103.023 229.255 C 102.953 228.891,102.897 229.259,102.900 230.074 M296.970 230.222 C 296.970 230.956,297.027 231.256,297.098 230.889 C 297.169 230.522,297.169 229.922,297.098 229.556 C 297.027 229.189,296.970 229.489,296.970 230.222 M286.896 231.704 C 286.896 232.437,286.953 232.737,287.024 232.370 C 287.095 232.004,287.095 231.404,287.024 231.037 C 286.953 230.670,286.896 230.970,286.896 231.704 M112.964 231.852 C 112.967 232.504,113.028 232.735,113.098 232.367 C 113.169 231.998,113.167 231.465,113.092 231.182 C 113.018 230.898,112.960 231.200,112.964 231.852 M103.186 232.741 C 103.189 233.393,103.250 233.624,103.321 233.256 C 103.392 232.887,103.389 232.354,103.315 232.071 C 103.241 231.787,103.183 232.089,103.186 232.741 M296.667 232.741 C 296.671 233.393,296.731 233.624,296.802 233.256 C 296.873 232.887,296.870 232.354,296.796 232.071 C 296.722 231.787,296.664 232.089,296.667 232.741 M113.260 234.222 C 113.263 234.874,113.324 235.106,113.395 234.737 C 113.466 234.369,113.463 233.835,113.389 233.552 C 113.315 233.269,113.257 233.570,113.260 234.222 M286.593 234.222 C 286.597 234.874,286.657 235.106,286.728 234.737 C 286.799 234.369,286.796 233.835,286.722 233.552 C 286.648 233.269,286.590 233.570,286.593 234.222 M103.476 234.963 C 103.476 235.533,103.537 235.767,103.612 235.481 C 103.686 235.196,103.686 234.730,103.612 234.444 C 103.537 234.159,103.476 234.393,103.476 234.963 M296.365 234.963 C 296.365 235.533,296.426 235.767,296.501 235.481 C 296.575 235.196,296.575 234.730,296.501 234.444 C 296.426 234.159,296.365 234.393,296.365 234.963 M113.556 236.593 C 113.559 237.244,113.620 237.476,113.691 237.108 C 113.762 236.739,113.759 236.206,113.685 235.922 C 113.611 235.639,113.553 235.941,113.556 236.593 M286.297 236.593 C 286.300 237.244,286.361 237.476,286.432 237.108 C 286.503 236.739,286.500 236.206,286.426 235.922 C 286.352 235.639,286.294 235.941,286.297 236.593 M103.772 237.037 C 103.772 237.607,103.833 237.841,103.908 237.556 C 103.982 237.270,103.982 236.804,103.908 236.519 C 103.833 236.233,103.772 236.467,103.772 237.037 M296.075 237.185 C 296.078 237.837,296.139 238.069,296.210 237.700 C 296.280 237.332,296.278 236.798,296.204 236.515 C 296.129 236.232,296.071 236.533,296.075 237.185 M113.847 238.815 C 113.847 239.385,113.907 239.619,113.982 239.333 C 114.057 239.048,114.057 238.581,113.982 238.296 C 113.907 238.011,113.847 238.244,113.847 238.815 M285.995 238.815 C 285.995 239.385,286.056 239.619,286.130 239.333 C 286.205 239.048,286.205 238.581,286.130 238.296 C 286.056 238.011,285.995 238.244,285.995 238.815 M104.069 239.111 C 104.069 239.681,104.130 239.915,104.204 239.630 C 104.279 239.344,104.279 238.878,104.204 238.593 C 104.130 238.307,104.069 238.541,104.069 239.111 M285.402 242.370 C 285.402 242.941,285.463 243.174,285.538 242.889 C 285.612 242.604,285.612 242.137,285.538 241.852 C 285.463 241.567,285.402 241.800,285.402 242.370 M295.180 242.963 C 295.180 243.533,295.241 243.767,295.315 243.481 C 295.390 243.196,295.390 242.730,295.315 242.444 C 295.241 242.159,295.180 242.393,295.180 242.963 M105.254 246.519 C 105.254 247.089,105.315 247.322,105.389 247.037 C 105.464 246.752,105.464 246.285,105.389 246.000 C 105.315 245.715,105.254 245.948,105.254 246.519 M294.587 246.519 C 294.587 247.089,294.648 247.322,294.723 247.037 C 294.797 246.752,294.797 246.285,294.723 246.000 C 294.648 245.715,294.587 245.948,294.587 246.519 M197.704 340.056 C 197.989 340.131,198.456 340.131,198.741 340.056 C 199.026 339.982,198.793 339.921,198.222 339.921 C 197.652 339.921,197.419 339.982,197.704 340.056 M201.259 340.056 C 201.544 340.131,202.011 340.131,202.296 340.056 C 202.581 339.982,202.348 339.921,201.778 339.921 C 201.207 339.921,200.974 339.982,201.259 340.056 M203.926 349.538 C 204.211 349.612,204.678 349.612,204.963 349.538 C 205.248 349.463,205.015 349.402,204.444 349.402 C 203.874 349.402,203.641 349.463,203.926 349.538 M196.966 349.839 C 197.335 349.910,197.868 349.907,198.152 349.833 C 198.435 349.759,198.133 349.701,197.481 349.704 C 196.830 349.708,196.598 349.768,196.966 349.839 M201.852 349.834 C 202.137 349.908,202.604 349.908,202.889 349.834 C 203.174 349.759,202.941 349.698,202.370 349.698 C 201.800 349.698,201.567 349.759,201.852 349.834 M199.333 350.135 C 199.700 350.206,200.300 350.206,200.667 350.135 C 201.033 350.064,200.733 350.007,200.000 350.007 C 199.267 350.007,198.967 350.064,199.333 350.135 " stroke="none" fill="#fab219" fill-rule="evenodd"></path><path id="path4" d="" stroke="none" fill="#fcb119" fill-rule="evenodd"></path></g></svg>